<?xml version="1.0" encoding="UTF-8"?>
<svg width="45px" height="45px" viewBox="0 0 45 45" version="1.1" xmlns="http://www.w3.org/2000/svg" xmlns:xlink="http://www.w3.org/1999/xlink">
    <title>Ico ingrediente/aceitunas</title>
    <defs>
        <filter color-interpolation-filters="auto" id="filter-1">
            <feColorMatrix in="SourceGraphic" type="matrix" values="0 0 0 0 0.949020 0 0 0 0 0.560784 0 0 0 0 0.113725 0 0 0 1.000000 0"></feColorMatrix>
        </filter>
        <polygon id="path-2" points="0 0 5.7265549 0 5.7265549 6.18336387 0 6.18336387"></polygon>
        <polygon id="path-4" points="0 0 2.80359436 0 2.80359436 11.3008577 0 11.3008577"></polygon>
    </defs>
    <g id="Desktop" stroke="none" stroke-width="1" fill="none" fill-rule="evenodd">
        <g id="06_Interna-recetas_op2-hover" transform="translate(-952.000000, -931.000000)">
            <g id="Ingredientes" transform="translate(185.000000, 842.000000)">
                <g id="Group-9" transform="translate(0.000000, 78.000000)">
                    <g id="Ico-ingrediente/aceitunas" transform="translate(767.000000, 11.000000)">
                        <g id="Oval" fill="#FCE6CD">
                            <circle cx="22.5" cy="22.5" r="22.5"></circle>
                        </g>
                        <g filter="url(#filter-1)">
                            <g transform="translate(14.000000, 11.000000)">
                                <path d="M11.2631668,22.1775801 C11.4774459,22.1876427 11.6784707,22.0367049 11.7049795,21.8052669 C11.7314882,21.5802977 11.5635994,21.3790472 11.2933573,21.3589222 C10.8986713,21.3294534 10.6004478,21.1346717 10.3383056,20.8730462 C9.80297593,20.3382951 9.48707987,19.682075 9.32950002,18.9640423 C9.21757415,18.455885 9.18296549,17.9304776 9.12847526,17.4108203 C9.09975744,17.139851 9.00182229,16.9766944 8.79417034,16.9350068 C8.49889221,16.8753505 8.27356775,17.0730071 8.27798587,17.405789 C8.29344932,18.3962286 8.46870167,19.3543243 8.90683257,20.2556387 C9.18296549,20.8234524 9.54230646,21.3316096 10.0570182,21.7204542 C10.3979503,21.9777672 10.7779092,22.1430801 11.2631668,22.1775801 M15.1452274,17.0219758 C15.119455,18.8166982 14.7984045,20.2218574 13.9133065,21.4645787 C13.7527812,21.6909854 13.5642744,21.9030171 13.3632497,22.0956425 C12.0871474,23.3132075 10.4340317,23.30027 9.17707465,22.0632987 C8.35235767,21.2511095 7.89508156,20.2462949 7.64693011,19.1480426 C7.23236256,17.3130701 7.39509689,15.5348789 8.25957701,13.8386254 C8.51067388,13.3462807 8.84056067,12.9064048 9.2507101,12.5261852 C10.4826311,11.3833704 12.0974564,11.3797766 13.326432,12.5290602 C14.1975393,13.3441244 14.6798514,14.371939 14.9250575,15.5039726 C15.0546558,16.1005364 15.1025189,16.7143501 15.1452274,17.0219758" id="Fill-1" fill="#1C6047"></path>
                                <path d="M3.10288682,15.0733686 C2.9511978,15.1689626 2.82969932,15.2192752 2.74354585,15.3040878 C2.13384437,15.9028078 1.6338597,16.5784342 1.28188227,17.3518108 C0.982186012,18.0080309 0.803988236,18.6915636 0.857005756,19.4175026 C0.892350769,19.9055348 1.03078541,20.3583483 1.3864446,20.7227553 C1.56685144,20.9089119 1.80101216,20.9247244 1.981419,20.7752241 C2.16035313,20.6264426 2.1883346,20.3856608 2.01970943,20.1951917 C1.76934892,19.9120036 1.68466815,19.5813779 1.68245909,19.2212834 C1.67804096,18.4479068 1.94460127,17.7492804 2.36579602,17.1153416 C2.6603378,16.6733094 3.02336054,16.2744023 3.36429265,15.8632765 C3.49168197,15.7101824 3.57120825,15.5441508 3.46001873,15.3738067 C3.38196515,15.2566502 3.23616697,15.1819001 3.10288682,15.0733686 M7.99228035,12.7230513 C7.40393314,13.5891468 6.99304736,14.5012424 6.78318634,15.4931195 C6.44667236,17.0887478 6.54387115,18.6606573 7.09024615,20.2002229 C7.15209992,20.3755983 7.11970033,20.460411 6.97905663,20.5696612 C6.00338699,21.325069 4.93346397,21.8813827 3.69049767,22.0783206 C3.13307735,22.166727 2.57639339,22.1602582 2.02780933,22.0114767 C0.901923377,21.7052885 0.13906017,20.8046929 0.0241888763,19.6676281 C-0.0987823164,18.4543756 0.256140527,17.3539671 0.883514516,16.3340587 C1.98730983,14.5422113 3.52776333,13.2693024 5.61753726,12.6943012 C6.34358274,12.4944883 7.08214625,12.4599882 7.8185007,12.6626761 C7.86930915,12.6763324 7.91790855,12.6964575 7.99228035,12.7230513" id="Fill-3" fill="#1C6047"></path>
                                <g id="Group-7" transform="translate(12.273445, 1.240548)">
                                    <mask id="mask-3" fill="white">
                                        <use xlink:href="#path-2"></use>
                                    </mask>
                                    <g id="Clip-6"></g>
                                    <path d="M0,6.18336387 C0.220906334,5.5681126 0.460957884,4.97945513 0.642101078,4.37354763 C0.893197944,3.53117089 0.921915768,2.6629191 0.837971361,1.79251105 C0.823244272,1.64085449 0.862271057,1.54022928 0.973460579,1.43888532 C1.76283255,0.721571344 2.71788426,0.340633058 3.76056216,0.158788932 C4.24950151,0.0739762574 4.74801347,0.0401949377 5.24431637,0.00210110905 C5.54622169,-0.0216176899 5.73546479,0.157351429 5.72662853,0.444133271 C5.69349258,1.49207293 5.51676752,2.50982503 5.05875505,3.47007702 C4.44463544,4.75592342 3.38207597,5.4983937 2.01540212,5.86495696 C1.61040718,5.97348843 1.19436691,6.04751984 0.779799359,6.11580123 C0.516920822,6.15964507 0.247415094,6.16323882 0,6.18336387" id="Fill-5" fill="#1C6047" mask="url(#mask-3)"></path>
                                </g>
                                <path d="M9.29739497,8.66993977 C8.09787357,8.67425228 6.97419669,8.50462693 5.93888234,7.94687578 C5.20105518,7.54940621 4.68487071,6.95427998 4.3439386,6.20821594 C3.98975211,5.43196434 3.83879945,4.61258764 3.80271809,3.76949215 C3.78946371,3.46617903 3.97355232,3.28577241 4.27987577,3.29799118 C5.15171943,3.33105375 5.99779069,3.48774157 6.79968068,3.83489854 C8.02129271,4.36318088 8.70094787,5.3198391 9.04261633,6.54243538 C9.2355412,7.23028055 9.30917664,7.93178199 9.29739497,8.66993977" id="Fill-8" fill="#1C6047"></path>
                                <g id="Group-12" transform="translate(9.507035, 0.000000)">
                                    <mask id="mask-5" fill="white">
                                        <use xlink:href="#path-4"></use>
                                    </mask>
                                    <g id="Clip-11"></g>
                                    <path d="M0,11.3008577 C0.0515448113,10.6769814 0.0979351414,10.0840114 0.153898079,9.49176021 C0.159052561,9.4385726 0.224588106,9.38107249 0.275396563,9.34369741 C0.522075303,9.16472829 0.639892014,8.92682155 0.639892014,8.62997719 C0.63915566,8.48838314 0.661246293,8.34103909 0.631055761,8.20447631 C0.541956873,7.80485048 0.701009434,7.4727873 0.902770552,7.15006788 C1.22676651,6.63256681 1.53161725,6.10787823 1.69876971,5.51634576 C2.07651954,4.17874925 1.97416627,2.84977776 1.63249781,1.52583752 C1.5566533,1.22971191 1.45282732,0.939336314 1.35636489,0.648241963 C1.25474798,0.340616328 1.32985613,0.12355338 1.57727123,0.0293969357 C1.81953184,-0.0618845027 2.0448563,0.0603032495 2.15383676,0.358585115 C2.76722001,2.03902608 3.03157126,3.75396712 2.56840431,5.509877 C2.42481519,6.05253437 2.19286354,6.58944172 1.91157614,7.07891148 C1.24370266,8.24185138 0.89246159,9.47379143 0.879943564,10.8034817 C0.87920721,10.8667318 0.848280323,10.9666383 0.801889993,10.9867633 C0.561102089,11.094576 0.310005222,11.1822637 0,11.3008577" id="Fill-10" fill="#1C6047" mask="url(#mask-5)"></path>
                                </g>
                            </g>
                        </g>
                    </g>
                </g>
            </g>
        </g>
    </g>
</svg>