<?xml version="1.0" encoding="UTF-8"?>
<svg width="45px" height="45px" viewBox="0 0 45 45" version="1.1" xmlns="http://www.w3.org/2000/svg" xmlns:xlink="http://www.w3.org/1999/xlink">
    <title>Ico ingrediente/aceite oliva</title>
    <defs>
        <filter color-interpolation-filters="auto" id="filter-1">
            <feColorMatrix in="SourceGraphic" type="matrix" values="0 0 0 0 0.949020 0 0 0 0 0.560784 0 0 0 0 0.113725 0 0 0 1.000000 0"></feColorMatrix>
        </filter>
        <polygon id="path-2" points="0 0 15 0 15 23 0 23"></polygon>
    </defs>
    <g id="Desktop" stroke="none" stroke-width="1" fill="none" fill-rule="evenodd">
        <g id="06_Interna-recetas_op2-hover" transform="translate(-185.000000, -1015.000000)">
            <g id="Ingredientes" transform="translate(185.000000, 842.000000)">
                <g id="Group-9" transform="translate(0.000000, 78.000000)">
                    <g id="Ico-ingrediente/aceite-oliva" transform="translate(0.000000, 95.000000)">
                        <g id="Oval" fill="#FCE6CD">
                            <circle cx="22.5" cy="22.5" r="22.5"></circle>
                        </g>
                        <g filter="url(#filter-1)">
                            <g transform="translate(15.000000, 11.000000)">
                                <mask id="mask-3" fill="white">
                                    <use xlink:href="#path-2"></use>
                                </mask>
                                <g id="Clip-2"></g>
                                <path d="M4.0563712,8.13884947 L9.55546905,8.13884947 C9.55546905,8.29312281 9.56353618,8.44048044 9.55439343,8.58677413 C9.51943584,9.13045464 9.64904783,9.64221654 9.96904423,10.072586 C10.4611395,10.7338334 10.997873,11.3631622 11.5243881,11.9988748 C11.5588079,12.040369 11.6760502,12.0494126 11.7389739,12.0281335 C12.7591977,11.6770287 13.4104845,10.9827986 13.5890371,9.92576029 C13.8751516,8.23620127 12.6021575,6.78496795 10.8634207,6.78284004 C8.61000068,6.77964818 6.35604283,6.78230806 4.10208498,6.78230806 C4.01173305,6.78230806 3.92138112,6.78230806 3.82618892,6.78230806 C3.70787092,6.50248815 3.60407377,6.22373219 3.47392397,5.9572117 C3.07648306,5.14647872 2.51931285,4.47246383 1.73142255,3.99794032 C1.43724099,3.82026 1.3253767,3.52660868 1.41572862,3.22870155 C1.50823178,2.92441069 1.75293491,2.74247455 2.09605711,2.74141059 C2.98075304,2.73768676 3.86544898,2.73981466 4.78671593,2.73981466 C4.78671593,2.66161404 4.78671593,2.5908611 4.78671593,2.52010815 C4.78671593,1.93652936 4.78617813,1.35295056 4.78725374,0.76937177 C4.78779155,0.271441276 5.05562047,0.00172892533 5.55201826,0.0011969483 C6.40659688,-0.000398982767 7.26117551,-0.000398982767 8.11629195,0.0011969483 C8.59870669,0.00226090235 8.87083809,0.273569184 8.87245151,0.755540367 C8.87406494,1.40614827 8.87245151,2.05622419 8.87245151,2.73981466 C9.08327267,2.73981466 9.28441327,2.73875071 9.48501606,2.74034664 C10.0233629,2.74407048 10.3094774,3.10847474 10.2003021,3.63194013 C10.0680011,4.2671207 9.94699406,4.90389719 9.81307959,5.58163592 C11.1452327,5.25819389 12.338631,5.47736843 13.4029552,6.27533396 C14.1252328,6.81688657 14.597967,7.53345962 14.8523507,8.39313449 C15.3180933,9.96778648 14.7211253,12.2345406 12.5010494,13.2053986 C12.7425257,13.6916256 13.0237998,14.1629573 13.2201001,14.6672715 C14.2145091,17.2282089 13.417476,20.003533 11.2086942,21.7611851 C10.6214066,22.2282609 9.98894316,22.619264 9.28279984,22.8825927 C9.10370942,22.9490898 8.90256882,22.9863282 8.71110879,22.9879241 C7.55374365,22.9969677 6.39637851,22.9783485 5.23955118,22.9996276 C4.79370745,23.0076073 4.38981283,22.9171712 3.99721221,22.7256594 C2.32623939,21.9112026 1.03764884,20.7195741 0.395504797,18.961922 C-0.323545942,16.993607 -0.0498011208,15.1018967 1.11455554,13.3745673 C1.69054906,12.5196803 2.40744857,11.7578892 3.04959261,10.9455602 C3.3098922,10.6167984 3.56104904,10.2773971 3.77993734,9.9209725 C4.068203,9.4533647 4.16608426,8.93575105 4.07788357,8.38887867 C4.06605177,8.31546584 4.06497615,8.24045708 4.0563712,8.13884947" id="Fill-1" fill="#1C6047" mask="url(#mask-3)"></path>
                            </g>
                        </g>
                    </g>
                </g>
            </g>
        </g>
    </g>
</svg>