<?xml version="1.0" encoding="UTF-8"?>
<svg width="137px" height="128px" viewBox="0 0 137 128" version="1.1" xmlns="http://www.w3.org/2000/svg" xmlns:xlink="http://www.w3.org/1999/xlink">
    <title>Group 4</title>
    <defs>
        <polygon id="path-1" points="0 0 65.8823529 0 65.8823529 24.4705882 0 24.4705882"></polygon>
        <polygon id="path-3" points="0 0 15.0588235 0 15.0588235 8.47058824 0 8.47058824"></polygon>
    </defs>
    <g id="⭐️-Simbolos" stroke="none" stroke-width="1" fill="none" fill-rule="evenodd">
        <g id="Transversales/Hero-MS" transform="translate(-309.000000, -421.000000)">
            <g id="Group" transform="translate(74.000000, 415.890118)">
                <g id="Group-4" transform="translate(235.000000, 5.998423)">
                    <path d="M20.037382,17.4914545 C7.54332474,32.303436 1.02115332,48.225351 0.470867736,65.2571995 C-1.68361297,78.1082986 3.55536326,91.9326002 16.1877964,106.730104 C35.1364462,128.926361 82.2872322,129.826372 94.017004,123.731389 C105.746776,117.636407 131.296439,116.314138 134.981904,90.7856689 C138.66737,65.2571995 135.966626,10.4409642 86.0113141,2.73175243 C58.3546363,-0.779015346 38.7784679,-4.72651781 20.037382,17.4914545 Z" id="Path-2" fill="#FBDFD7"></path>
                    <g id="ico_alimentación" transform="translate(36.000000, 32.111459)">
                        <g id="Group-3" transform="translate(0.000000, 39.529412)">
                            <mask id="mask-2" fill="white">
                                <use xlink:href="#path-1"></use>
                            </mask>
                            <g id="Clip-2"></g>
                            <path d="M25.529218,21.1713439 C24.8298337,21.1713439 24.2631988,20.5970833 24.2631988,19.8882869 C24.2631988,19.1799419 24.8298337,18.6052298 25.529218,18.6052298 C26.2286022,18.6052298 26.7952371,19.1799419 26.7952371,19.8882869 C26.7952371,20.5970833 26.2286022,21.1713439 25.529218,21.1713439 M22.1098081,18.9167391 C21.9775042,19.2824239 21.6367214,19.5090582 21.2736653,19.5090582 C21.1716532,19.5090582 21.0678592,19.4909997 20.966738,19.4530768 C10.2015662,15.4445394 5.66002321,6.18639354 5.47203585,5.79407245 C5.25732043,5.34531851 5.44174404,4.80491764 5.88409345,4.58731262 C6.32555191,4.36970759 6.85877672,4.55525876 7.07438308,5.0040127 C7.11759344,5.09340232 11.5116866,14.0084365 21.581038,17.7582858 C22.0429879,17.9298416 22.2795313,18.4490237 22.1098081,18.9167391 M45.105295,4.31101744 C35.7696289,5.07985844 26.4419813,5.01259049 17.136607,3.83156404 C11.5156958,3.11825295 5.97719619,2.00810614 0.597283061,0.170652905 C0.43067815,0.113768603 0.258282159,0.0731369594 -8.90935357e-05,0 C0.0747494761,0.297513927 0.121523582,0.513764566 0.182998122,0.725952041 C1.81563716,6.32138089 4.79715232,11.0752833 8.98855769,15.0445434 C14.8941227,20.6372635 21.9770587,23.6263981 29.9611759,24.3225536 C39.2055211,25.1279631 47.578977,22.6530445 54.8730648,16.7831263 C60.079691,12.5926494 63.7931095,7.30737546 65.7153026,0.801797777 C65.7767771,0.593673466 65.8133055,0.378325753 65.8823529,0.0735884221 C65.3304185,0.27629518 64.8911874,0.444690771 64.4470561,0.598639556 C58.1757621,2.77649568 51.6786161,3.76971365 45.105295,4.31101744" id="Fill-1" fill="#1E634A" mask="url(#mask-2)"></path>
                        </g>
                        <path d="M39.1728365,16.8150921 C38.2518911,18.3715402 36.9097654,19.1649084 35.1654435,19.3082119 C35.0647841,19.3168011 34.9658906,19.3502536 34.8669972,19.3755691 C33.9539985,19.6133535 33.6131692,20.0156883 33.5195736,20.9844564 C33.4957332,21.2330903 33.4899939,21.4848886 33.4926428,21.7348787 C33.505446,22.9147595 33.053803,23.8681574 32.212767,24.6664983 C30.8128064,25.9964635 30.7752798,26.2758376 31.6251456,28.0036171 C31.6617891,28.0782073 31.6966667,28.1537016 31.7359592,28.2269356 C32.3849476,29.4393648 32.506357,30.7001647 31.9156451,31.9528274 C31.3359705,33.1828871 31.6357413,34.1534634 32.4489635,35.1593005 C33.0749945,35.9341341 33.5412066,36.8536274 34.0215463,37.7414764 C34.5177796,38.6582574 34.9455822,39.6143677 35.4184166,40.584944 C35.5124537,40.4827781 35.5641078,40.445257 35.5905972,40.394174 C36.7954198,38.0954407 38.0050989,35.7994197 39.1874057,33.4880287 C39.2743789,33.3176014 39.2275811,33.0029666 39.1300121,32.8176213 C38.587864,31.7891811 38.0103968,30.7806316 37.4461742,29.7643971 C37.1441959,29.2196629 36.7940954,28.6943673 36.5680532,28.1184408 C36.4700427,27.8679986 36.5349415,27.4263344 36.7027072,27.2283314 C36.8457496,27.0592604 37.2616319,27.0303285 37.5181369,27.0963295 C37.7075355,27.1451521 37.865147,27.4285947 37.9843489,27.6388034 C38.7097149,28.9158775 39.4196287,30.2019928 40.1789893,31.5645065 C40.3237976,31.3167767 40.4319623,31.1472536 40.5251164,30.9695934 C41.1917644,29.7011085 41.8381039,28.4217741 42.5290337,27.1677552 C42.7502195,26.7667765 42.7232887,26.4697721 42.5012199,26.0850676 C41.6712211,24.6479637 40.8813978,23.1864485 40.0646437,21.7412075 C39.8028409,21.2782964 39.7741442,20.8646601 40.2407977,20.541436 C40.6341642,20.2683908 41.0765358,20.4505716 41.3860194,20.9989224 C41.8659177,21.8483461 42.3330127,22.7050029 42.8084961,23.556687 C43.0570542,24.0028718 43.3122347,24.4454401 43.6336384,25.0109692 C44.0353932,24.2456289 44.3784299,23.5919478 44.7214666,22.9382667 C45.2128436,22.0002388 45.6975982,21.0585945 46.1991293,20.1264434 C46.4216396,19.712355 46.7955806,19.6083808 47.1938034,19.8018632 C47.6105687,20.0048389 47.6829729,20.3908995 47.5315423,20.8153853 C47.4688509,20.9898811 47.366867,21.1499109 47.2803352,21.3153655 C46.1439432,23.4861654 45.0066683,25.6560611 43.8716009,27.8277652 C43.7691755,28.0235078 43.6804362,28.2264835 43.5400428,28.5212277 C44.0221485,28.4963643 44.4018288,28.4818983 44.7806261,28.4561308 C45.87905,28.3810886 46.9770324,28.296101 48.0754563,28.2269356 C48.6772055,28.1889624 49.0171518,28.4416648 49.0458485,28.9149733 C49.0741038,29.389186 48.7584394,29.7011085 48.1800892,29.7463147 C47.1024152,29.8308502 46.0238583,29.9004677 44.9466259,29.9859073 C44.1965366,30.0455795 43.3003145,29.8855496 42.7400653,30.254884 C42.1802576,30.6237663 41.948476,31.5238209 41.5886627,32.2001051 C41.0946369,33.1277356 40.6156216,34.0639552 40.0977554,35.0584907 C40.3282125,35.0584907 40.4668399,35.0666278 40.6050259,35.0571345 C41.9268431,34.9667222 43.2482188,34.8650084 44.570919,34.7845414 C45.2269712,34.7443079 45.5708909,34.9924897 45.6026781,35.4775518 C45.6335823,35.9589975 45.3161519,36.2587143 44.6711369,36.3084411 C43.045134,36.4345663 41.4169236,36.5344719 39.7918037,36.6768713 C39.54457,36.6985703 39.1957939,36.8237913 39.0893952,37.0150134 C38.3057527,38.4286101 37.5711155,39.8706867 36.7649571,41.4117647 C37.5790623,41.2996534 38.2814708,41.1974875 38.9856453,41.1066231 C40.3132019,40.9348397 41.6244233,40.5600806 42.985533,40.8588933 C44.1643079,41.1179247 45.098498,40.7617001 45.7452789,39.6568615 C46.4931608,38.3797874 47.6410315,37.7780934 49.0789602,37.6302693 C51.0828774,37.4241292 51.2630048,37.2347154 51.5919139,35.1968216 C51.7649775,34.1258876 52.2691576,33.299519 53.1137255,32.6562353 C54.872175,31.3154205 54.8982228,31.1879392 54.0253997,29.1446206 C53.9927295,29.0682222 53.9596179,28.9918238 53.9260647,28.9158775 C53.4589697,27.8512724 53.3808262,26.7509544 53.877501,25.7017194 C54.5220745,24.3396577 54.2245111,23.2501892 53.1689116,22.2891062 C52.9870182,22.1227475 52.8298482,21.927909 52.6594336,21.7484405 C51.841355,20.886359 51.4400418,19.859275 51.3791163,18.6536267 C51.2334251,15.7771586 48.0754563,14.1022703 45.7112843,15.6451566 C44.8221261,16.2251517 43.8795477,16.4285794 42.850879,16.2753305 C42.2455979,16.1849182 41.6438488,16.0678342 41.0368019,15.9968606 C40.2721434,15.9078044 39.5812136,16.124794 39.1728365,16.8150921" id="Fill-4" fill="#1E634A"></path>
                        <path d="M31.4661034,9.46375891 C32.0780079,10.9504307 32.6533408,12.3481758 33.2603393,13.8229906 C31.662341,14.0382388 30.2686081,13.7422726 28.893607,12.9136583 C29.7476865,11.7685562 30.5723304,10.662673 31.4661034,9.46375891 M32.5601279,8.56354723 C33.9614427,9.65346917 35.3623115,10.7433911 36.8135777,11.872532 C36.1494919,12.6062912 35.4011131,13.1179616 34.4435628,13.4809649 C33.775017,11.8533786 33.1158371,10.2485939 32.4566572,8.64380927 C32.4909988,8.61735928 32.5257864,8.59045326 32.5601279,8.56354723 M33.7009819,7.49916321 C35.1424362,7.6838571 36.5821065,7.88223201 38.0253448,8.0537009 C38.3785725,8.09565606 38.496761,8.2424991 38.3964123,8.57722826 C38.170739,9.32740466 37.9383759,10.0753009 37.6676572,10.9586393 C36.1147043,9.75425275 34.7156195,8.66889115 33.204144,7.49688304 C33.4628209,7.49688304 33.5836854,7.48411408 33.7009819,7.49916321 M36.4117366,2.8129549 C37.5708764,3.89284409 38.2064186,5.19436594 38.4512696,6.85205056 C36.9161564,6.65367565 35.4452665,6.46350935 33.8508361,6.25692582 C34.7455011,5.05436341 35.5625631,3.95532079 36.4117366,2.8129549 M26.8224084,15.1391056 C28.489536,16.3466844 30.3421972,16.9659789 32.3888661,16.9349686 C32.6863444,16.9349686 32.9847147,16.9518419 33.2804091,16.9299522 C33.5591557,16.9094307 33.8392402,16.8651953 34.1121889,16.8022626 C37.8255393,15.9503906 40.3008089,13.6866364 41.1486445,9.88057425 C42.0040619,6.04030954 40.7418974,2.83165231 37.8259853,0.293821515 C37.3220115,-0.144883467 37.0472788,-0.0938076267 36.6369639,0.457081789 C33.3027088,4.93260226 29.9697918,9.4090348 26.6382127,13.8868354 C26.2136259,14.4573343 26.2533194,14.7268506 26.8224084,15.1391056" id="Fill-6" fill="#1E634A"></path>
                        <path d="M6.17665036,33.2111165 C6.61579518,33.311365 6.75913622,33.6429907 6.74567085,34.0927664 C6.72655871,34.7461718 6.72873054,35.4009199 6.74827705,36.0543254 C6.76217679,36.5045486 6.61579518,36.8361743 6.1775191,36.9359752 C5.7040593,37.0438319 5.39218395,36.7985811 5.2987951,36.326876 C5.21148737,35.8856036 5.18585973,35.4313525 5.13851375,35.0245405 C5.1928096,34.5899811 5.21583104,34.1970427 5.29575453,33.8170829 C5.39565889,33.3453779 5.7040593,33.1032598 6.17665036,33.2111165 M6.13755735,31.8009243 C6.53196239,30.872283 7.22086811,30.1888924 8.10654198,29.730166 C8.15736289,29.7042088 8.22425538,29.7118169 8.42102353,29.6845171 C8.55133356,29.7959541 8.86451202,29.9351384 8.92445463,30.1490616 C8.99308458,30.3965501 8.92402026,30.7827754 8.76504202,30.9810347 C8.33501891,31.5158426 7.85504361,32.021113 7.33250037,32.4583576 C7.13269165,32.6252893 6.69484994,32.7045035 6.48852571,32.5899338 C6.28176712,32.4749165 6.0571995,31.9902329 6.13755735,31.8009243 M11.344312,32.0819781 C12.920629,32.1021174 14.2098296,33.4380183 14.2146206,35.0567632 C14.2193857,36.697885 12.8971732,38.057953 11.301744,38.0530434 C9.6989306,38.0481071 8.39583026,36.6938572 8.40668943,35.0437846 C8.4175486,33.3946071 9.73932672,32.0618389 11.344312,32.0819781 M10.154147,28.8704455 C10.9242793,28.8270343 11.7000584,28.8270343 12.4697563,28.8722357 C12.9297507,28.8995355 13.2055736,29.2320562 13.1317313,29.7189775 C13.0596264,30.1978432 12.7238609,30.3974451 12.2530073,30.265869 C11.6197005,30.2949589 10.9863937,30.3173358 10.3535213,30.3562716 C9.88570832,30.3853616 9.5538521,30.1965006 9.48609088,29.712712 C9.4178953,29.2231054 9.6937182,28.8964027 10.154147,28.8704455 M13.7515727,30.0577638 C13.8488708,29.8617422 14.3523019,29.6751188 14.5455952,29.7686543 C15.4138944,30.190235 16.0637071,30.8883943 16.5006801,31.7803375 C16.5267421,31.833147 16.5241359,31.9007253 16.5580165,32.0891388 C16.4385656,32.2350361 16.3017401,32.5545783 16.0906378,32.6194713 C15.8526048,32.693315 15.4764432,32.627527 15.2866249,32.4655182 C14.767991,32.021113 14.2736816,31.5292687 13.8579926,30.9841674 C13.6911957,30.7653214 13.6338593,30.2954065 13.7515727,30.0577638 M17.3350986,33.8931644 C17.400688,34.2758094 17.4215376,34.6669576 17.4623681,35.054078 C17.4228407,35.4465688 17.4011224,35.8368219 17.340311,36.2208095 C17.2625594,36.7090735 16.9975957,37.0317484 16.4811336,36.939108 C15.9755306,36.8482578 15.8491299,36.4745636 15.8777981,35.973321 C15.9129818,35.3633267 15.9042945,34.7484095 15.8751919,34.1375202 C15.8526048,33.664025 15.9824805,33.3077847 16.4550715,33.2093264 C16.96719,33.1028123 17.2503971,33.39953 17.3350986,33.8931644 M16.4598496,38.3833131 C16.0732631,39.2734662 15.3869636,39.9094177 14.5677479,40.3896259 C14.5021585,40.4281142 14.4126789,40.4236388 14.2163451,40.4621271 C14.0803883,40.3524803 13.7911001,40.2329876 13.7176921,40.0307005 C13.6338593,39.7993233 13.6421123,39.4063849 13.7837158,39.235873 C14.2745503,38.6433327 14.8122964,38.0816725 15.3947822,37.5866955 C15.5620134,37.4448259 16.0159267,37.4604898 16.200967,37.5992265 C16.3851385,37.7370682 16.5449855,38.1872915 16.4598496,38.3833131 M8.01793116,40.3502426 C7.33945024,39.8055888 6.74263028,39.1383097 6.18750953,38.4567093 C6.0741398,38.3179725 6.20879351,37.7737663 6.39035882,37.6242887 C6.5736616,37.4734684 7.05841493,37.4524341 7.23433348,37.5992265 C7.81638497,38.0861479 8.32546284,38.6679473 8.84626861,39.2287124 C8.9470417,39.3374641 8.97484118,39.5178219 9.00092743,39.5800297 C9.00524685,40.2253795 8.42493283,40.6769453 8.01793116,40.3502426 M3.89361855,30.919722 C2.37985031,33.8103699 2.49191694,36.7533797 4.10428644,39.5988263 C4.25414298,39.8628737 4.58513047,40.1233408 4.87181255,40.1833109 C6.5580244,40.5382085 8.24597372,40.8850505 9.93479177,41.227417 C9.61683528,41.1155325 9.42918883,40.8362688 9.48782835,40.4209536 C9.5616707,39.9027046 9.92480133,39.7223468 10.4138983,39.7917152 C10.5720078,39.8140921 10.7305517,39.8293084 10.8890956,39.8476574 C10.8903987,39.8624262 10.8917018,39.8771949 10.8930049,39.8915161 C11.3486556,39.8557131 11.8051751,39.8243854 12.2603915,39.7823169 C12.7316795,39.7384581 13.0596264,39.9420879 13.1312969,40.4191634 C13.2047049,40.90877 12.9154166,41.238158 12.4662814,41.2703807 C11.7169987,41.3245328 10.9598974,41.3214 10.2093116,41.2824642 C10.2027961,41.2820167 10.1967149,41.2806741 10.1906338,41.2802265 C11.9715376,41.6400471 13.7533102,41.9944972 15.5359514,42.3440243 C15.7527005,42.3865404 16.0476355,42.2706281 16.2404944,42.1318913 C19.187673,40.0083236 20.4842578,35.9478113 19.3666321,32.3961498 C18.2472689,28.8377752 14.8822294,26.3100806 10.8243749,26.3534918 C8.04790246,26.5052072 5.46342011,27.921665 3.89361855,30.919722" id="Fill-8" fill="#1E634A"></path>
                        <path d="M10.3852824,40.4794294 C10.3656824,40.4755294 10.3460824,40.4715294 10.3264824,40.4676294 C10.3444824,40.4738294 10.3639824,40.4780294 10.3852824,40.4794294" id="Fill-10" fill="#1E634A"></path>
                        <path d="M18.1858303,25.563754 C18.4697271,26.4048534 18.7802808,26.5450367 19.6226413,26.2085969 C20.4139092,25.8921833 21.2038443,25.5726546 22.0573119,25.2295394 C22.1479456,25.6167121 22.211478,25.9135446 22.2874504,26.2068168 C22.6433211,27.5806125 23.0009688,28.9593035 23.8406636,30.1346175 C24.5097537,31.0709525 25.3676641,31.2756645 26.505917,30.8399839 C27.7236965,30.3735965 28.2541704,29.6864762 28.0875643,28.5294082 C27.9813806,27.7906648 27.7276951,27.0537015 27.4251384,26.3670262 C27.022618,25.4538326 26.5081384,24.5900369 26.0074315,23.6399061 C26.8209136,23.3110317 27.6343957,22.9879428 28.4438792,22.6541732 C29.2027145,22.3413198 29.338665,21.9946444 29.0050085,21.2652466 C27.7383579,18.497184 24.3991273,17.1536501 21.5908148,18.2822364 C18.6927571,19.4468698 17.1990778,22.6408224 18.1858303,25.563754" id="Fill-12" fill="#1E634A"></path>
                        <path d="M58.1701292,30.1770386 C57.9443454,30.9604863 58.3536329,31.5143028 59.175259,31.8351111 C59.9986286,32.1571858 60.6515707,32.0174653 61.0996511,31.3273053 C61.3929956,30.8756409 61.6004726,30.3644582 61.7935656,29.8608735 C61.9744541,29.3881034 62.0860383,28.8904283 62.2394666,28.3636273 C62.7555437,28.562444 63.2402377,28.7540848 63.7288546,28.9351727 C64.2689049,29.1352557 64.5343533,29.0149526 64.7265746,28.4982824 C65.4148226,26.648569 64.3905143,24.5067513 62.4704809,23.7811335 C60.5469605,23.0538273 58.2904309,23.9588445 57.5075978,25.7714115 C57.3084025,26.2323624 57.412141,26.4999841 57.8902968,26.6950018 C58.3889389,26.8980397 58.8954267,27.0837709 59.4489891,27.2965175 C59.3317385,27.4936457 59.228,27.6320999 59.1617469,27.7857502 C58.8187125,28.5789066 58.4072457,29.3547562 58.1701292,30.1770386" id="Fill-14" fill="#1E634A"></path>
                        <path d="M28.0215518,42.1944087 C26.6962205,42.1159152 25.3570789,41.6374786 24.2736484,40.5343644 C23.0035577,39.2415575 22.7433918,37.4362067 23.5996227,36.0639719 C24.4638724,34.6781876 26.1166386,34.2109643 27.7627224,34.9113321 C29.0889447,35.476205 30.098424,36.4330783 30.7626489,37.7613941 C31.9570064,40.1493724 30.7501752,42.2107615 28.0215518,42.1944087 M28.6416732,33.915212 C26.4921862,34.0792074 24.3373534,34.1633076 22.1241614,34.283384 C22.1018869,37.549742 20.9948454,40.2063736 18.8235294,42.4579227 C19.1117611,42.5121206 19.289957,42.5583757 19.4708257,42.577999 C24.2237535,43.0933463 28.9896006,43.3264907 33.7674758,43.2905146 C34.7497802,43.283039 35.0442488,42.8816942 34.6615733,41.9126731 C33.7260453,39.5433838 32.7700248,37.1792339 31.1061213,35.2337161 C30.7648764,33.802144 29.7558426,33.8306446 28.6416732,33.915212" id="Fill-16" fill="#1E634A"></path>
                        <path d="M55.2811904,36.0686744 C54.6967704,35.9650999 54.1545436,35.869181 53.565635,35.7647059 C53.5077317,36.0434562 53.4619476,36.2614129 53.4175102,36.4802702 C53.1284422,37.9136504 52.2935566,38.8147481 50.8486658,39.101154 C50.3612003,39.1975232 49.866553,39.2610189 49.3732522,39.3236138 C48.5904347,39.4231354 47.9328501,39.7361103 47.529322,40.4426682 C46.462374,42.3106108 44.8338982,42.8235294 42.8113203,42.4907402 C42.2870481,42.4042781 41.7362928,42.4114833 41.2043899,42.4574163 C40.3811747,42.5290177 39.562897,42.6618632 38.7446193,42.7848016 C38.0632448,42.887025 37.3854613,43.0117647 36.7058824,43.1265972 C36.7162062,43.1824374 36.7260812,43.2382775 36.7364051,43.2941176 C46.3178401,42.950971 55.820724,42.1160709 64.9411765,38.8003377 C64.3917678,38.5004222 63.8392172,38.3243456 63.3055188,38.103687 C62.9123146,37.9406699 62.6551159,37.9983113 62.3328321,38.3157895 C61.1361627,39.4947368 59.6562605,40.063946 57.9909778,40.0112581 C55.3651278,39.9279482 54.6267478,37.9537292 55.2556052,36.3343653 C55.2767018,36.2798762 55.2681734,36.2132283 55.2811904,36.0686744" id="Fill-18" fill="#1E634A"></path>
                        <path d="M14.5258154,19.7643531 C16.1307143,19.740629 17.9805125,18.4799197 18.5809511,16.9857149 C19.0222672,15.88608 18.8689461,14.8726013 18.059245,13.9981377 C17.305071,13.1836088 16.1398307,12.9625997 15.0500078,13.389218 C13.5176256,13.988981 12.2554201,15.8228157 12.2355298,17.4768463 C12.2185401,18.8836463 13.1214771,19.7851638 14.5258154,19.7643531" id="Fill-20" fill="#1E634A"></path>
                        <path d="M6.08282414,23.1091828 C7.45973528,22.303392 8.26618461,21.0748598 8.45126354,19.4862323 C8.6230206,18.011898 7.63862905,16.9440458 5.94579912,16.9411765 C4.48229579,17.0583389 3.16866357,17.8435666 2.3046447,19.3145534 C1.61428601,20.4890474 1.792704,21.8438282 2.67670569,22.7347412 C3.55594956,23.6213502 4.91097476,23.794942 6.08282414,23.1091828" id="Fill-22" fill="#1E634A"></path>
                        <path d="M55.5577895,37.1111051 C55.4328907,37.8847948 55.716623,38.3219531 56.4815692,38.496152 C56.733252,38.5531107 56.9962465,38.5611799 57.2220069,38.5882353 C58.6703616,38.4453638 59.9372595,38.0063068 60.7974115,36.7873895 C61.2300798,36.1746083 61.3172733,35.4949006 60.9289087,34.8137689 C60.5471426,34.1430797 59.9546982,33.8549633 59.1921086,33.884392 C57.7036921,33.9423001 55.7962755,35.6306523 55.5577895,37.1111051" id="Fill-24" fill="#1E634A"></path>
                        <path d="M1.88235294,39.5294118 C1.77057498,39.1261156 1.70362938,38.8843204 1.62123478,38.5882353 C1.37738314,38.7032021 1.1592798,38.805851 0.941176471,38.9089561 L0.949658267,39.0804939 C1.22804294,39.2146218 1.50673053,39.3487497 1.88235294,39.5294118" id="Fill-26" fill="#1E634A"></path>
                        <path d="M11.7457083,35.7644796 C12.5222963,35.7782265 13.1587871,35.1639104 13.176083,34.3842014 C13.1942438,33.5696954 12.5720221,32.9364772 11.7582479,32.9411765 C10.9717147,32.9454987 10.3564114,33.5593852 10.3529412,34.3421014 C10.3499254,35.1188032 10.9686879,35.7507327 11.7457083,35.7644796" id="Fill-28" fill="#1E634A"></path>
                        <path d="M26.4758051,36.7690171 C25.6635719,36.57349 25.0278048,36.8401905 24.6760952,37.4571606 C24.3129744,38.094523 24.4299392,38.7898638 25.0359557,39.3680483 C25.782982,40.0801828 26.697101,40.4244545 27.5720958,40.4696376 C29.0906011,40.5000263 29.5421587,39.7998873 28.8799013,38.6463173 C28.3419446,37.7098664 27.5610922,37.0305196 26.4758051,36.7690171" id="Fill-30" fill="#1E634A"></path>
                        <g id="Group-34" transform="translate(54.588235, 8.470588)">
                            <mask id="mask-4" fill="white">
                                <use xlink:href="#path-3"></use>
                            </mask>
                            <g id="Clip-33"></g>
                            <path d="M7.45493681,0.611572867 C1.80026744,1.99745012 0,6.95162162 0,6.95162162 C1.61511959,7.33205851 6.59003808,5.12798718 6.59003808,5.12798718 C4.65539619,6.73210613 0.262183369,7.67130971 0.262183369,7.67130971 C0.262183369,7.67130971 2.19857607,9.24315946 7.88213375,7.97829172 C13.5656914,6.71342397 15.0591299,0.628556657 15.0591299,0.628556657 C15.0591299,0.628556657 13.1100439,-0.774304385 7.45493681,0.611572867" id="Fill-32" fill="#1E634A" mask="url(#mask-4)"></path>
                        </g>
                        <path d="M46.1176471,0.941176471 C46.1176471,1.46109353 45.6964853,1.88235294 45.1766888,1.88235294 C44.6568923,1.88235294 44.2352941,1.46109353 44.2352941,0.941176471 C44.2352941,0.421259413 44.6568923,0 45.1766888,0 C45.6964853,0 46.1176471,0.421259413 46.1176471,0.941176471" id="Fill-35" fill="#1E634A"></path>
                        <path d="M48.9411765,4.23529412 C48.9411765,4.49522373 48.7305178,4.70588235 48.4705882,4.70588235 C48.2106586,4.70588235 48,4.49522373 48,4.23529412 C48,3.9753645 48.2106586,3.76470588 48.4705882,3.76470588 C48.7305178,3.76470588 48.9411765,3.9753645 48.9411765,4.23529412" id="Fill-37" fill="#1E634A"></path>
                        <path d="M45.1764706,5.64705882 C45.1764706,6.16704374 44.754902,6.58823529 44.2352941,6.58823529 C43.7153092,6.58823529 43.2941176,6.16704374 43.2941176,5.64705882 C43.2941176,5.12707391 43.7153092,4.70588235 44.2352941,4.70588235 C44.754902,4.70588235 45.1764706,5.12707391 45.1764706,5.64705882" id="Fill-39" fill="#1E634A"></path>
                        <path d="M9.41176471,15.5294118 C9.41176471,15.7892518 9.20101655,16 8.94117647,16 C8.68133639,16 8.47058824,15.7892518 8.47058824,15.5294118 C8.47058824,15.2695717 8.68133639,15.0588235 8.94117647,15.0588235 C9.20101655,15.0588235 9.41176471,15.2695717 9.41176471,15.5294118" id="Fill-41" fill="#1E634A"></path>
                        <path d="M10.3529412,10.8235294 C10.3529412,11.6032096 9.72075177,12.2352941 8.94094215,12.2352941 C8.16160117,12.2352941 7.52941176,11.6032096 7.52941176,10.8235294 C7.52941176,10.0438492 8.16160117,9.41176471 8.94094215,9.41176471 C9.72075177,9.41176471 10.3529412,10.0438492 10.3529412,10.8235294" id="Fill-43" fill="#1E634A"></path>
                        <path d="M14.1176471,11.7647059 C14.1176471,12.0245033 13.9071001,12.2352941 13.6469017,12.2352941 C13.3870176,12.2352941 13.1764706,12.0245033 13.1764706,11.7647059 C13.1764706,11.5049085 13.3870176,11.2941176 13.6469017,11.2941176 C13.9071001,11.2941176 14.1176471,11.5049085 14.1176471,11.7647059" id="Fill-45" fill="#1E634A"></path>
                        <path d="M58.3529412,19.2941176 C58.3529412,19.5540616 58.1421966,19.7647059 57.8821287,19.7647059 C57.6225093,19.7647059 57.4117647,19.5540616 57.4117647,19.2941176 C57.4117647,19.0341737 57.6225093,18.8235294 57.8821287,18.8235294 C58.1421966,18.8235294 58.3529412,19.0341737 58.3529412,19.2941176" id="Fill-47" fill="#1E634A"></path>
                        <path d="M64,19.7647059 C64,20.2843765 63.5784942,20.7058824 63.0588235,20.7058824 C62.5387224,20.7058824 62.1176471,20.2843765 62.1176471,19.7647059 C62.1176471,19.2450353 62.5387224,18.8235294 63.0588235,18.8235294 C63.5784942,18.8235294 64,19.2450353 64,19.7647059" id="Fill-49" fill="#1E634A"></path>
                        <path d="M66.8235294,17.4117647 C66.8235294,17.6719208 66.6127886,17.8823529 66.35314,17.8823529 C66.0930938,17.8823529 65.8823529,17.6719208 65.8823529,17.4117647 C65.8823529,17.1516086 66.0930938,16.9411765 66.35314,16.9411765 C66.6127886,16.9411765 66.8235294,17.1516086 66.8235294,17.4117647" id="Fill-51" fill="#1E634A"></path>
                    </g>
                </g>
            </g>
        </g>
    </g>
</svg>