<?xml version="1.0" encoding="UTF-8"?>
<svg width="128px" height="139px" viewBox="0 0 128 139" version="1.1" xmlns="http://www.w3.org/2000/svg" xmlns:xlink="http://www.w3.org/1999/xlink">
    <title>Group 5</title>
    <defs>
        <polygon id="path-1" points="0 0 11.0673947 0 11.0673947 15.593735 0 15.593735"></polygon>
        <polygon id="path-3" points="0 0 4.01822842 0 4.01822842 4.01924724 0 4.01924724"></polygon>
    </defs>
    <g id="⭐️-Simbolos" stroke="none" stroke-width="1" fill="none" fill-rule="evenodd">
        <g id="Transversales/Hero-MS" transform="translate(-554.000000, -387.000000)">
            <g id="Group" transform="translate(74.000000, 387.890118)">
                <g id="Group-5" transform="translate(480.066678, 0.000000)">
                    <path d="M106.847832,26.9845814 C94.7458062,8.99486045 81.1168822,0 65.9610596,0 C43.2273258,0 0,23.4519674 0,61.1276057 C0,98.803244 22.7361246,143.463313 77.0876552,137.408643 C131.439186,131.353973 131.439186,70.7765654 122.911346,55.995994 C117.22612,46.1422797 111.871615,36.4718088 106.847832,26.9845814 Z" id="Path-5" fill="#DDECED"></path>
                    <g id="ico_aprende" transform="translate(35.933322, 37.109882)">
                        <path d="M35.4805593,31.3508094 C35.3949885,30.7452959 35.3546341,30.1290827 35.2175264,29.5357282 C34.1128855,24.7601971 31.1879209,21.7102577 26.4742355,20.3912598 C25.4274521,20.0984734 24.4535984,20.6597284 24.1414596,21.6684311 C23.8059833,22.753978 24.3753206,23.7334993 25.5023266,24.153711 C26.3726202,24.4785969 27.2842407,24.7835422 28.0456261,25.2942162 C30.2850521,26.7955976 31.505408,28.9365374 31.6673117,31.6513775 C31.7115557,32.3935569 31.9833402,33.0175519 32.6504032,33.3896143 C33.292184,33.7475725 33.9704296,33.7446543 34.5898453,33.3473014 C35.3055281,32.8876948 35.5393892,32.1824784 35.4805593,31.3508094 M24.1497249,52.6308364 C22.3449596,52.6308364 20.5401942,52.6318091 18.7349426,52.6303501 C17.4970836,52.628891 16.904895,52.1989522 16.5096164,51.0185658 C16.0234188,49.5653336 15.5503485,48.1077242 15.0442169,46.6617874 C14.9620495,46.4268774 14.7797254,46.1807811 14.57455,46.0421696 C10.6241948,43.3662381 8.15868692,39.6874402 7.31610653,35.0009123 C6.45748162,30.2205177 7.38854997,25.7479865 10.2527398,21.8109334 C14.0066713,16.649722 19.2050957,14.3215351 25.5222607,14.7621737 C29.9301278,15.0700372 33.7059381,16.9449401 36.6994566,20.2550801 C39.9521183,23.8516839 41.413142,28.1330771 41.1243406,32.9266033 C40.7981021,38.3431518 38.3578765,42.6814486 33.895069,45.8208776 C33.4511706,46.1326319 33.1745242,46.4784311 33.023803,47.0002913 C32.6319277,48.3572249 32.1928913,49.701027 31.7674684,51.0482335 C31.4203234,52.1469121 30.7775702,52.6240274 29.6150718,52.628891 C27.7932895,52.6357 25.9715072,52.6308364 24.1497249,52.6308364" id="Fill-1" fill="#1E634A"></path>
                        <path d="M24.1234217,54.5192115 C25.9622209,54.5196978 27.8015063,54.5080253 29.6403055,54.5235887 C30.9214361,54.5347749 31.763044,55.4311292 31.6624011,56.6319426 C31.578289,57.6314045 30.7143159,58.3332164 29.5318834,58.3371072 C27.3862935,58.3444026 25.2407037,58.339539 23.0951138,58.339539 C21.5966529,58.339539 20.098192,58.3492662 18.5997311,58.3361345 C17.4566806,58.3259211 16.606321,57.6090321 16.5270708,56.6256199 C16.4317761,55.4447472 17.260743,54.5415838 18.5044364,54.5250477 C20.1045126,54.5041344 21.7055611,54.5192115 23.3061235,54.5187251 C23.5783942,54.5187251 23.851151,54.5187251 24.1234217,54.5192115" id="Fill-3" fill="#1E634A"></path>
                        <path d="M24.053944,63.9901707 C23.3902843,63.9896843 22.7261385,64.0071932 22.062965,63.9853071 C21.1367586,63.9546667 20.4016279,63.2280506 20.3218915,62.2995967 C20.2387517,61.3327207 20.8323989,60.4859746 21.7425608,60.2753824 C21.8252144,60.2564145 21.9093265,60.2301513 21.9929525,60.2296649 C23.3883395,60.2262604 24.784699,60.1927019 26.1781412,60.2389057 C27.0387109,60.2671144 27.6464579,60.8697096 27.8438541,61.7218056 C28.0130508,62.4527989 27.6751435,63.3155947 27.0046771,63.7075978 C26.7377546,63.8632318 26.4047093,63.960503 26.0954876,63.9784982 C25.417242,64.0183794 24.7346206,63.9906571 24.053944,63.9901707" id="Fill-5" fill="#1E634A"></path>
                        <g id="Group-9" transform="translate(38.459998, 0.000000)">
                            <mask id="mask-2" fill="white">
                                <use xlink:href="#path-1"></use>
                            </mask>
                            <g id="Clip-8"></g>
                            <path d="M3.32630105,4.4851278 C-1.14477179,9.17554652 0.184978564,15.0439199 0.184978564,15.0439199 C1.93528981,14.4564016 5.26817414,9.3754389 5.26817414,9.3754389 C4.42753855,12.0756883 0.870517136,15.586207 0.870517136,15.586207 C0.870517136,15.586207 3.64913624,15.9636193 8.22085197,11.3738763 C12.7925677,6.78364697 10.4850741,0.000924076688 10.4850741,0.000924076688 C10.4850741,0.000924076688 7.79737389,-0.205290932 3.32630105,4.4851278" id="Fill-7" fill="#1E634A" mask="url(#mask-2)"></path>
                        </g>
                        <path d="M51.1594098,14.8673239 C46.3227164,15.068189 43.9938301,18.9133208 43.9938301,18.9133208 C45.2394682,19.5061889 49.6667833,18.5042952 49.6667833,18.5042952 C47.8143706,19.5193205 44.0808594,19.5606608 44.0808594,19.5606608 C44.0808594,19.5606608 45.3790069,21.2060037 50.2176451,21.1111642 C55.0562833,21.0168111 57.334119,16.1727038 57.334119,16.1727038 C57.334119,16.1727038 55.9961032,14.6664588 51.1594098,14.8673239" id="Fill-10" fill="#1E634A"></path>
                        <path d="M54.6949899,26.2964503 C49.1008007,23.9317867 44.398784,27.0449524 44.398784,27.0449524 C45.4941871,28.3848636 51.0533701,29.6216673 51.0533701,29.6216673 C48.4079692,29.7807058 44.1508233,27.8260404 44.1508233,27.8260404 C44.1508233,27.8260404 44.7420395,30.3881646 50.2817746,32.8749036 C55.8215097,35.3611563 61,31.0870584 61,31.0870584 C61,31.0870584 60.2891792,28.6611139 54.6949899,26.2964503" id="Fill-12" fill="#1E634A"></path>
                        <path d="M55.4133468,6.63842102 C55.4133468,7.42242714 54.7778866,8.05760827 53.9946223,8.05760827 C53.2108719,8.05760827 52.5754116,7.42242714 52.5754116,6.63842102 C52.5754116,5.85441491 53.2108719,5.21923377 53.9946223,5.21923377 C54.7778866,5.21923377 55.4133468,5.85441491 55.4133468,6.63842102" id="Fill-14" fill="#1E634A"></path>
                        <path d="M5.1622513,44.5177835 C5.1622513,45.3017897 4.52679108,45.9369708 3.7435268,45.9369708 C2.95977632,45.9369708 2.3243161,45.3017897 2.3243161,44.5177835 C2.3243161,43.7337774 2.95977632,43.0985963 3.7435268,43.0985963 C4.52679108,43.0985963 5.1622513,43.7337774 5.1622513,44.5177835" id="Fill-16" fill="#1E634A"></path>
                        <path d="M8.51220117,48.9897311 C8.51220117,49.4050792 8.17575245,49.7416377 7.76053973,49.7416377 C7.3458132,49.7416377 7.00887829,49.4050792 7.00887829,48.9897311 C7.00887829,48.5743829 7.3458132,48.2378245 7.76053973,48.2378245 C8.17575245,48.2378245 8.51220117,48.5743829 8.51220117,48.9897311" id="Fill-18" fill="#1E634A"></path>
                        <path d="M51.4154415,11.7871332 C51.4154415,12.2024813 51.0789928,12.5390398 50.66378,12.5390398 C50.2490535,12.5390398 49.9121186,12.2024813 49.9121186,11.7871332 C49.9121186,11.371785 50.2490535,11.0352265 50.66378,11.0352265 C51.0789928,11.0352265 51.4154415,11.371785 51.4154415,11.7871332" id="Fill-20" fill="#1E634A"></path>
                        <path d="M33.6793918,6.01544743 C33.6793918,7.12531217 32.7799263,8.02507105 31.6704234,8.02507105 C30.5609206,8.02507105 29.6609689,7.12531217 29.6609689,6.01544743 C29.6609689,4.90558269 30.5609206,4.00582381 31.6704234,4.00582381 C32.7799263,4.00582381 33.6793918,4.90558269 33.6793918,6.01544743" id="Fill-22" fill="#1E634A"></path>
                        <g id="Group-26" transform="translate(0.000000, 51.068174)">
                            <mask id="mask-4" fill="white">
                                <use xlink:href="#path-3"></use>
                            </mask>
                            <g id="Clip-25"></g>
                            <path d="M4.01822842,2.00962362 C4.01822842,3.11948836 3.11876292,4.01924724 2.00926007,4.01924724 C0.89975722,4.01924724 -0.000194479028,3.11948836 -0.000194479028,2.00962362 C-0.000194479028,0.899758881 0.89975722,0 2.00926007,0 C3.11876292,0 4.01822842,0.899758881 4.01822842,2.00962362" id="Fill-24" fill="#1E634A" mask="url(#mask-4)"></path>
                        </g>
                    </g>
                </g>
            </g>
        </g>
    </g>
</svg>