<?xml version="1.0" encoding="UTF-8"?>
<svg width="9px" height="16px" viewBox="0 0 9 16" version="1.1" xmlns="http://www.w3.org/2000/svg" xmlns:xlink="http://www.w3.org/1999/xlink">
    <title>Flecha</title>
    <defs>
        <polygon id="path-1" points="0 0 9 0 9 16 0 16"></polygon>
    </defs>
    <g id="Symbols" stroke="none" stroke-width="1" fill="none" fill-rule="evenodd">
        <g id="paginador" transform="translate(-262.000000, -16.000000)">
            <g id="Flecha" transform="translate(266.500000, 24.000000) scale(-1, 1) rotate(180.000000) translate(-266.500000, -24.000000) translate(262.000000, 16.000000)">
                <mask id="mask-2" fill="white">
                    <use xlink:href="#path-1"></use>
                </mask>
                <g id="Clip-2"></g>
                <path d="M9,8 C9.00024983,7.98763087 8.99932014,7.97667535 8.99808056,7.96678005 C8.99281232,7.91270928 8.98072635,7.84344215 8.9763878,7.75968547 C8.80377541,7.57308831 8.59645461,7.34867694 8.3999802,7.13592791 C8.39750102,7.13451429 8.39471195,7.13416089 8.39223278,7.13310068 C7.44766806,5.8622609 6.50124397,4.59354155 5.5517209,3.32340858 C5.34687928,3.30856562 5.13893868,3.29301586 4.93068819,3.2781729 C4.49001528,2.68798869 4.04903248,2.09815788 3.61021895,1.5108009 C3.40010908,1.49560454 3.19185859,1.48076159 2.98112893,1.46556523 C2.71647727,1.1114547 2.45275529,0.758757786 2.20018959,0.420550426 C1.97737397,0.400406414 1.77129275,0.381676017 1.58194596,0.364712639 C1.47348216,0.242788355 1.3795835,0.136767239 1.28568484,0.0310995273 C1.00305918,0.0208508195 0.720433515,0.0106021116 0.437807852,0 C0.404958816,0.235366877 0.372109781,0.470733754 0.339570642,0.703626806 C0.193919258,0.878915051 -0.0459406802,0.982815744 0.00767142485,1.40477979 C0.517761164,2.08755577 1.08394218,2.85126121 1.65849041,3.60648496 C1.7403031,3.7146265 1.86085286,3.78354022 1.96280883,3.86977073 C2.10536125,3.87507179 2.24667408,3.88037284 2.45027612,3.88779432 C2.63931302,4.14047798 2.84570413,4.44193135 3.07502759,4.71758625 C3.34804646,5.0451915 3.52623698,5.48129169 3.90895923,5.67531033 C4.05801948,5.68061139 4.19902241,5.68555904 4.36326759,5.69192031 C4.87924536,6.38211777 5.40513983,7.08609798 5.93661243,7.79714626 C6.14579261,7.8190573 6.35001444,7.84132173 6.58181707,7.86605999 C6.61404631,7.90917524 6.64906463,7.95582454 6.68222356,8 C6.64906463,8.04382206 6.61404631,8.09082476 6.58181707,8.13394001 C6.35001444,8.15867827 6.14579261,8.1805893 5.93661243,8.20285374 C5.40513983,8.91354862 4.87924536,9.61788223 4.36326759,10.3080797 C4.19902241,10.314441 4.05801948,10.3190352 3.90895923,10.3246897 C3.52623698,10.5187083 3.34804646,10.9544551 3.07502759,11.2824137 C2.84570413,11.5580686 2.63931302,11.859522 2.45027612,12.1122057 C2.24667408,12.1196272 2.10536125,12.1249282 1.96280883,12.1302293 C1.86085286,12.2164598 1.7403031,12.2853735 1.65849041,12.393515 C1.08394218,13.1487388 0.517761164,13.9124442 0.00767142485,14.5952202 C-0.0459406802,15.0168309 0.193919258,15.1210849 0.339570642,15.2963732 C0.372109781,15.5292662 0.404958816,15.7646331 0.437807852,16 C0.720433515,15.9893979 1.00305918,15.9791492 1.28568484,15.9689005 C1.3795835,15.8632328 1.47348216,15.7572116 1.58194596,15.6352874 C1.77129275,15.618324 1.97737397,15.5995936 2.20018959,15.5794496 C2.45275529,15.2412422 2.71647727,14.8885453 2.98112893,14.5344348 C3.19185859,14.5192384 3.40010908,14.5043955 3.61021895,14.4891991 C4.04903248,13.9018421 4.49001528,13.3120113 4.93068819,12.7218271 C5.13893868,12.7069841 5.34687928,12.6914344 5.5517209,12.6765914 C6.50124397,11.406105 7.44766806,10.1377391 8.39223278,8.86689932 C8.39471195,8.86583911 8.39750102,8.86513231 8.3999802,8.86407209 C8.59645461,8.65132306 8.80377541,8.42691169 8.9763878,8.23996113 C8.98072635,8.15620444 8.99281232,8.08729072 8.99808056,8.03321995 C8.99932014,8.02332465 9.00024983,8.01201573 9,8" id="Fill-1" fill="#F4F4E8" mask="url(#mask-2)"></path>
            </g>
        </g>
    </g>
</svg>