<?xml version="1.0" encoding="UTF-8"?>
<svg width="18px" height="16px" viewBox="0 0 18 16" version="1.1" xmlns="http://www.w3.org/2000/svg" xmlns:xlink="http://www.w3.org/1999/xlink">
    <title>Group 3</title>
    <defs>
        <filter color-interpolation-filters="auto" id="filter-1">
            <feColorMatrix in="SourceGraphic" type="matrix" values="0 0 0 0 0.070588 0 0 0 0 0.337255 0 0 0 0 0.364706 0 0 0 1.000000 0"></feColorMatrix>
        </filter>
        <polygon id="path-2" points="0 0 17.0201019 0 17.0201019 16 0 16"></polygon>
    </defs>
    <g id="Desktop" stroke="none" stroke-width="1" fill="none" fill-rule="evenodd">
        <g id="12_Contacto_Felicitaciones" transform="translate(-1295.000000, -769.000000)">
            <g id="Formulario" transform="translate(597.000000, 251.000000)">
                <g transform="translate(33.000000, 138.000000)" id="Group-3" filter="url(#filter-1)">
                    <g transform="translate(665.000000, 380.000000)">
                        <mask id="mask-3" fill="white">
                            <use xlink:href="#path-2"></use>
                        </mask>
                        <g id="Clip-2"></g>
                        <path d="M11.5642357,5.40701037 C11.8870072,5.72978185 12.1993246,6.04079243 12.5155622,6.35703007 C12.4894269,6.38577895 12.4554509,6.42236843 12.4201682,6.45634437 C10.3463288,8.53149058 8.27248934,10.6066368 6.19603636,12.6791695 C5.46032647,13.4135726 4.35872177,13.5050463 3.54460585,12.9104672 C2.57367787,12.2021995 2.42862672,10.8183331 3.23098174,9.92450435 C3.27541182,9.8748472 3.3198419,9.82649681 3.36688552,9.77945319 C5.98172655,7.16461216 8.59656759,4.54977113 11.2114086,1.93493009 C11.9405847,1.2070608 12.8174254,0.860767511 13.8497715,0.907811127 C15.3525537,0.977069785 16.6815358,2.12702486 16.9533434,3.60889879 C17.1702667,4.79413658 16.8592562,5.82909615 16.0098575,6.68241509 C13.3806421,9.3220847 10.7488131,11.957834 8.10652991,14.5857427 C5.48515504,17.1927431 1.10487161,16.0284136 0.173146645,12.4622461 C-0.275074482,10.7451541 0.149624837,9.20186212 1.39889422,7.93952507 C4.00589465,5.30116223 6.63903042,2.6902415 9.26301882,0.0675598608 C9.28915417,0.040117751 9.31790304,0.0165959426 9.33619778,-0.00039203014 C9.65504896,0.31845915 9.96736631,0.629469728 10.3136596,0.975763018 C10.2718431,1.0045119 10.2091182,1.03326077 10.1620746,1.08030439 C7.56944862,3.67031685 4.97682263,6.2603293 2.38681017,8.8529553 C1.10617838,10.1362006 1.01470468,12.0937378 2.16727329,13.4606162 C3.39171409,14.9124345 5.62367236,15.049645 7.01799289,13.7598659 C7.07157034,13.7115155 7.12253426,13.6605516 7.17349818,13.6095877 C9.79617981,10.986906 12.4201682,8.36553116 15.0415431,5.74154275 C15.7759462,5.00713962 15.8765673,3.90422816 15.2898288,3.09141901 C14.5632663,2.08259478 13.1088345,1.95975867 12.2202328,2.84182648 C10.9631229,4.0897891 9.71385348,5.34559231 8.4606638,6.59878199 C7.07157034,7.98787545 5.68117011,9.37696892 4.29207665,10.7673691 C3.89743297,11.1620128 4.03595029,11.7735798 4.55212331,11.9199378 C4.82785117,11.997037 5.05784219,11.9094836 5.25908433,11.7069347 C6.10978973,10.852309 6.9657222,10.0002968 7.81904114,9.1469779 C9.03172104,7.93299124 10.2457077,6.72031134 11.4596944,5.50632467 C11.4936703,5.47234872 11.5315666,5.43837278 11.5642357,5.40701037" id="Fill-1" fill="#000000" mask="url(#mask-3)"></path>
                    </g>
                </g>
            </g>
        </g>
    </g>
</svg>