<?xml version="1.0" encoding="UTF-8"?>
<svg width="45px" height="45px" viewBox="0 0 45 45" version="1.1" xmlns="http://www.w3.org/2000/svg" xmlns:xlink="http://www.w3.org/1999/xlink">
    <title>Ico ingrediente/azucar</title>
    <defs>
        <filter color-interpolation-filters="auto" id="filter-1">
            <feColorMatrix in="SourceGraphic" type="matrix" values="0 0 0 0 0.949020 0 0 0 0 0.560784 0 0 0 0 0.113725 0 0 0 1.000000 0"></feColorMatrix>
        </filter>
        <polygon id="path-2" points="0 0 30 0 30 12 0 12"></polygon>
    </defs>
    <g id="Desktop" stroke="none" stroke-width="1" fill="none" fill-rule="evenodd">
        <g id="06_Interna-recetas_op2-hover" transform="translate(-185.000000, -1274.000000)">
            <g id="Ingredientes" transform="translate(185.000000, 842.000000)">
                <g id="Group-9" transform="translate(0.000000, 78.000000)">
                    <g id="Ico-ingrediente/azucar" transform="translate(0.000000, 354.000000)">
                        <g id="Oval" fill="#FCE6CD">
                            <circle cx="22.5" cy="22.5" r="22.5"></circle>
                        </g>
                        <g filter="url(#filter-1)">
                            <g transform="translate(8.000000, 17.000000)">
                                <g id="Group-3">
                                    <mask id="mask-3" fill="white">
                                        <use xlink:href="#path-2"></use>
                                    </mask>
                                    <g id="Clip-2"></g>
                                    <path d="M7.02773987,6.76224568 C9.01917698,6.76224568 11.0111852,6.78608959 13.0020512,6.74379504 C13.4409441,6.73442779 13.9443716,6.58824193 14.2998834,6.33958403 C16.1379793,5.05314846 17.9538021,3.7343533 19.7464953,2.38632096 C21.9640893,0.718950579 24.4209756,-0.180305357 27.2222371,0.0300319691 C27.9449683,0.0845323288 28.6597041,0.292598806 29.3687288,0.468305695 C29.8507399,0.587809088 30.0731847,0.934113458 29.9786671,1.43000996 C29.8824362,1.93413829 29.4900882,1.97983911 29.060333,2.00850857 C27.3881426,2.12006399 25.678545,2.07124076 24.0540417,2.41442271 C20.4309626,3.17941474 17.4515168,5.15874291 14.8352927,7.71316341 C13.1856609,9.32376259 11.378119,10.7084124 9.1708049,11.5117249 C5.14538349,12.976706 1.7975761,11.0019195 0.112250348,7.49941982 C-0.14217616,6.97031216 0.0288692704,6.76196182 0.69734565,6.75940712 C2.80757224,6.75174301 4.91751328,6.75656856 7.02773987,6.75656856 C7.02773987,6.75855555 7.02773987,6.76025869 7.02773987,6.76224568" id="Fill-1" fill="#1C6047" mask="url(#mask-3)"></path>
                                </g>
                                <path d="M10.7761204,5.16902042 C10.6546837,5.16902042 10.5565442,5.06670254 10.5565442,4.94077285 C10.5565442,4.81454044 10.6546837,4.71222256 10.7761204,4.71222256 C10.897557,4.71222256 10.9956965,4.81454044 10.9956965,4.94077285 C10.9956965,5.06670254 10.897557,5.16902042 10.7761204,5.16902042 M9.34392493,5.62581828 C9.22248827,5.62581828 9.1240576,5.5235004 9.1240576,5.39726799 C9.1240576,5.2713383 9.22248827,5.16902042 9.34392493,5.16902042 C9.46536159,5.16902042 9.56350105,5.2713383 9.56350105,5.39726799 C9.56350105,5.5235004 9.46536159,5.62581828 9.34392493,5.62581828 M8.95224074,4.23514276 C8.83080408,4.23514276 8.7323734,4.1331276 8.7323734,4.00689519 C8.7323734,3.88066278 8.83080408,3.7783449 8.95224074,3.7783449 C9.07338618,3.7783449 9.17181686,3.88066278 9.17181686,4.00689519 C9.17181686,4.1331276 9.07338618,4.23514276 8.95224074,4.23514276 M7.69186216,5.62581828 C7.57071671,5.62581828 7.47228604,5.5235004 7.47228604,5.39726799 C7.47228604,5.2713383 7.57071671,5.16902042 7.69186216,5.16902042 C7.81329882,5.16902042 7.91172949,5.2713383 7.91172949,5.39726799 C7.91172949,5.5235004 7.81329882,5.62581828 7.69186216,5.62581828 M7.2524187,3.32184976 C7.13127326,3.32184976 7.03284258,3.21953188 7.03284258,3.09329947 C7.03284258,2.96706706 7.13127326,2.8650519 7.2524187,2.8650519 C7.37385536,2.8650519 7.47228604,2.96706706 7.47228604,3.09329947 C7.47228604,3.21953188 7.37385536,3.32184976 7.2524187,3.32184976 M6.42857143,4.46369305 C6.30713477,4.46369305 6.20870409,4.36137517 6.20870409,4.23514276 C6.20870409,4.10921307 6.30713477,4.00689519 6.42857143,4.00689519 C6.55000809,4.00689519 6.64814755,4.10921307 6.64814755,4.23514276 C6.64814755,4.36137517 6.55000809,4.46369305 6.42857143,4.46369305 M6.20870409,5.62581828 C6.08755865,5.62581828 5.98912797,5.5235004 5.98912797,5.39726799 C5.98912797,5.2713383 6.08755865,5.16902042 6.20870409,5.16902042 C6.33014075,5.16902042 6.42857143,5.2713383 6.42857143,5.39726799 C6.42857143,5.5235004 6.33014075,5.62581828 6.20870409,5.62581828 M4.98210646,3.55009733 C4.86066979,3.55009733 4.76223912,3.44777945 4.76223912,3.32184976 C4.76223912,3.19561735 4.86066979,3.09329947 4.98210646,3.09329947 C5.1032519,3.09329947 5.20168258,3.19561735 5.20168258,3.32184976 C5.20168258,3.44777945 5.1032519,3.55009733 4.98210646,3.55009733 M4.98210646,4.94077285 C4.86066979,4.94077285 4.76223912,4.83845497 4.76223912,4.71222256 C4.76223912,4.58599015 4.86066979,4.48397499 4.98210646,4.48397499 C5.1032519,4.48397499 5.20168258,4.58599015 5.20168258,4.71222256 C5.20168258,4.83845497 5.1032519,4.94077285 4.98210646,4.94077285 M3.83297201,5.85406585 C3.71153535,5.85406585 3.61310468,5.75205069 3.61310468,5.62581828 C3.61310468,5.49958587 3.71153535,5.39726799 3.83297201,5.39726799 C3.95440867,5.39726799 4.05254813,5.49958587 4.05254813,5.62581828 C4.05254813,5.75205069 3.95440867,5.85406585 3.83297201,5.85406585 M3.39352856,4.46369305 C3.27209189,4.46369305 3.17395243,4.36137517 3.17395243,4.23514276 C3.17395243,4.10921307 3.27209189,4.00689519 3.39352856,4.00689519 C3.51496522,4.00689519 3.61310468,4.10921307 3.61310468,4.23514276 C3.61310468,4.36137517 3.51496522,4.46369305 3.39352856,4.46369305 M2.1762498,5.85406585 C2.05481314,5.85406585 1.95638246,5.75205069 1.95638246,5.62581828 C1.95638246,5.49958587 2.05481314,5.39726799 2.1762498,5.39726799 C2.29739524,5.39726799 2.39582592,5.49958587 2.39582592,5.62581828 C2.39582592,5.75205069 2.29739524,5.85406585 2.1762498,5.85406585 M6.42857143,2.11764706 C2.19255784,2.11764706 0,6.35294118 0,6.35294118 L12.8571429,6.35294118 C12.8571429,6.35294118 10.664585,2.11764706 6.42857143,2.11764706" id="Fill-4" fill="#1C6047"></path>
                            </g>
                        </g>
                    </g>
                </g>
            </g>
        </g>
    </g>
</svg>