<?xml version="1.0" encoding="UTF-8"?>
<svg width="13px" height="18px" viewBox="0 0 13 18" version="1.1" xmlns="http://www.w3.org/2000/svg" xmlns:xlink="http://www.w3.org/1999/xlink">
    <title>Group 3</title>
    <defs>
        <filter color-interpolation-filters="auto" id="filter-1">
            <feColorMatrix in="SourceGraphic" type="matrix" values="0 0 0 0 0.694118 0 0 0 0 0.784314 0 0 0 0 0.286275 0 0 0 1.000000 0"></feColorMatrix>
        </filter>
        <polygon id="path-2" points="0 0 13 0 13 18 0 18"></polygon>
    </defs>
    <g id="⭐️-Simbolos" stroke="none" stroke-width="1" fill="none" fill-rule="evenodd">
        <g id="Tarjetas/Tarjeta-recetas/hover" transform="translate(-3.000000, -560.000000)">
            <g id="Descripción" transform="translate(3.000000, 555.000000)">
                <g id="Group-3" transform="translate(0.000000, 4.000000)" filter="url(#filter-1)">
                    <g transform="translate(0.000000, 1.000000)">
                        <mask id="mask-3" fill="white">
                            <use xlink:href="#path-2"></use>
                        </mask>
                        <g id="Clip-2"></g>
                        <path d="M4.5604503,13.5678018 C4.22583107,14.387486 4.20555112,15.6588738 4.91148664,16.4750486 C5.35909418,16.9929286 5.91099863,17.2832021 6.58361708,17.2425939 C7.73426301,17.1734095 8.61933812,16.2118473 8.66376088,14.9941024 C8.69369795,14.1593781 8.44309567,13.4058703 7.99935098,12.7140268 C7.71591448,12.2708458 7.44261797,11.8206462 7.17511573,11.3664359 C7.09592734,11.2320779 7.053436,11.0741571 6.98728473,10.9102202 C6.56043999,11.4406336 6.27748636,12.0186739 6.20264367,12.6874559 C6.15532378,13.1110848 6.14711523,13.5392256 6.12635242,13.9658625 C6.11041817,14.2922321 5.94431569,14.4436356 5.63142498,14.4060354 C5.36488845,14.3734485 5.12587472,14.2716774 4.94190657,14.068135 C4.80477545,13.9157289 4.69130429,13.741264 4.5604503,13.5678018 M4.32143656,8.95902093 C4.3484765,8.38599401 4.37551644,7.83101518 4.40110781,7.27603634 C4.50250758,5.07517178 5.22389449,3.12698051 6.64445694,1.48259879 C7.06357598,0.99730565 7.55657199,0.580194189 8.01963093,0.135509254 C8.14758778,0.0126819605 8.29920457,-0.0464756745 8.46965275,0.0432634499 C8.62996096,0.128490551 8.67196943,0.278891318 8.673418,0.455361552 C8.68162655,1.48310013 9.00707152,2.41257687 9.54642171,3.2553225 C10.0857719,4.09806813 10.6748563,4.90722426 11.2315893,5.7389405 C12.0181617,6.9135705 12.6120747,8.17793961 12.8520541,9.60173354 C13.0553365,10.8104544 13.080445,12.0131592 12.7269944,13.1993199 C12.3923752,14.3228136 11.8206736,15.2989146 11.0012669,16.1135854 C10.3156114,16.7959036 9.52662461,17.3037568 8.62706382,17.6236091 C7.616929,17.983067 6.58603136,18.0923582 5.52761094,17.9198986 C4.14084841,17.6937962 2.94433115,17.0721396 1.94626773,16.0539265 C1.05250121,15.1424978 0.460519715,14.0455749 0.174668942,12.7761924 C0.0351235484,12.1570426 -0.0204048955,11.5288687 0.0066350424,10.8931748 C0.0394692527,10.1075815 0.118174786,9.32850548 0.33932285,8.57249096 C0.587027995,7.72573464 0.951584301,6.94866401 1.60295709,6.34906628 C1.703874,6.25631914 1.81106804,6.16858536 1.92453921,6.09288364 C2.20363,5.90738936 2.44698944,6.02770998 2.54018065,6.35859166 C2.66765465,6.81129797 2.79030008,7.27052165 2.97185395,7.70116918 C3.18044775,8.19749171 3.51216985,8.6065818 4.00420015,8.84070566 C4.10511706,8.88833257 4.21327681,8.91941539 4.32143656,8.95902093" id="Fill-1" fill="#FFFFFF" mask="url(#mask-3)"></path>
                    </g>
                </g>
            </g>
        </g>
    </g>
</svg>