<?xml version="1.0" encoding="UTF-8"?>
<svg width="15px" height="14px" viewBox="0 0 15 14" version="1.1" xmlns="http://www.w3.org/2000/svg" xmlns:xlink="http://www.w3.org/1999/xlink">
    <title>Group 6</title>
    <defs>
        <filter color-interpolation-filters="auto" id="filter-1">
            <feColorMatrix in="SourceGraphic" type="matrix" values="0 0 0 0 0.694118 0 0 0 0 0.784314 0 0 0 0 0.286275 0 0 0 1.000000 0"></feColorMatrix>
        </filter>
        <polygon id="path-2" points="0 0 15 0 15 10 0 10"></polygon>
    </defs>
    <g id="⭐️-Simbolos" stroke="none" stroke-width="1" fill="none" fill-rule="evenodd">
        <g id="Tarjetas/Tarjeta-Artículo/desktop" transform="translate(-57.000000, -266.000000)">
            <g id="Tarjeta" transform="translate(28.000000, 238.000000)">
                <g id="Group-6" transform="translate(29.000000, 23.000000)" filter="url(#filter-1)">
                    <g transform="translate(0.000000, 5.000000)">
                        <g id="Group-3" transform="translate(0.000000, 4.000000)">
                            <mask id="mask-3" fill="white">
                                <use xlink:href="#path-2"></use>
                            </mask>
                            <g id="Clip-2"></g>
                            <path d="M2.66912868,2.70089761 L2.66798708,2.70089761 C2.66798708,2.87747399 2.66798708,3.05405036 2.66801069,3.23062674 C2.66801069,3.24101295 2.66789357,3.25139917 2.66818105,3.26178539 C2.67472927,3.49849699 2.80231849,3.64776543 3.03926838,3.65387308 C3.42148236,3.66373517 3.80448426,3.66296503 4.18659177,3.65002237 C4.42120984,3.64207494 4.5720213,3.48665607 4.57851629,3.2492171 C4.58902539,2.86523729 4.58924899,2.48049803 4.57763254,2.0965717 C4.57073295,1.86829957 4.4207733,1.7384986 4.19216042,1.736723 C3.81476976,1.73379218 3.43731522,1.73439118 3.05992456,1.7376001 C2.81716113,1.73967521 2.67438855,1.88230117 2.66985271,2.12445725 C2.66625385,2.31653273 2.66912868,2.50874726 2.66912868,2.70089761 M2.66847918,6.92245069 C2.66847918,7.10941328 2.66542334,7.29644005 2.66922451,7.48332777 C2.67431402,7.73322805 2.81822589,7.87641023 3.06913467,7.87852812 C3.42584784,7.88154451 3.7826249,7.88148033 4.13934873,7.87848533 C4.40412058,7.87626048 4.57452347,7.72182568 4.58084809,7.45972079 C4.58985589,7.08603092 4.58904668,6.71178485 4.57986852,6.33808429 C4.57421469,6.10792958 4.43649968,5.96618073 4.2085576,5.96053302 C3.8158984,5.95082068 3.42264294,5.95080998 3.02999439,5.96095018 C2.8040221,5.96677972 2.67331315,6.1171285 2.66891573,6.34598894 C2.66522104,6.53807511 2.66815975,6.73028964 2.66847918,6.92245069 M6.35944158,2.69789192 C6.35944158,2.87441481 6.35943093,3.05093771 6.35944158,3.2274606 C6.35944158,3.23784682 6.35934575,3.24823303 6.35961194,3.25861925 C6.36565973,3.49835794 6.48934131,3.645455 6.72763278,3.65208678 C7.12523243,3.66313617 7.5235774,3.66324314 7.92115576,3.65186215 C8.15029036,3.64529456 8.26299435,3.5288748 8.26866948,3.29676266 C8.2784226,2.89730514 8.27827354,2.49718444 8.26676357,2.09779109 C8.26011952,1.86726201 8.11319441,1.73873392 7.88393203,1.73674439 C7.50664785,1.73347129 7.12929978,1.73364243 6.7520156,1.73669091 C6.50293819,1.73869114 6.36368994,1.8828146 6.36002719,2.13716459 C6.35733337,2.32404161 6.35949482,2.51098281 6.35944158,2.69789192 M12.0090151,6.92686831 C12.0090151,6.73475004 12.0116982,6.542589 12.0083123,6.35053491 C12.0042663,6.1204016 11.8758678,5.96771031 11.6513436,5.96151709 C11.2536801,5.95053187 10.8553351,5.95150525 10.457597,5.9611962 C10.2457221,5.96636256 10.1045147,6.10443186 10.0986372,6.31690539 C10.0876064,6.71635222 10.0875958,7.1165264 10.0984243,7.51598392 C10.1045786,7.74282273 10.2553261,7.87573635 10.4827358,7.87804678 C10.8651947,7.88194027 11.2477494,7.88189749 11.6302083,7.87788633 C11.88281,7.87523362 12.0045963,7.74666275 12.0084401,7.48761703 C12.0112085,7.30074001 12.0089831,7.11378811 12.0090151,6.92686831 M7.31236257,7.87890249 C7.50359201,7.87890249 7.69488533,7.88203654 7.88602959,7.87812165 C8.13197663,7.87307295 8.25953391,7.76625857 8.267083,7.52345001 C8.27948736,7.12414224 8.27882721,6.72400015 8.26890372,6.32457472 C8.26337766,6.10215352 8.12383128,5.96512178 7.90301239,5.96008377 C7.51044901,5.95112018 7.11736391,5.95092764 6.72482184,5.96055441 C6.49773156,5.96612724 6.36313627,6.11475389 6.36081511,6.34205266 C6.35689682,6.72618222 6.35699265,7.11041874 6.36086835,7.494559 C6.3632321,7.72839327 6.50651576,7.87218515 6.7387062,7.87790773 C6.92981852,7.88262484 7.12113314,7.8788704 7.31236257,7.87890249 M12.0085785,2.71152984 L12.0091428,2.71152984 C12.0091428,2.52459934 12.0091428,2.33766884 12.0091215,2.15074903 C12.0091215,2.14036282 12.0091322,2.1299659 12.0087595,2.11959038 C12.0001883,1.88569193 11.8609081,1.74071276 11.6285366,1.73807075 C11.2460671,1.733728 10.8635018,1.73379218 10.4810109,1.73687275 C10.2546553,1.73870183 10.1038758,1.87158337 10.0980729,2.09948113 C10.0878939,2.49896004 10.0886286,2.89914492 10.1003834,3.29857035 C10.1067187,3.51361102 10.2421232,3.64747663 10.458715,3.65297458 C10.861532,3.66320035 11.2650836,3.66330732 11.6678047,3.65067485 C11.8929145,3.64361522 12.0022113,3.51370729 12.0076309,3.28786324 C12.0122413,3.09585194 12.0085785,2.90364811 12.0085785,2.71152984 M0.00176550059,0 L15,0 L15,0.216163798 C15,2.95283021 15,5.68949663 15,8.42617374 C15,9.2175692 14.4675591,9.8412984 13.6817935,9.96508798 C13.5548538,9.98509027 13.4248369,9.99349765 13.2962469,9.99354044 C9.3259681,9.99499515 5.35565739,9.98759323 1.38542122,10 C0.44995151,10.0029105 0.00925070632,9.36555407 0.00472551082,8.62442104 C-0.0032601283,7.31584334 0.0013183048,6.00719077 0.00120118209,4.69857029 C0.00107341187,3.19781014 0.00155255021,1.6970607 0.00176550059,0.19630056 C0.00176550059,0.135191956 0.00176550059,0.0740833522 0.00176550059,0" id="Fill-1" fill="#000000" mask="url(#mask-3)"></path>
                        </g>
                        <path d="M0.0108142612,3 C0.0108142612,2.35837092 -0.0187251618,1.7278951 0.0198375232,1.10136183 C0.0527446328,0.566617325 0.495643538,-0.0283651775 1.32261909,0.00104831221 C1.69589775,0.0143181018 2.07009585,0.00306108717 2.443877,0.00359021873 C2.4943923,0.0036524695 2.5449076,0.00758464326 2.61331975,0.0104793042 C2.61331975,0.195509349 2.61344804,0.370527394 2.61329836,0.545545439 C2.61306316,0.807496687 2.60941751,1.06948944 2.613138,1.33137843 C2.61730751,1.62495307 2.81307167,1.82346041 3.08790698,1.82094963 C3.35646663,1.8185011 3.54687456,1.62422682 3.55025294,1.33671125 C3.55474319,0.953910503 3.55151448,0.571026755 3.55160001,0.188174133 C3.5516107,0.133486829 3.55160001,0.0787995263 3.55160001,0.0134362158 L11.047707,0.0134362158 C11.0509357,0.0658928663 11.0568693,0.118795647 11.0570189,0.171708803 C11.0581201,0.569667613 11.0537047,0.967688674 11.06013,1.36555411 C11.0636581,1.58394019 11.1992636,1.74943387 11.3977433,1.80592644 C11.5829554,1.85864247 11.8045919,1.79500143 11.9042113,1.62946626 C11.961045,1.53502146 11.9902209,1.41292694 11.9933855,1.30224507 C12.0040659,0.929757203 11.9974909,0.556802454 11.9975123,0.184024081 C11.9975229,0.129741408 11.9975123,0.0754587349 11.9975123,0.0298600445 C12.0221766,0.0162271254 12.0310501,0.0069828858 12.0397954,0.00709701221 C12.5841953,0.0142973515 13.1320057,-0.0119620991 13.6720864,0.0389590323 C14.3222317,0.100276043 14.8810111,0.631140251 14.9848641,1.20554887 C14.9946785,1.25979005 14.9991902,1.31560824 14.9992971,1.37071055 C15.0003341,1.90938723 15,2.44806391 15,3 L0.0108142612,3 Z" id="Fill-4" fill="#000000"></path>
                    </g>
                </g>
            </g>
        </g>
    </g>
</svg>