<?xml version="1.0" encoding="UTF-8"?>
<svg width="15px" height="18px" viewBox="0 0 15 18" version="1.1" xmlns="http://www.w3.org/2000/svg" xmlns:xlink="http://www.w3.org/1999/xlink">
    <title>Group 3</title>
    <defs>
        <filter color-interpolation-filters="auto" id="filter-1">
            <feColorMatrix in="SourceGraphic" type="matrix" values="0 0 0 0 0.101961 0 0 0 0 0.486275 0 0 0 0 0.525490 0 0 0 1.000000 0"></feColorMatrix>
        </filter>
        <polygon id="path-2" points="0 0 15 0 15 18 0 18"></polygon>
    </defs>
    <g id="Desktop" stroke="none" stroke-width="1" fill="none" fill-rule="evenodd">
        <g id="03_Interna-Productos_Salmón-Natural-" transform="translate(-791.000000, -1786.000000)">
            <g id="Info-nutricional" transform="translate(202.000000, 1652.000000)">
                <g id="Group-14" transform="translate(0.000000, 70.000000)">
                    <g id="Group-3" transform="translate(564.000000, 35.000000)" filter="url(#filter-1)">
                        <g transform="translate(25.000000, 29.000000)">
                            <mask id="mask-3" fill="white">
                                <use xlink:href="#path-2"></use>
                            </mask>
                            <g id="Clip-2"></g>
                            <path d="M5.26205804,13.5678018 C4.87595893,14.387486 4.85255898,15.6588738 5.66709997,16.4750486 C6.18357021,16.9929286 6.82038303,17.2832021 7.59648125,17.2425939 C8.92414963,17.1734095 9.94539014,16.2118473 9.99664717,14.9941024 C10.0311899,14.1593781 9.74203347,13.4058703 9.23002036,12.7140268 C8.90297825,12.2708458 8.58763612,11.8206462 8.27897968,11.3664359 C8.18760846,11.2320779 8.13858001,11.0741571 8.06225161,10.9102202 C7.56973845,11.4406336 7.24325349,12.0186739 7.15689655,12.6874559 C7.10229667,13.1110848 7.09282526,13.5392256 7.06886818,13.9658625 C7.0504825,14.2922321 6.8588258,14.4436356 6.49779806,14.4060354 C6.19025591,14.3734485 5.91447083,14.2716774 5.70219989,14.068135 C5.54397168,13.9157289 5.41304341,13.741264 5.26205804,13.5678018 M4.98627296,8.95902093 C5.01747289,8.38599401 5.04867281,7.83101518 5.07820132,7.27603634 C5.19520105,5.07517178 6.02757057,3.12698051 7.66668109,1.48259879 C8.15027998,0.99730565 8.71912153,0.580194189 9.2534203,0.135509254 C9.40106282,0.0126819605 9.57600528,-0.0464756745 9.77267625,0.0432634499 C9.95764726,0.128490551 10.0061186,0.278891318 10.00779,0.455361552 C10.0172614,1.48310013 10.3927748,2.41257687 11.015102,3.2553225 C11.6374291,4.09806813 12.3171418,4.90722426 12.9595261,5.7389405 C13.8671097,6.9135705 14.5523939,8.17793961 14.8292932,9.60173354 C15.0638498,10.8104544 15.0928212,12.0131592 14.6849935,13.1993199 C14.2988944,14.3228136 13.6392388,15.2989146 12.6937695,16.1135854 C11.9026285,16.7959036 10.9922592,17.3037568 9.95430441,17.6236091 C8.78876423,17.983067 7.59926696,18.0923582 6.37801262,17.9198986 C4.77790201,17.6937962 3.39730518,17.0721396 2.24569354,16.0539265 C1.21442448,15.1424978 0.531368901,14.0455749 0.201541087,12.7761924 C0.0405271712,12.1570426 -0.0235441102,11.5288687 0.00765581815,10.8931748 C0.0455414454,10.1075815 0.136355523,9.32850548 0.391526365,8.57249096 C0.677339995,7.72573464 1.09798189,6.94866401 1.84956587,6.34906628 C1.96600846,6.25631914 2.08969389,6.16858536 2.22062217,6.09288364 C2.54265,5.90738936 2.82344935,6.02770998 2.93097768,6.35859166 C3.07806305,6.81129797 3.21957701,7.27052165 3.42906225,7.70116918 C3.66974741,8.19749171 4.05250367,8.6065818 4.62023094,8.84070566 C4.73667353,8.88833257 4.86147324,8.91941539 4.98627296,8.95902093" id="Fill-1" fill="#FFFFFF" mask="url(#mask-3)"></path>
                        </g>
                    </g>
                </g>
            </g>
        </g>
    </g>
</svg>