<?xml version="1.0" encoding="UTF-8"?>
<svg width="19px" height="22px" viewBox="0 0 19 22" version="1.1" xmlns="http://www.w3.org/2000/svg" xmlns:xlink="http://www.w3.org/1999/xlink">
    <title>Group 3 Copy</title>
    <defs>
        <filter color-interpolation-filters="auto" id="filter-1">
            <feColorMatrix in="SourceGraphic" type="matrix" values="0 0 0 0 0.949020 0 0 0 0 0.560784 0 0 0 0 0.113725 0 0 0 1.000000 0"></feColorMatrix>
        </filter>
        <polygon id="path-2" points="0 0 18.4420089 0 18.4420089 21.0731707 0 21.0731707"></polygon>
    </defs>
    <g id="Desktop" stroke="none" stroke-width="1" fill="none" fill-rule="evenodd">
        <g id="06_Interna-recetas_op2-hover" transform="translate(-1055.000000, -423.000000)">
            <g id="Descripción" transform="translate(735.000000, 192.000000)">
                <g id="Datos-nutricionales" transform="translate(0.000000, 159.000000)">
                    <g id="Group-6" transform="translate(0.000000, 51.000000)">
                        <g id="Group-3-Copy" transform="translate(300.000000, 0.000000)" filter="url(#filter-1)">
                            <g transform="translate(20.485711, 21.644891)">
                                <mask id="mask-3" fill="white">
                                    <use xlink:href="#path-2"></use>
                                </mask>
                                <g id="Clip-2"></g>
                                <path d="M6.46952808,15.8842557 C5.99483186,16.843886 5.96606239,18.33234 6.96751387,19.2878618 C7.60249712,19.8941603 8.38543764,20.2339927 9.33962499,20.1864513 C10.9719498,20.105455 12.2275316,18.9797236 12.2905504,17.5540711 C12.3330196,16.5768329 11.9775112,15.6946774 11.3480078,14.8847142 C10.9459203,14.3658683 10.5582175,13.8388053 10.1787345,13.3070469 C10.0663965,13.1497497 10.0061177,12.9648668 9.9122744,12.7729407 C9.3067456,13.3939125 8.90534303,14.0706426 8.79916999,14.853607 C8.73204123,15.3495627 8.72039645,15.8508007 8.69094199,16.350278 C8.66833741,16.7323693 8.43270177,16.9096221 7.98882998,16.8656024 C7.61071697,16.827452 7.27164824,16.7083052 7.01066807,16.4700117 C6.81613167,16.291585 6.65515965,16.0873335 6.46952808,15.8842557 M6.13045935,10.4886099 C6.16881864,9.81774908 6.20717793,9.16801777 6.24348226,8.51828645 C6.3873296,5.94166453 7.41070067,3.66085524 9.4259334,1.73572541 C10.0205024,1.16757735 10.7198745,0.679251733 11.3767773,0.15864498 C11.558299,0.0148471733 11.773385,-0.0544105458 12.0151855,0.0506498925 C12.2426013,0.150427962 12.3021952,0.326506909 12.3042502,0.533106207 C12.3158949,1.73631234 12.7775764,2.82448024 13.5427072,3.81110927 C14.3078381,4.7977383 15.1435226,5.74504304 15.933313,6.71875961 C17.0491574,8.09393619 17.8916918,9.5741732 18.2321305,11.2410539 C18.5205102,12.6561417 18.5561295,14.0641864 18.0547188,15.4528623 C17.5800226,16.768172 16.7689976,17.9109244 15.6065741,18.8646854 C14.6338921,19.6634969 13.5146228,20.2580568 12.2384914,20.632518 C10.8054979,21.0533467 9.34304993,21.1812974 7.8415577,20.9793935 C5.87427409,20.7146882 4.17687549,19.9868952 2.76100668,18.7948407 C1.49309513,17.7278023 0.653300667,16.4435999 0.247788168,14.9574935 C0.0498268302,14.2326352 -0.0289467127,13.4972121 0.00941257777,12.7529851 C0.0559917162,11.8332661 0.167644651,10.9211771 0.481368848,10.036087 C0.832767348,9.0447625 1.34993278,8.13502128 2.27398069,7.43305321 C2.41714304,7.32447119 2.56921023,7.22175847 2.73018225,7.13313207 C3.12610493,6.91596803 3.47133854,7.05683119 3.6035411,7.44420488 C3.78437775,7.97420251 3.95836453,8.51183022 4.21591977,9.01600294 C4.51183429,9.59706347 4.98242059,10.0759982 5.68042268,10.3500944 C5.82358503,10.4058528 5.97702219,10.4422424 6.13045935,10.4886099" id="Fill-1" fill="#FFFFFF" mask="url(#mask-3)"></path>
                            </g>
                        </g>
                    </g>
                </g>
            </g>
        </g>
    </g>
</svg>