<?xml version="1.0" encoding="UTF-8"?>
<svg width="43px" height="40px" viewBox="0 0 43 40" version="1.1" xmlns="http://www.w3.org/2000/svg" xmlns:xlink="http://www.w3.org/1999/xlink">
    <title>Carrito compras</title>
    <defs>
        <filter color-interpolation-filters="auto" id="filter-1">
            <feColorMatrix in="SourceGraphic" type="matrix" values="0 0 0 0 0.956863 0 0 0 0 0.956863 0 0 0 0 0.909804 0 0 0 1.000000 0"></feColorMatrix>
        </filter>
        <filter color-interpolation-filters="auto" id="filter-2">
            <feColorMatrix in="SourceGraphic" type="matrix" values="0 0 0 0 0.117647 0 0 0 0 0.388235 0 0 0 0 0.290196 0 0 0 1.000000 0"></feColorMatrix>
        </filter>
        <polygon id="path-3" points="0 0 42.7777778 0 42.7777778 38.5478802 0 38.5478802"></polygon>
    </defs>
    <g id="⭐️-Simbolos" stroke="none" stroke-width="1" fill="none" fill-rule="evenodd">
        <g id="Transversales/Boton-compra/clic" transform="translate(-23.000000, -207.000000)">
            <g id="Group-4" transform="translate(0.000000, 187.000000)" filter="url(#filter-1)">
                <g transform="translate(23.000000, 16.925190)" filter="url(#filter-2)" id="Carrito-compras">
                    <g transform="translate(0.000000, 3.526930)" id="Group-3">
                        <mask id="mask-4" fill="white">
                            <use xlink:href="#path-3"></use>
                        </mask>
                        <g id="Clip-2"></g>
                        <path d="M36.6192504,24.3130551 L33.5744022,24.3130551 L34.3134743,18.6570218 L38.4073539,18.6570218 L37.2254827,23.8259287 C37.1594654,24.1129999 36.9106927,24.3130551 36.6192504,24.3130551 L36.6192504,24.3130551 Z M16.7544742,10.3880718 L17.5096481,16.1238019 L12.637247,16.1238019 L11.1003313,10.3653012 L16.7544742,10.3880718 Z M27.3365694,16.1238019 L27.3365694,10.4311731 L32.8554574,10.4539436 L32.1147751,16.1238019 L27.3365694,16.1238019 Z M20.039239,16.1238019 L19.2856753,10.3986438 L24.8287159,10.4214143 L24.8287159,16.1238019 L20.039239,16.1238019 Z M15.3455677,24.3130551 L15.3423474,24.3130551 C15.0364134,24.3130551 14.7667085,24.1048676 14.6878097,23.8080376 L13.312717,18.6570218 L17.8429551,18.6570218 L18.5884679,24.3130551 L15.3455677,24.3130551 Z M21.1180588,24.3130551 L20.3733511,18.6570218 L24.8287159,18.6570218 L24.8287159,24.3130551 L21.1180588,24.3130551 Z M27.3365694,24.3130551 L27.3365694,18.6570218 L31.7838834,18.6570218 L31.0448113,24.3130551 L27.3365694,24.3130551 Z M40.2638901,10.493792 C40.2711359,10.5027376 40.2703308,10.507617 40.2687207,10.5149361 L38.9862132,16.1238019 L34.644366,16.1238019 L35.3834381,10.4645156 L40.244568,10.4840332 C40.2518138,10.4840332 40.2566443,10.4840332 40.2638901,10.493792 L40.2638901,10.493792 Z M34.0059301,36.0138471 C32.968975,36.0138471 32.1252413,35.1615792 32.1252413,34.1141355 C32.1252413,33.0764506 32.9520681,32.2315018 33.9753367,32.214424 L34.0365235,32.214424 C35.0597922,32.2315018 35.8874241,33.0764506 35.8874241,34.1141355 C35.8874241,35.1615792 35.0428853,36.0138471 34.0059301,36.0138471 L34.0059301,36.0138471 Z M20.0400441,34.1149488 C20.0400441,35.1623925 19.1963104,36.0146603 18.1585502,36.0146603 C17.121595,36.0146603 16.2778613,35.1623925 16.2778613,34.1149488 C16.2778613,33.0675051 17.1207899,32.2160504 18.15694,32.214424 L18.1601603,32.214424 C19.1971155,32.2160504 20.0400441,33.0675051 20.0400441,34.1149488 L20.0400441,34.1149488 Z M12.3659318,29.6812041 C10.4965142,29.5852427 10.5319382,26.9300379 12.3659318,26.8373294 C17.5595636,26.8560338 31.2597702,26.8422088 36.6192504,26.846275 C38.0853182,26.846275 39.3388424,25.8386797 39.6689291,24.3960049 L42.712167,11.0850122 C42.8860663,10.3230131 42.7105569,9.53417743 42.2299185,8.92099998 C41.748475,8.30782253 41.0287251,7.95081338 40.2542291,7.95081338 C38.0990047,7.95081338 19.7977122,7.86705041 10.4240562,7.82964171 L8.93786112,2.26062424 C8.58120651,0.92936232 7.37920802,-0.000162646538 6.01377638,-0.000162646538 L1.25408778,-0.000162646538 C0.561710883,-0.000162646538 -0.000241526825,0.567473772 -0.000241526825,1.26685389 C-0.000241526825,1.966234 0.561710883,2.53305719 1.25408778,2.53305719 L6.01377638,2.53305719 C6.24886249,2.53305719 6.45577047,2.69326403 6.51695726,2.92096918 L12.223431,24.3081757 C11.2202896,24.3447712 10.2855808,24.7570802 9.57710211,25.483297 C8.83239441,26.2469225 8.43226497,27.2569575 8.45078203,28.3287982 C8.48781614,30.4716663 10.2437161,32.214424 12.3659318,32.214424 L14.1942899,32.214424 C13.9221697,32.7910059 13.7700078,33.4350862 13.7700078,34.1149488 C13.7700078,36.5595262 15.7384514,38.5478802 18.1585502,38.5478802 C20.5786489,38.5478802 22.5478976,36.5595262 22.5478976,34.1149488 C22.5478976,33.4350862 22.3949306,32.7910059 22.1236155,32.214424 L30.0408648,32.214424 C29.7695496,32.7910059 29.6165827,33.434273 29.6165827,34.1141355 C29.6165827,36.558713 31.5858314,38.5470669 34.0059301,38.5470669 C36.4260289,38.5470669 38.3944725,36.558713 38.3944725,34.1141355 C38.3944725,33.4082495 38.2294292,32.7405855 37.9379868,32.1477389 C38.4339219,31.9793997 38.7921867,31.5060983 38.7921867,30.9482207 C38.7921867,30.2488405 38.2302343,29.6812041 37.5378574,29.6812041 L12.3659318,29.6812041 Z" id="Fill-1" fill="#FFFFFF" mask="url(#mask-4)"></path>
                    </g>
                </g>
            </g>
        </g>
    </g>
</svg>