<?xml version="1.0" encoding="UTF-8"?>
<svg width="21px" height="22px" viewBox="0 0 21 22" version="1.1" xmlns="http://www.w3.org/2000/svg" xmlns:xlink="http://www.w3.org/1999/xlink">
    <title>carrito</title>
    <g id="Symbols" stroke="none" stroke-width="1" fill="none" fill-rule="evenodd">
        <g id="Menú-/-Compra-/-Crema-/-64" transform="translate(-14.000000, -21.000000)" fill="#F4F4E8" fill-rule="nonzero">
            <g id="carrito" transform="translate(11.000000, 18.000000)">
                <path d="M9.53729031,20.2999705 C10.6491422,20.2999705 11.5497361,21.2397033 11.5497361,22.3999852 C11.5497361,23.5602671 10.6491422,24.5 9.53729031,24.5 C8.4254384,24.5 7.53493808,23.5602671 7.53493808,22.3999852 C7.53493808,21.2397033 8.4254384,20.2999705 9.53729031,20.2999705 Z M19.5994251,20.2999705 C20.7113242,20.2999705 21.6118709,21.2397525 21.6118709,22.3999852 C21.6118709,23.5602179 20.7113242,24.5 19.5994251,24.5 C18.4875732,24.5 17.5970729,23.5602671 17.5970729,22.3999852 C17.5970729,21.2397033 18.4875732,20.2999705 19.5994251,20.2999705 Z M6.78527642,3.5 L7.74119644,5.60001477 L22.6181174,5.60001477 C23.17152,5.60001477 23.6243168,6.06724799 23.6243168,6.64999754 C23.6243168,6.83373099 23.5790371,7.00698085 23.4985242,7.15399715 L23.4985242,7.15399715 L19.9012896,13.9685246 C19.5541454,14.6142741 18.8950903,15.0500074 18.140429,15.0500074 L18.140429,15.0500074 L10.6441426,15.0500074 L9.74359584,16.7614896 C9.72345582,16.798256 9.71340939,16.8402396 9.71340939,16.8874895 C9.71340939,17.0344566 9.8240616,17.1499729 9.96494743,17.1499729 L9.96494743,17.1499729 L21.6118709,17.1499729 L21.6118709,19.2499877 L9.53729031,19.2499877 C8.4254384,19.2499877 7.52484449,18.3102548 7.52484449,17.1500221 C7.52484449,16.782506 7.61540384,16.4412727 7.7713829,16.1367565 L7.7713829,16.1367565 L9.12977322,13.5642421 L5.51244583,5.60001477 L3.5,5.60001477 L3.5,3.5 L6.78527642,3.5 Z" id="Combined-Shape"></path>
            </g>
        </g>
    </g>
</svg>