<?xml version="1.0" encoding="UTF-8"?>
<svg width="204px" height="78px" viewBox="0 0 204 78" version="1.1" xmlns="http://www.w3.org/2000/svg" xmlns:xlink="http://www.w3.org/1999/xlink">
    <title>Destacado 2</title>
    <defs>
        <linearGradient x1="50%" y1="0%" x2="50%" y2="100%" id="linearGradient-1">
            <stop stop-color="#FFFFFF" stop-opacity="0.304141171" offset="0%"></stop>
            <stop stop-color="#FFFFFF" stop-opacity="0.582277098" offset="100%"></stop>
        </linearGradient>
        <filter color-interpolation-filters="auto" id="filter-2">
            <feColorMatrix in="SourceGraphic" type="matrix" values="0 0 0 0 0.101961 0 0 0 0 0.486275 0 0 0 0 0.525490 0 0 0 1.000000 0"></feColorMatrix>
        </filter>
        <filter color-interpolation-filters="auto" id="filter-3">
            <feColorMatrix in="SourceGraphic" type="matrix" values="0 0 0 0 0.349000 0 0 0 0 0.549000 0 0 0 0 0.475000 0 0 0 1.000000 0"></feColorMatrix>
        </filter>
        <polygon id="path-4" points="0 0 36 0 36 36 0 36"></polygon>
        <filter color-interpolation-filters="auto" id="filter-6">
            <feColorMatrix in="SourceGraphic" type="matrix" values="0 0 0 0 0.349000 0 0 0 0 0.549000 0 0 0 0 0.475000 0 0 0 1.000000 0"></feColorMatrix>
        </filter>
        <polygon id="path-7" points="0 0 12.9601127 0 12.9601127 20.16 0 20.16"></polygon>
    </defs>
    <g id="Desktop" stroke="none" stroke-width="1" fill="none" fill-rule="evenodd">
        <g id="Destacado-2" transform="translate(1.000000, 1.000000)">
            <rect id="Rectangle" stroke="#FFFFFF" fill="url(#linearGradient-1)" x="0" y="0" width="202" height="76" rx="20"></rect>
            <g id="Group-5" transform="translate(12.080537, 8.000000)" fill="#FFFFFF">
                <circle id="Oval" cx="30.5" cy="30.5" r="30.5"></circle>
            </g>
            <g filter="url(#filter-2)" id="ico-libre-grasa">
                <g transform="translate(24.080537, 20.000000)">
                    <g filter="url(#filter-3)">
                        <g id="Group-3">
                            <mask id="mask-5" fill="white">
                                <use xlink:href="#path-4"></use>
                            </mask>
                            <g id="Clip-2"></g>
                            <path d="M5.97138812,28.0097558 L9.72356754,25.5683792 L9.72356754,22.5888673 L4.62260636,26.0918826 C3.18038894,23.729635 2.33857388,20.9623541 2.33857388,18.0001565 C2.33857388,9.37017412 9.37038969,2.33886649 18,2.33886649 C22.4826764,2.33886649 26.5205275,4.24869267 29.3817152,7.27347824 L23.3817152,12.1012434 L23.542657,14.6557254 L30.8628269,9.08986957 C32.6246926,11.6233398 33.6614261,14.6870193 33.6614261,18.0001565 C33.6614261,26.6377388 26.6376574,33.6614465 18,33.6614465 C13.1668281,33.6614465 8.84017584,31.4632687 5.97138812,28.0097558 Z M18,-0.000134117007 C8.07614932,-0.000134117007 0,8.07639205 0,18.0001565 C0,27.9239209 8.07614932,36 18,36 C27.9238507,36 36,27.9239209 36,18.0001565 C36,8.07639205 27.9238507,-0.000134117007 18,-0.000134117007" id="Fill-1" fill="#FFFFFF" mask="url(#mask-5)"></path>
                        </g>
                    </g>
                    <g filter="url(#filter-6)" id="Group-3">
                        <g transform="translate(11.520100, 7.200000)">
                            <mask id="mask-8" fill="white">
                                <use xlink:href="#path-7"></use>
                            </mask>
                            <g id="Clip-2"></g>
                            <path d="M10.4994415,14.0607095 C10.4918663,13.9147938 10.4975477,13.8022655 10.4773472,13.6940653 C10.426846,13.4244922 10.1926467,13.2315866 9.91615256,13.217366 C9.63965847,13.2037637 9.38904624,13.3731743 9.31140064,13.6384195 C9.28615004,13.7249797 9.27731233,13.818341 9.27478727,13.9086109 C9.2634245,14.3358473 9.15105932,14.7364973 8.94400438,15.1099427 C8.61259022,15.7072079 8.12462234,16.133826 7.48073198,16.3891786 C7.13606126,16.5252017 6.96751349,16.8108503 7.04831542,17.1107195 C7.15058036,17.4884929 7.52113294,17.6640864 7.91946119,17.4990038 C9.48689233,16.851039 10.3144808,15.670729 10.4994415,14.0607095 M12.9601127,13.9160304 C12.8729981,17.1657471 10.3428877,19.8355106 7.03884644,20.1335249 C3.62243996,20.4420502 0.51535336,18.0189832 0.0494797497,14.6969269 C-0.0994988034,13.6340915 0.105031075,12.6244287 0.434551433,11.623422 C1.0727604,9.68571037 1.91991811,7.83332237 2.85924051,6.02359618 C3.84338273,4.1273098 4.87739489,2.25513662 5.89815049,0.376780562 C6.1651756,-0.114139355 6.7415206,-0.127123383 7.01296457,0.348339358 C8.73821197,3.36619844 10.3889701,6.42115475 11.7424024,9.62140852 C12.1849192,10.6681685 12.5914539,11.7297674 12.8161842,12.8470121 C12.8868859,13.1988174 12.913399,13.5592787 12.9601127,13.9160304" id="Fill-1" fill="#FFFFFF" mask="url(#mask-8)"></path>
                        </g>
                    </g>
                </g>
            </g>
            <path d="M88.9825369,33 L88.9825369,31.002 L84.8425369,31.002 L84.8425369,20.436 L82.3225369,20.436 L82.3225369,33 L88.9825369,33 Z M91.8625369,21.84 C92.3065369,21.84 92.6755369,21.699 92.9695369,21.417 C93.2635369,21.135 93.4105369,20.784 93.4105369,20.364 C93.4105369,19.944 93.2635369,19.593 92.9695369,19.311 C92.6755369,19.029 92.3065369,18.888 91.8625369,18.888 C91.4185369,18.888 91.0495369,19.029 90.7555369,19.311 C90.4615369,19.593 90.3145369,19.944 90.3145369,20.364 C90.3145369,20.784 90.4615369,21.135 90.7555369,21.417 C91.0495369,21.699 91.4185369,21.84 91.8625369,21.84 Z M93.1045369,33 L93.1045369,23.028 L90.5845369,23.028 L90.5845369,33 L93.1045369,33 Z M101.402537,33.162 C102.254537,33.162 103.025537,32.946 103.715537,32.514 C104.405537,32.082 104.951537,31.473 105.353537,30.687 C105.755537,29.901 105.956537,28.998 105.956537,27.978 C105.956537,26.958 105.755537,26.061 105.353537,25.287 C104.951537,24.513 104.405537,23.916 103.715537,23.496 C103.025537,23.076 102.254537,22.866 101.402537,22.866 C100.670537,22.866 100.019537,23.016 99.4495369,23.316 C98.8795369,23.616 98.4325369,24.006 98.1085369,24.486 L98.1085369,24.486 L98.1085369,19.68 L95.5885369,19.68 L95.5885369,33 L98.1085369,33 L98.1085369,31.578 C98.4445369,32.046 98.8915369,32.427 99.4495369,32.721 C100.007537,33.015 100.658537,33.162 101.402537,33.162 Z M100.736537,30.948 C100.280537,30.948 99.8515369,30.831 99.4495369,30.597 C99.0475369,30.363 98.7235369,30.024 98.4775369,29.58 C98.2315369,29.136 98.1085369,28.614 98.1085369,28.014 C98.1085369,27.414 98.2315369,26.892 98.4775369,26.448 C98.7235369,26.004 99.0475369,25.665 99.4495369,25.431 C99.8515369,25.197 100.280537,25.08 100.736537,25.08 C101.204537,25.08 101.639537,25.194 102.041537,25.422 C102.443537,25.65 102.767537,25.983 103.013537,26.421 C103.259537,26.859 103.382537,27.378 103.382537,27.978 C103.382537,28.59 103.259537,29.118 103.013537,29.562 C102.767537,30.006 102.443537,30.348 102.041537,30.588 C101.639537,30.828 101.204537,30.948 100.736537,30.948 Z M110.312537,33 L110.312537,28.032 C110.312537,27.108 110.513537,26.46 110.915537,26.088 C111.317537,25.716 111.914537,25.53 112.706537,25.53 L112.706537,25.53 L113.372537,25.53 L113.372537,22.884 C112.700537,22.884 112.103537,23.034 111.581537,23.334 C111.059537,23.634 110.636537,24.048 110.312537,24.576 L110.312537,24.576 L110.312537,23.028 L107.792537,23.028 L107.792537,33 L110.312537,33 Z M119.420537,33.162 C120.608537,33.162 121.610537,32.853 122.426537,32.235 C123.242537,31.617 123.794537,30.828 124.082537,29.868 L124.082537,29.868 L121.364537,29.868 C120.968537,30.672 120.302537,31.074 119.366537,31.074 C118.718537,31.074 118.172537,30.87 117.728537,30.462 C117.284537,30.054 117.032537,29.49 116.972537,28.77 L116.972537,28.77 L124.262537,28.77 C124.310537,28.482 124.334537,28.158 124.334537,27.798 C124.334537,26.826 124.127537,25.965 123.713537,25.215 C123.299537,24.465 122.717537,23.886 121.967537,23.478 C121.217537,23.07 120.368537,22.866 119.420537,22.866 C118.436537,22.866 117.566537,23.076 116.810537,23.496 C116.054537,23.916 115.466537,24.516 115.046537,25.296 C114.626537,26.076 114.416537,26.982 114.416537,28.014 C114.416537,29.034 114.629537,29.934 115.055537,30.714 C115.481537,31.494 116.075537,32.097 116.837537,32.523 C117.599537,32.949 118.460537,33.162 119.420537,33.162 Z M121.724537,27.078 L116.990537,27.078 C117.086537,26.406 117.347537,25.881 117.773537,25.503 C118.199537,25.125 118.724537,24.936 119.348537,24.936 C120.008537,24.936 120.566537,25.131 121.022537,25.521 C121.478537,25.911 121.712537,26.43 121.724537,27.078 L121.724537,27.078 Z M134.360537,33.162 C135.104537,33.162 135.758537,33.012 136.322537,32.712 C136.886537,32.412 137.324537,32.016 137.636537,31.524 L137.636537,31.524 L137.636537,33 L140.192537,33 L140.192537,19.68 L137.636537,19.68 L137.636537,24.414 C137.288537,23.946 136.820537,23.571 136.232537,23.289 C135.644537,23.007 135.026537,22.866 134.378537,22.866 C133.526537,22.866 132.752537,23.076 132.056537,23.496 C131.360537,23.916 130.811537,24.516 130.409537,25.296 C130.007537,26.076 129.806537,26.97 129.806537,27.978 C129.806537,28.998 130.007537,29.901 130.409537,30.687 C130.811537,31.473 131.360537,32.082 132.056537,32.514 C132.752537,32.946 133.520537,33.162 134.360537,33.162 Z M135.008537,30.948 C134.552537,30.948 134.123537,30.828 133.721537,30.588 C133.319537,30.348 132.995537,30.003 132.749537,29.553 C132.503537,29.103 132.380537,28.578 132.380537,27.978 C132.380537,27.378 132.503537,26.859 132.749537,26.421 C132.995537,25.983 133.316537,25.65 133.712537,25.422 C134.108537,25.194 134.540537,25.08 135.008537,25.08 C135.476537,25.08 135.914537,25.197 136.322537,25.431 C136.730537,25.665 137.054537,26.001 137.294537,26.439 C137.534537,26.877 137.654537,27.402 137.654537,28.014 C137.654537,28.626 137.534537,29.151 137.294537,29.589 C137.054537,30.027 136.730537,30.363 136.322537,30.597 C135.914537,30.831 135.476537,30.948 135.008537,30.948 Z M147.014537,33.162 C148.202537,33.162 149.204537,32.853 150.020537,32.235 C150.836537,31.617 151.388537,30.828 151.676537,29.868 L151.676537,29.868 L148.958537,29.868 C148.562537,30.672 147.896537,31.074 146.960537,31.074 C146.312537,31.074 145.766537,30.87 145.322537,30.462 C144.878537,30.054 144.626537,29.49 144.566537,28.77 L144.566537,28.77 L151.856537,28.77 C151.904537,28.482 151.928537,28.158 151.928537,27.798 C151.928537,26.826 151.721537,25.965 151.307537,25.215 C150.893537,24.465 150.311537,23.886 149.561537,23.478 C148.811537,23.07 147.962537,22.866 147.014537,22.866 C146.030537,22.866 145.160537,23.076 144.404537,23.496 C143.648537,23.916 143.060537,24.516 142.640537,25.296 C142.220537,26.076 142.010537,26.982 142.010537,28.014 C142.010537,29.034 142.223537,29.934 142.649537,30.714 C143.075537,31.494 143.669537,32.097 144.431537,32.523 C145.193537,32.949 146.054537,33.162 147.014537,33.162 Z M149.318537,27.078 L144.584537,27.078 C144.680537,26.406 144.941537,25.881 145.367537,25.503 C145.793537,25.125 146.318537,24.936 146.942537,24.936 C147.602537,24.936 148.160537,25.131 148.616537,25.521 C149.072537,25.911 149.306537,26.43 149.318537,27.078 L149.318537,27.078 Z M86.6065369,53.162 C87.8305369,53.162 88.8505369,52.844 89.6665369,52.208 C90.4825369,51.572 91.0285369,50.714 91.3045369,49.634 L91.3045369,49.634 L88.5865369,49.634 C88.2745369,50.546 87.6085369,51.002 86.5885369,51.002 C85.8685369,51.002 85.2985369,50.741 84.8785369,50.219 C84.4585369,49.697 84.2485369,48.962 84.2485369,48.014 C84.2485369,47.054 84.4585369,46.313 84.8785369,45.791 C85.2985369,45.269 85.8685369,45.008 86.5885369,45.008 C87.0925369,45.008 87.5155369,45.131 87.8575369,45.377 C88.1995369,45.623 88.4425369,45.962 88.5865369,46.394 L88.5865369,46.394 L91.3045369,46.394 C91.0285369,45.278 90.4855369,44.411 89.6755369,43.793 C88.8655369,43.175 87.8425369,42.866 86.6065369,42.866 C85.6465369,42.866 84.7945369,43.079 84.0505369,43.505 C83.3065369,43.931 82.7245369,44.531 82.3045369,45.305 C81.8845369,46.079 81.6745369,46.982 81.6745369,48.014 C81.6745369,49.046 81.8845369,49.949 82.3045369,50.723 C82.7245369,51.497 83.3065369,52.097 84.0505369,52.523 C84.7945369,52.949 85.6465369,53.162 86.6065369,53.162 Z M97.5865369,53.162 C98.5585369,53.162 99.4375369,52.949 100.223537,52.523 C101.009537,52.097 101.633537,51.494 102.095537,50.714 C102.557537,49.934 102.788537,49.034 102.788537,48.014 C102.788537,46.994 102.563537,46.094 102.113537,45.314 C101.663537,44.534 101.048537,43.931 100.268537,43.505 C99.4885369,43.079 98.6185369,42.866 97.6585369,42.866 C96.6985369,42.866 95.8285369,43.079 95.0485369,43.505 C94.2685369,43.931 93.6535369,44.534 93.2035369,45.314 C92.7535369,46.094 92.5285369,46.994 92.5285369,48.014 C92.5285369,49.034 92.7475369,49.934 93.1855369,50.714 C93.6235369,51.494 94.2265369,52.097 94.9945369,52.523 C95.7625369,52.949 96.6265369,53.162 97.5865369,53.162 Z M97.5865369,50.966 C96.8665369,50.966 96.2695369,50.711 95.7955369,50.201 C95.3215369,49.691 95.0845369,48.962 95.0845369,48.014 C95.0845369,47.066 95.3275369,46.337 95.8135369,45.827 C96.2995369,45.317 96.9025369,45.062 97.6225369,45.062 C98.3425369,45.062 98.9515369,45.317 99.4495369,45.827 C99.9475369,46.337 100.196537,47.066 100.196537,48.014 C100.196537,48.65 100.076537,49.19 99.8365369,49.634 C99.5965369,50.078 99.2755369,50.411 98.8735369,50.633 C98.4715369,50.855 98.0425369,50.966 97.5865369,50.966 Z M107.162537,53 L107.162537,39.68 L104.642537,39.68 L104.642537,53 L107.162537,53 Z M114.002537,53.162 C115.190537,53.162 116.192537,52.853 117.008537,52.235 C117.824537,51.617 118.376537,50.828 118.664537,49.868 L118.664537,49.868 L115.946537,49.868 C115.550537,50.672 114.884537,51.074 113.948537,51.074 C113.300537,51.074 112.754537,50.87 112.310537,50.462 C111.866537,50.054 111.614537,49.49 111.554537,48.77 L111.554537,48.77 L118.844537,48.77 C118.892537,48.482 118.916537,48.158 118.916537,47.798 C118.916537,46.826 118.709537,45.965 118.295537,45.215 C117.881537,44.465 117.299537,43.886 116.549537,43.478 C115.799537,43.07 114.950537,42.866 114.002537,42.866 C113.018537,42.866 112.148537,43.076 111.392537,43.496 C110.636537,43.916 110.048537,44.516 109.628537,45.296 C109.208537,46.076 108.998537,46.982 108.998537,48.014 C108.998537,49.034 109.211537,49.934 109.637537,50.714 C110.063537,51.494 110.657537,52.097 111.419537,52.523 C112.181537,52.949 113.042537,53.162 114.002537,53.162 Z M116.306537,47.078 L111.572537,47.078 C111.668537,46.406 111.929537,45.881 112.355537,45.503 C112.781537,45.125 113.306537,44.936 113.930537,44.936 C114.590537,44.936 115.148537,45.131 115.604537,45.521 C116.060537,45.911 116.294537,46.43 116.306537,47.078 L116.306537,47.078 Z M124.568537,53.162 C125.360537,53.162 126.053537,53.033 126.647537,52.775 C127.241537,52.517 127.697537,52.16 128.015537,51.704 C128.333537,51.248 128.492537,50.732 128.492537,50.156 C128.480537,49.496 128.303537,48.965 127.961537,48.563 C127.619537,48.161 127.214537,47.864 126.746537,47.672 C126.278537,47.48 125.684537,47.294 124.964537,47.114 C124.256537,46.934 123.734537,46.757 123.398537,46.583 C123.062537,46.409 122.894537,46.154 122.894537,45.818 C122.894537,45.518 123.017537,45.284 123.263537,45.116 C123.509537,44.948 123.860537,44.864 124.316537,44.864 C124.808537,44.864 125.201537,44.981 125.495537,45.215 C125.789537,45.449 125.954537,45.764 125.990537,46.16 L125.990537,46.16 L128.402537,46.16 C128.330537,45.152 127.940537,44.351 127.232537,43.757 C126.524537,43.163 125.576537,42.866 124.388537,42.866 C123.584537,42.866 122.885537,42.998 122.291537,43.262 C121.697537,43.526 121.241537,43.886 120.923537,44.342 C120.605537,44.798 120.446537,45.302 120.446537,45.854 C120.446537,46.526 120.617537,47.06 120.959537,47.456 C121.301537,47.852 121.709537,48.146 122.183537,48.338 C122.657537,48.53 123.266537,48.716 124.010537,48.896 C124.730537,49.088 125.255537,49.265 125.585537,49.427 C125.915537,49.589 126.080537,49.832 126.080537,50.156 C126.080537,50.456 125.945537,50.702 125.675537,50.894 C125.405537,51.086 125.030537,51.182 124.550537,51.182 C124.058537,51.182 123.647537,51.056 123.317537,50.804 C122.987537,50.552 122.798537,50.234 122.750537,49.85 L122.750537,49.85 L120.212537,49.85 C120.248537,50.462 120.455537,51.02 120.833537,51.524 C121.211537,52.028 121.724537,52.427 122.372537,52.721 C123.020537,53.015 123.752537,53.162 124.568537,53.162 Z M135.728537,53 L135.728537,50.876 L134.558537,50.876 C134.174537,50.876 133.901537,50.801 133.739537,50.651 C133.577537,50.501 133.496537,50.258 133.496537,49.922 L133.496537,49.922 L133.496537,45.098 L135.728537,45.098 L135.728537,43.028 L133.496537,43.028 L133.496537,40.562 L130.958537,40.562 L130.958537,43.028 L129.770537,43.028 L129.770537,45.098 L130.958537,45.098 L130.958537,49.904 C130.958537,51.968 132.020537,53 134.144537,53 L134.144537,53 L135.728537,53 Z M141.902537,53.162 C143.090537,53.162 144.092537,52.853 144.908537,52.235 C145.724537,51.617 146.276537,50.828 146.564537,49.868 L146.564537,49.868 L143.846537,49.868 C143.450537,50.672 142.784537,51.074 141.848537,51.074 C141.200537,51.074 140.654537,50.87 140.210537,50.462 C139.766537,50.054 139.514537,49.49 139.454537,48.77 L139.454537,48.77 L146.744537,48.77 C146.792537,48.482 146.816537,48.158 146.816537,47.798 C146.816537,46.826 146.609537,45.965 146.195537,45.215 C145.781537,44.465 145.199537,43.886 144.449537,43.478 C143.699537,43.07 142.850537,42.866 141.902537,42.866 C140.918537,42.866 140.048537,43.076 139.292537,43.496 C138.536537,43.916 137.948537,44.516 137.528537,45.296 C137.108537,46.076 136.898537,46.982 136.898537,48.014 C136.898537,49.034 137.111537,49.934 137.537537,50.714 C137.963537,51.494 138.557537,52.097 139.319537,52.523 C140.081537,52.949 140.942537,53.162 141.902537,53.162 Z M144.206537,47.078 L139.472537,47.078 C139.568537,46.406 139.829537,45.881 140.255537,45.503 C140.681537,45.125 141.206537,44.936 141.830537,44.936 C142.490537,44.936 143.048537,45.131 143.504537,45.521 C143.960537,45.911 144.194537,46.43 144.206537,47.078 L144.206537,47.078 Z M151.172537,53 L151.172537,48.032 C151.172537,47.108 151.373537,46.46 151.775537,46.088 C152.177537,45.716 152.774537,45.53 153.566537,45.53 L153.566537,45.53 L154.232537,45.53 L154.232537,42.884 C153.560537,42.884 152.963537,43.034 152.441537,43.334 C151.919537,43.634 151.496537,44.048 151.172537,44.576 L151.172537,44.576 L151.172537,43.028 L148.652537,43.028 L148.652537,53 L151.172537,53 Z M160.352537,53.162 C161.324537,53.162 162.203537,52.949 162.989537,52.523 C163.775537,52.097 164.399537,51.494 164.861537,50.714 C165.323537,49.934 165.554537,49.034 165.554537,48.014 C165.554537,46.994 165.329537,46.094 164.879537,45.314 C164.429537,44.534 163.814537,43.931 163.034537,43.505 C162.254537,43.079 161.384537,42.866 160.424537,42.866 C159.464537,42.866 158.594537,43.079 157.814537,43.505 C157.034537,43.931 156.419537,44.534 155.969537,45.314 C155.519537,46.094 155.294537,46.994 155.294537,48.014 C155.294537,49.034 155.513537,49.934 155.951537,50.714 C156.389537,51.494 156.992537,52.097 157.760537,52.523 C158.528537,52.949 159.392537,53.162 160.352537,53.162 Z M160.352537,50.966 C159.632537,50.966 159.035537,50.711 158.561537,50.201 C158.087537,49.691 157.850537,48.962 157.850537,48.014 C157.850537,47.066 158.093537,46.337 158.579537,45.827 C159.065537,45.317 159.668537,45.062 160.388537,45.062 C161.108537,45.062 161.717537,45.317 162.215537,45.827 C162.713537,46.337 162.962537,47.066 162.962537,48.014 C162.962537,48.65 162.842537,49.19 162.602537,49.634 C162.362537,50.078 162.041537,50.411 161.639537,50.633 C161.237537,50.855 160.808537,50.966 160.352537,50.966 Z M169.928537,53 L169.928537,39.68 L167.408537,39.68 L167.408537,53 L169.928537,53 Z" id="Libredecolesterol" fill="#3E3E3E" fill-rule="nonzero"></path>
        </g>
    </g>
</svg>