<?xml version="1.0" encoding="UTF-8"?>
<svg width="39px" height="34px" viewBox="0 0 39 34" version="1.1" xmlns="http://www.w3.org/2000/svg" xmlns:xlink="http://www.w3.org/1999/xlink">
    <title>Group 6</title>
    <defs>
        <filter color-interpolation-filters="auto" id="filter-1">
            <feColorMatrix in="SourceGraphic" type="matrix" values="0 0 0 0 0.117647 0 0 0 0 0.388235 0 0 0 0 0.290196 0 0 0 1.000000 0"></feColorMatrix>
        </filter>
        <polygon id="path-2" points="0 0 39 0 39 19 0 19"></polygon>
    </defs>
    <g id="⭐️-Simbolos" stroke="none" stroke-width="1" fill="none" fill-rule="evenodd">
        <g id="Group-6" transform="translate(-18.000000, -19.000000)" filter="url(#filter-1)">
            <g transform="translate(18.000000, 19.000000)">
                <g id="Group-3">
                    <mask id="mask-3" fill="white">
                        <use xlink:href="#path-2"></use>
                    </mask>
                    <g id="Clip-2"></g>
                    <path d="M19.4676857,6.09175957 C19.9133436,5.43177814 20.3014442,4.78840003 20.7553246,4.19566199 C23.0140372,1.24442431 25.928903,-0.323757964 29.6906833,0.0714007242 C33.0405178,0.424220982 35.630596,2.09451359 37.3318252,5.01420499 C39.2838397,8.36226169 39.4729565,11.9037469 38.159828,15.5431916 C38.0726698,15.7831094 37.9559107,15.8379003 37.7223925,15.8370702 C35.0320002,15.8295987 32.3424301,15.8271082 29.6520377,15.8403908 C29.3864519,15.841221 29.277093,15.7366202 29.1726677,15.519947 C28.6143619,14.3718284 28.0371445,13.2336717 27.4804832,12.0855531 C27.2428538,11.5957556 26.907377,11.2827833 26.3392043,11.2844436 C25.7718539,11.2852738 25.4421328,11.6032271 25.2028589,12.0913643 C24.1396934,14.2572656 23.0650166,16.4165255 21.9936286,18.578276 C21.9336046,18.6994802 21.8653581,18.8173636 21.7666885,19 C21.3547427,18.171495 20.9666421,17.4019318 20.5884084,16.6273875 C20.3902469,16.2206065 20.1008159,15.9483123 19.6362463,15.9043136 C19.0606734,15.8503528 18.6807953,16.0595545 18.4053425,16.6041429 C18.0147751,17.377857 17.6324303,18.1557219 17.2171955,18.9916983 C17.1259261,18.8323066 17.0552128,18.7210645 16.9968333,18.603181 C15.9254454,16.4422607 14.849124,14.2830007 13.7884253,12.1162692 C13.5433957,11.6156796 13.2153191,11.2819531 12.6290569,11.2844436 C12.0411503,11.2869341 11.7180072,11.6289622 11.4770888,12.1295519 C10.9237166,13.2793308 10.3448546,14.4174875 9.78243765,15.5622854 C9.69856845,15.7341297 9.61716599,15.8395607 9.39269254,15.8387305 C6.62665345,15.8287685 3.86061437,15.8320892 1.09375303,15.8304288 C1.04441821,15.8304288 0.994261137,15.8204669 0.935059349,15.8146557 C0.135835213,13.882861 -0.150306761,11.878842 0.0733444372,9.80425884 C0.329063271,7.44160836 1.1578883,5.31887566 2.71193523,3.50911528 C4.22733655,1.74418383 6.12672725,0.634252806 8.39612911,0.195925521 C10.8768485,-0.282249699 13.2153191,0.102947006 15.3638506,1.48268175 C16.8578735,2.44235285 18.0098417,3.7407314 18.956248,5.23668929 C19.1264532,5.50566286 19.2835024,5.78293807 19.4676857,6.09175957" id="Fill-1" fill="#FFFFFF" mask="url(#mask-3)"></path>
                </g>
                <path d="M2,18.117211 C4.55970149,18.117211 7.04311774,18.0698196 9.52238806,18.1392725 C10.5995025,18.1695049 11.2678275,17.8361309 11.6500829,16.8376428 C11.8855721,16.2215545 12.2396352,15.6495892 12.5688226,15 C12.6674959,15.1756751 12.7363184,15.2900681 12.7960199,15.4093637 C13.8822554,17.5476969 14.9684909,19.6860301 16.0497512,21.8268146 C16.2487562,22.2206535 16.5165837,22.5172584 16.9834163,22.5793575 C17.5737977,22.6586156 17.9908789,22.4469884 18.2711443,21.9085239 C18.6144279,21.2483125 18.9461028,20.5807473 19.2844113,19.9172675 C19.3391376,19.8094112 19.4038143,19.7056404 19.4975124,19.5422217 C19.8656716,20.2637151 20.2056385,20.9337316 20.5497512,21.6021139 C20.6475954,21.7924967 20.7396352,21.9894161 20.8640133,22.1626399 C21.3291874,22.811412 22.2487562,22.811412 22.7197347,22.1675425 C22.8084577,22.0457956 22.8789386,21.9101581 22.9477612,21.7753377 C24.0232172,19.6598831 25.0970149,17.5436115 26.172471,15.4273398 C26.2338308,15.30641 26.300995,15.1871144 26.3913765,15.0204273 C26.4668325,15.1470768 26.526534,15.2353229 26.5746269,15.3301057 C26.9079602,15.9821462 27.2504146,16.6301011 27.566335,17.2894954 C27.8441128,17.8679975 28.2810945,18.126199 28.9344942,18.1229306 C31.4552239,18.10904 33.9759536,18.117211 36.4958541,18.117211 L37,18.117211 C36.606136,18.6597609 36.2703151,19.1590049 35.8963516,19.6288336 C34.2089552,21.751642 32.2371476,23.6056267 30.1741294,25.3623773 C26.9237148,28.1323236 23.6426202,30.867952 20.3731343,33.6158368 C19.7844113,34.1109953 19.212272,34.1314227 18.6492537,33.6542402 C14.8092869,30.3997575 10.9502488,27.1665193 7.14593698,23.8728162 C5.29933665,22.2737646 3.61940299,20.5039405 2.24046434,18.4816346 C2.1708126,18.3794979 2.10447761,18.2765442 2,18.117211" id="Fill-4" fill="#FFFFFF"></path>
            </g>
        </g>
    </g>
</svg>