<?xml version="1.0" encoding="UTF-8"?>
<svg width="76px" height="44px" viewBox="0 0 76 44" version="1.1" xmlns="http://www.w3.org/2000/svg" xmlns:xlink="http://www.w3.org/1999/xlink">
    <title>Grupo-Exito_logo</title>
    <g id="⭐️-Simbolos" stroke="none" stroke-width="1" fill="none" fill-rule="evenodd">
        <g id="Transversales/Footer/Desktop" transform="translate(-218.000000, -123.000000)" fill-rule="nonzero">
            <g id="Group-2" transform="translate(52.000000, 39.000000)">
                <g id="Group" transform="translate(83.000000, 84.000000)">
                    <g id="Grupo-Exito_logo" transform="translate(83.000000, 0.000000)">
                        <ellipse id="XMLID_49_" fill="#FFE701" cx="53.8430396" cy="22" rx="22.1569604" ry="22"></ellipse>
                        <path d="M73.6468642,17.3684211 C73.0221378,17.3684211 72.5223568,17.8646617 72.5223568,18.4849624 C72.5223568,19.1052632 73.0221378,19.6015038 73.6468642,19.6015038 C74.2715905,19.6015038 74.7713716,19.1052632 74.7713716,18.4849624 C74.7713716,17.8646617 74.2715905,17.3684211 73.6468642,17.3684211 Z M73.6676884,17.5958647 C74.1674694,17.5958647 74.5631294,17.9887218 74.5631294,18.4849624 C74.5631294,18.981203 74.1674694,19.3740602 73.6676884,19.3740602 C73.1679073,19.3740602 72.7722473,18.981203 72.7722473,18.4849624 C72.7722473,17.9887218 73.1679073,17.5958647 73.6676884,17.5958647 Z" id="XMLID_55_" fill="#000000"></path>
                        <path d="M39.5576309,17.4097744 C39.5368067,17.4097744 39.5159825,17.4097744 39.4743341,17.4097744 L39.4535099,17.4097744 L39.4118615,17.4097744 C39.3493888,17.4097744 39.2869162,17.4097744 39.2452678,17.4097744 C39.0578499,17.4097744 38.8912562,17.4511278 38.7246625,17.4718045 L38.7038383,17.4718045 C38.2873541,17.5338346 37.9333425,17.6578947 37.6418035,17.8233083 C37.3710888,17.9473684 37.1420225,18.0921053 36.9546046,18.2368421 L36.9546046,18.2368421 C36.1841088,18.7951128 35.6010309,19.6428571 35.3094919,20.6146617 L35.3094919,20.6353383 C35.1637224,21.1109023 35.0804256,21.6071429 35.0804256,22.1240602 C35.0804256,23.5507519 35.6635035,24.8327068 36.5589446,25.6390977 C36.6838898,25.7631579 36.8296593,25.887218 36.996253,25.9906015 C37.1836709,26.1353383 37.391913,26.2387218 37.5793309,26.3214286 L37.6001551,26.3214286 C38.0582878,26.5488722 38.7454867,26.693609 39.5159825,26.693609 C39.6409278,26.693609 39.7658731,26.693609 39.8908183,26.6729323 L39.8908183,26.6729323 C39.9949394,26.6729323 40.1198846,26.6729323 40.2448299,26.6729323 C40.2864783,26.6729323 40.3281267,26.6522556 40.348951,26.6522556 C42.1190089,26.5488722 43.5767036,25.2255639 43.8682426,23.5507519 L43.8682426,23.5507519 C43.8682426,23.5300752 43.8890668,23.4887218 43.8890668,23.4680451 L41.535931,23.4680451 C41.3485131,24.0263158 40.8279078,24.4398496 40.1615331,24.5432331 L40.1615331,24.5432331 L40.1407088,24.5432331 C40.0157636,24.5639098 39.8699941,24.5845865 39.7034004,24.5845865 C39.4535099,24.5845865 39.2452678,24.5639098 39.1411467,24.5225564 C38.6205415,24.3778195 38.2040572,23.9849624 38.0582878,23.4887218 L38.0582878,23.4680451 C38.0582878,23.4473684 38.0374635,23.4266917 38.0374635,23.406015 C38.0374635,23.3646617 38.0166393,23.343985 38.0166393,23.3026316 C37.9958151,23.1785714 37.9749909,23.0131579 37.9749909,22.8270677 L37.9749909,22.8270677 L37.9749909,22.8270677 L38.0166393,22.8270677 L38.0999362,22.8270677 L38.1624088,22.8270677 L38.2040572,22.8270677 L44.1389573,22.8270677 C44.1597816,22.7030075 44.1597816,22.5582707 44.1597816,22.4135338 C44.1597816,22.268797 44.1597816,22.1447368 44.1389573,22.0206767 L44.1389573,22 C44.1181331,21.6898496 44.0973089,21.4210526 44.0348363,21.193609 C43.909891,20.3458647 43.6391763,19.6015038 43.2643405,19.1466165 L43.2643405,19.1466165 C42.5354931,18.0921053 41.2860404,17.4097744 39.8699941,17.4097744 C39.8491699,17.4097744 39.8075215,17.4097744 39.7866973,17.4097744 C39.661752,17.4097744 39.6201036,17.4097744 39.5576309,17.4097744 L39.5576309,17.4097744 Z M39.6825762,19.5601504 C39.9116425,19.5601504 40.0990604,19.5808271 40.2031815,19.6428571 C40.7862594,19.8082707 41.2027436,20.3665414 41.2652162,21.0281955 L39.7242246,21.0281955 L39.7034004,21.0281955 L37.9541667,21.0281955 C38.0166393,20.325188 38.5580688,19.7462406 39.266092,19.6221805 L39.266092,19.6221805 L39.2869162,19.6221805 C39.3910373,19.5808271 39.5159825,19.5601504 39.6825762,19.5601504 L39.6825762,19.5601504 Z" id="XMLID_58_" fill="#000000"></path>
                        <path d="M43.3059889,17.6165414 L44.8053321,19.7462406 L44.8053321,19.7462406 L46.2422026,21.8552632 L44.5346173,24.3778195 L44.5346173,24.3778195 L43.9515394,25.2462406 L43.0769226,26.5281955 L46.2213784,26.5281955 L47.8873153,24.0469925 L49.5116037,26.4454887 L49.532428,26.4868421 L51.1983648,26.4868421 L51.614849,26.4868421 L52.7393564,26.4868421 L51.1983648,24.2951128 L51.1983648,24.2951128 L49.4699553,21.7518797 L50.9276501,19.7048872 L50.9276501,19.7255639 L51.5732006,18.7951128 L52.4061691,17.5958647 L49.240889,17.5958647 L47.9081395,19.6015038 L46.5545658,17.5958647 L43.3059889,17.6165414 L43.3059889,17.6165414 Z M46.4920932,17.6165414 L46.3463237,17.7199248 L46.3463237,17.7199248 L46.4920932,17.6165414 L46.4920932,17.6165414 Z" id="XMLID_61_" fill="#000000"></path>
                        <polygon id="XMLID_62_" fill="#000000" points="52.9059501 17.6165414 53.4057312 26.4868421 53.4265554 26.4868421 53.489028 26.4868421 55.5922733 26.4868421 56.0087575 26.4868421 56.0295818 26.4868421 56.5293628 17.6165414 56.0087575 17.6165414 55.5922733 17.6165414 53.489028 17.6165414 53.4265554 17.6165414"></polygon>
                        <path d="M56.4044176,28.6165414 C56.4044176,29.5469925 55.654746,30.2913534 54.7176565,30.2913534 C53.780567,30.2913534 53.0308954,29.5469925 53.0308954,28.6165414 L53.0308954,28.6165414 C53.0308954,27.6860902 53.780567,26.9417293 54.7176565,26.9417293 C55.654746,26.9210526 56.4044176,27.6860902 56.4044176,28.6165414 L56.4044176,28.6165414 Z" id="XMLID_64_" fill="#EC1B23"></path>
                        <path d="M58.4868386,15.0733083 L58.4868386,17.5958647 L57.0707923,17.5958647 L57.0707923,19.5808271 L58.4868386,19.5808271 L58.4868386,23.7781955 L58.4868386,23.7781955 L58.4868386,24.4398496 L58.4868386,24.4605263 L58.4868386,24.5018797 L58.4868386,24.5018797 C58.4868386,24.5639098 58.4660144,24.6259398 58.4868386,24.7086466 C58.4868386,24.8120301 58.5076629,24.9154135 58.5284871,24.9774436 L58.5284871,24.9774436 C58.6117839,25.556391 59.0490923,26.0526316 59.6529945,26.3214286 C59.6738187,26.3421053 59.7154671,26.3421053 59.7362913,26.362782 C59.7571155,26.362782 59.7779397,26.3834586 59.8195881,26.3834586 L59.8612366,26.4041353 C60.0694787,26.4661654 60.2777208,26.5281955 60.5067871,26.5281955 L60.5067871,26.5281955 C60.7358534,26.5488722 60.9857439,26.5695489 61.2564587,26.5695489 C61.4647008,26.5695489 61.6521187,26.5695489 61.8395366,26.5488722 C61.9644819,26.5488722 62.1102513,26.5488722 62.2560208,26.5281955 C62.5267356,26.5075188 62.7558019,26.4661654 62.9432198,26.424812 L62.9432198,25.9285714 L62.9432198,25.9285714 L62.9432198,25.3496241 L62.9432198,24.212406 L62.8390987,24.212406 C62.8182745,24.2330827 62.7974503,24.2330827 62.7558019,24.2537594 L62.7558019,24.2537594 C62.4226145,24.3571429 61.9644819,24.3778195 61.4647008,24.2744361 L61.4647008,24.2744361 C61.3397555,24.2744361 61.2564587,24.1710526 61.2564587,24.0469925 L61.2564587,23.9849624 L61.2564587,23.7988722 L61.2564587,23.0338346 L61.2564587,19.5808271 L62.9432198,19.5808271 L62.9432198,17.5958647 L61.2564587,17.5958647 L61.2564587,15.0733083 L58.4868386,15.0733083 L58.4868386,15.0733083 Z" id="XMLID_65_" fill="#000000"></path>
                        <path d="M67.9202062,17.3477444 C66.6291051,17.3477444 65.4629493,17.8026316 64.6716293,18.5263158 C64.6299809,18.5469925 64.6091566,18.5883459 64.5675082,18.6090226 C64.4842114,18.6917293 64.4009145,18.7744361 64.3384419,18.8571429 L64.3384419,18.8571429 L64.3176177,18.8984962 C64.2967935,18.9191729 64.2759693,18.9605263 64.2551451,18.981203 L64.2343208,19.0018797 C64.2134966,19.0432331 64.1926724,19.0639098 64.151024,19.1052632 L64.1301998,19.1466165 C64.0885514,19.1879699 64.0677272,19.25 64.0260787,19.2913534 C63.5887703,20.0150376 63.3180556,20.9661654 63.3180556,22.0206767 C63.3180556,23.0545113 63.5887703,24.0056391 64.0260787,24.75 C64.0469029,24.7913534 64.0885514,24.8533835 64.1301998,24.8947368 C64.1718482,24.9360902 64.1926724,24.9981203 64.2343208,25.0394737 C64.2759693,25.0808271 64.2967935,25.1221805 64.3384419,25.1635338 L64.3592661,25.1842105 L64.3592661,25.2048872 C64.4633872,25.3289474 64.5675082,25.4530075 64.6924535,25.556391 L64.7132777,25.556391 C65.5045977,26.2800752 66.6707535,26.7349624 67.9618546,26.7349624 C69.2529557,26.7349624 70.4191115,26.2800752 71.2104315,25.556391 L71.2312557,25.556391 C71.356201,25.4530075 71.460322,25.3289474 71.5644431,25.2048872 L71.5644431,25.1842105 L71.5644431,25.1842105 L71.5644431,25.1635338 C71.6060915,25.1221805 71.6269157,25.0808271 71.6685641,25.0394737 C71.7102126,24.9981203 71.7310368,24.9360902 71.7726852,24.8947368 C71.8143336,24.8533835 71.8351578,24.7913534 71.8768062,24.75 C72.3141147,24.0263158 72.5848294,23.075188 72.5848294,22.0206767 C72.5848294,20.9868421 72.3141147,20.0357143 71.8768062,19.2913534 C71.855982,19.25 71.8143336,19.1879699 71.7726852,19.1466165 C71.7102126,19.0639098 71.6477399,18.9605263 71.5852673,18.8778195 L71.5227947,18.8984962 L71.5019704,18.8778195 C71.4186736,18.7951128 71.356201,18.712406 71.2729041,18.6296992 L71.2312557,18.5883459 L71.1687831,18.5469925 C70.3774631,17.8233083 69.2113073,17.3477444 67.9202062,17.3477444 L67.9202062,17.3477444 Z M67.9202062,19.5601504 C68.5032841,19.5601504 69.0030651,19.8496241 69.3362525,20.2631579 C69.3570767,20.2838346 69.3779009,20.325188 69.3987251,20.3458647 C69.4195494,20.387218 69.4611978,20.4492481 69.482022,20.4906015 C69.5028462,20.5112782 69.5028462,20.5526316 69.5236704,20.5733083 L69.5444946,20.6146617 C69.5653188,20.656015 69.586143,20.7180451 69.6069673,20.7593985 C69.6277915,20.8007519 69.6277915,20.8421053 69.6486157,20.8834586 L69.6486157,20.8834586 C69.7527367,21.2142857 69.7943852,21.6071429 69.7943852,22.0206767 C69.7943852,22.4755639 69.7319125,22.8890977 69.6277915,23.2199248 L69.6277915,23.2406015 L69.6277915,23.2612782 C69.6069673,23.3026316 69.586143,23.3646617 69.5653188,23.406015 L69.5653188,23.4266917 L69.5653188,23.4473684 C69.5028462,23.612782 69.4195494,23.7368421 69.3154283,23.8402256 L69.2946041,23.8609023 L69.2737799,23.8815789 C68.9405925,24.2744361 68.4616357,24.5225564 67.9202062,24.5225564 C67.3371283,24.5225564 66.816523,24.2330827 66.5041598,23.7988722 C66.4833356,23.7781955 66.4625114,23.7368421 66.4416872,23.7161654 L66.4416872,23.7161654 C66.420863,23.674812 66.4000388,23.6334586 66.3583904,23.5921053 L66.3375661,23.5714286 L66.3375661,23.5714286 C66.2542693,23.4266917 66.1917967,23.2612782 66.1709725,23.0958647 L66.1709725,23.075188 C66.0876756,22.7650376 66.0460272,22.4135338 66.0460272,22.0206767 C66.0460272,21.6278195 66.0876756,21.2763158 66.1709725,20.9661654 L66.1709725,20.9661654 C66.2126209,20.7387218 66.2959177,20.5319549 66.420863,20.3458647 C66.4416872,20.3045113 66.4625114,20.2838346 66.4833356,20.2424812 C66.816523,19.8496241 67.3163041,19.5601504 67.9202062,19.5601504 L67.9202062,19.5601504 Z" id="XMLID_71_" fill="#000000"></path>
                        <polygon id="XMLID_72_" fill="#000000" points="40.0782362 15.0733083 38.6413657 16.8721805 40.4114236 16.8721805 42.7853836 15.0733083"></polygon>
                        <path d="M73.3761494,17.8853383 L73.3761494,17.8853383 L73.2095557,17.8853383 L73.2095557,19.0639098 L73.4802705,19.0639098 L73.4802705,18.5469925 L73.62604,18.5469925 L73.8759305,19.0639098 L74.1674694,19.0639098 L73.9175789,18.5469925 C73.9384031,18.5469925 73.9592273,18.5263158 73.9800515,18.5263158 C74.0217,18.5056391 74.0633484,18.443609 74.0841726,18.4022556 L74.0841726,18.4022556 C74.125821,18.3609023 74.1466452,18.2781955 74.125821,18.174812 C74.1049968,18.0714286 74.0633484,17.9887218 74.0008758,17.9473684 L73.9592273,17.9266917 L73.9384031,17.9266917 L73.9175789,17.9266917 C73.8759305,17.906015 73.8551063,17.906015 73.8342821,17.906015 L73.8342821,17.906015 L73.8342821,17.906015 L73.3761494,17.8853383 L73.3761494,17.8853383 Z M73.4594463,18.1334586 L73.7718094,18.1334586 L73.7718094,18.1334586 C73.8134579,18.1334586 73.8342821,18.1954887 73.8342821,18.2575188 C73.8342821,18.3195489 73.8134579,18.3609023 73.7718094,18.3815789 L73.7509852,18.3815789 L73.4594463,18.3815789 L73.4594463,18.1334586 Z" id="XMLID_79_" fill="#000000"></path>
                        <path d="M20.3577085,19.25 C19.420619,19.25 18.5876506,19.6221805 18.0670453,20.2218045 L18.0670453,19.4774436 L17.0883074,19.4774436 L17.0883074,29.3195489 L18.0670453,29.3195489 L18.0670453,25.9285714 C18.6084748,26.5075188 19.4414432,26.9003759 20.3577085,26.9003759 C21.4822159,26.9003759 22.481778,26.3421053 22.9607349,25.5150376 L22.9607349,25.5150376 C23.0648559,25.3703008 23.1273286,25.2048872 23.2106254,25.0394737 L23.2314496,24.9981203 C23.2522738,24.9360902 23.273098,24.8740602 23.2939222,24.8120301 C23.4188675,24.3778195 23.5021643,23.7988722 23.5021643,23.1578947 C23.5021643,22.5996241 23.4396917,22.0827068 23.3355707,21.6898496 C23.3147465,21.5244361 23.273098,21.3590226 23.2106254,21.2142857 L23.2106254,21.2142857 L23.2106254,21.193609 C22.8566138,20.056391 21.7112822,19.25 20.3577085,19.25 L20.3577085,19.25 Z M20.2952359,20.1184211 C21.3156222,20.1184211 22.1902391,20.8007519 22.4193054,21.7105263 C22.5650749,22.1033835 22.6483717,22.5996241 22.6483717,23.137218 C22.6483717,23.7575188 22.5442506,24.3157895 22.3568327,24.75 C22.3360085,24.8120301 22.2943601,24.8740602 22.2735359,24.9360902 L22.2527117,24.9774436 C21.8987001,25.6390977 21.1490285,26.1146617 20.3160601,26.1146617 C19.712158,26.1146617 19.1707285,25.887218 18.7750685,25.5150376 L18.7750685,25.5150376 C18.629299,25.3909774 18.5043537,25.2255639 18.4002327,25.0394737 C18.3794085,24.9981203 18.3585843,24.9774436 18.33776,24.9360902 C18.3169358,24.8947368 18.2961116,24.8327068 18.2752874,24.7913534 L18.2752874,24.7706767 C18.2544632,24.7293233 18.2544632,24.6879699 18.233639,24.6466165 C18.2128148,24.5845865 18.1919906,24.5225564 18.1711664,24.481203 C18.1711664,24.4605263 18.1503421,24.4398496 18.1503421,24.4191729 C18.1503421,24.3984962 18.1295179,24.3778195 18.1295179,24.3364662 C18.1295179,24.3157895 18.1086937,24.2744361 18.1086937,24.2537594 C18.1086937,24.2330827 18.0878695,24.1917293 18.0878695,24.1710526 C18.0253969,23.8609023 17.9837485,23.5093985 17.9837485,23.1578947 C17.9837485,22.1033835 18.2961116,21.2142857 18.7750685,20.8007519 L18.7958927,20.7800752 L18.8167169,20.7800752 C19.1499043,20.3665414 19.6913338,20.1184211 20.2952359,20.1184211 Z" id="XMLID_82_" fill="#EC1B23"></path>
                        <path d="M10.6744504,19.4774436 L10.6744504,24.8120301 L10.6744504,24.8120301 C10.6744504,25.018797 10.7160989,25.2462406 10.7785715,25.4736842 C10.8410441,25.6804511 10.924341,25.8665414 11.028462,26.0112782 L11.028462,26.0112782 C11.0909347,26.0733083 11.1534073,26.1353383 11.2158799,26.1973684 C11.5074189,26.5075188 11.9447273,26.7142857 12.4445084,26.8176692 C12.4653326,26.8176692 12.506981,26.8383459 12.5278052,26.8383459 C12.7568715,26.8796992 12.9859378,26.9003759 13.2358284,26.9003759 C13.3607736,26.9003759 13.4857189,26.9003759 13.6106642,26.8796992 L13.6314884,26.8796992 C14.5061052,26.8796992 15.2557768,26.3421053 15.6097884,25.5770677 L15.6097884,26.9003759 L16.5677021,26.9003759 L16.5677021,19.4981203 L15.6097884,19.4981203 L15.6097884,23.7988722 C15.5889642,24.0883459 15.5264916,24.3984962 15.4431947,24.7086466 C15.3598979,24.9154135 15.2557768,25.1015038 15.1100074,25.2669173 C15.0475347,25.3289474 15.0058863,25.3909774 14.9642379,25.4116541 L14.9642379,25.4116541 C14.6726989,25.7218045 14.3186873,25.9492481 13.9022031,26.0319549 C13.8813789,26.0319549 13.8397305,26.0526316 13.8189063,26.0526316 L13.7980821,26.0526316 C13.6731368,26.0733083 13.5481915,26.093985 13.4024221,26.093985 C13.3399494,26.093985 13.2774768,26.093985 13.2150042,26.093985 L13.2150042,26.093985 C12.506981,26.0733083 11.9030789,25.6184211 11.7364852,24.9981203 C11.6948368,24.9154135 11.6740126,24.8120301 11.6531884,24.7086466 L11.6531884,24.6879699 C11.6531884,24.6672932 11.6531884,24.6466165 11.6323641,24.6259398 L11.6323641,19.4981203 L10.6744504,19.4774436 L10.6744504,19.4774436 Z" id="XMLID_83_" fill="#EC1B23"></path>
                        <path d="M10.3204389,19.4774436 C9.19593147,19.4774436 8.23801777,19.9943609 7.86318197,20.7387218 L7.86318197,19.6428571 L6.88444406,19.6428571 L6.88444406,26.9210526 L7.86318197,26.9210526 L7.86318197,22.4548872 C7.86318197,22.4342105 7.88400618,22.4135338 7.88400618,22.3928571 C7.90483039,22.3101504 7.90483039,22.2274436 7.90483039,22.1654135 C7.9256546,22.1033835 7.94647881,22.0413534 7.94647881,22 L7.94647881,22 C8.13389671,21.1315789 9.19593147,20.4492481 10.4870325,20.387218 L10.4870325,19.518797 C10.4453841,19.4774436 10.3829115,19.4774436 10.3204389,19.4774436 L10.3204389,19.4774436 Z" id="XMLID_84_" fill="#EC1B23"></path>
                        <path d="M3.09443768,19.3120301 C2.03240292,19.3120301 1.11613764,19.8703008 0.616356581,20.6973684 L0.616356581,20.7180451 C0.36646605,21.0488722 0.158223941,21.5451128 0.0541028869,22.1447368 C-0.00836974574,22.5169173 -0.00836974574,22.8684211 0.0124544652,23.1785714 C0.033278676,23.943609 0.220696574,24.6052632 0.512235526,25.0394737 C0.970368166,25.9699248 1.94910608,26.6315789 3.09443768,26.6315789 C4.03152717,26.6315789 4.88531981,26.1766917 5.40592509,25.4943609 L5.40592509,27.2105263 L5.40592509,27.2105263 C5.40592509,27.2725564 5.40592509,27.3345865 5.40592509,27.3966165 C5.40592509,27.4172932 5.40592509,27.4586466 5.40592509,27.4793233 L5.40592509,27.4793233 C5.32262824,28.1203008 4.42718717,28.637218 3.323504,28.637218 C2.46971135,28.637218 1.74086397,28.3270677 1.42850081,27.8928571 L1.40767659,27.8721805 C1.28273133,27.7067669 1.17861027,27.4586466 1.17861027,27.1898496 L0.303993418,27.1898496 C0.324817628,28.4511278 1.67839134,29.4849624 3.34432821,29.4849624 C5.01026508,29.4849624 6.36383879,28.4718045 6.384663,27.1898496 L6.384663,27.1898496 L6.384663,19.6221805 L5.4267493,19.6221805 L5.4267493,20.4285714 C4.88531981,19.7462406 4.05235138,19.3120301 3.09443768,19.3120301 Z M3.21938294,20.1184211 C4.13564822,20.1184211 4.92696824,20.656015 5.26015561,21.4003759 L5.28097982,21.4210526 L5.30180403,21.4417293 C5.4267493,21.6898496 5.51004614,22.0206767 5.55169456,22.4135338 C5.59334298,22.6203008 5.61416719,22.8684211 5.61416719,23.0958647 C5.61416719,23.612782 5.53087035,24.0883459 5.38510087,24.4398496 C5.36427666,24.481203 5.36427666,24.5018797 5.34345245,24.5432331 C5.28097982,24.6466165 5.2393314,24.75 5.17685877,24.8327068 L5.17685877,24.8327068 C4.78119876,25.4530075 4.07317559,25.887218 3.26103136,25.887218 C2.3655903,25.887218 1.59509449,25.3909774 1.24108291,24.6672932 C1.0328408,24.3364662 0.887071323,23.7368421 0.887071323,23.0545113 C0.887071323,22.5169173 0.970368166,22.0413534 1.11613764,21.6898496 C1.32437975,20.7800752 2.19899661,20.1184211 3.21938294,20.1184211 Z" id="XMLID_87_" fill="#EC1B23"></path>
                        <path d="M27.4379402,19.2086466 C25.7303549,19.2086466 24.3351328,20.4699248 24.1060665,22.1033835 C24.0435938,22.4135338 24.0019454,22.7650376 24.0019454,23.1165414 C24.0019454,23.674812 24.0852423,24.1710526 24.2101875,24.5845865 C24.2310117,24.6259398 24.2310117,24.6672932 24.2518359,24.7086466 L24.2518359,24.7293233 C24.2726602,24.7706767 24.2726602,24.8120301 24.2934844,24.8327068 C24.7932654,26.0526316 26.0010697,26.9210526 27.3962918,26.9210526 C28.6873929,26.9210526 29.791076,26.1973684 30.3533297,25.1428571 L30.3533297,25.1428571 C30.6448687,24.7086466 30.8322866,23.9642857 30.8322866,23.1165414 C30.8322866,22.6203008 30.7698139,22.1447368 30.6448687,21.7518797 L30.6448687,21.7518797 C30.3325055,20.2838346 28.999756,19.2086466 27.4379402,19.2086466 Z M27.417116,19.9736842 C28.5832718,19.9736842 29.5620097,20.8421053 29.8119002,22.0206767 L29.8119002,22.0206767 C29.8951971,22.3308271 29.9576697,22.7236842 29.9576697,23.1165414 C29.9576697,23.7988722 29.8119002,24.3984962 29.6036581,24.75 L29.6036581,24.75 C29.1871739,25.5977444 28.3750297,26.1973684 27.417116,26.1973684 C26.3759055,26.1973684 25.5012886,25.4943609 25.1264528,24.5225564 C25.1056286,24.5018797 25.1056286,24.4605263 25.0848044,24.4398496 L25.0848044,24.4191729 C25.0639802,24.3778195 25.0639802,24.3571429 25.043156,24.3157895 C24.9390349,23.9849624 24.8765623,23.5714286 24.8765623,23.137218 C24.8765623,22.8477444 24.8973865,22.5582707 24.9390349,22.3101504 C25.1264528,20.9868421 26.1676633,19.9736842 27.417116,19.9736842 L27.417116,19.9736842 Z" id="XMLID_90_" fill="#EC1B23"></path>
                    </g>
                </g>
            </g>
        </g>
    </g>
</svg>