<?xml version="1.0" encoding="UTF-8"?>
<svg width="34px" height="34px" viewBox="0 0 34 34" version="1.1" xmlns="http://www.w3.org/2000/svg" xmlns:xlink="http://www.w3.org/1999/xlink">
    <title>Ico/RRSS/Facebook</title>
    <defs>
        <filter id="filter-1">
            <feColorMatrix in="SourceGraphic" type="matrix" values="0 0 0 0 1.000000 0 0 0 0 1.000000 0 0 0 0 1.000000 0 0 0 1.000000 0"></feColorMatrix>
        </filter>
        <polygon id="path-2" points="0 0 9.9 0 9.9 18 0 18"></polygon>
    </defs>
    <g id="⭐️-Simbolos" stroke="none" stroke-width="1" fill="none" fill-rule="evenodd">
        <g id="Transversales/Footer/Desktop" transform="translate(-1268.000000, -283.000000)">
            <g id="Ico/RRSS/Facebook" transform="translate(1268.000000, 283.000000)">
                <circle id="Oval-Copy" fill="#1E634A" cx="17" cy="17" r="17"></circle>
                <g filter="url(#filter-1)" id="Group-3-Copy">
                    <g transform="translate(12.390000, 8.377778)">
                        <mask id="mask-3" fill="white">
                            <use xlink:href="#path-2"></use>
                        </mask>
                        <g id="Clip-2"></g>
                        <path d="M9.25133435,10.0486286 L9.76430702,6.81557143 L6.55476901,6.81557143 L6.55476901,4.71754286 C6.55476901,3.83297143 7.00308796,2.97102857 8.44063533,2.97102857 L9.9,2.97102857 L9.9,0.218571429 C9.9,0.218571429 8.57579618,0 7.30959445,0 C4.66624204,0 2.93841812,1.54851429 2.93841812,4.35162857 L2.93841812,6.81557143 L0,6.81557143 L0,10.0486286 L2.93841812,10.0486286 L2.93841812,17.8642286 C3.52775135,17.9534571 4.13145207,18 4.74659357,18 C5.36173506,18 5.96570185,17.9534571 6.55476901,17.8642286 L6.55476901,10.0486286 L9.25133435,10.0486286 Z" id="Fill-1" fill="#FFFFFF" mask="url(#mask-3)"></path>
                    </g>
                </g>
            </g>
        </g>
    </g>
</svg>