<?xml version="1.0" encoding="UTF-8"?>
<svg width="34px" height="34px" viewBox="0 0 34 34" version="1.1" xmlns="http://www.w3.org/2000/svg" xmlns:xlink="http://www.w3.org/1999/xlink">
    <title>facebook-pietran</title>
    <defs>
        <polygon id="path-1" points="0 0 7.48 0 7.48 13.6 0 13.6"></polygon>
    </defs>
    <g id="Page-1" stroke="none" stroke-width="1" fill="none" fill-rule="evenodd">
        <g id="facebook-pietran">
            <circle id="Oval" fill="#F0F5DA" fill-rule="nonzero" cx="17" cy="17" r="17"></circle>
            <g id="Group-3" transform="translate(13.600000, 10.577778)">
                <g id="Fill-1-Clipped" transform="translate(-0.000000, 0.000000)">
                    <mask id="mask-2" fill="white">
                        <use xlink:href="#path-1"></use>
                    </mask>
                    <g id="path-2"></g>
                    <path d="M6.98989707,7.59229714 L7.37747642,5.14954286 L4.95249214,5.14954286 L4.95249214,3.56436571 C4.95249214,2.89602286 5.29122202,2.24477714 6.37736892,2.24477714 L7.48,2.24477714 L7.48,0.165142857 C7.48,0.165142857 6.47949045,0 5.5228047,0 C3.5256051,0 2.22013814,1.16998857 2.22013814,3.28789714 L2.22013814,5.14954286 L0,5.14954286 L0,7.59229714 L2.22013814,7.59229714 L2.22013814,13.4974171 C2.66541213,13.5648343 3.12154156,13.6 3.58631514,13.6 C4.05108872,13.6 4.50741917,13.5648343 4.95249214,13.4974171 L4.95249214,7.59229714 L6.98989707,7.59229714 Z" id="Fill-1" fill="#1E634A" fill-rule="nonzero" mask="url(#mask-2)"></path>
                </g>
            </g>
        </g>
    </g>
</svg>