<?xml version="1.0" encoding="UTF-8"?>
<svg width="18px" height="18px" viewBox="0 0 18 18" version="1.1" xmlns="http://www.w3.org/2000/svg" xmlns:xlink="http://www.w3.org/1999/xlink">
    <title>Group 3</title>
    <defs>
        <filter color-interpolation-filters="auto" id="filter-1">
            <feColorMatrix in="SourceGraphic" type="matrix" values="0 0 0 0 0.956863 0 0 0 0 0.956863 0 0 0 0 0.909804 0 0 0 1.000000 0"></feColorMatrix>
        </filter>
        <polygon id="path-2" points="-4.2510135e-16 0 17.8218784 0 17.8218784 18 -4.2510135e-16 18"></polygon>
    </defs>
    <g id="Mobile" stroke="none" stroke-width="1" fill="none" fill-rule="evenodd">
        <g id="05_Filtros" transform="translate(-134.000000, -929.000000)">
            <g id="Botón-filtrar" transform="translate(0.000000, 909.000000)">
                <g id="Group-3" transform="translate(134.000000, 18.000000)" filter="url(#filter-1)">
                    <g transform="translate(0.000000, 2.000000)">
                        <mask id="mask-3" fill="white">
                            <use xlink:href="#path-2"></use>
                        </mask>
                        <g id="Clip-2"></g>
                        <path d="M7.50608079,18 C7.16817396,17.8851308 7.05521927,17.6372049 7.05521927,17.295469 C7.06000549,14.6716656 7.05426203,12.0478622 7.06287722,9.42405871 C7.06383446,9.00478622 6.92694869,8.67262285 6.64360472,8.36630504 C4.51852495,6.07179324 2.40110313,3.77153797 0.281766815,1.47128271 C-0.103044927,1.0539247 -0.0963442252,0.52744097 0.318142054,0.195277601 C0.442583662,0.095724314 0.622545373,0.0631780472 0.779533248,0.00861518826 C0.826438161,-0.00765794512 0.88387275,0.00382897256 0.936521123,0.00382897256 C6.25496401,0.00382897256 11.5724496,0.00382897256 16.8899353,0.00382897256 C17.3743003,0.00382897256 17.6968913,0.227823867 17.7964445,0.642310147 C17.8720668,0.959157626 17.7753852,1.22527122 17.5552193,1.46266752 C16.9789589,2.07817486 16.4103565,2.70134014 15.8388823,3.32067645 C14.2709181,5.02169751 12.703911,6.72367581 11.133075,8.42278239 C10.8813201,8.69463944 10.762622,9.00191449 10.7645364,9.37523931 C10.7712371,10.9508615 10.7616647,12.5264837 10.7702799,14.1011487 C10.7731516,14.472559 10.6688121,14.7846203 10.4237579,15.063178 C9.6321178,15.9658583 8.84909292,16.8752393 8.0564956,17.7769623 C7.97512993,17.8688577 7.85451729,17.9262923 7.75209228,18 L7.50608079,18 Z" id="Fill-1" fill="#000000" mask="url(#mask-3)"></path>
                    </g>
                </g>
            </g>
        </g>
    </g>
</svg>