<?xml version="1.0" encoding="UTF-8"?>
<svg width="18px" height="20px" viewBox="0 0 18 20" version="1.1" xmlns="http://www.w3.org/2000/svg" xmlns:xlink="http://www.w3.org/1999/xlink">
    <title>Group 3</title>
    <defs>
        <filter color-interpolation-filters="auto" id="filter-1">
            <feColorMatrix in="SourceGraphic" type="matrix" values="0 0 0 0 0.101961 0 0 0 0 0.486275 0 0 0 0 0.525490 0 0 0 1.000000 0"></feColorMatrix>
        </filter>
        <polygon id="path-2" points="-4.05497264e-16 0 17 0 17 20 -4.05497264e-16 20"></polygon>
    </defs>
    <g id="⭐️-Simbolos" stroke="none" stroke-width="1" fill="none" fill-rule="evenodd">
        <g id="Group-3" transform="translate(-33.000000, -35.000000)" filter="url(#filter-1)">
            <g transform="translate(33.132308, 35.000000)">
                <mask id="mask-3" fill="white">
                    <use xlink:href="#path-2"></use>
                </mask>
                <g id="Clip-2"></g>
                <path d="M7.1599284,20 C6.83760457,19.8723676 6.72985893,19.5968943 6.72985893,19.2171878 C6.73442442,16.3018507 6.72894583,13.3865135 6.73716372,10.4711763 C6.73807682,10.005318 6.60750371,9.63624761 6.3372265,9.29589449 C4.31014747,6.74643693 2.29037322,4.19059775 0.268772783,1.63475856 C-0.0982928803,1.17102744 -0.0919011896,0.586045522 0.303470532,0.216975112 C0.422173358,0.106360349 0.593835907,0.0701978302 0.743584088,0.0095724314 C0.788325922,-0.00850882791 0.843111842,0.00425441395 0.893332269,0.00425441395 C5.96650844,0.00425441395 11.0387715,0.00425441395 16.1110346,0.00425441395 C16.5730625,0.00425441395 16.8807768,0.25313763 16.975739,0.713677941 C17.0478738,1.0657307 16.9556509,1.36141247 16.7456382,1.62518613 C16.1959528,2.30908317 15.6535722,3.00148904 15.1084523,3.6896405 C13.6127967,5.5796639 12.1180541,7.4707509 10.6196592,9.3586471 C10.3795143,9.66071049 10.2662901,10.0021272 10.2681162,10.4169326 C10.2745079,12.1676239 10.265377,13.9183153 10.2735948,15.667943 C10.2763341,16.0806211 10.1768064,16.4273559 9.94305313,16.7368645 C9.18792053,17.7398426 8.44100582,18.7502659 7.68496013,19.7521804 C7.60734674,19.8542863 7.49229631,19.9181025 7.39459475,20 L7.1599284,20 Z" id="Fill-1" fill="#000000" mask="url(#mask-3)"></path>
            </g>
        </g>
    </g>
</svg>