<?xml version="1.0" encoding="utf-8"?>
<!-- Generator: Adobe Illustrator 24.0.0, SVG Export Plug-In . SVG Version: 6.00 Build 0)  -->
<svg version="1.1" id="Capa_1" xmlns="http://www.w3.org/2000/svg" xmlns:xlink="http://www.w3.org/1999/xlink" x="0px" y="0px"
	 viewBox="0 0 1440 648" style="enable-background:new 0 0 1440 648;" xml:space="preserve">
<style type="text/css">
	.st0{fill:#F0F5DA;}
	.st1{opacity:0.15;fill:#DCE7A9;enable-background:new    ;}
</style>
<title>Group 10</title>
<g id="Mask">
</g>
<g>
	<path class="st0" d="M610.5,3c2.4,16.9,3.4,34.3,2.9,51.7c-6.3,243.2-149.6,318.7-321.3,394.5C247.4,469,200.2,489,152.4,506
		c135.9,25.3,339.7,26.2,611.7,2.5c288.9-26.6,514.9-66.1,675.9-54.3V3H610.5z"/>
	<path class="st1" d="M0,449.9c33.9,24.8,84.7,43.5,152.4,56.1C101.5,524.1,50,538.7,0,545.7V449.9z"/>
	<path class="st0" d="M613.4,54.7c-6.3,243.2-149.6,318.7-321.3,394.5C247.4,469,200.2,489,152.4,506C84.7,493.4,33.9,474.7,0,449.9
		V3h610.5C612.9,19.9,613.9,37.3,613.4,54.7z"/>
	<path class="st1" d="M613.4,54.7c-6.3,243.2-149.6,318.7-321.3,394.5C247.4,469,200.2,489,152.4,506C84.7,493.4,33.9,474.7,0,449.9
		V3h610.5C612.9,19.9,613.9,37.3,613.4,54.7z"/>
</g>
</svg>
