<?xml version="1.0" encoding="UTF-8"?>
<svg width="16px" height="22px" viewBox="0 0 16 22" version="1.1" xmlns="http://www.w3.org/2000/svg" xmlns:xlink="http://www.w3.org/1999/xlink">
    <title>Group 3 Copy 6</title>
    <defs>
        <filter color-interpolation-filters="auto" id="filter-1">
            <feColorMatrix in="SourceGraphic" type="matrix" values="0 0 0 0 0.949020 0 0 0 0 0.560784 0 0 0 0 0.113725 0 0 0 1.000000 0"></feColorMatrix>
        </filter>
        <polygon id="path-2" points="0 0 15.8074362 0 15.8074362 21.0731707 0 21.0731707"></polygon>
    </defs>
    <g id="Desktop" stroke="none" stroke-width="1" fill="none" fill-rule="evenodd">
        <g id="06_Interna-recetas_op2-hover" transform="translate(-905.000000, -423.000000)">
            <g id="Descripción" transform="translate(735.000000, 192.000000)">
                <g id="Datos-nutricionales" transform="translate(0.000000, 159.000000)">
                    <g id="Group-6" transform="translate(0.000000, 51.000000)">
                        <g id="Group-3-Copy-6" transform="translate(150.000000, 0.000000)" filter="url(#filter-1)">
                            <g transform="translate(20.122503, 21.644891)">
                                <mask id="mask-3" fill="white">
                                    <use xlink:href="#path-2"></use>
                                </mask>
                                <g id="Clip-2"></g>
                                <path d="M12.8061581,14.6976058 C12.7969186,14.5450806 12.8038482,14.4274553 12.7792097,14.314354 C12.7176134,14.0325702 12.4319607,13.8309268 12.0947212,13.816062 C11.7574816,13.8018436 11.4518101,13.9789279 11.3571059,14.2561876 C11.3263077,14.3466686 11.3155284,14.4442589 11.3124486,14.5386177 C11.2985894,14.9852062 11.1615377,15.4040041 10.908993,15.7943651 C10.5047675,16.4186843 9.90959359,16.8646265 9.12424117,17.1315455 C8.70384665,17.27373 8.49826911,17.5723174 8.59682313,17.8857696 C8.72155558,18.2806546 9.17351819,18.4642019 9.65935875,18.2916416 C11.5711529,17.6143265 12.5805617,16.380553 12.8061581,14.6976058 M15.8074362,14.5463732 C15.7011826,17.9432896 12.6152096,20.7339832 8.58527383,21.0454964 C4.41828633,21.3679967 0.628575969,18.8351741 0.0603504003,15.3626414 C-0.121358589,14.2516636 0.128106295,13.1962669 0.530021941,12.1499184 C1.30844477,10.1244359 2.34172216,8.18814185 3.48741274,6.296442 C4.68777,4.31426112 5.94895358,2.35728566 7.19396814,0.393847277 C7.5196584,-0.11930943 8.22262581,-0.132881585 8.55370575,0.364117795 C10.6579882,3.51867433 12.6714162,6.71200845 14.3221962,10.0572214 C14.8619335,11.1513956 15.3577835,12.2610809 15.6318868,13.4289325 C15.7181216,13.7966732 15.7504597,14.1734621 15.8074362,14.5463732" id="Fill-1" fill="#FFFFFF" mask="url(#mask-3)"></path>
                            </g>
                        </g>
                    </g>
                </g>
            </g>
        </g>
    </g>
</svg>