<?xml version="1.0" encoding="UTF-8"?>
<svg width="14px" height="19px" viewBox="0 0 14 19" version="1.1" xmlns="http://www.w3.org/2000/svg" xmlns:xlink="http://www.w3.org/1999/xlink">
    <title>Group 3 Copy 6</title>
    <defs>
        <filter color-interpolation-filters="auto" id="filter-1">
            <feColorMatrix in="SourceGraphic" type="matrix" values="0 0 0 0 0.101961 0 0 0 0 0.486275 0 0 0 0 0.525490 0 0 0 1.000000 0"></feColorMatrix>
        </filter>
        <polygon id="path-2" points="0.0309491028 0.48038494 13.351707 0.48038494 13.351707 18.2151218 0.0309491028 18.2151218"></polygon>
    </defs>
    <g id="Desktop" stroke="none" stroke-width="1" fill="none" fill-rule="evenodd">
        <g id="03_Interna-Productos_Salmón-Natural-" transform="translate(-1037.000000, -1789.000000)">
            <g id="Info-nutricional" transform="translate(202.000000, 1652.000000)">
                <g id="Group-14" transform="translate(0.000000, 70.000000)">
                    <g id="Group-3-Copy-6" transform="translate(807.000000, 37.000000)" filter="url(#filter-1)">
                        <g transform="translate(28.000000, 30.000000)">
                            <mask id="mask-3" fill="white">
                                <use xlink:href="#path-2"></use>
                            </mask>
                            <g id="Clip-2"></g>
                            <path d="M10.8225619,12.8495805 C10.8147759,12.7212186 10.8206154,12.6222276 10.7998528,12.5270439 C10.7479463,12.2899006 10.5072298,12.1202017 10.2230416,12.1076919 C9.93885346,12.0957259 9.68126736,12.2447563 9.60146109,12.4780923 C9.57550783,12.5542392 9.56642419,12.6363691 9.56382887,12.7157795 C9.5521499,13.091619 9.4366579,13.4440705 9.22384118,13.7725901 C8.88320465,14.298004 8.38165793,14.6732995 7.71984982,14.897933 C7.36558784,15.0175925 7.19234984,15.2688773 7.27540027,15.5326721 C7.38051096,15.864999 7.76137504,16.0194685 8.1707877,15.8742454 C9.78183624,15.3042313 10.6324543,14.2659135 10.8225619,12.8495805 M13.351707,12.7223064 C13.2621683,15.5810797 10.6616517,17.9296687 7.26566779,18.1918317 C3.75419187,18.4632411 0.560643367,16.3316709 0.0818057414,13.4092605 C-0.0713184858,12.474285 0.138902911,11.5860854 0.477592939,10.7055005 C1.13356156,9.00089707 2.00429339,7.37135274 2.96975462,5.77933797 C3.98128289,4.11117627 5.04406884,2.46422693 6.09322933,0.811838517 C6.36768504,0.379976636 6.96006817,0.368554596 7.2390657,0.786818811 C9.01232212,3.44162718 10.7090164,6.12906995 12.1001111,8.94433078 C12.554942,9.86516474 12.9727894,10.7990525 13.2037734,11.7818918 C13.2764425,12.0913747 13.3036935,12.4084722 13.351707,12.7223064" id="Fill-1" fill="#FFFFFF" mask="url(#mask-3)"></path>
                        </g>
                    </g>
                </g>
            </g>
        </g>
    </g>
</svg>