<?xml version="1.0" encoding="UTF-8"?>
<svg width="138px" height="124px" viewBox="0 0 138 124" version="1.1" xmlns="http://www.w3.org/2000/svg" xmlns:xlink="http://www.w3.org/1999/xlink">
    <title>Group 2</title>
    <defs>
        <filter color-interpolation-filters="auto" id="filter-1">
            <feColorMatrix in="SourceGraphic" type="matrix" values="0 0 0 0 0.109804 0 0 0 0 0.376471 0 0 0 0 0.278431 0 0 0 1.000000 0"></feColorMatrix>
        </filter>
        <polygon id="path-2" points="0 0 57 0 57 31.630966 0 31.630966"></polygon>
    </defs>
    <g id="⭐️-Simbolos" stroke="none" stroke-width="1" fill="none" fill-rule="evenodd">
        <g id="Transversales/Hero-MS" transform="translate(-96.000000, -430.000000)">
            <g id="Group" transform="translate(74.000000, 415.890118)">
                <g id="Group-2" transform="translate(22.000000, 14.996057)">
                    <path d="M8.66999355,87.2002965 C19.1929893,105.234091 32.7002553,116.258606 49.1917914,120.273842 C73.9290956,126.296696 114.026668,119.230999 125.998642,98.3429271 C137.970615,77.4548553 144.131986,42.7931776 129.278584,27.5324188 C114.425183,12.27166 93.8401472,0.714095399 73.3349968,0.714095399 C52.8298463,0.714095399 26.0099807,-5.30244774 8.66999355,17.5923624 C-2.88999785,32.8555692 -2.88999785,56.0582139 8.66999355,87.2002965 Z" id="Path-7" fill="#FCE6CD"></path>
                    <path d="M89.5,36.1138251 C107.652281,36.1138251 124.418496,42.0482766 137.964357,52.08289 C138.484037,67.589137 133.3312,85.5494647 125.998642,98.3429271 C114.026668,119.230999 73.9290956,126.296696 49.1917914,120.273842 C34.3697362,116.665079 21.9583232,107.39434 11.9575526,92.4616255 C22.5556329,59.7587522 53.2665321,36.1138251 89.5,36.1138251 Z" id="Combined-Shape" fill="#FCE6CD" style="mix-blend-mode: multiply;" opacity="0.25"></path>
                    <g filter="url(#filter-1)" id="ico_hábitos">
                        <g transform="translate(40.000000, 23.113825)">
                            <path d="M51.6687024,5.0480829 C51.6687024,5.77577678 51.0801903,6.36533523 50.354794,6.36533523 C49.6289475,6.36533523 49.0404354,5.77577678 49.0404354,5.0480829 C49.0404354,4.32038901 49.6289475,3.73083057 50.354794,3.73083057 C51.0801903,3.73083057 51.6687024,4.32038901 51.6687024,5.0480829" id="Fill-1" fill="#000000"></path>
                            <path d="M47.6024307,7.92021663 C47.6024307,8.30573187 47.2908391,8.61811659 46.9063025,8.61811659 C46.5222162,8.61811659 46.2101742,8.30573187 46.2101742,7.92021663 C46.2101742,7.53470138 46.5222162,7.22231666 46.9063025,7.22231666 C47.2908391,7.22231666 47.6024307,7.53470138 47.6024307,7.92021663" id="Fill-3" fill="#000000"></path>
                            <path d="M8.54031413,21.3475231 C8.54031413,21.7330383 8.22872244,22.045423 7.84418586,22.045423 C7.46009957,22.045423 7.1480576,21.7330383 7.1480576,21.3475231 C7.1480576,20.9620078 7.46009957,20.6496231 7.84418586,20.6496231 C8.22872244,20.6496231 8.54031413,20.9620078 8.54031413,21.3475231" id="Fill-5" fill="#000000"></path>
                            <path d="M13.6037692,15.687446 C13.6037692,16.2824215 13.1228734,16.7649927 12.528958,16.7649927 C11.9354929,16.7649927 11.454597,16.2824215 11.454597,15.687446 C11.454597,15.0924705 11.9354929,14.6098993 12.528958,14.6098993 C13.1228734,14.6098993 13.6037692,15.0924705 13.6037692,15.687446" id="Fill-7" fill="#000000"></path>
                            <path d="M46.0544684,1.86527986 C46.0544684,2.89542716 45.2214559,3.73055972 44.1939238,3.73055972 C43.1663916,3.73055972 42.3329289,2.89542716 42.3329289,1.86527986 C42.3329289,0.83513256 43.1663916,0 44.1939238,0 C45.2214559,0 46.0544684,0.83513256 46.0544684,1.86527986" id="Fill-9" fill="#000000"></path>
                            <path d="M7.84432095,12.7447097 C7.84432095,13.774857 7.01130846,14.6099896 5.98377631,14.6099896 C4.95624416,14.6099896 4.1227814,13.774857 4.1227814,12.7447097 C4.1227814,11.7145624 4.95624416,10.8794299 5.98377631,10.8794299 C7.01130846,10.8794299 7.84432095,11.7145624 7.84432095,12.7447097" id="Fill-11" fill="#000000"></path>
                            <g id="Group-15" transform="translate(0.000000, 21.786731)">
                                <mask id="mask-3" fill="white">
                                    <use xlink:href="#path-2"></use>
                                </mask>
                                <g id="Clip-14"></g>
                                <path d="M35.6158764,11.6013273 L35.6158764,31.630966 L21.5141008,31.630966 L21.5141008,11.5534764 C21.4816809,11.5430937 21.4492609,11.532711 21.416841,11.5223282 C21.3384928,11.6902576 21.2551915,11.8563813 21.1831472,12.0270191 C19.4928073,16.0175985 17.4201822,19.7865292 14.8130782,23.2584235 C11.9335567,27.0937134 8.12331259,29.4817411 3.5345395,30.6938118 C3.23015224,30.7741651 2.90775389,30.8197589 2.59346054,30.8233702 C1.6636385,30.8342044 0.814866318,30.6080415 0.317310214,29.7372465 C-0.182046998,28.8628401 -0.0681269127,27.94916 0.490666866,27.1763238 C0.993176017,26.4811324 1.59789805,25.829729 2.26295721,25.2893756 C3.42917468,24.3418387 4.67148897,23.4886493 5.8894883,22.6061173 C8.32953946,20.8387962 10.2125979,18.5956753 11.6548352,15.9543993 C13.9787149,11.6965775 16.3174537,7.44688134 18.6728528,3.20666505 C19.8512278,1.08587977 21.6473828,-0.0173980525 24.1099478,0 C27.1502182,0.0214243259 30.1904887,-0.00972386142 33.2303088,0.0105901738 C35.2583565,0.024132864 36.9653567,0.734672674 38.0478226,2.54352466 C38.7858266,3.77681231 39.4409797,5.05975649 40.1389091,6.3178724 C42.1669568,9.97394732 44.1720403,13.6435649 46.2383616,17.2779715 C47.4027779,19.3260777 49.041336,20.9769317 50.9113364,22.3916913 C52.1243827,23.3089829 53.3671473,24.1865492 54.5869477,25.0948123 C55.4974079,25.7728497 56.2561246,26.5980509 56.7392719,27.6331639 C57.5650799,29.4022906 56.3340226,31.0901612 54.3856739,30.9253918 C52.9758566,30.8062162 51.7096776,30.2627029 50.4340428,29.7137725 C46.091121,27.8462355 42.9707012,24.6375208 40.4739152,20.7114949 C38.7281912,17.9659402 37.2085062,15.1066269 35.9400759,12.1114353 C35.8648796,11.934026 35.7851806,11.7584225 35.7077329,11.5819161 C35.6771141,11.588236 35.6464953,11.5950073 35.6158764,11.6013273" id="Fill-13" fill="#000000" mask="url(#mask-3)"></path>
                            </g>
                            <path d="M29.5656392,64 C25.2618915,63.8596074 20.9549918,63.776997 16.6548463,63.5594111 C13.3732274,63.3932875 10.0961113,63.100314 6.82529903,62.7775465 C4.90892004,62.5884003 3.50990935,61.534779 2.89257956,59.6794304 C2.29010891,57.8678699 2.80972859,56.2734438 4.20783873,55.0017852 C5.1664785,54.1291846 6.32729265,53.7842974 7.62589157,53.898056 C10.2685674,54.129636 12.9085415,54.4149353 15.5561704,54.5580364 C19.1552346,54.7525997 22.7606027,54.9421974 26.3628188,54.9399403 C31.2357167,54.9363289 36.1104157,54.809479 40.9797113,54.6158186 C43.794393,54.5038657 46.6009696,54.1652984 49.4097977,53.9106958 C51.5612213,53.7156811 53.26597,54.6492239 54.1764302,56.5573889 C55.2008104,58.7048081 54.1021345,61.4769968 51.9016307,62.3888713 C50.8088084,62.8421 49.6583506,62.8904023 48.5168983,62.9644356 C43.6548071,63.2813346 38.7909148,63.5810795 33.9252213,63.8429048 C32.4771304,63.921001 31.0213848,63.8550932 29.5687912,63.8550932 C29.5678906,63.9033955 29.5665398,63.9516977 29.5656392,64" id="Fill-16" fill="#000000"></path>
                            <path d="M28.7256475,4.30894679 C33.0253427,4.31889932 36.5307493,7.85354145 36.5190713,12.1673397 C36.5068846,16.4842979 32.9938233,19.9905004 28.6851225,19.9850896 C24.3449024,19.9801176 20.8665124,16.4653381 20.8822188,12.1014319 C20.8980318,7.77589669 24.3975848,4.29903671 28.7256475,4.30894679" id="Fill-18" fill="#000000"></path>
                        </g>
                    </g>
                </g>
            </g>
        </g>
    </g>
</svg>