<?xml version="1.0" encoding="UTF-8"?>
<svg width="17px" height="16px" viewBox="0 0 17 16" version="1.1" xmlns="http://www.w3.org/2000/svg" xmlns:xlink="http://www.w3.org/1999/xlink">
    <title>Group 9</title>
    <defs>
        <filter color-interpolation-filters="auto" id="filter-1">
            <feColorMatrix in="SourceGraphic" type="matrix" values="0 0 0 0 1.000000 0 0 0 0 0.780392 0 0 0 0 0.247059 0 0 0 1.000000 0"></feColorMatrix>
        </filter>
        <rect id="path-2" x="0" y="0" width="8.8" height="16"></rect>
        <linearGradient x1="50%" y1="0%" x2="50%" y2="100%" id="linearGradient-4">
            <stop stop-color="#E7AB00" offset="0%"></stop>
            <stop stop-color="#CA7300" offset="100%"></stop>
        </linearGradient>
    </defs>
    <g id="⭐️-Simbolos" stroke="none" stroke-width="1" fill="none" fill-rule="evenodd">
        <g id="Group-9">
            <path d="M8.72971732,0.204645634 L11.1266924,5.05628038 L16.4848745,5.83446629 C16.7862883,5.8781681 16.9068538,6.24834809 16.6885126,6.46098123 L12.810934,10.2365968 L13.7262028,15.5689514 C13.7776637,15.8689881 13.4626495,16.0977799 13.1928474,15.9560245 L8.40036758,13.4389475 L3.60715261,15.956759 C3.33735048,16.0988817 3.02233627,15.8700899 3.07379717,15.5700531 L3.98906598,10.2365968 L0.111487398,6.46098123 C-0.106853836,6.24871533 0.0137116937,5.8781681 0.315125518,5.83446629 L5.67330762,5.05628038 L8.07028268,0.204645634 C8.20518375,-0.0682152112 8.59481625,-0.0682152112 8.72971732,0.204645634 Z" id="ico-estrella" fill="#DDDDDD" fill-rule="nonzero"></path>
            <g filter="url(#filter-1)" id="ico-estrella">
                <g>
                    <mask id="mask-3" fill="white">
                        <use xlink:href="#path-2"></use>
                    </mask>
                    <g id="Mask"></g>
                    <path d="M8.72971732,0.204645634 L11.1266924,5.05628038 L16.4848745,5.83446629 C16.7862883,5.8781681 16.9068538,6.24834809 16.6885126,6.46098123 L12.810934,10.2365968 L13.7262028,15.5689514 C13.7776637,15.8689881 13.4626495,16.0977799 13.1928474,15.9560245 L8.40036758,13.4389475 L3.60715261,15.956759 C3.33735048,16.0988817 3.02233627,15.8700899 3.07379717,15.5700531 L3.98906598,10.2365968 L0.111487398,6.46098123 C-0.106853836,6.24871533 0.0137116937,5.8781681 0.315125518,5.83446629 L5.67330762,5.05628038 L8.07028268,0.204645634 C8.20518375,-0.0682152112 8.59481625,-0.0682152112 8.72971732,0.204645634 Z" fill="url(#linearGradient-4)" fill-rule="nonzero" mask="url(#mask-3)"></path>
                </g>
            </g>
        </g>
    </g>
</svg>