<?xml version="1.0" encoding="UTF-8"?>
<svg width="32px" height="32px" viewBox="0 0 32 32" version="1.1" xmlns="http://www.w3.org/2000/svg" xmlns:xlink="http://www.w3.org/1999/xlink">
    <title>hojas2</title>
    <defs>
        <polygon id="path-1" points="0 0 16.6757776 0 16.6757776 9.47802564 0 9.47802564"></polygon>
    </defs>
    <g id="Page-1" stroke="none" stroke-width="1" fill="none" fill-rule="evenodd">
        <g id="hojas2" transform="translate(-0.000000, 0.000000)">
            <path d="M15.9992619,15.0757613 C17.0019528,14.084002 19.3874897,11.4021334 19.3874897,8.33792165 C19.3874897,5.26459784 17.0041397,2.58965437 16.0007199,1.59971753 C14.9980289,2.59147678 12.6124921,5.27370993 12.6124921,8.33792165 C12.6124921,11.410881 14.9958421,14.0861889 15.9992619,15.0757613 M15.9999909,0 C16.1548959,0 16.3101654,0.0528500891 16.4359118,0.159279234 C16.4800141,0.196456538 17.5253495,1.08543149 18.576881,2.52040253 C19.9914369,4.45143544 20.7389902,6.46301918 20.7389902,8.33792165 C20.7389902,10.2128241 19.9914369,12.2244079 18.576881,14.1550763 C17.5253495,15.5904118 16.4800141,16.4790223 16.4359118,16.5161996 C16.1840545,16.7290579 15.8159273,16.7290579 15.56407,16.5161996 C15.5199677,16.4790223 14.4746323,15.5904118 13.4231008,14.1550763 C12.0085448,12.2244079 11.2609916,10.2128241 11.2609916,8.33792165 C11.2609916,6.46301918 12.0085448,4.45143544 13.4231008,2.52040253 C14.4746323,1.08543149 15.5199677,0.196456538 15.56407,0.159279234 C15.6898164,0.0528500891 15.8450859,0 15.9999909,0" id="Fill-1" fill="#1E634A" fill-rule="nonzero"></path>
            <path d="M15.0758095,16.0006378 C14.084053,14.9979441 11.402192,12.6124004 8.33798903,12.6124004 C5.26467397,12.6124004 2.58973811,14.9957572 1.59980409,15.9991799 C2.59156053,17.0018737 5.27378603,19.3874174 8.33798903,19.3874174 C11.4113041,19.3874174 14.0858755,17.0040606 15.0758095,16.0006378 M8.33798903,11.2608961 C10.2125217,11.2608961 12.2244642,12.0084515 14.1551271,13.4230114 C15.5900941,14.474546 16.4790665,15.5198843 16.5162437,15.5639868 C16.7291014,15.8158448 16.7291014,16.183973 16.5162437,16.435831 C16.4790665,16.4799335 15.5900941,17.5252718 14.1551271,18.5768063 C12.2244642,19.9913663 10.2125217,20.7389217 8.33798903,20.7389217 C6.46309189,20.7389217 4.45151388,19.9913663 2.52048647,18.5768063 C1.08551952,17.5252718 0.196547099,16.4799335 0.159369901,16.435831 C-0.0531233004,16.183973 -0.0531233004,15.8158448 0.159369901,15.5639868 C0.196547099,15.5198843 1.08551952,14.474546 2.52048647,13.4230114 C4.45151388,12.0084515 6.46309189,11.2608961 8.33798903,11.2608961" id="Fill-3" fill="#1E634A" fill-rule="nonzero"></path>
            <g id="Fill-5-Clipped" transform="translate(15.324222, 11.260896)">
                <mask id="mask-2" fill="white">
                    <use xlink:href="#path-1"></use>
                </mask>
                <g id="path-2"></g>
                <path d="M15.0758095,4.73974179 C14.084053,3.73704803 11.402192,1.35150435 8.33798903,1.35150435 C5.26467397,1.35150435 2.58973811,3.73486113 1.59980409,4.73828385 C2.59156053,5.74097761 5.27378603,8.12652129 8.33798903,8.12652129 C11.4109396,8.12652129 14.0858755,5.74316451 15.0758095,4.73974179 M8.33798903,0 C10.2125217,0 12.2244642,0.747555399 14.1551271,2.16211537 C15.5900941,3.2136499 16.4790665,4.25898822 16.5162437,4.30309071 C16.7291014,4.55494872 16.7291014,4.92307692 16.5162437,5.17493493 C16.4790665,5.21903742 15.5900941,6.26437574 14.1551271,7.31591027 C12.2244642,8.73047024 10.2125217,9.47802564 8.33798903,9.47802564 C6.46309189,9.47802564 4.45151388,8.73047024 2.52048647,7.31591027 C1.08551952,6.26437574 0.196547099,5.21903742 0.159369901,5.17493493 C-0.0531233004,4.92307692 -0.0531233004,4.55494872 0.159369901,4.30309071 C0.196547099,4.25898822 1.08551952,3.2136499 2.52048647,2.16211537 C4.45151388,0.747555399 6.46309189,0 8.33798903,0" id="Fill-5" fill="#1E634A" fill-rule="nonzero" mask="url(#mask-2)"></path>
            </g>
            <path d="M25.3814017,7.86762875 C25.9416111,7.30705332 26.1081795,6.43520909 26.1533753,5.84620396 C25.5647363,5.8913999 24.6925301,6.0579688 24.1323208,6.61854423 C23.5721114,7.17875518 23.405543,8.0505994 23.3603472,8.63960454 C23.9489861,8.5944086 24.8211924,8.4278397 25.3814017,7.86762875 Z M26.552119,4.47902683 C26.747846,4.47902683 26.87177,4.48886788 26.8925455,4.4906903 C27.2209441,4.51839103 27.4815489,4.77863216 27.5092496,5.10703168 C27.5172682,5.20289081 27.6918552,7.46888394 26.3374389,8.82330416 C26.3370744,8.82330416 26.3370744,8.82330416 26.3370744,8.82330416 C24.982658,10.1780889 22.7166714,10.0031368 22.621177,9.99548268 C22.2927784,9.96778195 22.0321735,9.70717634 22.0044729,9.37877682 C21.9964543,9.28291769 21.8218672,7.01728904 23.1766481,5.66250434 C24.2354693,4.60368014 25.8515839,4.47902683 26.552119,4.47902683 L26.552119,4.47902683 Z" id="Fill-8" fill="#1E634A" fill-rule="nonzero"></path>
            <path d="M8.63959816,8.63949519 C8.59440235,8.05085454 8.42783392,7.17864583 7.86762457,6.61843489 C7.30741522,6.05822394 6.43520899,5.89165504 5.84657002,5.8464591 C5.89140135,6.43509975 6.05796978,7.30730846 6.61854361,7.86751941 L6.61854361,7.86751941 C7.17875296,8.42773035 8.0505947,8.59429925 8.63959816,8.63949519 M5.44746186,4.47891748 C6.14799691,4.47891748 7.76411159,4.6035708 8.82329726,5.66275948 C10.1780781,7.0171797 10.0034911,9.28317283 9.99547245,9.37866747 C9.96777179,9.70706699 9.70716692,9.9676726 9.37876833,9.99537334 C9.28327396,10.0037565 7.01728728,10.1779795 5.66250644,8.82355929 L5.66250644,8.82319481 C4.30809008,7.4687746 4.48267712,5.20278146 4.49069573,5.10728682 C4.51839639,4.7788873 4.77900126,4.51828169 5.10739985,4.49058095 C5.12817534,4.48875854 5.25209933,4.47891748 5.44746186,4.47891748" id="Fill-10" fill="#1E634A" fill-rule="nonzero"></path>
            <path d="M12.612565,23.6620784 C12.612565,26.7262901 14.9981018,29.4081587 16.0007927,30.399918 C17.0042126,29.4103456 19.3871981,26.7354022 19.3871981,23.6620784 C19.3871981,20.5978666 17.0016612,17.9156335 15.9993348,16.9242387 C14.995915,17.9138111 12.612565,20.5887545 12.612565,23.6620784 M15.5641429,31.8407208 C15.5200405,31.8035435 14.4743407,30.9145685 13.4231737,29.4795975 C12.0086177,27.5485646 11.2607,25.5369808 11.2607,23.6620784 C11.2607,21.7871759 12.0086177,19.7755921 13.4231737,17.8445592 C14.4743407,16.4095882 15.5200405,15.5206132 15.5641429,15.4834359 C15.8156357,15.2709421 16.1841274,15.2709421 16.4359847,15.4834359 C16.480087,15.5206132 17.5254224,16.4095882 18.5769539,17.8445592 C19.9915098,19.7755921 20.7390631,21.7871759 20.7390631,23.6620784 C20.7390631,25.5369808 19.9915098,27.5485646 18.5769539,29.4795975 C17.5254224,30.9145685 16.480087,31.8035435 16.4359847,31.8407208 C16.3098738,31.9467854 16.1549688,32 16.0000638,32 C15.8447943,32 15.6898893,31.9467854 15.5641429,31.8407208" id="Fill-12" fill="#1E634A" fill-rule="nonzero"></path>
            <path d="M25.3814746,24.1323348 C24.8212653,23.5721239 23.9486946,23.405555 23.3604201,23.360359 C23.4056159,23.9493641 23.5721843,24.8212084 24.1323937,25.3814193 C24.692603,25.9419947 25.5648092,26.1085637 26.1534482,26.1533951 C26.1082524,25.56439 25.941684,24.6925457 25.3814746,24.1323348 Z M23.1763565,26.3374592 C21.8219401,24.9826745 21.9965272,22.7166814 22.0045458,22.6211867 C22.0322464,22.2927872 22.2928513,22.0321816 22.6212499,22.0044809 C22.7167443,21.9964622 24.9827309,21.8218747 26.3371473,23.1762949 C26.3371473,23.1762949 26.3371473,23.1766594 26.3371473,23.1766594 C27.6919281,24.5310796 27.5173411,26.7970727 27.5093225,26.8925674 C27.4816218,27.2213314 27.221017,27.4815725 26.8926184,27.5092733 C26.8718429,27.5110957 26.7475544,27.5209367 26.5521919,27.5209367 C25.8516568,27.5209367 24.2355422,27.3962834 23.1763565,26.3374592 L23.1763565,26.3374592 Z" id="Fill-14" fill="#1E634A" fill-rule="nonzero"></path>
            <path d="M6.61847071,24.1323348 L6.61847071,24.1323348 C6.05826136,24.6925457 5.89169294,25.5647545 5.84649713,26.1533951 C6.43550058,26.1081992 7.30734233,25.9416303 7.86755168,25.3814193 C8.42812551,24.8212084 8.59432945,23.9489997 8.63952526,23.360359 C8.05052181,23.405555 7.17868006,23.5721239 6.61847071,24.1323348 M5.10732695,27.5092733 C4.77892836,27.4815725 4.5183235,27.2213314 4.49062284,26.8925674 C4.48260423,26.7970727 4.30801719,24.5310796 5.66279803,23.1766594 L5.66279803,23.1762949 C7.01721439,21.8218747 9.28320107,21.9964622 9.37869544,22.0044809 C9.70709402,22.0321816 9.96769889,22.2927872 9.99539955,22.6211867 C10.0034182,22.7166814 10.1780052,24.9826745 8.82322436,26.3370947 C7.76440317,27.3962834 6.14792402,27.5209367 5.44775345,27.5209367 C5.25239092,27.5209367 5.12810244,27.5110957 5.10732695,27.5092733" id="Fill-16" fill="#1E634A" fill-rule="nonzero"></path>
        </g>
    </g>
</svg>