<?xml version="1.0" encoding="UTF-8"?>
<svg width="17px" height="18px" viewBox="0 0 17 18" version="1.1" xmlns="http://www.w3.org/2000/svg" xmlns:xlink="http://www.w3.org/1999/xlink">
    <title>ico-peso</title>
    <defs>
        <filter color-interpolation-filters="auto" id="filter-1">
            <feColorMatrix in="SourceGraphic" type="matrix" values="0 0 0 0 0.101961 0 0 0 0 0.486275 0 0 0 0 0.525490 0 0 0 1.000000 0"></feColorMatrix>
        </filter>
        <polygon id="path-2" points="0 0 17 0 17 18 0 18"></polygon>
    </defs>
    <g id="Desktop" stroke="none" stroke-width="1" fill="none" fill-rule="evenodd">
        <g id="03_Interna-Productos_Salmón-Natural-" transform="translate(-547.000000, -1788.000000)">
            <g id="Info-nutricional" transform="translate(202.000000, 1652.000000)">
                <g id="Group-14" transform="translate(0.000000, 70.000000)">
                    <g id="ico-peso" transform="translate(320.000000, 37.000000)" filter="url(#filter-1)">
                        <g transform="translate(25.000000, 29.000000)">
                            <mask id="mask-3" fill="white">
                                <use xlink:href="#path-2"></use>
                            </mask>
                            <g id="Clip-2"></g>
                            <path d="M9.97312204,3.22247054 C9.96009147,2.43708132 9.28064077,1.78537537 8.48856879,1.79756946 C7.67974323,1.81021517 7.00820393,2.46959887 7.02076912,3.23918095 C7.03379968,4.0250218 7.71231963,4.67582448 8.50578774,4.6636304 C9.31507868,4.65098469 9.98568722,3.99205262 9.97312204,3.22247054 M6.26453118,12.1747334 C6.29664221,12.2257679 6.3315455,12.2790605 6.36458728,12.3337081 C6.67266698,12.8436014 6.97562753,13.3566561 7.29348015,13.8606782 C7.34932542,13.9491982 7.46008519,14.0368149 7.56107204,14.0598482 C7.70952737,14.093269 7.87334014,14.0774618 8.0292415,14.0657194 C8.23679973,14.0503639 8.33964809,13.8660978 8.25076104,13.6827349 C8.2251653,13.6303455 8.19026201,13.5820208 8.1576856,13.5327928 C7.74675754,12.9194757 7.33815637,12.304352 6.92210915,11.6941962 C6.85556022,11.5966436 6.85974861,11.5388346 6.94537801,11.4588956 C7.1273405,11.2877268 7.2985993,11.1061705 7.47497726,10.9291305 C7.63879003,10.7651878 7.80772195,10.6057615 7.96501944,10.4363992 C8.11068251,10.2796827 8.07345233,10.0719317 7.896609,9.99425084 C7.68718926,9.90211778 7.27067667,9.98386329 7.1129138,10.1500641 C6.64707123,10.6409888 6.18215942,11.1332684 5.71678222,11.6250964 C5.67489828,11.6693564 5.63115282,11.7122615 5.55995011,11.7849744 C5.55995011,11.3166313 5.55995011,10.8957097 5.55995011,10.474788 C5.56041549,10.3180715 5.53249285,10.1708392 5.39613734,10.0660604 C5.26071257,9.96218492 5.10853423,9.94547451 4.954029,10.0132194 C4.75717445,10.0999329 4.70272532,10.2701984 4.70225994,10.4625939 C4.70132919,11.4995425 4.70039843,12.5360395 4.70458683,13.5729881 C4.7050522,13.6691859 4.72739031,13.7730614 4.76973963,13.8593233 C4.8521114,14.0259757 5.03733152,14.0959788 5.2295323,14.0566867 C5.41475242,14.018298 5.5478503,13.8624847 5.55715785,13.6443461 C5.56693077,13.410852 5.55576171,13.176003 5.56320775,12.9420573 C5.56506926,12.8837967 5.58647661,12.8110838 5.62696442,12.7717918 C5.83033426,12.5717185 6.04254626,12.3806779 6.26453118,12.1747334 M11.5842579,12.5631375 C11.6214881,13.1561312 11.6833832,13.073934 11.1947372,13.3065249 C11.0928196,13.3548496 10.9792675,13.3833024 10.8680424,13.407239 C10.2146528,13.5458902 9.63479282,13.2035526 9.46586089,12.5771381 C9.36487404,12.2027346 9.35742801,11.8229115 9.45469184,11.4480564 C9.5617286,11.0357158 9.82327058,10.7520905 10.2579329,10.6527313 C10.7326176,10.5443394 11.1533186,10.6129876 11.4660521,11.0271348 C11.6228842,11.2353374 11.8779109,11.2610805 12.0710424,11.1152031 C12.2646393,10.9688742 12.292562,10.7078305 12.1310761,10.5059507 C12.0761616,10.4368509 12.0147318,10.3709125 11.9477175,10.3126519 C11.574485,9.98566982 11.1170192,9.90979553 10.6367499,9.90211778 C9.81489379,9.88947206 9.15545431,10.1798719 8.77058737,10.9070005 C8.42108909,11.5672874 8.42434674,12.260092 8.69147324,12.9501867 C8.85947441,13.3837541 9.15080053,13.72564 9.59104736,13.9144224 C10.5613588,14.3303761 11.4734981,14.1659818 12.3311883,13.6086671 C12.3916873,13.5689235 12.447998,13.4758871 12.4498595,13.4063357 C12.4610285,12.9790912 12.4605631,12.551395 12.4540479,12.1241505 C12.4521863,11.984596 12.3614378,11.8856885 12.2162401,11.8829787 C11.7876277,11.8753009 11.3590153,11.8730428 10.9308683,11.8861401 C10.7503019,11.8915597 10.6274424,12.0505344 10.6297693,12.2230581 C10.6320961,12.3906138 10.7475097,12.5279101 10.9229569,12.5491369 C11.0541933,12.564944 11.1877565,12.5599761 11.320389,12.5626859 C11.4092761,12.5644924 11.4976977,12.5631375 11.5842579,12.5631375 M6.1356217,5.53347493 C4.58451951,3.93469527 5.08852301,1.77408456 6.35853737,0.747071859 C7.64949371,-0.296651249 9.52915219,-0.248326553 10.8024242,0.901981866 C11.9849476,1.97054477 12.3162962,4.02457017 10.863854,5.52218411 C10.9443642,5.52670044 11.0062594,5.5330233 11.0676892,5.5330233 C12.0277623,5.53347493 12.9878355,5.5330233 13.9479086,5.53347493 C14.6227056,5.53392656 14.9391621,5.80355127 15.0564371,6.44486966 C15.4198967,8.43882792 15.790337,10.4314313 16.1579849,12.4244863 C16.434419,13.9221002 16.7145761,15.4192625 16.9830987,16.9182314 C17.0910662,17.5216126 16.6708306,17.9922139 16.03466,17.9971818 C15.3342673,18.0026014 14.6338746,17.9985367 13.933482,17.9985367 C9.63432744,17.9985367 5.33517292,17.9985367 1.03601841,17.9980851 C0.526430382,17.9980851 0.177397487,17.7930438 0.0480226268,17.3870261 C0.00195028459,17.242052 -0.0134071628,17.0722381 0.01265396,16.9231993 C0.255115478,15.5565588 0.509211426,14.1912733 0.760980487,12.8259877 C1.15375884,10.6947331 1.55026021,8.56393017 1.93838479,6.43177232 C2.01470665,6.0113023 2.20039215,5.6892882 2.64668888,5.57005718 C2.77234072,5.53663636 2.90962699,5.53528146 3.04179411,5.53482983 C3.99535198,5.53212003 4.94937523,5.53347493 5.90339848,5.53347493 C5.96901666,5.53347493 6.03463485,5.53347493 6.1356217,5.53347493" id="Fill-1" fill="#FFFFFF" mask="url(#mask-3)"></path>
                        </g>
                    </g>
                </g>
            </g>
        </g>
    </g>
</svg>