<?xml version="1.0" encoding="UTF-8"?>
<svg width="44px" height="44px" viewBox="0 0 44 44" version="1.1" xmlns="http://www.w3.org/2000/svg" xmlns:xlink="http://www.w3.org/1999/xlink">
    <title>ico-compartir</title>
    <defs>
        <filter color-interpolation-filters="auto" id="filter-1">
            <feColorMatrix in="SourceGraphic" type="matrix" values="0 0 0 0 0.956863 0 0 0 0 0.956863 0 0 0 0 0.909804 0 0 0 1.000000 0"></feColorMatrix>
        </filter>
        <polygon id="path-2" points="5.00261585e-16 0 16.5074787 0 16.5074787 18 5.00261585e-16 18"></polygon>
    </defs>
    <g id="Desktop" stroke="none" stroke-width="1" fill="none" fill-rule="evenodd">
        <g id="06_Interna-recetas_op2-hover" transform="translate(-1075.000000, -678.000000)">
            <g id="Descripción" transform="translate(735.000000, 192.000000)">
                <g id="Herramientas" transform="translate(2.000000, 486.000000)">
                    <g id="Group" transform="translate(338.000000, 0.000000)">
                        <circle id="Oval-Copy-3" fill="#1A7C86" cx="22" cy="22" r="22"></circle>
                        <g filter="url(#filter-1)" id="Group-3">
                            <g transform="translate(14.000000, 13.000000)">
                                <mask id="mask-3" fill="white">
                                    <use xlink:href="#path-2"></use>
                                </mask>
                                <g id="Clip-2"></g>
                                <path d="M11.2925247,5.04026357 C9.49225458,6.06607256 7.68846416,7.09385291 5.9044577,8.11036838 C5.94029413,8.41916716 5.99978682,8.70818198 6.00006845,8.9971968 C6.00035007,9.28635243 5.94142062,9.57557847 5.90565459,9.88951685 C7.6851551,10.9034977 9.48887511,11.9312077 11.2895677,12.9572279 C12.5712305,11.6409255 14.3974803,11.8110958 15.4363847,12.7023597 C16.5396398,13.6488217 16.8292179,15.2120363 16.1241766,16.461735 C15.4163191,17.7164324 13.928016,18.2944621 12.5765813,17.8528784 C11.3501869,17.4522708 10.2085607,16.1365317 10.5800205,14.2821197 C10.1068951,14.0119736 9.63031988,13.739504 9.15332222,13.4675978 C7.85159384,12.7257344 6.54880937,11.9857016 5.24940438,11.2397547 C5.13534737,11.1742775 5.06557546,11.1737847 4.96250172,11.2642558 C4.0098441,12.1007442 2.62637487,12.2351485 1.52424625,11.6062156 C0.415781123,10.9736921 -0.178089767,9.71554472 0.0473488329,8.47725174 C0.276518928,7.21797791 1.27071583,6.23490509 2.524146,6.04220508 C3.44505071,5.9006899 4.26541628,6.13450677 4.97376661,6.74231796 C5.05424017,6.81138581 5.1116911,6.83933682 5.2155393,6.77991453 C6.97800166,5.77072124 8.7427874,4.76568189 10.5069395,3.75958645 C10.5317223,3.74543493 10.5554489,3.72938246 10.5850193,3.71093621 C10.4082309,2.86170435 10.5256674,2.06541748 11.0098464,1.34024022 C11.4079194,0.744186759 11.9536329,0.339495606 12.6405096,0.129898256 C14.0083488,-0.287465898 15.4806698,0.327104227 16.1551551,1.59531956 C16.8297107,2.8636053 16.5023953,4.43681752 15.3858335,5.33892395 C14.2823672,6.23039914 12.5163142,6.29763645 11.2925247,5.04026357" id="Fill-1" fill="#000000" mask="url(#mask-3)"></path>
                            </g>
                        </g>
                    </g>
                </g>
            </g>
        </g>
    </g>
</svg>