<?xml version="1.0" encoding="UTF-8"?>
<svg width="92px" height="92px" viewBox="0 0 92 92" version="1.1" xmlns="http://www.w3.org/2000/svg" xmlns:xlink="http://www.w3.org/1999/xlink">
    <title>ico-proteina</title>
    <defs>
        <filter color-interpolation-filters="auto" id="filter-1">
            <feColorMatrix in="SourceGraphic" type="matrix" values="0 0 0 0 0.101961 0 0 0 0 0.486275 0 0 0 0 0.525490 0 0 0 1.000000 0"></feColorMatrix>
        </filter>
        <polygon id="path-2" points="0 0 37.0909091 0 37.0909091 48 0 48"></polygon>
    </defs>
    <g id="Desktop" stroke="none" stroke-width="1" fill="none" fill-rule="evenodd">
        <g id="03_Interna-Productos_Salmón-Natural-" transform="translate(-504.000000, -957.000000)">
            <g id="Atributos" transform="translate(246.000000, 957.000000)">
                <g id="Proteina" transform="translate(213.000000, 0.000000)">
                    <g id="ico-proteina" transform="translate(45.000000, 0.000000)">
                        <circle id="Oval-Copy-3" stroke="#1A7C86" stroke-width="2" cx="46" cy="46" r="45"></circle>
                        <g filter="url(#filter-1)" id="Group-3">
                            <g transform="translate(28.000000, 22.000000)">
                                <mask id="mask-3" fill="white">
                                    <use xlink:href="#path-2"></use>
                                </mask>
                                <g id="Clip-2"></g>
                                <path d="M22.3588043,25.3690025 L18.5274164,25.3690025 L18.5274164,20.4472476 C18.5018979,20.4423623 18.476189,20.4376649 18.4506705,20.4327796 C17.2261651,23.0048916 16.0016597,25.5770037 14.742114,28.2229589 L18.5670271,28.2229589 L18.5670271,33.14058 C18.5917838,33.1443379 18.616731,33.1480959 18.6414877,33.1520417 C19.865041,30.5904519 21.0884038,28.028862 22.3588043,25.3690025 L22.3588043,25.3690025 Z M2.89297674,13.1621336 L34.2233669,13.1621336 C34.2724995,12.0368228 34.0599726,11.0197403 33.3751636,10.1308031 C32.4526902,8.93334015 31.2074272,8.41267959 29.7064082,8.41380697 C25.9525278,8.41643752 22.198457,8.41474645 18.4443861,8.41474645 C14.7379244,8.41474645 11.0314626,8.40704271 7.32481039,8.4171891 C4.58652679,8.42489285 2.62922246,10.5193725 2.89297674,13.1621336 L2.89297674,13.1621336 Z M2.85945995,40.4219362 L2.85945995,40.8546613 C2.85945995,41.7452896 2.85774603,42.63573 2.86003126,43.5261704 C2.86288781,44.6503538 3.40677389,45.1809728 4.55662829,45.1809728 C13.1081705,45.1813486 21.6597127,45.1811607 30.2110644,45.1811607 C31.0663139,45.1811607 31.9215633,45.1911192 32.7764319,45.1766512 C33.5461754,45.1636864 34.1774718,44.6633186 34.2075607,43.9442396 C34.2563124,42.7792828 34.2207008,41.6109438 34.2207008,40.4219362 L2.85945995,40.4219362 Z M5.7139097,5.72670245 L5.7139097,0 L31.3803433,0 L31.3803433,5.73684885 C32.6238924,6.01399584 33.7156637,6.52638896 34.641565,7.34204666 C36.2682719,8.77513149 37.0812445,10.5785599 37.0860054,12.728469 C37.093242,16.0425833 37.0903855,19.3566977 37.090195,22.671 C37.0898141,29.6118881 37.0879098,36.5529641 37.0881002,43.4938523 C37.0881002,45.3262167 36.3467317,46.752913 34.6413746,47.5479021 C34.0470229,47.8250491 33.3342198,47.9766814 32.6749293,47.9785604 C23.2622342,48.0056174 13.849539,48.002799 4.43684385,47.9932163 C1.86785812,47.9905857 0.0135798399,46.1818963 0.010532859,43.6535641 C-0.00203593698,33.3048013 -0.00546379044,22.9558507 0.0120563495,12.6069001 C0.0175790022,9.39349811 2.16246309,6.69887774 5.29971074,5.84376182 C5.42025692,5.81106787 5.54023179,5.77593127 5.7139097,5.72670245 L5.7139097,5.72670245 Z" id="Fill-1" fill="#000000" mask="url(#mask-3)"></path>
                            </g>
                        </g>
                    </g>
                </g>
            </g>
        </g>
    </g>
</svg>