<?xml version="1.0" encoding="UTF-8"?>
<svg width="44px" height="44px" viewBox="0 0 44 44" version="1.1" xmlns="http://www.w3.org/2000/svg" xmlns:xlink="http://www.w3.org/1999/xlink">
    <title>ico-imprimir</title>
    <defs>
        <filter color-interpolation-filters="auto" id="filter-1">
            <feColorMatrix in="SourceGraphic" type="matrix" values="0 0 0 0 0.956863 0 0 0 0 0.956863 0 0 0 0 0.909804 0 0 0 1.000000 0"></feColorMatrix>
        </filter>
        <polygon id="path-2" points="0 0 19.8 0 19.8 18 0 18"></polygon>
    </defs>
    <g id="Desktop" stroke="none" stroke-width="1" fill="none" fill-rule="evenodd">
        <g id="06_Interna-recetas_op2-hover" transform="translate(-906.000000, -678.000000)">
            <g id="Descripción" transform="translate(735.000000, 192.000000)">
                <g id="Herramientas" transform="translate(2.000000, 486.000000)">
                    <g id="Group" transform="translate(169.000000, 0.000000)">
                        <circle id="Oval-Copy-2" fill="#1A7C86" cx="22" cy="22" r="22"></circle>
                        <g filter="url(#filter-1)" id="Group-8">
                            <g transform="translate(12.000000, 13.000000)">
                                <g id="Group-3">
                                    <mask id="mask-3" fill="white">
                                        <use xlink:href="#path-2"></use>
                                    </mask>
                                    <g id="Clip-2"></g>
                                    <path d="M14.6360474,8.16927588 C14.9256547,8.16927588 15.2153396,8.17465548 15.5047146,8.16791203 C15.8726298,8.1594259 16.1558858,7.87862577 16.1585377,7.53122464 C16.1611528,7.18518735 15.8799107,6.89249148 15.5125376,6.88627842 C14.9464129,6.87680728 14.3799009,6.87741344 13.8136987,6.8858238 C13.4426853,6.89127917 13.1636119,7.17435237 13.160645,7.52349619 C13.1576478,7.87764077 13.4455511,8.16078974 13.8252397,8.16851818 C14.0954056,8.17404933 14.3658039,8.16965472 14.6360474,8.16927588 L14.6360474,8.16927588 Z M4.97436107,4.37377645 L14.8308488,4.37377645 L14.8308488,1.300735 L4.97436107,1.300735 L4.97436107,4.37377645 Z M4.97056573,16.6946587 L14.8320881,16.6946587 L14.8320881,11.4371953 L4.97056573,11.4371953 L4.97056573,16.6946587 Z M3.63786059,4.38385374 C3.63786059,3.69897722 3.63778313,3.04380218 3.63786059,2.38862713 C3.63786059,1.82778456 3.63507218,1.26686623 3.63879006,0.705947891 C3.64173338,0.265653894 3.91329355,0.00114411278 4.36540327,0.000916805602 C8.05121677,-0.000371268384 11.7370303,-0.000219730268 15.4228438,0.000765267486 C15.8951695,0.000916805602 16.1603008,0.264896204 16.1609979,0.732921675 C16.1626245,1.86733601 16.1615401,3.00175035 16.1615401,4.13616469 C16.1615401,4.21072144 16.1615401,4.28535396 16.1615401,4.38385374 C16.2447277,4.38385374 16.3131986,4.38385374 16.3816696,4.38385374 C16.9808679,4.38385374 17.5802212,4.3815049 18.1794196,4.38445989 C19.1397171,4.38915757 19.7966975,5.02751188 19.7979368,5.96447206 C19.8008801,8.07570109 19.8004154,10.1869301 19.7981691,12.2981592 C19.7971622,13.239817 19.1494765,13.8767317 18.1875524,13.8844602 C17.5882766,13.8893094 16.9890008,13.8854452 16.389725,13.8854452 C16.3206344,13.8854452 16.2516212,13.8854452 16.1615401,13.8854452 C16.1615401,13.9734888 16.1615401,14.0409233 16.1615401,14.1084335 C16.1615401,15.148288 16.1620048,16.1881426 16.1613852,17.2279971 C16.1610754,17.7551983 15.9091115,17.9997808 15.366301,18 C11.7255668,18 8.0848326,18 4.44417586,18 C3.88029736,18 3.6380155,17.7595929 3.63793804,17.2010234 C3.63762822,16.1737465 3.63786059,15.1464696 3.63786059,14.1191927 C3.63786059,14.0505459 3.63786059,13.9818234 3.63786059,13.8854452 C3.55715161,13.8854452 3.48891301,13.8854452 3.42067442,13.8854452 C2.82790489,13.8854452 2.23505791,13.8874151 1.64221093,13.8849905 C0.645431751,13.8809748 0.00130900366,13.2480001 0.000844268632,12.2711854 C-0.000240113097,10.1788228 -0.000395024773,8.08653606 0.00092172447,5.99417353 C0.00146391533,5.02069267 0.651318395,4.38650565 1.64755538,4.38415681 C2.23389607,4.3827172 2.82031422,4.38385374 3.40665491,4.38385374 C3.47605534,4.38385374 3.54545577,4.38385374 3.63786059,4.38385374 L3.63786059,4.38385374 Z" id="Fill-1" fill="#000000" mask="url(#mask-3)"></path>
                                </g>
                                <path d="M9.88820114,13.4991432 C8.92609127,13.4991432 7.96390217,13.5016256 7.00179229,13.4981396 C6.50188178,13.4963438 6.177138,13.1929041 6.34430301,12.894535 C6.44594884,12.7130522 6.68877384,12.6027153 7.00725883,12.6012892 C7.51469573,12.5989124 8.02213263,12.6005497 8.52956953,12.6005497 C9.92004964,12.6005497 11.3105297,12.6003913 12.7010891,12.6009195 C12.7864145,12.6009723 12.8739583,12.5996518 12.9568278,12.6108493 C13.2970204,12.6568538 13.5281993,12.8655907 13.4972223,13.0921801 C13.4660869,13.3200372 13.1901458,13.4959213 12.8339496,13.4972945 C11.8520335,13.5010974 10.8701173,13.498615 9.88820114,13.498615 L9.88820114,13.4991432 Z" id="Fill-4" fill="#000000"></path>
                                <path d="M9.89950201,14.4008844 C10.8679431,14.40099 11.8363842,14.3981382 12.8047461,14.4021519 C13.3026296,14.4042644 13.6254697,14.713002 13.4531985,15.0098569 C13.349123,15.1893113 13.1055672,15.2977866 12.785024,15.2988429 C12.1526503,15.3009553 11.5201973,15.2995294 10.8877444,15.2995294 C9.60303721,15.2995822 8.31840924,15.3009025 7.03378126,15.2988429 C6.5140372,15.2979979 6.17987077,15.0059488 6.34057797,14.7007496 C6.43942597,14.5130566 6.68203128,14.4019407 7.01397998,14.4013597 C7.97584705,14.3997226 8.93763493,14.4007788 9.89950201,14.4008844" id="Fill-6" fill="#000000"></path>
                            </g>
                        </g>
                    </g>
                </g>
            </g>
        </g>
    </g>
</svg>