<?xml version="1.0" encoding="UTF-8"?>
<svg width="92px" height="92px" viewBox="0 0 92 92" version="1.1" xmlns="http://www.w3.org/2000/svg" xmlns:xlink="http://www.w3.org/1999/xlink">
    <title>ico-omega 3</title>
    <defs>
        <filter color-interpolation-filters="auto" id="filter-1">
            <feColorMatrix in="SourceGraphic" type="matrix" values="0 0 0 0 0.101961 0 0 0 0 0.486275 0 0 0 0 0.525490 0 0 0 1.000000 0"></feColorMatrix>
        </filter>
        <polygon id="path-2" points="0 0 34.0083467 0 34.0083467 43.9913292 0 43.9913292"></polygon>
        <polygon id="path-4" points="-2.66773654e-15 2.66773654e-15 26.0089932 2.66773654e-15 26.0089932 14.0071478 -2.66773654e-15 14.0071478"></polygon>
    </defs>
    <g id="Desktop" stroke="none" stroke-width="1" fill="none" fill-rule="evenodd">
        <g id="03_Interna-Productos_Salmón-Natural-" transform="translate(-716.000000, -957.000000)">
            <g id="Atributos" transform="translate(246.000000, 957.000000)">
                <g id="Omega3" transform="translate(426.000000, 0.000000)">
                    <g id="ico-omega-3" transform="translate(44.000000, 0.000000)">
                        <g id="ico-libregrasa-copy" stroke="#1A7C86" stroke-width="2">
                            <circle id="Oval-Copy-2" cx="46" cy="46" r="45"></circle>
                        </g>
                        <g filter="url(#filter-1)" id="Group-7">
                            <g transform="translate(22.000000, 22.000000)">
                                <g id="Group-3">
                                    <mask id="mask-3" fill="white">
                                        <use xlink:href="#path-2"></use>
                                    </mask>
                                    <g id="Clip-2"></g>
                                    <path d="M5.99917401,7.96133485 C5.99917401,7.17007284 5.99729676,6.39138842 5.99954946,5.61251627 C6.00818482,2.41893397 8.41088056,0.00797832399 11.5982679,0.00366064277 C15.1902032,-0.00122021426 18.7823263,-0.00122021426 22.3742616,0.00366064277 C25.5721616,0.00797832399 27.9709151,2.39227698 28.0018898,5.59149104 C28.0093988,6.36998774 28.0030161,7.14885988 28.0030161,7.96208575 C28.3848493,8.0107066 28.7394624,8.03511088 29.08544,8.10344288 C31.9369869,8.66624324 33.9723043,11.0494155 33.9905136,13.9676049 C34.0233655,19.2312337 34.0010262,24.4950503 33.9997122,29.7588669 C33.9997122,29.8643685 33.9771851,29.9698701 33.9691129,30.0415811 C32.6388917,30.110664 31.3368292,30.1780574 29.9923408,30.2477035 C29.9923408,30.1033428 29.9923408,29.919372 29.9923408,29.7354012 C29.9923408,24.5966097 29.9927163,19.4576304 29.9921531,14.3188389 C29.9921531,12.7851234 29.2181618,12.0028722 27.6996521,12.0028722 C20.5469438,12.002309 13.3940479,12.002309 6.24115188,12.0028722 C4.80355176,12.0030599 4.01435473,12.7916938 4.01078795,14.2322975 C4.00759662,15.4654648 4.01003704,16.6984444 4.01003704,17.999756 L4.57715509,17.999756 C7.82555316,17.999756 11.0739512,17.997691 14.322537,18.0003191 C17.5951517,18.0027596 19.9710027,20.3613399 19.9880857,23.6292614 C19.9965333,25.2224857 19.9985983,26.8157101 19.9875225,28.4087467 C19.9655587,31.616033 17.5878304,33.9926349 14.3764142,34.0046493 C11.1280161,34.0168515 7.87961804,34.0074652 4.63103224,34.0074652 C4.44631057,34.0074652 4.26140118,34.0074652 4.04401532,34.0074652 C4.03087455,34.177732 4.01172657,34.312331 4.01135112,34.4471178 C4.00909842,35.5873611 4.00440529,36.7276044 4.0119143,37.8678477 C4.02036193,39.1762928 4.83771776,39.9943995 6.15592461,40.0009699 C8.01421706,40.0101685 9.87288496,40.0034103 11.7313651,40.0035981 C13.667939,40.0035981 15.6045129,40.0035981 17.5410868,40.0035981 C17.7075991,40.0035981 17.8741114,40.0035981 18.0727248,40.0035981 C17.8666024,41.421487 18.1228474,42.6995207 18.7710628,43.9657276 C18.557056,43.9754893 18.3952368,43.989381 18.2334176,43.989381 C14.2354325,43.9905074 10.2372597,43.9931355 6.2390869,43.989381 C2.57694233,43.9861897 0.00135162195,41.3985846 0.000976171406,37.7276169 C-4.01631804e-05,29.8555454 -0.00127653184,21.9832862 0.00191479776,14.1112147 C0.00322887465,11.1374587 1.96645975,8.71692906 4.86005707,8.11583275 C5.22274229,8.04055492 5.59556468,8.01464883 5.99917401,7.96133485" id="Fill-1" fill="#000000" mask="url(#mask-3)"></path>
                                </g>
                                <g id="Group-6" transform="translate(21.980885, 33.992852)">
                                    <mask id="mask-5" fill="white">
                                        <use xlink:href="#path-4"></use>
                                    </mask>
                                    <g id="Clip-5"></g>
                                    <path d="M4.76104937,7.00572737 C8.55610344,10.9642901 12.9081384,11.0170409 16.6695896,6.98770574 C12.7812361,2.99478924 8.57637777,3.04472416 4.76104937,7.00572737 M19.4265229,9.96746896 C18.1257745,11.2210983 16.7399866,12.2763021 15.1266756,13.0041129 C11.4500762,14.662478 7.95669665,14.2053669 4.61969224,12.0692411 C3.02628015,11.0493297 1.68686035,9.74351271 0.486732692,8.29127002 C-0.105165085,7.57491039 -0.178190215,6.56156938 0.383483794,5.86097867 C2.16800021,3.63455696 4.27559182,1.80085652 6.98972378,0.793522723 C10.6820921,-0.576871751 14.110331,0.0794157943 17.2918989,2.27842961 C18.0339769,2.79148277 18.7112897,3.39802312 19.5177574,4.04079445 C19.5990425,3.92609431 19.6921542,3.76164697 19.8158652,3.62498297 C20.6651343,2.68729525 21.5179702,1.75279885 22.3753115,0.822432414 C23.0896061,0.0473147731 23.891193,-0.18039598 24.7267582,0.141365134 C25.5585689,0.461624445 26.00742,1.18680716 26.0077955,2.22567881 C26.0092973,5.41231527 26.009485,8.59895174 26.0077955,11.7855882 C26.0072323,12.8214562 25.5551898,13.5487039 24.7231914,13.8676492 C23.8913808,14.1867821 23.0751513,13.9496851 22.3724956,13.1832028 C21.4021437,12.1249955 20.4327304,11.0658495 19.4265229,9.96746896" id="Fill-4" fill="#000000" mask="url(#mask-5)"></path>
                                </g>
                            </g>
                        </g>
                    </g>
                </g>
            </g>
        </g>
    </g>
</svg>