<?xml version="1.0" encoding="UTF-8"?>
<svg width="46px" height="46px" viewBox="0 0 46 46" version="1.1" xmlns="http://www.w3.org/2000/svg" xmlns:xlink="http://www.w3.org/1999/xlink">
    <title>ico libres de grasa</title>
    <defs>
        <filter color-interpolation-filters="auto" id="filter-1">
            <feColorMatrix in="SourceGraphic" type="matrix" values="0 0 0 0 1.000000 0 0 0 0 1.000000 0 0 0 0 1.000000 0 0 0 1.000000 0"></feColorMatrix>
        </filter>
        <filter color-interpolation-filters="auto" id="filter-2">
            <feColorMatrix in="SourceGraphic" type="matrix" values="0 0 0 0 0.349000 0 0 0 0 0.549000 0 0 0 0 0.475000 0 0 0 1.000000 0"></feColorMatrix>
        </filter>
        <polygon id="path-3" points="0 0 24 0 24 24 0 24"></polygon>
        <filter color-interpolation-filters="auto" id="filter-5">
            <feColorMatrix in="SourceGraphic" type="matrix" values="0 0 0 0 0.349000 0 0 0 0 0.549000 0 0 0 0 0.475000 0 0 0 1.000000 0"></feColorMatrix>
        </filter>
        <polygon id="path-6" points="0 0 8.64007511 0 8.64007511 13.44 0 13.44"></polygon>
    </defs>
    <g id="Desktop" stroke="none" stroke-width="1" fill="none" fill-rule="evenodd">
        <g id="02_Productos_1" transform="translate(-276.000000, -437.000000)">
            <g id="Textos-banner" transform="translate(96.000000, 201.000000)">
                <g id="Atributos" transform="translate(0.000000, 236.000000)">
                    <g id="ico-libres-de-grasa" transform="translate(180.000000, 0.000000)">
                        <circle id="Oval-Copy-2" fill="#F28F1D" cx="23" cy="23" r="23"></circle>
                        <g filter="url(#filter-1)" id="ico-libre-grasa">
                            <g transform="translate(11.000000, 11.000000)">
                                <g filter="url(#filter-2)">
                                    <g id="Group-3">
                                        <mask id="mask-4" fill="white">
                                            <use xlink:href="#path-3"></use>
                                        </mask>
                                        <g id="Clip-2"></g>
                                        <path d="M3.98092542,18.6731705 L6.48237836,17.0455861 L6.48237836,15.0592443 L3.08173758,17.3945884 C2.1202593,15.8197567 1.55904925,13.9749027 1.55904925,12.0001043 C1.55904925,6.24678274 6.24692646,1.55924433 12,1.55924433 C14.9884509,1.55924433 17.6803517,2.83246178 19.5878101,4.84898549 L15.5878101,8.06749563 L15.6951047,9.77048358 L20.5752179,6.05991305 C21.7497951,7.74889322 22.4409507,9.79134622 22.4409507,12.0001043 C22.4409507,17.7584925 17.7584383,22.4409643 12,22.4409643 C8.7778854,22.4409643 5.89345056,20.9755125 3.98092542,18.6731705 Z M12,-8.94113382e-05 C5.38409955,-8.94113382e-05 0,5.38426137 0,12.0001043 C0,18.6159473 5.38409955,24 12,24 C18.6159005,24 24,18.6159473 24,12.0001043 C24,5.38426137 18.6159005,-8.94113382e-05 12,-8.94113382e-05" id="Fill-1" fill="#FFFFFF" mask="url(#mask-4)"></path>
                                    </g>
                                </g>
                                <g filter="url(#filter-5)" id="Group-3">
                                    <g transform="translate(7.680067, 4.800000)">
                                        <mask id="mask-7" fill="white">
                                            <use xlink:href="#path-6"></use>
                                        </mask>
                                        <g id="Clip-2"></g>
                                        <path d="M6.99962765,9.37380635 C6.99457753,9.27652919 6.99836512,9.20151036 6.98489813,9.12937687 C6.95123066,8.94966144 6.79509777,8.82105773 6.61076838,8.81157733 C6.42643898,8.80250912 6.25936416,8.91544955 6.20760043,9.09227965 C6.19076669,9.14998644 6.18487488,9.21222734 6.18319151,9.27240728 C6.17561633,9.55723151 6.10070621,9.82433152 5.96266959,10.0732951 C5.74172682,10.471472 5.41641489,10.755884 4.98715465,10.926119 C4.75737417,11.0168011 4.64500899,11.2072335 4.69887694,11.4071464 C4.76705357,11.6589953 5.01408863,11.7760576 5.2796408,11.6660025 C6.32459488,11.234026 6.87632054,10.4471527 6.99962765,9.37380635 M8.64007511,9.27735357 C8.58199872,11.4438314 6.89525849,13.2236737 4.69256429,13.4223499 C2.41495997,13.6280334 0.343568907,12.0126555 0.0329864998,9.79795127 C-0.0663325356,9.08939431 0.0700207164,8.41628581 0.289700956,7.74894799 C0.715173603,6.45714025 1.27994541,5.22221491 1.90616034,4.01573079 C2.56225515,2.75153987 3.25159659,1.50342441 3.93210032,0.251187041 C4.11011707,-0.0760929033 4.49434707,-0.084748922 4.67530972,0.232226238 C5.82547465,2.2441323 6.92598006,4.28076983 7.82826825,6.41427234 C8.12327945,7.11211233 8.39430258,7.8198449 8.54412282,8.5646747 C8.59125728,8.79921159 8.6089327,9.03951915 8.64007511,9.27735357" id="Fill-1" fill="#FFFFFF" mask="url(#mask-7)"></path>
                                    </g>
                                </g>
                            </g>
                        </g>
                    </g>
                </g>
            </g>
        </g>
    </g>
</svg>