<?xml version="1.0" encoding="UTF-8"?>
<svg width="45px" height="45px" viewBox="0 0 45 45" version="1.1" xmlns="http://www.w3.org/2000/svg" xmlns:xlink="http://www.w3.org/1999/xlink">
    <title>ico-salchicha</title>
    <defs>
        <filter color-interpolation-filters="auto" id="filter-1">
            <feColorMatrix in="SourceGraphic" type="matrix" values="0 0 0 0 0.949020 0 0 0 0 0.560784 0 0 0 0 0.113725 0 0 0 1.000000 0"></feColorMatrix>
        </filter>
        <polygon id="path-2" points="0 0 24.9166667 0 24.9166667 20.656432 0 20.656432"></polygon>
    </defs>
    <g id="Desktop" stroke="none" stroke-width="1" fill="none" fill-rule="evenodd">
        <g id="06_Interna-recetas_op2-hover" transform="translate(-185.000000, -931.000000)">
            <g id="Ingredientes" transform="translate(185.000000, 842.000000)">
                <g id="Group-9" transform="translate(0.000000, 78.000000)">
                    <g id="ico-salchicha" transform="translate(0.000000, 11.000000)">
                        <circle id="Oval" fill="#FCE6CD" cx="22.5" cy="22.5" r="22.5"></circle>
                        <g filter="url(#filter-1)" id="Group-6">
                            <g transform="translate(10.000000, 11.000000)">
                                <g id="Group-3" transform="translate(0.000000, 2.343568)">
                                    <mask id="mask-3" fill="white">
                                        <use xlink:href="#path-2"></use>
                                    </mask>
                                    <g id="Clip-2"></g>
                                    <path d="M16.8222413,14.7829335 C16.9670268,14.7829335 17.080692,14.7879715 17.1938828,14.7820616 C17.6678041,14.757453 17.9993118,14.4867585 18.1301501,14.0221987 C18.3550137,13.2232916 17.866481,12.5129366 17.0521334,12.4854214 C14.8942973,12.4123707 13.0110413,11.6245084 11.3664064,10.2193967 C10.9316702,9.84794269 10.5267261,9.44015706 10.1065064,9.05077943 C9.87889135,8.8399594 9.61247074,8.72951141 9.30392379,8.78260395 C8.81150109,8.86737763 8.48445271,9.16665295 8.32638407,9.64342013 C8.17818287,10.090347 8.31148805,10.4787558 8.63284368,10.7974079 C9.01084215,11.172156 9.38656352,11.5517483 9.78885105,11.8982063 C11.829891,13.6559764 14.1689463,14.6622158 16.8222413,14.7829335 M-1.89758263e-05,4.2814606 C0.0634551649,3.97627535 0.111558886,3.66663343 0.193060062,3.36648615 C0.629788716,1.75704571 1.62772745,0.688897338 3.19057655,0.191106284 C5.38949536,-0.509366529 7.98823484,0.784618934 8.72307373,2.9478495 C8.90581095,3.48594438 9.01587074,4.05000423 9.20145433,4.5869365 C9.74957109,6.17283408 10.710507,7.4719544 11.9520004,8.55618556 C13.6907554,10.0746517 15.706937,10.982263 17.9671478,11.3239736 C18.4720945,11.4004152 18.9910834,11.4016747 19.4873013,11.5131884 C21.4074652,11.9447107 22.5322573,13.211181 22.9745838,15.1279382 C23.0902415,15.6294108 23.0943213,16.1576235 23.1533361,16.7074414 C23.4714659,16.6583211 23.827737,16.6086195 24.1823003,16.5476793 C24.9313711,16.4190171 24.9979762,16.4914865 24.8573654,17.2571624 C24.6841161,18.2009114 24.5212086,19.1465982 24.3527033,20.0912192 C24.2810695,20.4929011 24.1143669,20.5616889 23.7859902,20.3201566 C23.2728838,19.9426957 22.7628136,19.560875 22.2339573,19.1679127 C22.1221897,19.2917307 22.0186766,19.4150643 21.9063397,19.5292908 C21.0853505,20.3644327 20.0729902,20.6990707 18.9396589,20.6521787 C16.5857076,20.5547132 14.3149653,20.0347357 12.1205058,19.1696566 C8.81586553,17.8670485 5.94387414,15.9211292 3.64248586,13.1472375 C1.87507735,11.0170444 0.683490306,8.59077322 0.114025743,5.85379439 C0.0707608582,5.645784 0.0377429195,5.43554527 -1.89758263e-05,5.22637227 C-1.89758263e-05,4.91140171 -1.89758263e-05,4.59643116 -1.89758263e-05,4.2814606" id="Fill-1" fill="#000000" mask="url(#mask-3)"></path>
                                </g>
                                <path d="M1.54008759,2.85086562 C1.11208782,2.27285444 0.697466003,1.72187396 0.293375771,1.16294897 C0.108076822,0.906593362 0.175346128,0.723191559 0.478105445,0.659538636 C1.52471717,0.439320834 2.57218281,0.222881517 3.62145116,0.0166150413 C3.98066356,-0.0540135453 4.11444314,0.100710533 4.06206986,0.477396328 C4.00400383,0.894967258 3.95542571,1.31408834 3.88777689,1.73001223 C3.87515796,1.80732583 3.79897002,1.92707471 3.73986032,1.93530987 C2.9355699,2.04711424 2.21799901,2.37177322 1.54008759,2.85086562" id="Fill-4" fill="#000000"></path>
                            </g>
                        </g>
                    </g>
                </g>
            </g>
        </g>
    </g>
</svg>