<?xml version="1.0" encoding="UTF-8"?>
<svg width="32px" height="32px" viewBox="0 0 32 32" version="1.1" xmlns="http://www.w3.org/2000/svg" xmlns:xlink="http://www.w3.org/1999/xlink">
    <title>ico_consumidor</title>
    <defs>
        <polygon id="path-1" points="0 0 4.71513765 0 4.71513765 4.71517889 0 4.71517889"></polygon>
    </defs>
    <g id="Desktop" stroke="none" stroke-width="1" fill="none" fill-rule="evenodd">
        <g id="12_Contacto_Felicitaciones" transform="translate(-891.000000, -160.000000)">
            <g id="opciones-contacto" transform="translate(596.000000, 152.000000)">
                <g id="Tarjeta-contacto" transform="translate(253.000000, 0.000000)">
                    <g id="ico_consumidor" transform="translate(42.000000, 8.000000)">
                        <circle id="Oval-Copy-8" fill="#1E634A" cx="16" cy="16" r="16"></circle>
                        <g id="Group-8" transform="translate(9.411765, 8.470588)">
                            <path d="M7.47343227,12.703255 C7.47343227,13.478615 7.74150888,14.1921112 8.19517699,14.7571342 C7.99721273,14.7942525 7.79924846,14.8272466 7.59715994,14.8561164 C7.04038544,14.9344772 6.47948668,14.9715955 5.91858793,15.0252108 C4.58232912,14.9922168 3.28731288,14.7406372 2.03353919,14.3117146 C1.38603107,14.0890048 0.759144222,13.8044312 0.124008866,13.5528516 C0.0373994993,13.5198576 -0.00384305632,13.4744908 0.000281199243,13.3672601 C0.0662692882,11.6886881 0.4828191,10.121471 1.49326171,8.74809389 C2.35110687,7.58505382 3.46878012,6.79319675 4.90814531,6.52512014 C6.61146286,6.20755246 8.11681614,6.65297206 9.40770813,7.78714234 C9.95210986,8.26555599 10.3934052,8.81408198 10.7357184,9.41622329 C8.93341874,9.42859605 7.47343227,10.896831 7.47343227,12.703255" id="Fill-1" fill="#FFFFFF"></path>
                            <path d="M2.94507742,2.9373065 C2.94796913,1.31152496 4.27268002,-0.00452498716 5.90176096,0 C7.52713008,0.00454837507 8.84153033,1.33173381 8.83536569,2.96163961 C8.82915756,4.57917264 7.50733365,5.89192318 5.88650122,5.89068678 C4.26030725,5.88903621 2.94219517,4.56597502 2.94507742,2.9373065" id="Fill-3" fill="#FFFFFF"></path>
                            <g id="Group-7" transform="translate(8.400812, 10.343645)">
                                <mask id="mask-2" fill="white">
                                    <use xlink:href="#path-1"></use>
                                </mask>
                                <g id="Clip-6"></g>
                                <path d="M2.65230875,3.64336736 C2.65230875,3.72873945 2.62921292,3.79472754 2.58343368,3.8409192 C2.53765445,3.88669844 2.47207878,3.90938184 2.38629427,3.90938184 L2.32855469,3.90938184 C2.2431826,3.90938184 2.17719451,3.88669844 2.13141527,3.8409192 C2.08563604,3.79472754 2.06295263,3.72873945 2.06295263,3.64336736 L2.06295263,3.56789348 C2.06295263,3.48210897 2.08563604,3.4165333 2.13141527,3.37075407 C2.17719451,3.32497483 2.2431826,3.30229143 2.32855469,3.30229143 L2.38629427,3.30229143 C2.47207878,3.30229143 2.53765445,3.32497483 2.58343368,3.37075407 C2.62921292,3.4165333 2.65230875,3.48210897 2.65230875,3.56789348 L2.65230875,3.64336736 Z M2.14048863,0.899087712 C2.19492881,0.836811453 2.26669085,0.805879536 2.35536235,0.805879536 C2.44403384,0.805879536 2.51620832,0.836811453 2.57271062,0.899087712 C2.62880049,0.960951545 2.65230875,1.03848755 2.64364781,1.1296336 L2.51950772,2.76077667 C2.51043436,2.87336885 2.45723146,2.92945872 2.35989903,2.92945872 C2.25926719,2.92945872 2.2044146,2.87336885 2.19575366,2.76077667 L2.06707689,1.1296336 C2.06130293,1.03848755 2.08563604,0.960951545 2.14048863,0.899087712 L2.14048863,0.899087712 Z M2.35742448,0 C1.055397,0 0,1.055397 0,2.3578369 C0,3.65945196 1.055397,4.71526138 2.35742448,4.71526138 C3.65945196,4.71526138 4.71526138,3.65945196 4.71526138,2.3578369 C4.71526138,1.055397 3.65945196,0 2.35742448,0 L2.35742448,0 Z" id="Fill-5" fill="#FFFFFF" mask="url(#mask-2)"></path>
                            </g>
                        </g>
                    </g>
                </g>
            </g>
        </g>
    </g>
</svg>