<?xml version="1.0" encoding="UTF-8"?>
<svg width="25px" height="25px" viewBox="0 0 25 25" version="1.1" xmlns="http://www.w3.org/2000/svg" xmlns:xlink="http://www.w3.org/1999/xlink">
    <title>ico peso</title>
    <defs>
        <filter color-interpolation-filters="auto" id="filter-1">
            <feColorMatrix in="SourceGraphic" type="matrix" values="0 0 0 0 0.101961 0 0 0 0 0.486275 0 0 0 0 0.525490 0 0 0 1.000000 0"></feColorMatrix>
        </filter>
        <polygon id="path-2" points="0 0 25 0 25 25 0 25"></polygon>
    </defs>
    <g id="Desktop" stroke="none" stroke-width="1" fill="none" fill-rule="evenodd">
        <g id="Peso" transform="translate(-24.000000, -29.000000)">
            <g id="ico-peso" transform="translate(8.000000, 10.000000)" filter="url(#filter-1)">
                <g transform="translate(16.000000, 19.000000)">
                    <mask id="mask-3" fill="white">
                        <use xlink:href="#path-2"></use>
                    </mask>
                    <g id="Clip-2"></g>
                    <path d="M10.3158047,9.64018495 C9.97787944,8.89869693 9.63491057,8.14712064 9.29362292,7.39386297 C9.22805535,7.24590164 9.16248777,7.09625893 9.12045727,6.94157209 C9.04480237,6.65741908 9.20451827,6.38335435 9.48191956,6.29087852 C9.79294525,6.18663304 10.0518531,6.3160992 10.2166127,6.67591425 C10.5898435,7.4863388 10.9597119,8.29844472 11.3262178,9.11391341 C11.3816981,9.23833544 11.4321347,9.27700715 11.5784008,9.24674233 C12.1231161,9.13408995 12.6762375,9.12063892 13.2276776,9.20302648 C14.1523486,9.34089954 14.9576529,9.72929802 15.6519968,10.3581337 C16.005053,10.679277 16.2723669,10.6607818 16.6052485,10.3278689 C17.6190241,9.31736024 18.6311185,8.30517024 19.6415317,7.28961749 C19.9794569,6.95166036 19.9794569,6.64733081 19.6364881,6.32282472 C17.1919942,3.99915931 14.2834837,3.07103825 10.9563495,3.5334174 C8.79261938,3.83270282 6.92814645,4.79613283 5.35956824,6.32282472 C5.02332425,6.65069357 5.02164303,6.95166036 5.35788702,7.29129887 C5.80004787,7.73686423 6.24388994,8.17906683 6.68605078,8.62126944 C7.26270923,9.19630097 7.83600523,9.77301387 8.41266367,10.346364 C8.6934274,10.6254729 8.95569771,10.6574191 9.23646145,10.4506095 C9.58951764,10.1916772 9.93584895,9.92601934 10.3158047,9.64018495 M12.4744911,24.9995797 C9.10700751,24.9995797 5.73784273,25.001261 2.36867795,24.9978983 C1.39693282,24.9962169 0.652152383,24.5758722 0.235209835,23.6897856 C0.0906249193,23.3837747 0.0116075817,23.0189155 0.00992636172,22.679277 C-0.00184217793,15.8932325 -0.00184217793,9.10718789 0.00320148192,2.31946196 C0.00320148192,0.999579655 0.998483692,0.00420344683 2.31992257,0.0025220681 C9.10700751,-0.000840689365 15.8924112,-0.000840689365 22.6794962,0.0025220681 C23.9992538,0.00420344683 24.994536,0.999579655 24.9962173,2.32114334 C25.0012609,9.10718789 25.0012609,15.8932325 24.9962173,22.679277 C24.994536,24.0226986 23.9908477,24.9978983 22.6307408,24.9978983 C19.2447638,25.001261 15.860468,24.9995797 12.4744911,24.9995797" id="Fill-1" fill="#1D1D1B" mask="url(#mask-3)"></path>
                </g>
            </g>
        </g>
    </g>
</svg>