<?xml version="1.0" encoding="UTF-8"?>
<svg width="32px" height="32px" viewBox="0 0 32 32" version="1.1" xmlns="http://www.w3.org/2000/svg" xmlns:xlink="http://www.w3.org/1999/xlink">
    <title>ico_infogeneral</title>
    <defs>
        <filter color-interpolation-filters="auto" id="filter-1">
            <feColorMatrix in="SourceGraphic" type="matrix" values="0 0 0 0 1.000000 0 0 0 0 1.000000 0 0 0 0 1.000000 0 0 0 1.000000 0"></feColorMatrix>
        </filter>
        <polygon id="path-2" points="3.17959567e-16 0 11.4698533 0 11.4698533 15.0588235 3.17959567e-16 15.0588235"></polygon>
    </defs>
    <g id="Desktop" stroke="none" stroke-width="1" fill="none" fill-rule="evenodd">
        <g id="12_Contacto_Felicitaciones" transform="translate(-1270.000000, -160.000000)">
            <g id="opciones-contacto" transform="translate(596.000000, 152.000000)">
                <g id="Tarjeta-contacto" transform="translate(632.000000, 0.000000)">
                    <g id="ico_infogeneral" transform="translate(42.000000, 8.000000)">
                        <circle id="Oval-Copy-2" fill="#1A7C86" cx="16" cy="16" r="16"></circle>
                        <g filter="url(#filter-1)" id="Group-6">
                            <g transform="translate(10.352941, 8.470588)">
                                <g id="Group-3">
                                    <mask id="mask-3" fill="white">
                                        <use xlink:href="#path-2"></use>
                                    </mask>
                                    <g id="Clip-2"></g>
                                    <path d="M3.48527761,10.5883557 C3.1373107,10.5883557 2.78982111,10.5869237 2.4418542,10.588833 C2.16930399,10.5902649 1.97169229,10.7773747 1.97169229,11.0284455 C1.97121583,11.2799936 2.16834935,11.4685353 2.44042224,11.46949 C3.13110553,11.4713993 3.82178882,11.4709219 4.51294943,11.46949 C4.79265945,11.4690127 4.9974301,11.2752204 4.99217957,11.0222403 C4.98692904,10.7726015 4.78788624,10.5902649 4.51390407,10.588833 C4.17118769,10.5869237 3.82799399,10.5883557 3.48527761,10.5883557 L3.48527761,10.5883557 Z M5.6470638,9.11725276 C6.71053468,9.11725276 7.77400556,9.11629812 8.83747644,9.11773219 C9.04415637,9.1182074 9.20119494,9.03754018 9.28520341,8.84708915 C9.41885325,8.54399041 9.19260316,8.23611845 8.83699912,8.23611845 C6.71005736,8.23516381 4.58311559,8.23564113 2.45569651,8.23564113 C2.42657994,8.23564113 2.39650872,8.23373184 2.36786947,8.23802773 C2.194602,8.26428038 2.06763465,8.35449402 2.00271901,8.51916972 C1.88529808,8.8160633 2.10343371,9.1158208 2.44137688,9.11629812 C3.51009829,9.11868472 4.57834238,9.11725276 5.6470638,9.11725276 L5.6470638,9.11725276 Z M5.64658647,6.76453823 C6.71053468,6.76453823 7.77400556,6.76358359 8.83747644,6.76501766 C9.04415637,6.76549287 9.20119494,6.68482565 9.28520341,6.49437462 C9.41885325,6.19127587 9.19260316,5.88340392 8.83699912,5.88340392 C6.71005736,5.88244928 4.58311559,5.8829266 2.45617383,5.8829266 C2.42657994,5.8829266 2.39650872,5.88101731 2.36786947,5.8853132 C2.194602,5.91156585 2.06763465,6.00130217 2.00271901,6.16645519 C1.88529808,6.46334877 2.10343371,6.76310627 2.44137688,6.76358359 C3.51009829,6.76597019 4.57834238,6.76453823 5.64658647,6.76453823 L5.64658647,6.76453823 Z M6.88237019,0.000424285211 C6.88237019,1.13692526 6.88093823,2.24956019 6.88284751,3.36219512 C6.88380215,3.80801281 7.13105436,4.18652825 7.53534513,4.33449772 C7.6742455,4.38557105 7.83128406,4.40752781 7.98020817,4.40848245 C9.08281936,4.41468762 10.1859079,4.4118237 11.2885191,4.4118237 L11.469901,4.4118237 C11.469901,4.47053416 11.469901,4.52256214 11.469901,4.57411279 C11.469901,7.50486289 11.4703783,10.4360903 11.4694237,13.3673177 C11.4694237,14.3634864 10.7734899,15.0579882 9.7768439,15.0584655 C7.08141299,15.0588235 4.38550476,15.0588235 1.69007384,15.0584655 C0.694859846,15.0579882 0.000357990647,14.3615771 0.000357990647,13.3639765 C-0.000119330216,9.47237948 -0.000119330216,5.58078249 0.000357990647,1.6891855 C0.000357990647,0.699699349 0.695337167,0.00137892694 1.68052743,0.000424285211 C3.36165151,-0.000530356514 5.04277558,0.000424285211 6.72389966,0.000424285211 L6.88237019,0.000424285211 Z" id="Fill-1" fill="#000000" mask="url(#mask-3)"></path>
                                </g>
                                <path d="M7.78011527,0.172259796 C7.91949296,0.282043594 8.04550567,0.366529387 8.15433482,0.469153372 C9.07747337,1.33835466 9.99870264,2.20898792 10.9165907,3.08343974 C11.0459446,3.20658852 11.1533418,3.3526487 11.2922422,3.51255119 C11.2225533,3.52209761 11.1920048,3.52973474 11.1609789,3.52973474 C10.09894,3.53021206 9.03642378,3.53021206 7.97438486,3.52973474 C7.81495969,3.52973474 7.764841,3.48486658 7.76436368,3.33641979 C7.76340904,2.30827066 7.76388636,1.28012152 7.76436368,0.25197238 C7.76436368,0.238130075 7.76961421,0.22428777 7.78011527,0.172259796" id="Fill-4" fill="#000000"></path>
                            </g>
                        </g>
                    </g>
                </g>
            </g>
        </g>
    </g>
</svg>