<?xml version="1.0" encoding="UTF-8"?>
<svg width="24px" height="24px" viewBox="0 0 24 24" version="1.1" xmlns="http://www.w3.org/2000/svg" xmlns:xlink="http://www.w3.org/1999/xlink">
    <title>ico estatura</title>
    <defs>
        <filter color-interpolation-filters="auto" id="filter-1">
            <feColorMatrix in="SourceGraphic" type="matrix" values="0 0 0 0 0.101961 0 0 0 0 0.486275 0 0 0 0 0.525490 0 0 0 1.000000 0"></feColorMatrix>
        </filter>
        <polygon id="path-2" points="0 0 15.9758587 0 15.9758587 19.1927966 0 19.1927966"></polygon>
    </defs>
    <g id="Desktop" stroke="none" stroke-width="1" fill="none" fill-rule="evenodd">
        <g id="Talla" transform="translate(-27.000000, -29.000000)">
            <g id="ico-estatura" transform="translate(11.000000, 10.000000)" filter="url(#filter-1)">
                <g transform="translate(16.000000, 19.000000)">
                    <g id="Group-3" transform="translate(8.024141, 4.807203)">
                        <mask id="mask-3" fill="white">
                            <use xlink:href="#path-2"></use>
                        </mask>
                        <g id="Clip-2"></g>
                        <path d="M4.94662264,3.3962534 C4.65409283,3.59969905 4.32986302,3.76886243 4.07570689,4.01277241 C3.22314377,4.83273706 2.39449469,5.67742991 1.5602842,6.51594071 C1.33171053,6.74523858 1.0747737,6.89866582 0.744982488,6.83740732 C0.402400048,6.77390081 0.159922867,6.58057124 0.0470263809,6.23269042 C-0.0669823856,5.88199957 0.0342351534,5.5897572 0.265033388,5.3306731 C1.15708247,4.32805696 2.06025435,3.33555691 2.94229291,2.32451071 C3.49732095,1.68775954 4.08571741,1.09934077 4.83539457,0.698069512 C5.681284,0.244531832 6.57666993,-0.00443618809 7.54101725,0 C8.40970843,0.00455588487 9.2767312,-0.0246683522 10.1215084,0.252399896 C11.2265592,0.614892837 12.1241697,1.26850414 12.886638,2.14410724 C13.8165047,3.21247791 14.7680608,4.26230243 15.7062695,5.32336704 C16.0672046,5.73138235 16.0633116,6.25741862 15.7090502,6.60136541 C15.3369923,6.96217234 14.8386906,6.93238609 14.4293713,6.52043675 C13.6680152,5.75330053 12.9105521,4.98223027 12.1469714,4.21790407 C11.8121749,3.88238735 11.4356679,3.6053191 10.9579434,3.40131144 L10.9579434,3.77111044 C10.9579434,8.49082474 10.9573873,13.211101 10.9584995,17.9308153 C10.9590557,18.4360574 10.7521715,18.8232786 10.3083715,19.0520144 C9.88737328,19.2689482 9.46303821,19.2341039 9.07485226,18.9559116 C8.70223825,18.6895215 8.57543825,18.3023003 8.57543825,17.8560687 C8.57710667,15.3928027 8.57655053,12.9295368 8.57599439,10.4668328 C8.57599439,10.3634239 8.57877509,10.2600151 8.57154527,10.1577303 C8.54874352,9.83682566 8.32573125,9.61764388 8.01651723,9.6075278 C7.69840496,9.59684971 7.44369269,9.81322147 7.40420673,10.1335641 C7.39252778,10.2262948 7.39864533,10.3207116 7.39864533,10.4145663 C7.39808919,12.9340328 7.39975761,15.4529372 7.3969769,17.9724037 C7.39642076,18.4658437 7.17285235,18.8395767 6.73683834,19.0576345 C6.31250327,19.2695102 5.88928049,19.2301699 5.50443138,18.9486056 C5.14460859,18.6855875 5.01558404,18.3067964 5.01614018,17.8706808 C5.01725246,16.288076 5.01669632,14.7054712 5.01669632,13.1228663 C5.01669632,10.0132951 5.01669632,6.90428587 5.01669632,3.79471464 L5.01669632,3.45975992 C4.99333842,3.43840375 4.96998053,3.41760958 4.94662264,3.3962534" id="Fill-1" fill="#1D1D1B" mask="url(#mask-3)"></path>
                    </g>
                    <path d="M3.57594108,1.21256971 L3.57594108,3.61513921 C3.79339195,3.61513921 4.00250071,3.61513921 4.21160947,3.61513921 C4.58199893,3.61570121 4.95294453,3.60895716 5.32333398,3.61907324 C5.69483572,3.62918932 5.92285325,3.86466923 5.92118483,4.21423607 C5.91951641,4.55481083 5.67537081,4.80265484 5.3166603,4.80827489 C4.83448664,4.81558095 4.35286912,4.8099609 3.87069546,4.8099609 C3.77948844,4.8099609 3.68883757,4.8099609 3.58150249,4.8099609 L3.58150249,7.21196839 C4.02530247,7.21196839 4.45797964,7.21196839 4.89121295,7.21196839 C5.02079365,7.21196839 5.15093048,7.20972037 5.28051118,7.2130924 C5.69094274,7.2248945 5.92841465,7.45250634 5.92062869,7.82342935 C5.91339887,8.17243418 5.66257958,8.40341806 5.27606205,8.40622808 C4.72103401,8.41016211 4.16600597,8.40735209 3.58762003,8.40735209 L3.58762003,10.8093596 C3.7361095,10.8093596 3.88849195,10.8093596 4.04143053,10.8093596 C4.44963753,10.8093596 4.85728839,10.8048635 5.26493925,10.8104836 C5.68315677,10.8161036 5.92174097,11.0369714 5.92118483,11.4050844 C5.92062869,11.7664533 5.6670287,12.0013712 5.26382697,12.0036193 C4.70935506,12.0064293 4.1554393,12.0041813 3.58317091,12.0041813 L3.58317091,14.4061888 C3.93020247,14.4061888 4.27000421,14.4061888 4.61036209,14.4061888 C4.84171646,14.4061888 5.07362698,14.4011307 5.30498135,14.4084368 C5.69427958,14.4208009 5.92674623,14.6534708 5.92118483,15.0148397 C5.91506729,15.3638445 5.664248,15.5970764 5.2793989,15.6004485 C4.80667962,15.6043825 4.33396035,15.6004485 3.86124107,15.6021345 C3.77114634,15.6021345 3.68049546,15.6094405 3.57816564,15.6139366 L3.57816564,17.9889678 C3.67771476,17.9934639 3.77503932,18.0024559 3.87180774,18.0024559 C4.3539814,18.004704 4.83559892,17.9973979 5.31777258,18.006952 C5.69094274,18.014258 5.92007255,18.2480519 5.92118483,18.5964948 C5.92174097,18.9483096 5.67314625,19.1933436 5.29497083,19.1967156 C4.73104454,19.2017737 4.16711825,19.1984016 3.58428319,19.1984016 L3.58428319,22.7952308 C4.16378141,22.7952308 4.7360498,22.7907348 5.30776205,22.7969168 C5.67203397,22.8008509 5.91562343,23.0408268 5.92118483,23.3819636 C5.92619009,23.7118603 5.71485677,23.9737544 5.38784626,23.9793744 C4.37845157,23.9967966 3.36905688,23.9962346 2.35966219,23.9984826 C1.81297626,24.0001686 1.26629032,23.9939866 0.719604379,23.9900525 C0.252446506,23.9861185 0.00607634287,23.7815488 0.0044079219,23.3976997 C0.00273950092,23.0189086 0.263569313,22.7963548 0.713486835,22.7952308 C1.24960611,22.7941068 1.78572538,22.7952308 2.34130956,22.7952308 L2.34130956,1.21313172 C1.76681661,1.21313172 1.19510436,1.21818976 0.623948243,1.21144571 C0.196276334,1.20638766 -0.0723394428,0.86806092 0.0171991494,0.463979641 C0.0817114269,0.174547293 0.311397381,0.0194340343 0.698471046,0.0188720297 C2.20839203,0.0171860161 3.71775687,0.0183100252 5.22767785,0.0183100252 C5.26493925,0.0183100252 5.30220065,0.0188720297 5.33890591,0.021120048 C5.7042901,0.0436002304 5.92897079,0.28020415 5.92062869,0.632581009 C5.91228659,0.960791672 5.67314625,1.20526366 5.32889539,1.2103217 C4.75551471,1.21875176 4.1815779,1.21256971 3.57594108,1.21256971" id="Fill-4" fill="#1D1D1B"></path>
                    <path d="M16.0070677,3.62785889 C15.037159,3.62278247 14.2279748,2.80225581 14.2218294,1.81818583 C14.2162958,0.82624778 15.0455011,-0.0105770092 16.0248642,0.00010107745 C17.0142378,0.0102171595 17.8228658,0.840859899 17.811743,1.83560797 C17.8006202,2.81124789 16.9736396,3.63233655 16.0070677,3.62785889" id="Fill-6" fill="#1D1D1B"></path>
                </g>
            </g>
        </g>
    </g>
</svg>