<?xml version="1.0" encoding="UTF-8"?>
<svg width="32px" height="32px" viewBox="0 0 32 32" version="1.1" xmlns="http://www.w3.org/2000/svg" xmlns:xlink="http://www.w3.org/1999/xlink">
    <title>ico_felicitaciones</title>
    <defs>
        <polygon id="path-1" points="0 0 15.5294118 0 15.5294118 15.0588235 0 15.0588235"></polygon>
    </defs>
    <g id="Desktop" stroke="none" stroke-width="1" fill="none" fill-rule="evenodd">
        <g id="12_Contacto_Felicitaciones" transform="translate(-638.000000, -160.000000)">
            <g id="opciones-contacto" transform="translate(596.000000, 152.000000)">
                <g id="ico_felicitaciones" transform="translate(42.000000, 8.000000)">
                    <circle id="Oval-Copy" fill="#F28F1D" cx="16" cy="16" r="16"></circle>
                    <g id="Group-3" transform="translate(8.470588, 8.000000)">
                        <mask id="mask-2" fill="white">
                            <use xlink:href="#path-1"></use>
                        </mask>
                        <g id="Clip-2"></g>
                        <path d="M7.76658192,0 C8.14468435,0.0230819322 8.40110958,0.211584379 8.54821543,0.560698603 C9.06439299,1.78644538 9.59863201,3.00473861 10.0889056,4.24106461 C10.2300702,4.59691106 10.4047436,4.73540266 10.7849849,4.76161027 C12.0597438,4.84985057 13.3314133,4.98497605 14.6045087,5.09726003 C14.9070382,5.12370808 15.1829507,5.19199213 15.3714078,5.45959828 C15.6280707,5.8243409 15.5684204,6.29199046 15.218836,6.60287523 C14.2321099,7.48070997 13.2437201,8.35638077 12.2558057,9.23277289 C12.1987695,9.28350505 12.1481499,9.34505687 12.0839842,9.38280544 C11.8800798,9.50206209 11.8677219,9.65858645 11.9192922,9.88026917 C12.236556,11.2416223 12.536709,12.6073033 12.8444668,13.9710608 C12.9276446,14.3391695 12.8492198,14.6572674 12.5450268,14.8861632 C12.2360807,15.1184252 11.9069343,15.1066438 11.5806398,14.9090047 C10.358877,14.1694211 9.13616353,13.4315206 7.91701488,12.6873687 C7.80745785,12.6205273 7.73164725,12.6164399 7.61995137,12.6844835 C6.40080271,13.4283949 5.17832694,14.1667763 3.95561352,14.9046769 C3.53806105,15.1566546 3.08391035,15.0813979 2.8189297,14.7209831 C2.6575648,14.5014643 2.62096657,14.2562188 2.68014163,13.9934214 C2.99716781,12.5847022 3.31229278,11.1755022 3.63430963,9.76798519 C3.66544188,9.63165753 3.64096385,9.54990902 3.53520924,9.45710041 C2.45983932,8.51098163 1.38993538,7.55885193 0.318367875,6.60840528 C0.0412670302,6.36267888 -0.0690029457,6.05780502 0.0436435383,5.69979464 C0.153438213,5.35043997 0.40511042,5.1532818 0.768478509,5.11841847 C1.61831781,5.03715083 2.4686324,4.95948975 3.31870935,4.88110735 C3.91236108,4.8265282 4.5060128,4.77122774 5.09990217,4.72169776 C5.20565679,4.7128016 5.25413755,4.66519511 5.29430054,4.56926083 C5.85230464,3.23940492 6.41648766,1.91243426 6.97401646,0.582578352 C7.12540003,0.221442287 7.3796864,0.0213988747 7.76658192,0" id="Fill-1" fill="#FFFFFF" mask="url(#mask-2)"></path>
                    </g>
                </g>
            </g>
        </g>
    </g>
</svg>