<?xml version="1.0" encoding="UTF-8"?>
<svg width="32px" height="32px" viewBox="0 0 32 32" version="1.1" xmlns="http://www.w3.org/2000/svg" xmlns:xlink="http://www.w3.org/1999/xlink">
    <title>ico_vender</title>
    <defs>
        <polygon id="path-1" points="0 0 15.056033 0 15.056033 1.87698791 0 1.87698791"></polygon>
        <polygon id="path-3" points="0 0 4.5977759 0 4.5977759 4.3820977 0 4.3820977"></polygon>
    </defs>
    <g id="Desktop" stroke="none" stroke-width="1" fill="none" fill-rule="evenodd">
        <g id="12_Contacto_Felicitaciones" transform="translate(-1017.000000, -160.000000)">
            <g id="opciones-contacto" transform="translate(596.000000, 152.000000)">
                <g id="Tarjeta-contacto" transform="translate(379.000000, 0.000000)">
                    <g id="ico_vender" transform="translate(42.000000, 8.000000)">
                        <circle id="Oval-Copy-6" fill="#DC856B" cx="16" cy="16" r="16"></circle>
                        <g id="Group-13" transform="translate(8.941176, 9.411765)">
                            <path d="M10.3545103,8.78713782 C9.84527688,8.78713782 9.33555431,8.78567029 8.82632091,8.78762699 C8.41296623,8.7895837 8.15663741,9.04297746 8.15419152,9.45584296 C8.15125646,10.0536174 8.15125646,10.6513919 8.15419152,11.2486772 C8.15663741,11.6620318 8.41296623,11.9168931 8.82632091,11.9173823 C9.83989593,11.919339 10.8539601,11.919339 11.8675352,11.9178715 C12.2901842,11.9168931 12.5455347,11.6634994 12.5474914,11.2418287 C12.5504264,10.648946 12.5504264,10.0565525 12.5474914,9.4636698 C12.5455347,9.04150993 12.2906734,8.78909453 11.8680243,8.78762699 C11.3636827,8.78567029 10.8588519,8.78713782 10.3545103,8.78713782 L10.3545103,8.78713782 Z M6.90287641,15.0583887 L6.90287641,14.854891 C6.90287641,13.0713512 6.90189805,11.2873222 6.90385476,9.50329315 C6.90434394,9.25234527 6.84368597,9.02732379 6.61915367,8.8967135 C6.5071321,8.83116376 6.36233567,8.79300794 6.23172538,8.79154041 C5.21766117,8.7832244 4.20310779,8.78615946 3.18904359,8.78762699 C2.75905688,8.78811617 2.50859819,9.04248828 2.50810901,9.47785593 C2.50713066,11.2667767 2.50761984,13.0552083 2.50761984,14.8441291 C2.50761984,14.9077221 2.50761984,14.9713152 2.50761984,15.0583887 L2.34716974,15.0583887 C2.00425656,15.0583887 1.66085421,15.0593671 1.31794104,15.0583887 C0.881595035,15.0574104 0.625755393,14.8020599 0.625266216,14.3622896 C0.624287861,12.4114512 0.624654744,10.461102 0.624654744,8.51026356 C0.624654744,8.15805602 0.624654744,7.80584848 0.624654744,7.46000025 C0.643854947,7.44826 0.65363849,7.43700892 0.659508615,7.43896563 C1.06601482,7.56174909 1.48426127,7.52554998 1.89908348,7.52848505 C2.21802697,7.53093093 2.53697046,7.5187015 2.8549356,7.53142011 C3.42238108,7.55392226 3.94580062,7.44532493 4.38801675,7.04958063 C4.64189968,7.25845927 4.91486052,7.41939854 5.23429319,7.4780998 C5.39229741,7.50696125 5.55421504,7.52652834 5.71466514,7.52701751 C6.87107989,7.53093093 8.02749464,7.52065821 9.18390939,7.53288764 C9.73374449,7.53875777 10.2331944,7.42771456 10.6470382,7.06327759 C10.817761,7.16502643 10.9708735,7.29074496 11.1459989,7.35091375 C11.3925442,7.43554139 11.6542539,7.51136385 11.9120503,7.52065821 C12.5430888,7.54462789 13.176084,7.53484435 13.8076117,7.52506081 C14.010131,7.52212574 14.211672,7.47614309 14.4313125,7.44777082 C14.4313125,7.49864524 14.4313125,7.55098719 14.4313125,7.60332915 C14.4313125,9.84767385 14.4313125,12.0925077 14.4308234,14.3373416 C14.4308234,14.813311 14.1828105,15.0583887 13.7039061,15.0583887 C11.494293,15.0588235 9.28419071,15.0583887 7.0740884,15.0583887 L6.90287641,15.0583887 Z" id="Fill-1" fill="#FFFFFF"></path>
                            <g id="Group-5" transform="translate(0.000000, 5.033437)">
                                <mask id="mask-2" fill="white">
                                    <use xlink:href="#path-1"></use>
                                </mask>
                                <g id="Clip-4"></g>
                                <path d="M15.0455233,0 C15.0455233,0.266112362 15.0724281,0.523419536 15.0401424,0.773389053 C14.9569823,1.41665699 14.4594891,1.85447052 13.8035026,1.86816748 C13.1763775,1.88088609 12.5487632,1.87892938 11.9216382,1.86816748 C11.3042966,1.85789476 10.8454485,1.47829331 10.6947819,0.879540491 C10.6874442,0.851657394 10.6781499,0.824263475 10.6654313,0.78072671 C10.6331456,0.88834568 10.6140677,0.985202753 10.5754227,1.07374381 C10.3523579,1.58884734 9.95318936,1.86327571 9.39552742,1.86816748 C8.15106079,1.87795103 6.90610498,1.87698791 5.66114916,1.86865666 C5.00614098,1.86425407 4.5414227,1.45628033 4.39662627,0.77730247 C4.38146177,0.820350058 4.36874317,0.849700686 4.36091633,0.880029668 C4.20927142,1.48025001 3.75286915,1.85740559 3.13406008,1.86816748 C2.51182676,1.87941856 1.88959344,1.87941856 1.26736012,1.86914584 C0.525767586,1.85642723 0.00332640452,1.31246226 0.000391341706,0.56891301 C-0.000587012566,0.383025698 0.000391341706,0.197138386 0.000391341706,0 L15.0455233,0 Z" id="Fill-3" fill="#FFFFFF" mask="url(#mask-2)"></path>
                            </g>
                            <path d="M9.89781451,4.38356524 L5.15866641,4.38356524 C5.45070516,2.9209256 5.7407872,1.46953704 6.03233677,0.0093432833 L9.02316579,0.0093432833 C9.313737,1.46219938 9.60430822,2.91505547 9.89781451,4.38356524" id="Fill-6" fill="#FFFFFF"></path>
                            <g id="Group-10" transform="translate(0.158102, 0.000000)">
                                <mask id="mask-4" fill="white">
                                    <use xlink:href="#path-3"></use>
                                </mask>
                                <g id="Clip-9"></g>
                                <path d="M4.5977759,4.89177136e-05 C4.30378045,1.47100457 4.01320923,2.92386066 3.72165965,4.3820977 L0,4.3820977 C0.0865843531,4.07978623 0.169255289,3.78970419 0.251926225,3.49913297 C0.535648964,2.50757092 0.818393349,1.51503051 1.10260527,0.523468454 C1.20728917,0.159031487 1.41812452,0.00053809485 1.79870433,4.89177136e-05 C2.68020153,-0.000440259423 3.56169873,4.89177136e-05 4.44319593,4.89177136e-05 L4.5977759,4.89177136e-05 Z" id="Fill-8" fill="#FFFFFF" mask="url(#mask-4)"></path>
                            </g>
                            <path d="M14.8925577,4.38327173 L11.1767681,4.38327173 C10.8857077,2.92796975 10.5946473,1.47168941 10.3001627,0.000244588568 L10.4581669,0.000244588568 C11.3347723,0.000244588568 12.2113778,-0.000244588568 13.0879832,0.000244588568 C13.4866626,0.000244588568 13.6891819,0.153357032 13.8002251,0.540785324 C14.1524326,1.77253335 14.504151,3.00428138 14.8553802,4.23602941 C14.868588,4.28152289 14.8783715,4.32750554 14.8925577,4.38327173" id="Fill-11" fill="#FFFFFF"></path>
                        </g>
                    </g>
                </g>
            </g>
        </g>
    </g>
</svg>