<?xml version="1.0" encoding="UTF-8"?>
<svg width="32px" height="32px" viewBox="0 0 32 32" version="1.1" xmlns="http://www.w3.org/2000/svg" xmlns:xlink="http://www.w3.org/1999/xlink">
    <title>ico_novedades</title>
    <defs>
        <filter color-interpolation-filters="auto" id="filter-1">
            <feColorMatrix in="SourceGraphic" type="matrix" values="0 0 0 0 1.000000 0 0 0 0 1.000000 0 0 0 0 1.000000 0 0 0 1.000000 0"></feColorMatrix>
        </filter>
        <polygon id="path-2" points="0 0 9.94919739 0 9.94919739 7.35355955 0 7.35355955"></polygon>
        <polygon id="path-4" points="-1.51431155e-16 0 5.47879443 0 5.47879443 2.79623529 -1.51431155e-16 2.79623529"></polygon>
    </defs>
    <g id="Desktop" stroke="none" stroke-width="1" fill="none" fill-rule="evenodd">
        <g id="12_Contacto_Felicitaciones" transform="translate(-1144.000000, -160.000000)">
            <g id="opciones-contacto" transform="translate(596.000000, 152.000000)">
                <g id="Tarjeta-contacto" transform="translate(506.000000, 0.000000)">
                    <g id="ico_novedades" transform="translate(42.000000, 8.000000)">
                        <circle id="Oval-Copy-7" fill="#BC4251" cx="16" cy="16" r="16"></circle>
                        <g filter="url(#filter-1)" id="Group-17">
                            <g transform="translate(8.470588, 8.470588)">
                                <path d="M4.81632941,6.48722497 C4.88927059,6.48722497 4.94621176,6.48722497 5.00268235,6.48722497 C6.33821176,6.48722497 7.67374118,6.48769556 9.00927059,6.48722497 C10.0671529,6.48675438 10.8125647,5.73993085 10.8130353,4.68110732 C10.8135059,3.8980485 10.8130353,3.11498968 10.8130353,2.33193085 C10.8130353,2.28016615 10.8130353,2.22887203 10.8130353,2.16251909 L10.9664471,2.16251909 C11.9226824,2.16251909 12.8784471,2.1620485 13.8346824,2.16298968 C14.4012706,2.16298968 14.7631529,2.52393085 14.7636235,3.08910732 C14.7641669,4.34793085 14.7645647,5.60675438 14.7636235,6.86557791 C14.7631529,7.42040144 14.3979765,7.78463673 13.8417412,7.78510732 C12.3763294,7.78557791 10.9113882,7.78510732 9.44597647,7.78510732 L9.2568,7.78510732 C9.2568,7.97522497 9.2568,8.15593085 9.2568,8.33663673 C9.2568,8.56722497 9.25397647,8.79781321 9.25774118,9.02840144 C9.26103529,9.22981321 9.18856471,9.38698968 9.00268235,9.4740485 C8.81397647,9.5620485 8.64974118,9.50416615 8.49915294,9.37428379 C7.93115294,8.88534262 7.36032941,8.40016615 6.79421176,7.90887203 C6.69491765,7.82275438 6.59797647,7.77569556 6.46150588,7.78181321 C6.20738824,7.79357791 5.95232941,7.78698968 5.69774118,7.78463673 C5.19091765,7.77993085 4.82103529,7.40675438 4.81632941,6.89710732 C4.81538824,6.76769556 4.81632941,6.63828379 4.81632941,6.48722497" id="Fill-1" fill="#FFFFFF"></path>
                                <g id="Group-5">
                                    <mask id="mask-3" fill="white">
                                        <use xlink:href="#path-2"></use>
                                    </mask>
                                    <g id="Clip-4"></g>
                                    <path d="M3.92310588,5.63842497 C3.66945882,5.54901321 3.53769412,5.72030732 3.38710588,5.84971909 C2.86145882,6.29960144 2.33534118,6.74854262 1.81204706,7.20030732 C1.65816471,7.33301321 1.49298824,7.40266026 1.29769412,7.31371909 C1.09769412,7.22242497 1.03463529,7.05301321 1.03792941,6.84171909 C1.04357647,6.44313085 1.03934118,6.04454262 1.03934118,5.62242497 C0.9744,5.62242497 0.914635294,5.62383673 0.854870588,5.62242497 C0.380988235,5.61113085 0.00451764706,5.23983673 0.00310588235,4.76454262 C-0.00112941176,3.46289556 -0.00112941176,2.16077791 0.00310588235,0.859130852 C0.00451764706,0.36642497 0.389458824,0.0012484994 0.897223529,0.000777911164 C2.89110588,-0.000633853541 4.88451765,0.000307322929 6.8784,0.000307322929 C7.59416471,0.000307322929 8.30992941,-0.000163265306 9.02616471,0.000777911164 C9.58287059,0.0012484994 9.94663529,0.364072029 9.94898824,0.918895558 C9.94945882,1.03842497 9.94898824,1.15795438 9.94898824,1.29818968 L9.77534118,1.29818968 C8.30522353,1.29818968 6.83510588,1.31795438 5.36545882,1.29066026 C4.51087059,1.27466026 3.89016471,1.89536615 3.91651765,2.73348379 C3.94522353,3.63560144 3.92310588,4.53960144 3.92310588,5.44266026 L3.92310588,5.63842497 Z" id="Fill-3" fill="#FFFFFF" mask="url(#mask-3)"></path>
                                </g>
                                <path d="M9.94894118,2.16261321 C9.94894118,2.50755438 9.94894118,2.83320144 9.94894118,3.15931909 C9.94894118,3.67790732 9.95035294,4.19696615 9.94847059,4.71555438 C9.94705882,5.25390732 9.58047059,5.62190732 9.044,5.62237791 C7.66988235,5.62378968 6.29576471,5.6228485 4.92211765,5.6228485 L4.79458824,5.6228485 C4.79176471,5.57014262 4.788,5.52402497 4.788,5.47790732 C4.78752941,4.54143673 4.78705882,3.60449556 4.78752941,2.66755438 C4.78752941,2.33014262 4.95411765,2.16261321 5.29058824,2.16261321 C6.79411765,2.16261321 8.29811765,2.16261321 9.80164706,2.16261321 L9.94894118,2.16261321 Z" id="Fill-6" fill="#FFFFFF"></path>
                                <g id="Group-10" transform="translate(0.000464, 11.966943)">
                                    <mask id="mask-5" fill="white">
                                        <use xlink:href="#path-4"></use>
                                    </mask>
                                    <g id="Clip-9"></g>
                                    <path d="M0.945512062,0 C1.94268853,1.01976471 3.51915912,1.04282353 4.53845324,0.00235294118 C5.03774736,0.357647059 5.35962971,0.831529412 5.44480618,1.44094118 C5.4881003,1.75247059 5.47915912,2.07294118 5.47539441,2.38917647 C5.47257089,2.624 5.27962971,2.79105882 5.03539441,2.79435294 C4.78080618,2.79811765 4.52621794,2.79529412 4.27162971,2.79529412 C3.02221794,2.79529412 1.77327677,2.79529412 0.524335591,2.79529412 C0.159629709,2.79529412 0.000100297188,2.63482353 0.00151206189,2.26682353 C0.0029238266,1.90258824 -0.0220173499,1.53694118 0.0871591207,1.18023529 C0.237276768,0.689882353 0.52198265,0.299764706 0.945512062,0" id="Fill-8" fill="#FFFFFF" mask="url(#mask-5)"></path>
                                </g>
                                <path d="M10.2300235,11.9679779 C11.2300235,12.9900956 12.8050824,13.0065661 13.8215529,11.9693897 C14.2667294,12.2799779 14.5862588,12.6926838 14.6888471,13.2239779 C14.7613176,13.6013897 14.7533176,13.9966838 14.7552079,14.3839779 C14.7566118,14.5858603 14.5679059,14.7420956 14.3636706,14.7604485 C14.3208471,14.7642132 14.2775529,14.7623309 14.2342588,14.7623309 C12.7594353,14.7623309 11.2846118,14.7623309 9.80978824,14.7623309 C9.44414118,14.7623309 9.28414118,14.6023309 9.28555294,14.2348014 C9.28696471,13.8705661 9.26202353,13.5049191 9.3712,13.1482132 C9.52131765,12.6578603 9.80461176,12.2668014 10.2300235,11.9679779" id="Fill-11" fill="#FFFFFF"></path>
                                <path d="M4.326212,10.2941897 C4.32574118,11.168072 3.61327059,11.8791309 2.73985882,11.8786605 C1.86644706,11.8781897 1.15444706,11.1652485 1.15491741,10.2918367 C1.15585882,9.41889556 1.8688,8.70689556 2.74174118,8.7078358 C3.61562353,8.70830732 4.32668235,9.42030732 4.326212,10.2941897" id="Fill-13" fill="#FFFFFF"></path>
                                <path d="M10.4388706,10.2797897 C10.4449882,9.40826026 11.1635765,8.70143673 12.0379294,8.70755438 C12.9104,8.71367203 13.6162824,9.43131909 13.6101647,10.3066132 C13.6035765,11.1786132 12.8854588,11.8849661 12.0111059,11.8788485 C11.1391059,11.8722603 10.4327529,11.1541426 10.4388706,10.2797897" id="Fill-15" fill="#FFFFFF"></path>
                            </g>
                        </g>
                    </g>
                </g>
            </g>
        </g>
    </g>
</svg>