<?xml version="1.0" encoding="UTF-8"?>
<svg width="32px" height="32px" viewBox="0 0 32 32" version="1.1" xmlns="http://www.w3.org/2000/svg" xmlns:xlink="http://www.w3.org/1999/xlink">
    <title>ico_sugerencias</title>
    <defs>
        <filter color-interpolation-filters="auto" id="filter-1">
            <feColorMatrix in="SourceGraphic" type="matrix" values="0 0 0 0 1.000000 0 0 0 0 1.000000 0 0 0 0 1.000000 0 0 0 1.000000 0"></feColorMatrix>
        </filter>
        <polygon id="path-2" points="0 0 12.422187 0 12.422187 10.4872432 0 10.4872432"></polygon>
    </defs>
    <g id="Desktop" stroke="none" stroke-width="1" fill="none" fill-rule="evenodd">
        <g id="12_Contacto_Felicitaciones" transform="translate(-764.000000, -160.000000)">
            <g id="opciones-contacto" transform="translate(596.000000, 152.000000)">
                <g id="Tarjeta-contacto" transform="translate(126.000000, 0.000000)">
                    <g id="ico_sugerencias" transform="translate(42.000000, 8.000000)">
                        <circle id="Oval" fill="#B1C849" cx="16" cy="16" r="16"></circle>
                        <g filter="url(#filter-1)" id="Group-6">
                            <g transform="translate(8.470588, 8.000000)">
                                <g id="Group-3" transform="translate(0.000000, 4.571580)">
                                    <mask id="mask-3" fill="white">
                                        <use xlink:href="#path-2"></use>
                                    </mask>
                                    <g id="Clip-2"></g>
                                    <path d="M9.76122235,5.142263 C9.76122235,4.65966884 9.36666909,4.26345618 8.88419908,4.26130842 C8.39994214,4.25952975 8.00181503,4.65145903 7.99824118,5.13333929 C7.99466732,5.62271547 8.39315182,6.02321151 8.88276954,6.02178752 C9.36488216,6.02071287 9.76122235,5.62414326 9.76122235,5.142263 M6.2016658,6.02178468 C6.68485058,6.02249761 7.08297769,5.62842664 7.08513075,5.14690333 C7.08726631,4.66359527 6.69485737,4.26559787 6.21274474,4.26131449 C5.72241225,4.25738806 5.32142606,4.65467157 5.32213988,5.14333384 C5.3228556,5.62557105 5.71919578,6.02106982 6.2016658,6.02178468 M4.40903041,5.14726028 C4.41116597,4.66430917 4.01911441,4.26559787 3.53700178,4.26131449 C3.05238745,4.25738806 2.65175865,4.64717565 2.64604049,5.12834201 C2.64032232,5.61807514 3.03666251,6.02106982 3.52520807,6.02178589 C4.00839285,6.02285456 4.40651996,5.62878359 4.40903041,5.14726028 M1.257599,8.43975178 C1.16503624,8.32445747 1.069257,8.21344653 0.982412402,8.09601053 C0.301950989,7.17508381 -0.049716043,6.14564479 0.00567866231,4.99769892 C0.0603585972,3.86260319 0.512808255,2.88599253 1.27904211,2.05715848 C2.31724611,0.934198999 3.62170207,0.312751936 5.12164774,0.0871605844 C6.68056196,-0.147354476 8.16835653,0.0875175327 9.55894233,0.838536844 C10.6768432,1.44249344 11.5560108,2.29203049 12.0477728,3.47959762 C12.6910662,5.03267986 12.4977208,6.51865581 11.5270626,7.87398866 C10.4745632,9.34354498 9.01035605,10.1748777 7.22700392,10.4483001 C7.0247239,10.4793546 6.81672572,10.4850658 6.61158662,10.4854227 C4.57770747,10.4882783 2.54418571,10.4872967 0.510306558,10.4864936 C0.456698779,10.4864936 0.401304074,10.4875644 0.34948322,10.4761421 C0.0103246699,10.4018968 -0.111901067,10.0131801 0.123258392,9.73940069 C0.470994187,9.33462127 0.825877686,8.93590998 1.17718733,8.53434309 C1.20291907,8.50507333 1.22757865,8.47508967 1.257599,8.43975178" id="Fill-1" fill="#000000" mask="url(#mask-3)"></path>
                                </g>
                                <path d="M3.5892515,4.0814127 C3.68288642,3.8015652 3.75757992,3.51386484 3.87373011,3.24365494 C4.33439963,2.17209602 5.11064027,1.37253174 6.13240455,0.840321759 C8.34640583,-0.312621385 10.5646957,-0.291561432 12.7254466,0.980245509 C13.8001039,1.61240102 14.5641935,2.53546943 14.8979912,3.75551887 C15.293974,5.20365829 14.9437365,6.49973772 14.0127481,7.65625034 C13.9827278,7.69372992 13.9519926,7.73085255 13.9137524,7.77761278 C14.1746436,8.08208972 14.4319609,8.38228327 14.6892783,8.68211988 C14.7721917,8.77885288 14.8561772,8.87451503 14.9380184,8.97196193 C15.062031,9.12080939 15.0956253,9.28571952 15.0087807,9.46312285 C14.9255099,9.63374416 14.7825558,9.71334364 14.5934991,9.71334364 C14.1635647,9.71370059 13.7332729,9.71370059 13.3162044,9.71370059 C13.2618818,9.34247431 13.2318615,8.98124259 13.1532367,8.63107627 C12.8619678,7.33785242 12.1629223,6.28949514 11.1572404,5.44352757 C9.98859081,4.46084879 8.62874014,3.92007205 7.11628599,3.74730905 C5.95049548,3.61381037 4.81043671,3.73231722 3.69396536,4.08962251 C3.67573871,4.09569064 3.6567973,4.09926012 3.63785588,4.10390045 C3.62177355,4.09640453 3.60533383,4.08890862 3.5892515,4.0814127" id="Fill-4" fill="#000000"></path>
                            </g>
                        </g>
                    </g>
                </g>
            </g>
        </g>
    </g>
</svg>