<?xml version="1.0" encoding="UTF-8"?>
<svg width="192px" height="96px" viewBox="0 0 192 96" version="1.1" xmlns="http://www.w3.org/2000/svg" xmlns:xlink="http://www.w3.org/1999/xlink">
    <title>Group 11</title>
    <g id="Desktop" stroke="none" stroke-width="1" fill="none" fill-rule="evenodd">
        <g id="08_Mundo-Saludable_IMC-02" transform="translate(-181.000000, -2359.000000)">
            <g id="Group-5" transform="translate(96.000000, 2263.000000)">
                <g id="Group-4" transform="translate(47.000000, 96.000000)">
                    <g id="Group-11" transform="translate(38.000000, 0.000000)">
                        <path d="M192,96 L169.086352,96 C169.086352,55.7012788 136.303469,22.915601 95.9918166,22.915601 C55.6965306,22.915601 22.9136476,55.7012788 22.9136476,96 L0,96 C0,43.0649616 43.0612906,0 95.9918166,0 C148.938709,0 192,43.0649616 192,96" id="Fill-1" fill="#ECECEB"></path>
                        <path d="M187.089933,96 L173.99642,96 C173.99642,52.9841432 139.004006,18.0051151 95.9918166,18.0051151 C92.3747336,18.0051151 89.4450601,15.0588235 89.4450601,11.4578005 C89.4450601,7.84040921 92.3747336,4.91048593 95.9918166,4.91048593 C146.221805,4.91048593 187.089933,45.7657289 187.089933,96" id="Fill-3" fill="#E42420"></path>
                        <path d="M160.526959,47.9168491 C158.669317,47.9168491 156.823132,47.1311714 155.528511,45.6023734 C140.6641,28.0604808 118.966513,17.9988951 95.9972176,17.9988951 C92.3817714,17.9988951 89.4504612,15.067335 89.4504612,11.4515806 C89.4504612,7.83582609 92.3817714,4.90426598 95.9972176,4.90426598 C122.822552,4.90426598 148.161773,16.6517852 165.518861,37.1366957 C167.856053,39.8963887 167.515622,44.0277442 164.756164,46.3651355 C163.525374,47.4061586 162.022893,47.9168491 160.526959,47.9168491" id="Fill-5" fill="#FABC28"></path>
                        <path d="M102.538573,11.4578005 C102.538573,15.0588235 99.6088995,18.0051151 95.9918166,18.0051151 C68.6852954,18.0051151 44.6145086,32.124399 30.671554,53.4326343 C30.5193419,53.6650639 30.3720399,53.8991304 30.2231012,54.1331969 C29.5864291,55.1283887 28.9759441,56.1415857 28.3834626,57.1662404 C27.7517006,58.2727366 27.1199386,59.3792327 26.5470974,60.513555 C26.2524934,61.086445 25.9742562,61.6429668 25.6960191,62.2158568 C25.4341488,62.7887468 25.1559117,63.3616368 24.8940414,63.9345269 C24.6321712,64.5074169 24.3866678,65.0803069 24.1411644,65.6695652 C23.8956611,66.2424552 23.6501577,66.8317136 23.4210212,67.4209719 C23.1264172,68.1575448 22.84818,68.8777494 22.5863098,69.6143223 C22.2753388,70.514578 21.9643679,71.4148338 21.6697639,72.3150895 C21.0641889,74.2465473 20.5240815,76.1943734 20.0658085,78.1585678 C19.9512403,78.6332481 19.8366721,79.1079284 19.7384707,79.5826087 C19.4438667,80.9411765 19.1983633,82.2997442 18.9855937,83.658312 C18.9037593,84.1657289 18.8219248,84.6895141 18.7564573,85.1969309 C18.6582559,85.7861893 18.5927883,86.3918159 18.5273208,86.9810742 C18.4782201,87.3411765 18.4454863,87.6849105 18.4127525,88.0450128 C18.347285,88.6997442 18.2818174,89.3544757 18.2327167,90.0092072 C18.1836161,90.5329923 18.1508823,91.0567775 18.1345154,91.5805627 C18.1181485,91.8424552 18.1017816,92.1043478 18.0854147,92.3826087 C18.036314,93.5774936 18.0035803,94.7887468 18.0035803,96 L4.91006734,96 C4.91006734,95.2143223 4.92643423,94.4286445 4.94280113,93.659335 C5.00826869,91.1549872 5.1719376,88.6670077 5.43380786,86.2117647 C5.48290853,85.6879795 5.5483761,85.1805627 5.61384366,84.6731458 C5.85934703,82.6434783 6.18668485,80.6138107 6.57949024,78.6168798 C6.6613247,78.1421995 6.75952604,77.6838875 6.85772739,77.2092072 C7.15233143,75.8506394 7.46330236,74.4920716 7.80700708,73.1498721 C8.11797801,71.9877238 8.42894894,70.8255754 8.78902054,69.6797954 C8.85448811,69.4342711 8.93632256,69.1887468 9.01815702,68.9432225 C9.2309266,68.2230179 9.46006308,67.5191816 9.70556645,66.8153453 C9.95106982,66.0787724 10.2129401,65.3421995 10.4748103,64.6056266 C10.982184,63.2470588 11.5222914,61.9048593 12.0787657,60.5626598 C12.3733697,59.8915601 12.6679737,59.2204604 12.9625778,58.5329923 C17.0215668,49.5795396 22.4881084,41.3953964 29.1003325,34.2588235 C45.7454607,16.2209719 69.5756542,4.91048593 95.9918166,4.91048593 C99.6088995,4.91048593 102.538573,7.84040921 102.538573,11.4578005" id="Fill-7" fill="#8FBF3F"></path>
                        <path d="M38.1512233,43.6705882 C33.5030262,48.7938619 29.6077061,54.457289 26.5470974,60.513555 C26.2361265,61.0700767 25.9578894,61.6429668 25.6960191,62.2158568 C25.4014151,62.7723785 25.1395448,63.3452685 24.8940414,63.9345269 C24.6158043,64.5074169 24.3703009,65.0803069 24.1411644,65.6695652 C23.8792942,66.2424552 23.6501577,66.8317136 23.4210212,67.4209719 C23.1264172,68.1575448 22.84818,68.8777494 22.5863098,69.6143223 C22.258972,70.514578 21.9643679,71.3984655 21.6697639,72.3150895 C21.0641889,74.2465473 20.5240815,76.1943734 20.0658085,78.1585678 C19.9512403,78.6332481 19.8366721,79.1079284 19.7384707,79.5826087 C19.4438667,80.9411765 19.1983633,82.2997442 18.9855937,83.658312 C18.9037593,84.1657289 18.8219248,84.6895141 18.7564573,85.1969309 C18.6582559,85.8025575 18.5927883,86.3918159 18.5273208,86.9810742 C18.4782201,87.3411765 18.4454863,87.6849105 18.4127525,88.0450128 C18.347285,88.6997442 18.2818174,89.3544757 18.2327167,90.0092072 C18.1836161,90.5329923 18.1508823,91.0567775 18.1345154,91.5805627 C18.1181485,91.8424552 18.1017816,92.1043478 18.0854147,92.3826087 C18.036314,93.5774936 18.0035803,94.7887468 18.0035803,96 L4.91006734,96 C4.91006734,95.2143223 4.92643423,94.4286445 4.94280113,93.659335 C5.00826869,91.1549872 5.1719376,88.6670077 5.43380786,86.2117647 C5.48290853,85.6879795 5.5483761,85.1805627 5.61384366,84.6731458 C5.85934703,82.6434783 6.18668485,80.6138107 6.57949024,78.6168798 C6.6613247,78.1421995 6.75952604,77.6838875 6.85772739,77.2092072 C7.15233143,75.8506394 7.46330236,74.4920716 7.80700708,73.1498721 C8.11797801,71.9877238 8.42894894,70.8255754 8.78902054,69.6797954 C8.85448811,69.4342711 8.93632256,69.1887468 9.01815702,68.9432225 C9.2309266,68.2230179 9.46006308,67.5191816 9.70556645,66.8153453 C9.95106982,66.0787724 10.2129401,65.3421995 10.4748103,64.6056266 C10.982184,63.2470588 11.5059245,61.888491 12.0787657,60.5626598 C12.3733697,59.8915601 12.6679737,59.2204604 12.9625778,58.5329923 C16.8251641,49.9560102 22.0134686,41.9846547 28.4456568,34.8808184 C28.6584264,34.6516624 28.871196,34.4388747 29.1003325,34.2588235 C31.571733,32.1800512 35.2542835,32.2127877 37.6929503,34.4225064 C40.3771205,36.8450128 40.58989,40.9861893 38.1512233,43.6705882" id="Fill-9" fill="#C6D54F"></path>
                    </g>
                </g>
            </g>
        </g>
    </g>
</svg>