<?xml version="1.0" encoding="UTF-8"?>
<svg width="34px" height="34px" viewBox="0 0 34 34" version="1.1" xmlns="http://www.w3.org/2000/svg" xmlns:xlink="http://www.w3.org/1999/xlink">
    <title>Ico/RRSS/Instagram</title>
    <g id="⭐️-Simbolos" stroke="none" stroke-width="1" fill="none" fill-rule="evenodd">
        <g id="Nav/Menu/Desktop-blanco" transform="translate(-1270.000000, -33.000000)">
            <g id="Group-16" transform="translate(95.562500, 20.750000)">
                <g id="Ico/RRSS/Instagram" transform="translate(1174.437500, 12.250000)">
                    <circle id="Oval" fill="#F0F5DA" cx="17" cy="17" r="17"></circle>
                    <path d="M18.4506264,10.5792183 C19.3627855,10.5828116 19.628792,10.5933592 20.1814127,10.6185737 C20.9052156,10.6515867 21.399547,10.7665519 21.8320904,10.9346672 C22.2792642,11.1084242 22.6584955,11.340946 23.036566,11.7189895 C23.4146096,12.0970601 23.6471313,12.4762913 23.8209153,12.9234652 C23.9890036,13.3560086 24.1039688,13.85034 24.1369818,14.5741429 C24.1653481,15.1958411 24.1751517,15.4547933 24.1773738,16.6791161 L24.1773738,18.0766213 C24.1758924,18.8928252 24.1710415,19.279983 24.1595673,19.6316058 L24.1532632,19.8062777 C24.1486724,19.9231806 24.1432855,20.0434224 24.1369818,20.1815775 C24.1039688,20.9053804 23.9890036,21.3997119 23.8209153,21.8322552 C23.6471313,22.2794291 23.4146096,22.6586603 23.036566,23.0367309 C22.6584955,23.4147744 22.2792642,23.6472962 21.8320904,23.8210802 C21.399547,23.9891685 20.9052156,24.1041337 20.1814127,24.1371467 C19.5597145,24.165513 19.3007622,24.1753166 18.0764565,24.1775387 L16.6789512,24.1775387 C15.4546284,24.1753166 15.1956762,24.165513 14.573978,24.1371467 C13.8501751,24.1041337 13.3558437,23.9891685 12.9233003,23.8210802 C12.4761265,23.6472962 12.0968952,23.4147744 11.7188247,23.0367309 C11.3407811,22.6586603 11.1082594,22.2794291 10.9345024,21.8322552 C10.766387,21.3997119 10.6514219,20.9053804 10.6184088,20.1815775 C10.5947703,19.6634957 10.5840225,19.3973208 10.5798105,18.6144767 L10.5780169,18.0766213 C10.5778934,18.0086043 10.5777933,17.9376079 10.5777148,17.8634042 L10.5777148,16.8923362 C10.5777933,16.8181315 10.5778934,16.747134 10.5780169,16.6791161 L10.5798105,16.1412536 C10.5840225,15.3583996 10.5947703,15.0922247 10.6184088,14.5741429 C10.6514219,13.85034 10.766387,13.3560086 10.9345024,12.9234652 C11.1082594,12.4762913 11.3407811,12.0970601 11.7188247,11.7189895 C12.0968952,11.340946 12.4761265,11.1084242 12.9233003,10.9346672 C13.3558437,10.7665519 13.8501751,10.6515867 14.573978,10.6185737 C14.7121332,10.6122701 14.832375,10.6068831 14.949278,10.6022924 L15.1239504,10.5959883 C15.4169704,10.5864265 15.7346693,10.5814641 16.3047763,10.5792183 Z M17.3777085,13.9777559 C15.4998575,13.9777559 13.977591,15.5000224 13.977591,17.3778734 C13.977591,19.255698 15.4998575,20.7779645 17.3777085,20.7779645 C19.2555332,20.7779645 20.7777996,19.255698 20.7777996,17.3778734 C20.7777996,15.5000224 19.2555332,13.9777559 17.3777085,13.9777559 Z M17.3777085,15.1707736 C18.5966413,15.1707736 19.584782,16.1589142 19.584782,17.3778734 C19.584782,18.5968062 18.5966413,19.5849468 17.3777085,19.5849468 C16.1587494,19.5849468 15.1706087,18.5968062 15.1706087,17.3778734 C15.1706087,16.1589142 16.1587494,15.1707736 17.3777085,15.1707736 Z M20.7777884,13.297735 C20.4022422,13.297735 20.0977788,13.6021985 20.0977788,13.9777672 C20.0977788,14.3533358 20.4022422,14.6577768 20.7777884,14.6577768 C21.1533571,14.6577768 21.4578205,14.3533358 21.4578205,13.9777672 C21.4578205,13.6021985 21.1533571,13.297735 20.7777884,13.297735 Z" id="Combined-Shape" fill="#1E634A"></path>
                </g>
            </g>
        </g>
    </g>
</svg>