<?xml version="1.0" encoding="UTF-8"?>
<svg width="34px" height="34px" viewBox="0 0 34 34" version="1.1" xmlns="http://www.w3.org/2000/svg" xmlns:xlink="http://www.w3.org/1999/xlink">
    <title>Ico/RRSS/Instagram</title>
    <g id="⭐️-Simbolos" stroke="none" stroke-width="1" fill="none" fill-rule="evenodd">
        <g id="Transversales/Footer/Desktop" transform="translate(-1310.000000, -283.000000)">
            <g id="redes" transform="translate(1268.000000, 283.000000)">
                <g id="Ico/RRSS/Instagram" transform="translate(42.000000, 0.000000)">
                    <circle id="Oval-Copy" fill="#1E634A" cx="17" cy="17" r="17"></circle>
                    <path d="M18.4506264,10.5792183 C18.9637159,10.5812395 19.2723587,10.5854611 19.5425672,10.5932558 L19.718834,10.5989967 C19.8640144,10.604247 20.0087187,10.6106942 20.1814127,10.6185737 C20.9052156,10.6515867 21.399547,10.7665519 21.8320904,10.9346672 C22.2792642,11.1084242 22.6584955,11.340946 23.036566,11.7189895 C23.4146096,12.0970601 23.6471313,12.4762913 23.8209153,12.9234652 C23.9890036,13.3560086 24.1039688,13.85034 24.1369818,14.5741429 C24.166924,15.2303799 24.1761837,15.4824462 24.1776759,16.8923362 L24.1776759,17.8634042 C24.1761837,19.2732742 24.166924,19.5253405 24.1369818,20.1815775 C24.1039688,20.9053804 23.9890036,21.3997119 23.8209153,21.8322552 C23.6471313,22.2794291 23.4146096,22.6586603 23.036566,23.0367309 C22.6584955,23.4147744 22.2792642,23.6472962 21.8320904,23.8210802 C21.399547,23.9891685 20.9052156,24.1041337 20.1814127,24.1371467 C19.5251757,24.1670889 19.2731094,24.1763486 17.8632393,24.1778407 L16.8921714,24.1778407 C15.4822813,24.1763486 15.230215,24.1670889 14.573978,24.1371467 C13.8501751,24.1041337 13.3558437,23.9891685 12.9233003,23.8210802 C12.4761265,23.6472962 12.0968952,23.4147744 11.7188247,23.0367309 C11.3407811,22.6586603 11.1082594,22.2794291 10.9345024,21.8322552 C10.766387,21.3997119 10.6514219,20.9053804 10.6184088,20.1815775 C10.6105293,20.0088836 10.6040821,19.8641793 10.5988318,19.7189989 L10.593091,19.5427321 C10.5852963,19.2725236 10.5810746,18.9638808 10.5790534,18.4507912 L10.5790534,16.3049411 C10.5826467,15.39277 10.5931944,15.1267635 10.6184088,14.5741429 C10.6514219,13.85034 10.766387,13.3560086 10.9345024,12.9234652 C11.1082594,12.4762913 11.3407811,12.0970601 11.7188247,11.7189895 C12.0968952,11.340946 12.4761265,11.1084242 12.9233003,10.9346672 C13.3558437,10.7665519 13.8501751,10.6515867 14.573978,10.6185737 C15.1265986,10.5933592 15.3926052,10.5828116 16.3047763,10.5792183 Z M17.3777085,13.9777559 C15.4998575,13.9777559 13.977591,15.5000224 13.977591,17.3778734 C13.977591,19.255698 15.4998575,20.7779645 17.3777085,20.7779645 C19.2555332,20.7779645 20.7777996,19.255698 20.7777996,17.3778734 C20.7777996,15.5000224 19.2555332,13.9777559 17.3777085,13.9777559 Z M17.3777085,15.1707736 C18.5966413,15.1707736 19.584782,16.1589142 19.584782,17.3778734 C19.584782,18.5968062 18.5966413,19.5849468 17.3777085,19.5849468 C16.1587494,19.5849468 15.1706087,18.5968062 15.1706087,17.3778734 C15.1706087,16.1589142 16.1587494,15.1707736 17.3777085,15.1707736 Z M20.7777884,13.297735 C20.4022422,13.297735 20.0977788,13.6021985 20.0977788,13.9777672 C20.0977788,14.3533358 20.4022422,14.6577768 20.7777884,14.6577768 C21.1533571,14.6577768 21.4578205,14.3533358 21.4578205,13.9777672 C21.4578205,13.6021985 21.1533571,13.297735 20.7777884,13.297735 Z" id="Combined-Shape-Copy" fill="#FFFFFF"></path>
                </g>
            </g>
        </g>
    </g>
</svg>