<?xml version="1.0" encoding="UTF-8"?>
<svg width="45px" height="45px" viewBox="0 0 45 45" version="1.1" xmlns="http://www.w3.org/2000/svg" xmlns:xlink="http://www.w3.org/1999/xlink">
    <title>Ico ingrediente/lechuga</title>
    <defs>
        <filter color-interpolation-filters="auto" id="filter-1">
            <feColorMatrix in="SourceGraphic" type="matrix" values="0 0 0 0 0.949020 0 0 0 0 0.560784 0 0 0 0 0.113725 0 0 0 1.000000 0"></feColorMatrix>
        </filter>
        <polygon id="path-2" points="0 0 16.2051349 0 16.2051349 7.18393453 0 7.18393453"></polygon>
    </defs>
    <g id="Desktop" stroke="none" stroke-width="1" fill="none" fill-rule="evenodd">
        <g id="06_Interna-recetas_op2-hover" transform="translate(-952.000000, -1102.000000)">
            <g id="Ingredientes" transform="translate(185.000000, 842.000000)">
                <g id="Group-9" transform="translate(0.000000, 78.000000)">
                    <g id="Ico-ingrediente/lechuga" transform="translate(767.000000, 182.000000)">
                        <g id="Oval" fill="#FCE6CD">
                            <circle cx="22.5" cy="22.5" r="22.5"></circle>
                        </g>
                        <g filter="url(#filter-1)">
                            <g transform="translate(11.000000, 11.000000)">
                                <path d="M1.78072205,14.4858393 C1.16435509,14.1307766 0.672267255,13.6499326 0.35761839,13.0044947 C-0.123693801,12.0176504 -0.119383543,11.0243373 0.371985918,10.0468368 C0.484052637,9.82402418 0.479742379,9.67668035 0.352589755,9.46464899 C-0.535323481,7.99264817 0.336067098,6.00027207 2.04580294,5.56686558 C2.79435116,5.37711547 3.50051516,5.48492803 4.15567444,5.89317826 C4.26917791,5.9636158 4.35610146,5.98374081 4.48038058,5.91402202 C6.44873193,4.80642766 8.8488275,5.90899077 9.38473629,8.04655445 C9.39335681,8.08177322 9.40413246,8.11627324 9.39838545,8.09542948 C9.90555919,8.20108579 10.3954919,8.24924206 10.8473507,8.4066484 C13.4155463,9.29789889 14.3530275,12.4819632 12.7021985,14.6468394 C12.5477476,14.8488082 12.3868313,15.0479021 12.2539317,15.2635272 C11.9285071,15.7932462 11.8451755,16.3603403 12.0197409,16.9648094 C12.4708813,18.5309665 12.9148379,20.0992799 13.3616681,21.6661557 C13.3796275,21.7294058 13.3954318,21.7933746 13.4277587,21.9162809 C13.0283414,21.6172807 12.6713083,21.3534993 12.3178672,21.0854054 C10.6620095,19.8297485 9.31505378,18.3016851 8.27915501,16.4990591 C8.2001336,16.3610591 8.20731737,16.2712153 8.29783279,16.1447152 C8.64696373,15.6588399 8.98675577,15.1650584 9.32439268,14.6712769 C9.54134235,14.3543079 9.52841158,14.0330265 9.30212301,13.7850576 C9.00758868,13.4637762 8.52915,13.4968387 8.2518567,13.8619639 C8.12542246,14.028714 8.01120061,14.2048079 7.89051337,14.3765892 C7.77126289,14.546933 7.65201241,14.7179956 7.49899823,14.9364958 C7.29641609,14.3600579 7.08736855,13.8324952 6.93004412,13.2905574 C6.83809194,12.9728697 6.79570773,12.6314632 6.79139747,12.3001193 C6.77487482,11.1623374 6.78852397,10.0238368 6.78277696,8.88533617 C6.78062183,8.36064837 6.29715451,8.02571069 5.84457737,8.2312733 C5.56441057,8.35849212 5.43725795,8.5906485 5.43797633,8.89755492 C5.4386947,9.76652415 5.43797633,10.6347746 5.43797633,11.5037439 C5.43797633,11.5856814 5.43797633,11.667619 5.43797633,11.788369 C5.35105278,11.7488377 5.2863989,11.7215252 5.22318178,11.690619 C4.72103667,11.4412126 4.22176507,11.1860562 3.71602808,10.9438373 C3.41574675,10.8000872 3.09894275,10.8748373 2.90210762,11.1105874 C2.71173787,11.3405875 2.67941093,11.6640252 2.85900503,11.9012128 C2.94952046,12.0212441 3.08385685,12.1211505 3.21891161,12.1908692 C3.93656964,12.5610257 4.66212981,12.9153696 5.38050621,13.2833698 C5.4631195,13.3257761 5.54932467,13.4091512 5.58165161,13.493245 C5.89342697,14.3090267 6.19442668,15.1298396 6.4982999,15.9484963 C6.5105123,15.9829963 6.51841444,16.0189339 6.53421872,16.0714026 C5.94299494,16.1339339 5.36542031,16.197184 4.78640893,16.2561215 C4.3367053,16.3021215 4.05222824,16.6061529 4.09389407,17.0014657 C4.13699666,17.3989346 4.47535194,17.6440285 4.92290044,17.5987472 C5.63696659,17.5254347 6.35103274,17.4470909 7.06653564,17.3824034 C7.14340191,17.3752159 7.26696265,17.4176221 7.3021631,17.4765597 C8.60601627,19.6737796 10.3768141,21.4224994 12.4593873,22.8750939 C12.4953061,22.9002502 12.5269147,22.9311564 12.5613968,22.9606252 C12.5477476,22.975719 12.5391271,22.9951252 12.5305066,22.9944065 C11.6627079,22.9850627 10.7891622,23.033219 9.92854723,22.9505627 C8.26694261,22.7910001 6.99613475,21.9471871 6.10750313,20.5384364 C5.98537915,20.3450925 5.88696158,20.2681862 5.64127685,20.2904675 C4.86686708,20.3601863 4.16070308,20.1186861 3.52565834,19.6881546 C2.6743823,19.1117168 1.9739653,18.3987164 1.58460529,17.4212159 C1.22900897,16.5263716 1.30659362,15.6494962 1.68014935,14.7819644 C1.7153498,14.7000269 1.75270537,14.6180893 1.78790581,14.5361518 C1.79077932,14.5304018 1.78646906,14.5217768 1.78072205,14.4858393" id="Fill-1" fill="#1C6047"></path>
                                <path d="M15.5068119,14.9243489 C15.2122775,14.5160987 14.9457599,14.1560047 14.6936098,13.7858483 C14.6576909,13.7340982 14.6770871,13.6313169 14.6957649,13.5580044 C15.0298099,12.2168161 14.8839795,10.9302529 14.2568369,9.69975224 C13.9759517,9.14847069 13.590902,8.67409542 13.1038428,8.21193892 C13.2906206,8.19325141 13.4335776,8.1788764 13.5944939,8.16234514 C13.6117349,8.11706387 13.6361597,8.06459509 13.6512456,8.00997006 C14.2051138,5.97878143 16.270446,4.94378086 18.2086255,5.76387506 C18.5591932,5.9126564 18.7919472,5.9155314 19.1360495,5.74806255 C20.9240883,4.87621832 22.9642773,6.22531282 22.9994778,8.12209512 C23.009535,8.65037666 22.8744803,9.14559568 22.5813827,9.58906468 C22.5059532,9.70334599 22.5016429,9.79175229 22.5662968,9.91465861 C23.4398425,11.5656283 22.9578119,13.4020355 21.3924697,14.4090048 C21.3486488,14.4370361 21.3062646,14.4665049 21.2854317,14.4801611 C21.3974984,14.8970364 21.5339899,15.2937866 21.6065459,15.7013181 C21.7638703,16.5846623 21.5440472,17.4018815 21.0469307,18.1335694 C20.3587261,19.1462887 19.4693761,19.9153516 18.2524465,20.2157893 C17.9456997,20.2919768 17.6138099,20.3006019 17.2962875,20.2826331 C17.1030442,20.2718518 17.0225861,20.3293519 16.932789,20.4802895 C16.4780568,21.2515086 15.8559428,21.8545402 15.0793779,22.2994467 C15.0276548,22.3289155 14.9737766,22.356228 14.9198983,22.382103 C14.9091227,22.3871343 14.8918817,22.3806655 14.9400129,22.3842593 C14.7000752,21.5081025 14.4701947,20.651352 14.2281019,19.7981953 C14.1907463,19.6659453 14.2144527,19.5796952 14.2920374,19.4726014 C14.7618555,18.8250073 15.2273634,18.1738194 15.6835325,17.5168816 C15.7632722,17.4026003 15.8365466,17.3609127 15.9737565,17.3767252 C16.6504671,17.452194 17.327896,17.5197566 18.005325,17.5873191 C18.1166733,17.5988191 18.2316136,17.6110379 18.3408068,17.5952254 C18.6770069,17.5470691 18.9190998,17.2552564 18.9126344,16.9217562 C18.9054506,16.5702873 18.6475535,16.3014746 18.272561,16.2605059 C17.7151009,16.2001308 17.1569225,16.1426308 16.598744,16.0836933 C16.5635435,16.0800995 16.5283431,16.0721933 16.4715914,16.0621308 C16.5901235,15.7818181 16.7158393,15.5194742 16.8135385,15.2477866 C17.0146839,14.6929113 17.2079272,14.1351609 17.3882397,13.5730981 C17.438526,13.4164105 17.5189842,13.3244105 17.6633778,13.2532542 C18.388938,12.8981915 19.1101879,12.5359413 19.8307194,12.1715349 C20.1611726,12.0047848 20.3149051,11.7129721 20.2473778,11.4067844 C20.1511153,10.9719404 19.7035668,10.7491278 19.2854717,10.9460654 C18.7984125,11.1753468 18.3206922,11.4247532 17.8386617,11.6640971 C17.761077,11.7029096 17.6799005,11.7366909 17.566397,11.7877221 C17.566397,11.6791908 17.566397,11.600847 17.566397,11.5217845 C17.566397,10.6384403 17.5692705,9.75437727 17.5649603,8.87031428 C17.5635235,8.5411266 17.3853662,8.30178272 17.0922686,8.20762642 C16.8264693,8.12281387 16.5233145,8.19756391 16.3753289,8.43403279 C16.2862503,8.57778287 16.2287801,8.76609547 16.226625,8.93500182 C16.2136942,10.0059399 16.2072288,11.076878 16.2259066,12.1478161 C16.2338088,12.6272226 16.1684365,13.0843479 16.0046467,13.5321294 C15.8408569,13.9799109 15.6835325,14.4298486 15.5068119,14.9243489" id="Fill-3" fill="#1C6047"></path>
                                <g id="Group-7" transform="translate(3.390747, 0.000000)">
                                    <mask id="mask-3" fill="white">
                                        <use xlink:href="#path-2"></use>
                                    </mask>
                                    <g id="Clip-6"></g>
                                    <path d="M16.2051349,4.17809606 C15.9098822,4.26650236 15.6210949,4.35993991 15.3279974,4.4368462 C15.2561597,4.45553371 15.1656443,4.4325337 15.0916515,4.40737744 C12.7662671,3.62034575 10.4099925,4.57125253 9.2921988,6.74331623 C9.24981459,6.82597253 9.14277651,6.89712882 9.05082433,6.92947258 C8.7835883,7.02291013 8.50988689,7.09837893 8.23618548,7.17097272 C8.16219271,7.19037898 8.07814267,7.18534772 8.00199477,7.17312897 C7.93662252,7.16306646 7.87771566,7.12066019 7.81378016,7.10269143 C7.54869926,7.02650389 7.23333202,7.01859763 7.03074988,6.86334755 C6.82744935,6.70737871 6.75058308,6.39544104 6.59397702,6.16903466 C5.37201876,4.40737744 3.18743611,3.7008458 1.15730439,4.39659618 C1.04811117,4.4339712 0.910182905,4.4267837 0.794524304,4.40018993 C0.534472045,4.3412524 0.279448422,4.25787736 0,4.17737731 C0.23778259,3.80578336 0.556741714,3.5197207 0.921676928,3.28540807 C1.45040196,2.94615788 2.03156847,2.77078278 2.66230296,2.78300154 C2.79376584,2.78515779 2.85985647,2.74275152 2.91229795,2.6212827 C3.25999213,1.81340725 4.27505799,1.16509439 5.2520499,1.40587578 C5.30592813,1.41881328 5.40147219,1.36131325 5.4438564,1.30956322 C6.33392476,0.228562626 7.4653676,-0.191187606 8.83818491,0.0797812941 C9.61546818,0.232875129 10.2476394,0.644719107 10.7375721,1.2664382 C10.8309611,1.38431327 10.9049538,1.42600079 11.0680253,1.39365702 C11.9099624,1.22618818 12.8941381,1.73218846 13.2626652,2.52928265 C13.3582092,2.73556401 13.470276,2.77940779 13.6814786,2.78731404 C14.7267163,2.82612656 15.5535675,3.29475182 16.1857388,4.11843978 C16.1979512,4.13497104 16.1993879,4.1586898 16.2051349,4.17809606" id="Fill-5" fill="#1C6047" mask="url(#mask-3)"></path>
                                </g>
                                <path d="M13.7190603,18.0097287 C13.5667645,17.4742597 13.4273995,17.0027594 13.3002469,16.5276654 C13.235593,16.286884 13.3153328,16.0691026 13.4582897,15.8757588 C13.6314184,15.6414462 13.8110125,15.4128835 14.0107212,15.1526959 C14.1522413,15.353946 14.2621529,15.5702899 14.4252243,15.7327275 C14.8174579,16.1237277 14.7994984,16.4852591 14.4604248,16.9042906 C14.1953439,17.2327595 13.985578,17.6065097 13.7190603,18.0097287" id="Fill-8" fill="#1C6047"></path>
                            </g>
                        </g>
                    </g>
                </g>
            </g>
        </g>
    </g>
</svg>