<?xml version="1.0" encoding="UTF-8"?>
<svg width="40px" height="40px" viewBox="0 0 40 40" version="1.1" xmlns="http://www.w3.org/2000/svg" xmlns:xlink="http://www.w3.org/1999/xlink">
    <title>Iconos/Ico/RRSS/Mail</title>
    <defs>
        <filter color-interpolation-filters="auto" id="filter-1">
            <feColorMatrix in="SourceGraphic" type="matrix" values="0 0 0 0 0.956863 0 0 0 0 0.956863 0 0 0 0 0.909804 0 0 0 1.000000 0"></feColorMatrix>
        </filter>
        <polygon id="path-2" points="0 0 16.703837 0 16.703837 5.46536678 0 5.46536678"></polygon>
        <polygon id="path-4" points="0 0 5.78874879 0 5.78874879 10.5910536 0 10.5910536"></polygon>
        <polygon id="path-6" points="0 0 5.79201214 0 5.79201214 10.6085064 0 10.6085064"></polygon>
    </defs>
    <g id="Desktop" stroke="none" stroke-width="1" fill="none" fill-rule="evenodd">
        <g id="06_Interna-recetas_op2-seleccionado-compartir" transform="translate(-1113.000000, -764.000000)">
            <g id="Group-14" transform="translate(956.000000, 733.000000)">
                <g id="Group-10" transform="translate(29.000000, 31.000000)">
                    <g id="Iconos/Ico/RRSS/Mail" transform="translate(128.000000, 0.000000)">
                        <circle id="Oval" fill="#1A7C86" cx="20" cy="20" r="20"></circle>
                        <g filter="url(#filter-1)" id="Group-12">
                            <g transform="translate(10.666667, 14.222222)">
                                <path d="M0.968762972,0.151299553 C1.21406193,0.0310686588 1.46271915,0.000733905563 1.71918797,0.00080316299 C3.11016447,0.000941677845 4.50114097,0 5.89211748,0 C9.56087002,0.000179846143 13.2296956,-0.00120530241 16.8984481,0.00502786606 C17.1590052,0.00551266806 17.4194894,0.0636889071 17.6799735,0.0949932643 C17.6823097,0.115909007 17.6847189,0.136894008 17.6870551,0.157809751 C17.6487271,0.197979059 17.6121513,0.239741288 17.5718522,0.278040645 C14.99468,2.72947655 12.4172158,5.18070468 9.83953256,7.63165578 C9.51268629,7.94248311 9.15116235,7.94061316 8.82168789,7.6272233 C6.24831201,5.18028913 3.67515514,2.73314719 1.10214428,0.285866734 C1.05994702,0.245766684 1.02023195,0.203311881 0.968762972,0.151299553" id="Fill-1" fill="#000000"></path>
                                <g id="Group-5" transform="translate(0.982211, 6.979078)">
                                    <mask id="mask-3" fill="white">
                                        <use xlink:href="#path-2"></use>
                                    </mask>
                                    <g id="Clip-4"></g>
                                    <path d="M5.64479626,0.0182147034 C5.90090006,0.265048175 6.19343366,0.547687736 6.48684334,0.829565466 C6.69162417,1.02632582 6.89560193,1.22377874 7.10315697,1.41783805 C7.82459873,2.09226688 8.87434686,2.09351352 9.59659168,1.41707622 C10.0545561,0.988234232 10.506388,0.553366845 10.9585849,0.118915003 C11.0047245,0.0746595068 11.0341458,0.0146825746 11.0444396,0 C12.9493758,1.79085856 14.8228466,3.55207494 16.703837,5.32042483 C16.458319,5.43553068 16.2033833,5.46517286 15.9401979,5.46503434 C14.45227,5.46406474 12.964415,5.46544989 11.476487,5.46538316 C7.91162146,5.46524211 4.34675594,5.46441103 0.781890429,5.46503434 C0.512572615,5.4651036 0.250190336,5.44141756 0,5.31980152 C1.87974928,3.55436043 3.7535851,1.79445995 5.64479626,0.0182147034" id="Fill-3" fill="#000000" mask="url(#mask-3)"></path>
                                </g>
                                <g id="Group-8" transform="translate(0.000000, 0.914766)">
                                    <mask id="mask-5" fill="white">
                                        <use xlink:href="#path-4"></use>
                                    </mask>
                                    <g id="Clip-7"></g>
                                    <path d="M0.161838908,0 C2.0404201,1.76613366 3.91440193,3.52797335 5.78874879,5.2902286 C3.90264802,7.06287245 2.02538093,8.82720542 0.148624887,10.5910536 C0.0418906375,10.4024656 -0.000233618055,10.1592335 5.84045139e-05,9.90395064 C0.00173753429,8.47004486 0.000861466579,7.03620834 0.000861466579,5.60230256 C0.000861466579,3.9726753 0.00173753429,2.34304803 -1.61231796e-05,0.713351503 C-0.000306623698,0.457791595 0.0413795981,0.214143966 0.161838908,0" id="Fill-6" fill="#000000" mask="url(#mask-5)"></path>
                                </g>
                                <g id="Group-11" transform="translate(12.874655, 0.911005)">
                                    <mask id="mask-7" fill="white">
                                        <use xlink:href="#path-6"></use>
                                    </mask>
                                    <g id="Clip-10"></g>
                                    <path d="M0,5.3112136 C1.88120939,3.54341776 3.75555625,1.78213212 5.65202382,0 C5.69392906,0.172797281 5.74393792,0.362493375 5.78423704,0.553990162 C5.79825412,0.62054655 5.78905541,0.691743185 5.78905541,0.760792841 C5.78920142,3.79502999 5.78847137,6.82926715 5.79044252,9.86343504 C5.79058853,10.1312535 5.75583784,10.3884063 5.63435646,10.6085064 C3.76161572,8.84770561 1.88843695,7.08662775 0,5.3112136" id="Fill-9" fill="#000000" mask="url(#mask-7)"></path>
                                </g>
                            </g>
                        </g>
                    </g>
                </g>
            </g>
        </g>
    </g>
</svg>