<?xml version="1.0" encoding="UTF-8"?>
<svg width="45px" height="45px" viewBox="0 0 45 45" version="1.1" xmlns="http://www.w3.org/2000/svg" xmlns:xlink="http://www.w3.org/1999/xlink">
    <title>Ico ingrediente/menta</title>
    <defs>
        <filter color-interpolation-filters="auto" id="filter-1">
            <feColorMatrix in="SourceGraphic" type="matrix" values="0 0 0 0 0.949020 0 0 0 0 0.560784 0 0 0 0 0.113725 0 0 0 1.000000 0"></feColorMatrix>
        </filter>
        <polygon id="path-2" points="0 0 12.8590562 0 12.8590562 20.8516223 0 20.8516223"></polygon>
    </defs>
    <g id="Desktop" stroke="none" stroke-width="1" fill="none" fill-rule="evenodd">
        <g id="06_Interna-recetas_op2-hover" transform="translate(-602.000000, -1274.000000)">
            <g id="Ingredientes" transform="translate(185.000000, 842.000000)">
                <g id="Group-9" transform="translate(0.000000, 78.000000)">
                    <g id="Ico-ingrediente/menta" transform="translate(417.000000, 354.000000)">
                        <g id="Oval" fill="#FCE6CD">
                            <circle cx="22.5" cy="22.5" r="22.5"></circle>
                        </g>
                        <g filter="url(#filter-1)">
                            <g transform="translate(12.000000, 11.000000)">
                                <path d="M1.7695726,15.1742483 C1.30402734,14.7056226 0.907371173,14.1974657 0.69852844,13.5750274 C0.610785486,13.3112458 0.584680144,13.0237454 0.562925693,12.7441513 C0.550598171,12.5788386 0.654294389,12.4933072 0.845008412,12.5234947 C1.13796836,12.5702135 1.4338289,12.5968073 1.79640309,12.6399324 C1.19380478,12.2158693 0.842107819,11.6875874 0.607159744,11.0780866 C0.551323319,10.9336176 0.517241345,10.7762112 0.500562932,10.6223985 C0.480983926,10.4434295 0.566551435,10.3463981 0.766692387,10.3499918 C1.18075211,10.3578981 1.59553698,10.3528669 2.0124973,10.3528669 C1.9900177,10.3334606 1.95811117,10.3018355 1.92185376,10.277398 C1.46573542,9.9726476 1.08285708,9.59530335 0.791347432,9.13099023 C0.712306259,9.00520881 0.641241718,8.87080239 0.586855589,8.7328022 C0.38961523,8.23614529 0.48388452,8.08880135 1.01251769,8.04208253 C1.15537192,8.02914502 1.297501,8.01261375 1.44035523,7.99680122 C1.57378253,7.98170745 1.70720983,7.96517618 1.8341108,7.95008241 C1.54912749,7.67408205 1.25181665,7.4124567 0.986412346,7.12280006 C0.692002104,6.80008089 0.447627101,6.43854916 0.340305141,6.00514233 C0.252562187,5.65367311 0.34973207,5.5307667 0.706505072,5.53148545 C1.02266977,5.53148545 1.33810931,5.53148545 1.72243795,5.53148545 C1.0756056,5.21379753 0.645592608,4.75307817 0.325077025,4.19748368 C0.188749129,3.96101462 0.0872283564,3.69651427 0.021239854,3.43201391 C-0.0636025064,3.09348222 0.110433105,2.89798196 0.459229475,2.88648194 C0.654294389,2.88073193 0.849359303,2.88576319 1.09590975,2.88576319 C1.03572244,2.78873181 1.00019017,2.72907548 0.96248245,2.67085665 C0.610785486,2.12101217 0.351907515,1.53523015 0.285919012,0.88260428 C0.265614858,0.677041507 0.295345941,0.466447477 0.301147128,0.258009701 C0.307673464,0.0373531577 0.44327621,-0.0402719454 0.631814789,0.0193843838 C0.965383043,0.125759525 1.30982852,0.225665908 1.61366569,0.39313488 C2.08863788,0.654041476 2.44758633,1.05366701 2.74852291,1.5007301 C2.78985636,1.56182393 2.83118982,1.62219901 2.89572803,1.71707414 C2.98927217,1.4992926 3.06903849,1.3102611 3.15170541,1.1226671 C3.30108597,0.783416648 3.50195207,0.721604066 3.80796469,0.941541858 C4.28221173,1.28294856 4.55269207,1.77673047 4.7854647,2.29135615 C4.99068169,2.744888 5.11903296,3.21782613 5.10090425,3.73892057 C5.27203927,3.44638893 5.44317428,3.15313854 5.61503445,2.86132566 C5.73830967,2.65216913 5.87753816,2.61263783 6.04649773,2.78585681 C6.21618245,2.96123204 6.37136421,3.16320106 6.48231191,3.37882634 C6.83981006,4.06882726 7.00586904,4.80770324 6.97468766,5.58611052 C6.97106192,5.66014187 6.97396251,5.73417322 6.97396251,5.86139214 C7.22921474,5.61773557 7.45908678,5.39995403 7.68750852,5.18073499 C7.97321698,4.90760962 8.10446883,4.91695339 8.30533493,5.2669851 C8.65920734,5.88223592 8.76725445,6.56073682 8.7455,7.25648774 C8.73389763,7.61873822 8.66210794,7.97883245 8.61569844,8.3533017 C8.91083383,8.07945758 9.21104526,7.80273847 9.50908124,7.52458185 C9.74475447,7.30464406 9.85207643,7.31542532 9.99348036,7.60939446 C10.2581595,8.15995769 10.3321247,8.75436473 10.3567797,9.35452178 C10.3770839,9.83895992 10.3459025,10.3212418 10.1406855,10.7862737 C10.3843353,10.5785547 10.6352367,10.3787419 10.8701848,10.1609603 C11.0202905,10.0229602 11.1486417,10.049554 11.2044782,10.2134292 C11.3328294,10.5922109 11.4778591,10.9767427 11.5257189,11.3698995 C11.6373917,12.2755257 11.5141165,13.1588706 11.1160101,13.9933404 C11.1073083,14.0113092 11.1044077,14.032153 11.0819281,14.1126531 C11.350233,13.8603715 11.575029,13.6461837 11.8027256,13.4341522 C12.1326681,13.1272455 12.3835694,13.1811519 12.5097452,13.6159962 C12.5880613,13.8862465 12.6344708,14.1730282 12.6438977,14.4540598 C12.7019096,16.1086245 12.4140256,17.6877203 11.5054147,19.1079722 C10.7157281,20.3413489 9.61132716,21.1592874 8.15812981,21.4856004 C8.0950419,21.4992567 8.0305037,21.5042879 7.95001223,21.5157879 C7.9855445,21.0773498 8.02615281,20.6619118 8.0529833,20.2464737 C8.18713575,18.1714397 7.97684272,16.124437 7.51927409,14.1004343 C6.80500294,10.9379301 5.58385307,7.97883245 3.88120467,5.21307878 C3.87322804,5.20014126 3.86452626,5.1879225 3.85654963,5.17570373 C3.69556669,4.9255784 3.52080593,4.85585955 3.34386973,4.97157846 C3.17200956,5.08514111 3.16113233,5.26267259 3.31123805,5.50345416 C4.99068169,8.20452025 6.18790167,11.1025241 6.89419619,14.1960282 C7.35829115,16.2272184 7.55915725,18.2828461 7.41195213,20.3650676 C7.38367134,20.7668494 7.33291096,21.1679125 7.28650146,21.6336631 C6.80645324,21.5711317 6.34090798,21.544538 5.89059083,21.4475066 C3.08209116,20.8408808 0.768867833,18.3992838 0.324351876,15.5961551 C0.323626728,15.5882488 0.322176431,15.5810613 0.320726134,15.5738738 C0.226456845,14.9183729 0.470831849,14.7156851 1.09300916,14.9334667 C1.3185303,15.013248 1.54405145,15.0937481 1.7695726,15.1742483" id="Fill-1" fill="#1C6047"></path>
                                <g id="Group-5" transform="translate(8.140944, 2.148378)">
                                    <mask id="mask-3" fill="white">
                                        <use xlink:href="#path-2"></use>
                                    </mask>
                                    <g id="Clip-4"></g>
                                    <path d="M10.2137149,11.6091405 C10.6255992,11.6551406 10.9823722,11.7011406 11.3405955,11.7327657 C11.8380473,11.7773282 11.8989597,11.8707659 11.650959,12.312079 C11.2361741,13.0516737 10.6575057,13.6446432 9.93308249,14.0909876 C9.76919896,14.1916127 9.57921009,14.2505503 9.37181765,14.3418317 C9.69088294,14.3921442 9.99326981,14.4374255 10.2949315,14.4870193 C10.561061,14.5308632 10.6263243,14.6113633 10.4921719,14.8428011 C10.302183,15.1698328 10.0911648,15.4961457 9.83518746,15.7735836 C9.20213293,16.4599907 8.42694931,16.9379601 7.51326235,17.221148 C7.72718113,17.2455855 7.9410999,17.2714605 8.15501867,17.2958981 C8.26741667,17.3088356 8.38053981,17.3160231 8.49221267,17.3318356 C8.8808922,17.3864607 8.98458841,17.581961 8.78372231,17.9226489 C8.67422491,18.1073679 8.54007246,18.2856181 8.38561585,18.4358371 C7.14561213,19.6419012 5.70619259,20.4936211 3.97018737,20.7739339 C2.61633535,20.993153 1.34442509,20.7516527 0.182012243,20.0084642 C0.126900966,19.9725266 0.074690283,19.9315578 0,19.8776515 C0.274106087,19.8007452 0.528633168,19.7454013 0.771557875,19.6591512 C2.67652267,18.9813691 3.87156719,17.6171798 4.51839955,15.7613648 C4.6960609,15.2510516 4.93681016,14.8032698 5.25877604,14.3727379 C7.14561213,11.8492033 8.57270414,9.08776218 9.56108138,6.10350822 C9.59153761,6.01078934 9.62706988,5.91950797 9.64447344,5.82463285 C9.67783026,5.64782011 9.61619265,5.50622617 9.43563071,5.45519486 C9.25071787,5.40200729 9.1042379,5.46813237 9.03897454,5.65500762 C8.93527832,5.95185177 8.84681022,6.25300842 8.74021341,6.54841506 C7.85408209,9.00223081 6.66193816,11.3015151 5.16160616,13.443393 C5.12679904,13.492268 5.09199192,13.5404243 5.05500935,13.5878619 C5.04703272,13.5979244 5.02890401,13.6000807 5.02962916,13.6000807 C5.02962916,13.1472676 5.04993331,12.687267 5.02237767,12.2308601 C5.00279867,11.9138909 4.94623709,11.5911718 4.8519678,11.2871401 C4.69025971,10.7682019 4.45966253,10.6072017 3.90202343,10.5547329 C3.90782461,10.4842953 3.91290065,10.4131389 3.91942699,10.3419826 C3.98831608,9.57291907 3.93175451,8.81823057 3.65909872,8.08869835 C3.5343732,7.75519791 3.34801007,7.47201003 2.93685093,7.39294743 C2.98035984,7.31532233 3.01081607,7.24991599 3.05069923,7.19097841 C3.31755383,6.79710289 3.43647817,6.78919663 3.73088841,7.14641585 C3.95785985,7.42169747 4.18265585,7.69985409 4.44660986,8.02257326 C4.35161542,7.41163495 4.3617675,6.86035297 4.53362766,6.32847727 C4.61774488,6.06900817 4.7395698,5.81385158 4.88895037,5.58600753 C5.03978123,5.35600722 5.1906121,5.36031973 5.39220335,5.54503873 C5.64455498,5.77647653 5.89328088,6.01150809 6.12822895,6.23072714 C6.16956241,5.78222654 6.1739133,5.32510093 6.26528199,4.8859441 C6.33852198,4.53447488 6.4842768,4.18659942 6.65976271,3.87106775 C6.83814921,3.54906733 7.03031353,3.55697359 7.2696125,3.8279427 C7.47337919,4.05866175 7.67497044,4.29009956 7.87801199,4.52153737 C7.88236288,4.52656862 7.89178981,4.52656862 7.91064367,4.53231863 C7.73225716,3.80638017 7.84102942,3.11062924 8.12238699,2.4385971 C8.20505391,2.24165934 8.32615369,2.05190909 8.46755762,1.89162762 C8.67422491,1.65731481 8.88814368,1.66809608 9.10931394,1.89090887 C9.25506876,2.03897157 9.3935721,2.19422178 9.53860178,2.34875323 C9.67347937,2.01525279 9.78515222,1.69109611 9.93453279,1.38418945 C10.1760072,0.887532542 10.4936222,0.443344452 10.9664189,0.129969036 C11.2535777,-0.0597812159 11.3456715,-0.0604999669 11.4856252,0.2535942 C11.6386315,0.595719654 11.7568307,0.965876396 11.8126671,1.33603314 C11.8946089,1.88012761 11.7959887,2.42206583 11.6052747,2.98772283 C11.8452988,2.91297273 12.0483403,2.8490039 12.252107,2.78791006 C12.5769735,2.69015993 12.7814653,2.78647256 12.7879917,3.11925425 C12.7959683,3.46353596 12.7473834,3.82219269 12.648038,4.15209938 C12.4399204,4.8464128 12.1085276,5.47963239 11.5052042,5.95903927 C11.8264449,5.90225795 12.1484108,5.84763288 12.4689264,5.78797655 C12.7589857,5.73407023 12.9040154,5.84116412 12.8467287,6.1286645 C12.7879917,6.42550864 12.7002487,6.72594654 12.569722,6.99907191 C12.2557328,7.65672903 11.8054156,8.21447977 11.2093436,8.65004285 C11.1803377,8.67088663 11.1556827,8.69676166 11.0925948,8.75210548 C11.4645959,8.78948053 11.7967138,8.82541808 12.1288318,8.85560562 C12.4471719,8.88363691 12.5537687,8.99576206 12.4283181,9.2911687 C12.2789375,9.64479417 12.0932995,9.99410713 11.8648778,10.30317 C11.4725725,10.8336082 10.9685944,11.249765 10.355844,11.5243279 C10.3239375,11.5387029 10.2956567,11.5602655 10.2137149,11.6091405" id="Fill-3" fill="#1C6047" mask="url(#mask-3)"></path>
                                </g>
                            </g>
                        </g>
                    </g>
                </g>
            </g>
        </g>
    </g>
</svg>