<?xml version="1.0" encoding="UTF-8"?>
<svg width="46px" height="46px" viewBox="0 0 46 46" version="1.1" xmlns="http://www.w3.org/2000/svg" xmlns:xlink="http://www.w3.org/1999/xlink">
    <title>ico sin nitritos</title>
    <defs>
        <filter color-interpolation-filters="auto" id="filter-1">
            <feColorMatrix in="SourceGraphic" type="matrix" values="0 0 0 0 1.000000 0 0 0 0 1.000000 0 0 0 0 1.000000 0 0 0 1.000000 0"></feColorMatrix>
        </filter>
    </defs>
    <g id="Desktop" stroke="none" stroke-width="1" fill="none" fill-rule="evenodd">
        <g id="02_Productos_1" transform="translate(-96.000000, -499.000000)">
            <g id="Textos-banner" transform="translate(96.000000, 201.000000)">
                <g id="Atributos" transform="translate(0.000000, 236.000000)">
                    <g id="ico-sin-nitritos" transform="translate(0.000000, 62.000000)">
                        <circle id="Oval-Copy" fill="#1C6047" cx="23" cy="23" r="23"></circle>
                        <g filter="url(#filter-1)" id="Group-5">
                            <g transform="translate(11.000000, 11.000000)">
                                <path d="M11.4999501,11.9468174 L10.7706831,13.4259598 C10.6576699,13.6559747 10.4269902,13.7889314 10.1876683,13.7889314 C10.0912747,13.7889314 9.9935516,13.7676583 9.90114675,13.7217883 C9.57872694,13.5629051 9.4464351,13.174007 9.60531826,12.8515872 L10.3345853,11.3724447 C10.4928037,11.0506897 10.8823666,10.9177331 11.2041217,11.0766163 C11.5265415,11.2354994 11.6588333,11.6250623 11.4999501,11.9468174 M10.0095064,15.1643676 C9.66448396,15.7221207 9.19315273,16.7365797 9.22705667,17.2451388 C9.25098886,17.6034569 8.97975735,17.9132458 8.62210404,17.937178 C8.60747881,17.9378428 8.59285358,17.9385076 8.57822835,17.9385076 C8.23918896,17.9385076 7.95333223,17.6752534 7.9307296,17.3315606 C7.85560911,16.2047532 8.79827156,14.6524846 8.90596643,14.4789762 C9.09542962,14.1738408 9.49629383,14.0807711 9.8007645,14.2702343 C10.1052352,14.4596975 10.1989696,14.859897 10.0095064,15.1643676 M17.1645671,16.9712481 L13.9137776,9.14475652 L13.9137776,5.02509556 L10.0879508,5.02509556 L10.0879508,9.14475652 L6.83716138,16.9712481 C6.44028586,17.9272062 7.14163204,18.9782284 8.17603457,18.9782284 L15.8263587,18.9782284 C16.8600964,18.9782284 17.5621074,17.9272062 17.1645671,16.9712481" id="Fill-1" fill="#FFFFFF"></path>
                                <path d="M12,22.4410836 C8.77779624,22.4410836 5.89330231,20.9752368 3.98072129,18.6730929 L5.38673758,17.6054512 L6.54279541,14.764833 L3.08193452,17.394715 C2.11999335,15.8198438 1.5589164,13.9750706 1.5589164,12 C1.5589164,6.24696693 6.24696693,1.5589164 12,1.5589164 C14.9882001,1.5589164 17.6805717,2.83197607 19.5878345,4.84892804 L15.1131793,8.25261758 L15.6948646,9.77031743 L20.5750374,6.05949809 C21.7497092,7.74871198 22.4410836,9.79092571 22.4410836,12 C22.4410836,17.7583513 17.7583513,22.4410836 12,22.4410836 M12,0 C5.38407844,0 0,5.38407844 0,12 C0,18.6159216 5.38407844,24 12,24 C18.6159216,24 24,18.6159216 24,12 C24,5.38407844 18.6159216,0 12,0" id="Fill-3" fill="#FFFFFF"></path>
                            </g>
                        </g>
                    </g>
                </g>
            </g>
        </g>
    </g>
</svg>