<?xml version="1.0" encoding="UTF-8"?>
<svg width="45px" height="45px" viewBox="0 0 45 45" version="1.1" xmlns="http://www.w3.org/2000/svg" xmlns:xlink="http://www.w3.org/1999/xlink">
    <title>Ico ingrediente/pepino</title>
    <defs>
        <filter color-interpolation-filters="auto" id="filter-1">
            <feColorMatrix in="SourceGraphic" type="matrix" values="0 0 0 0 0.949020 0 0 0 0 0.560784 0 0 0 0 0.113725 0 0 0 1.000000 0"></feColorMatrix>
        </filter>
        <polygon id="path-2" points="0 0 17.5187263 0 17.5187263 17.5176465 0 17.5176465"></polygon>
        <polygon id="path-4" points="0 0 16.2950602 0 16.2950602 16.283911 0 16.283911"></polygon>
    </defs>
    <g id="Desktop" stroke="none" stroke-width="1" fill="none" fill-rule="evenodd">
        <g id="06_Interna-recetas_op2-hover" transform="translate(-602.000000, -1187.000000)">
            <g id="Ingredientes" transform="translate(185.000000, 842.000000)">
                <g id="Group-9" transform="translate(0.000000, 78.000000)">
                    <g id="Ico-ingrediente/pepino" transform="translate(417.000000, 267.000000)">
                        <g id="Oval" fill="#FCE6CD">
                            <circle cx="22.5" cy="22.5" r="22.5"></circle>
                        </g>
                        <g filter="url(#filter-1)">
                            <g transform="translate(11.000000, 11.000000)">
                                <g id="Group-3" transform="translate(0.000000, 5.482354)">
                                    <mask id="mask-3" fill="white">
                                        <use xlink:href="#path-2"></use>
                                    </mask>
                                    <g id="Clip-2"></g>
                                    <path d="M1.34820609,8.75445491 C1.34502863,12.8364204 4.67738525,16.1705025 8.76095299,16.1689135 C12.8373663,16.1681181 16.1593888,12.8523159 16.1705419,8.77352952 C16.180852,4.691564 12.8540599,1.35430287 8.76890232,1.34873034 C4.68453965,1.34238124 1.35138809,4.66851552 1.34820609,8.75445491 M8.76572259,17.5176523 C3.92935386,17.5232099 -0.00397165233,13.5906621 -1.04988815e-13,8.75366014 C0.00397767168,3.91983727 3.91822481,0.0047745494 8.75220874,3.34598258e-14 C13.5909623,-0.00555752842 17.5226979,3.92540069 17.5187263,8.76319744 C17.5147486,13.5970203 13.6005014,17.512083 8.76572259,17.5176523" id="Fill-1" fill="#1C6047" mask="url(#mask-3)"></path>
                                </g>
                                <g id="Group-6" transform="translate(6.704940, 0.000000)">
                                    <mask id="mask-5" fill="white">
                                        <use xlink:href="#path-4"></use>
                                    </mask>
                                    <g id="Clip-5"></g>
                                    <path d="M0,4.33049172 C1.48731852,1.65209924 4.78628798,-0.375372335 8.53677905,0.0585749335 C12.5170056,0.518749784 15.6188318,3.58340302 16.1951578,7.44998445 C16.804076,11.5375134 14.5337491,14.8787484 11.9851958,16.283911 C12.0424309,15.725184 12.0956914,15.1624832 12.1632607,14.6005771 C12.17121,14.5354055 12.253883,14.4710287 12.3135029,14.4193683 C13.6458096,13.2685338 14.4940025,11.8355541 14.8183349,10.1013546 C15.546493,6.21251944 13.0456356,2.37375514 9.1759047,1.54559936 C6.30063421,0.930443346 3.86098667,1.78085283 1.89432391,3.968869 C1.79177763,4.08331663 1.69479588,4.13974567 1.53898913,4.15325685 C1.09939151,4.19140606 0.662973622,4.25498808 0.224965869,4.30823802 C0.153421953,4.31618577 0.0818780372,4.32254397 0,4.33049172" id="Fill-4" fill="#1C6047" mask="url(#mask-5)"></path>
                                </g>
                                <path d="M10.2705296,4.20507619 C12.3524576,2.25469781 16.1872115,1.99242199 18.6515019,4.61120633 C21.0975089,7.21012129 20.5656991,10.8899305 18.7937948,12.7242717 C17.8009243,8.04622482 14.9677852,5.20808252 10.2705296,4.20507619" id="Fill-7" fill="#1C6047"></path>
                                <path d="M6.15651597,17.4044646 C6.55636697,17.6349494 6.9299852,17.8503335 7.32109194,18.0760496 C7.54923754,17.6818411 7.76784395,17.3027333 7.99360475,16.9109092 C7.60011321,16.6843982 7.22093046,16.4666298 6.82982371,16.2425032 C6.59929332,16.639096 6.38307171,17.0126404 6.15651597,17.4044646 L6.15651597,17.4044646 Z M9.52543948,11.5700197 C9.91813609,11.7957359 10.2973188,12.0135043 10.6900155,12.2392204 C10.9213408,11.8394485 11.1391523,11.4619303 11.3625283,11.0764643 C10.9634722,10.8459795 10.589854,10.6305954 10.1979523,10.4040845 C9.9698067,10.7998825 9.75040535,11.1789903 9.52543948,11.5700197 L9.52543948,11.5700197 Z M10.6892205,16.2425032 C10.2861898,16.4753723 9.91177663,16.6915512 9.52702935,16.9132935 C9.75358508,17.3051177 9.97219149,17.6850202 10.1987472,18.0784339 C10.5970084,17.8479491 10.9738063,17.6293859 11.3633232,17.4036698 C11.1343827,17.0086665 10.9173661,16.6359169 10.6892205,16.2425032 L10.6892205,16.2425032 Z M6.82982371,12.2400152 C7.22728991,12.0111199 7.6048828,11.7933515 7.99201488,11.5700197 C7.76227942,11.1718373 7.54287808,10.7927295 7.31950207,10.405674 C6.92124094,10.6361588 6.54762271,10.8523377 6.15572104,11.0788486 C6.38148184,11.4674937 6.60088318,11.8466015 6.82982371,12.2400152 L6.82982371,12.2400152 Z M11.4650745,14.8985383 L12.7838674,14.8985383 L12.7838674,13.5800062 L11.4650745,13.5800062 L11.4650745,14.8985383 Z M4.73358697,14.9096652 L6.0444305,14.9096652 L6.0444305,13.5831853 L4.73358697,13.5831853 L4.73358697,14.9096652 Z M8.75673985,8.17712412 C12.1042002,8.17632952 14.8284335,10.9032033 14.8236702,14.2500017 C14.8188943,17.5896472 12.1010205,20.3038046 8.76150945,20.3053943 C5.41563897,20.3061889 2.68981577,17.5777256 2.69457912,14.2317219 C2.69935496,10.893666 5.41802377,8.17871385 8.75673985,8.17712412 L8.75673985,8.17712412 Z" id="Fill-9" fill="#1C6047"></path>
                            </g>
                        </g>
                    </g>
                </g>
            </g>
        </g>
    </g>
</svg>