<?xml version="1.0" encoding="UTF-8"?>
<svg width="15px" height="21px" viewBox="0 0 15 21" version="1.1" xmlns="http://www.w3.org/2000/svg" xmlns:xlink="http://www.w3.org/1999/xlink">
    <title>Group 3</title>
    <defs>
        <filter color-interpolation-filters="auto" id="filter-1">
            <feColorMatrix in="SourceGraphic" type="matrix" values="0 0 0 0 0.101961 0 0 0 0 0.486275 0 0 0 0 0.525490 0 0 0 1.000000 0"></feColorMatrix>
        </filter>
        <polygon id="path-2" points="0 0 15 0 15 21 0 21"></polygon>
    </defs>
    <g id="Desktop" stroke="none" stroke-width="1" fill="none" fill-rule="evenodd">
        <g id="07_Encuéntranos" transform="translate(-118.000000, -343.000000)">
            <g id="Group-3" transform="translate(96.000000, 326.000000)" filter="url(#filter-1)">
                <g transform="translate(22.000000, 17.000000)">
                    <mask id="mask-3" fill="white">
                        <use xlink:href="#path-2"></use>
                    </mask>
                    <g id="Clip-2"></g>
                    <path d="M4.30558772,7.23240012 C4.29881162,8.94570511 5.71303704,10.3330992 7.48032294,10.347425 C9.24845891,10.3617507 10.6913032,8.97848905 10.7054709,7.25526623 C10.7196387,5.54444069 9.28019468,4.13280301 7.51489226,4.12672048 C5.74505617,4.12040572 4.31241267,5.50669784 4.30558772,7.23240012 M7.5058249,21 C7.39106608,20.8652828 7.28565797,20.7451669 7.18421684,20.621745 C5.45575059,18.5183387 3.83779284,16.3394468 2.45955352,14.0002166 C1.57576889,12.5001449 0.790025134,10.955994 0.303504388,9.28180932 C-0.239687382,7.41229852 -0.0560732624,5.61055955 0.873048185,3.89945853 C1.72991408,2.3214217 3.02768054,1.1894117 4.73744535,0.526294622 C6.35398633,-0.100732579 8.00708011,-0.165473964 9.66952462,0.321326152 C11.3985576,0.827410935 12.7665961,1.83186664 13.7637228,3.29254248 C14.6696091,4.62015411 15.0833076,6.09184977 14.9861168,7.68558982 C14.9254788,8.67737273 14.6171884,9.61488309 14.2411762,10.5314558 C13.2834359,12.8662781 11.9581839,15.0054987 10.4952214,17.0637238 C9.5882017,18.3400933 8.61090988,19.5690776 7.66422041,20.8187241 C7.62086708,20.8760271 7.56929645,20.9275447 7.5058249,21" id="Fill-1" fill="#000000" mask="url(#mask-3)"></path>
                </g>
            </g>
        </g>
    </g>
</svg>