<?xml version="1.0" encoding="UTF-8"?>
<svg width="11px" height="18px" viewBox="0 0 11 18" version="1.1" xmlns="http://www.w3.org/2000/svg" xmlns:xlink="http://www.w3.org/1999/xlink">
    <title>ico-porciones</title>
    <defs>
        <filter color-interpolation-filters="auto" id="filter-1">
            <feColorMatrix in="SourceGraphic" type="matrix" values="0 0 0 0 0.949020 0 0 0 0 0.560784 0 0 0 0 0.113725 0 0 0 1.000000 0"></feColorMatrix>
        </filter>
        <polygon id="path-2" points="0 0 3.76653327 0 3.76653327 17.786575 0 17.786575"></polygon>
    </defs>
    <g id="Desktop" stroke="none" stroke-width="1" fill="none" fill-rule="evenodd">
        <g id="06_Interna-recetas_op2-hover" transform="translate(-879.000000, -360.000000)">
            <g id="Descripción" transform="translate(735.000000, 192.000000)">
                <g id="Datos-nutricionales" transform="translate(0.000000, 159.000000)">
                    <g id="ico-porciones" transform="translate(2.000000, 0.000000)" filter="url(#filter-1)">
                        <g transform="translate(142.000000, 9.000000)">
                            <g id="Group-3" transform="translate(7.233467, 0.213425)">
                                <mask id="mask-3" fill="white">
                                    <use xlink:href="#path-2"></use>
                                </mask>
                                <g id="Clip-2"></g>
                                <path d="M3.75286919,15.994975 L2.93540077,9.803575 L2.9579762,9.803575 C3.19798873,9.803575 3.39285039,9.606775 3.39285039,9.364375 L3.39285039,0.439375 C3.39285039,0.285175 3.31324228,0.142375 3.18254238,0.063175 C3.05184249,-0.016625 2.8902499,-0.020825 2.75539137,0.050575 C1.0604514,0.954175 0,2.729575 0,4.665775 L0,8.428975 C0,9.187975 0.608942681,9.803575 1.36106115,9.803575 L1.4638388,9.803575 L0.646370378,15.994975 C0.586961336,16.446775 0.723602132,16.903375 1.02064734,17.246575 C1.31828664,17.589775 1.74840811,17.786575 2.19991683,17.786575 C2.65142555,17.786575 3.08095292,17.589775 3.37859222,17.246575 C3.67623152,16.903375 3.81227823,16.446775 3.75286919,15.994975" id="Fill-1" fill="#000000" mask="url(#mask-3)"></path>
                            </g>
                            <path d="M4.17586157,0 C3.84614138,0 3.57939478,0.2694 3.57939478,0.6024 L3.57939478,3.9678 L2.982928,3.9678 L2.982928,0.6024 C2.982928,0.2694 2.71558731,0 2.38586713,0 C2.05614695,0 1.78940035,0.2694 1.78940035,0.6024 L1.78940035,3.9678 L1.19293356,3.9678 L1.19293356,0.6024 C1.19293356,0.2694 0.926186966,0 0.596466782,0 C0.266746599,0 0,0.2694 0,0.6024 L0,3.9678 L0,4.5186 L0,6.0402 C0,6.9342 0.717067138,7.6584 1.60166777,7.6584 L1.73414994,7.6584 L0.793704802,16.2036 C0.743801207,16.6608 0.888759269,17.118 1.19233947,17.4612 C1.49651377,17.8038 1.93079387,18 2.38646122,18 C2.84153448,18 3.27581458,17.8038 3.57998887,17.4612 C3.88356908,17.118 4.02852714,16.6608 3.97862355,16.2036 L3.03817841,7.6584 L3.17066057,7.6584 C4.05526121,7.6584 4.77232835,6.9342 4.77232835,6.0402 L4.77232835,4.5186 L4.77232835,3.9678 L4.77232835,0.6024 C4.77232835,0.2694 4.50558175,0 4.17586157,0" id="Fill-4" fill="#000000"></path>
                        </g>
                    </g>
                </g>
            </g>
        </g>
    </g>
</svg>