<?xml version="1.0" encoding="UTF-8"?>
<svg width="9px" height="15px" viewBox="0 0 9 15" version="1.1" xmlns="http://www.w3.org/2000/svg" xmlns:xlink="http://www.w3.org/1999/xlink">
    <title>ico-porciones</title>
    <defs>
        <filter color-interpolation-filters="auto" id="filter-1">
            <feColorMatrix in="SourceGraphic" type="matrix" values="0 0 0 0 0.694118 0 0 0 0 0.784314 0 0 0 0 0.286275 0 0 0 1.000000 0"></feColorMatrix>
        </filter>
        <polygon id="path-2" points="0 0 3.08170904 0 3.08170904 14.8221458 0 14.8221458"></polygon>
    </defs>
    <g id="⭐️-Simbolos" stroke="none" stroke-width="1" fill="none" fill-rule="evenodd">
        <g id="Tarjetas/Tarjeta-recetas/hover" transform="translate(-257.000000, -562.000000)">
            <g id="Descripción" transform="translate(3.000000, 555.000000)">
                <g id="ico-porciones" transform="translate(254.000000, 4.000000)" filter="url(#filter-1)">
                    <g transform="translate(0.000000, 3.000000)">
                        <g id="Group-3" transform="translate(5.918291, 0.177854)">
                            <mask id="mask-3" fill="white">
                                <use xlink:href="#path-2"></use>
                            </mask>
                            <g id="Clip-2"></g>
                            <path d="M3.07052933,13.3291458 L2.40169154,8.16964583 L2.42016235,8.16964583 C2.61653624,8.16964583 2.7759685,8.00564583 2.7759685,7.80364583 L2.7759685,0.366145833 C2.7759685,0.237645833 2.71083459,0.118645833 2.60389831,0.0526458333 C2.49696204,-0.0138541667 2.36474991,-0.0173541667 2.25441112,0.0421458333 C0.867642055,0.795145833 0,2.27464583 0,3.88814583 L0,7.02414583 C0,7.65664583 0.49822583,8.16964583 1.11359549,8.16964583 L1.19768629,8.16964583 L0.528848491,13.3291458 C0.480241093,13.7056458 0.592038108,14.0861458 0.835075098,14.3721458 C1.07859816,14.6581458 1.43051572,14.8221458 1.79993195,14.8221458 C2.16934817,14.8221458 2.52077966,14.6581458 2.76430273,14.3721458 C3.00782579,14.0861458 3.11913673,13.7056458 3.07052933,13.3291458" id="Fill-1" fill="#000000" mask="url(#mask-3)"></path>
                        </g>
                        <path d="M3.41661401,0 C3.14684295,0 2.92859573,0.2245 2.92859573,0.502 L2.92859573,3.3065 L2.44057746,3.3065 L2.44057746,0.502 C2.44057746,0.2245 2.22184416,0 1.95207311,0 C1.68230205,0 1.46405483,0.2245 1.46405483,0.502 L1.46405483,3.3065 L0.976036553,3.3065 L0.976036553,0.502 C0.976036553,0.2245 0.757789336,0 0.488018276,0 C0.218247217,0 0,0.2245 0,0.502 L0,3.3065 L0,3.7655 L0,5.0335 C0,5.7785 0.586691294,6.382 1.31045545,6.382 L1.41884995,6.382 L0.649394838,13.503 C0.608564624,13.884 0.727166675,14.265 0.975550479,14.551 C1.22442036,14.8365 1.57974044,15 1.95255918,15 C2.32489185,15 2.68021193,14.8365 2.92908181,14.551 C3.17746561,14.265 3.29606766,13.884 3.25523745,13.503 L2.48578234,6.382 L2.59417683,6.382 C3.31794099,6.382 3.90463229,5.7785 3.90463229,5.0335 L3.90463229,3.7655 L3.90463229,3.3065 L3.90463229,0.502 C3.90463229,0.2245 3.68638507,0 3.41661401,0" id="Fill-4" fill="#000000"></path>
                    </g>
                </g>
            </g>
        </g>
    </g>
</svg>