<?xml version="1.0" encoding="UTF-8"?>
<svg width="181px" height="78px" viewBox="0 0 181 78" version="1.1" xmlns="http://www.w3.org/2000/svg" xmlns:xlink="http://www.w3.org/1999/xlink">
    <title>Destacado1</title>
    <defs>
        <linearGradient x1="50%" y1="0%" x2="50%" y2="100%" id="linearGradient-1">
            <stop stop-color="#FFFFFF" stop-opacity="0.304141171" offset="0%"></stop>
            <stop stop-color="#FFFFFF" stop-opacity="0.582277098" offset="100%"></stop>
        </linearGradient>
    </defs>
    <g id="Desktop" stroke="none" stroke-width="1" fill="none" fill-rule="evenodd">
        <g id="Group-6" transform="translate(1.000000, 1.000000)">
            <rect id="Rectangle" stroke="#FFFFFF" fill="url(#linearGradient-1)" x="0" y="0" width="179" height="76" rx="20"></rect>
            <g id="Group-5" transform="translate(15.080537, 7.000000)">
                <circle id="Oval" fill="#FFFFFF" cx="30.5" cy="30.5" r="30.5"></circle>
                <text id="3,6g" font-family="Poppins-Bold, Poppins" font-size="22" font-weight="bold" fill="#1A7C86">
                    <tspan x="6.99377733" y="39.2864372">3,6g</tspan>
                </text>
            </g>
            <path d="M87.8425369,46 L87.8425369,41.176 L89.9485369,41.176 C90.9805369,41.176 91.8355369,40.996 92.5135369,40.636 C93.1915369,40.276 93.6895369,39.802 94.0075369,39.214 C94.3255369,38.626 94.4845369,37.996 94.4845369,37.324 C94.4845369,36.58 94.3135369,35.914 93.9715369,35.326 C93.6295369,34.738 93.1165369,34.276 92.4325369,33.94 C91.7485369,33.604 90.9205369,33.436 89.9485369,33.436 L89.9485369,33.436 L85.3225369,33.436 L85.3225369,46 L87.8425369,46 Z M89.8405369,39.142 L87.8425369,39.142 L87.8425369,35.488 L89.8405369,35.488 C91.2085369,35.488 91.8925369,36.1 91.8925369,37.324 C91.8925369,37.9 91.7245369,38.347 91.3885369,38.665 C91.0525369,38.983 90.5365369,39.142 89.8405369,39.142 L89.8405369,39.142 Z M98.7865369,46 L98.7865369,41.032 C98.7865369,40.108 98.9875369,39.46 99.3895369,39.088 C99.7915369,38.716 100.388537,38.53 101.180537,38.53 L101.180537,38.53 L101.846537,38.53 L101.846537,35.884 C101.174537,35.884 100.577537,36.034 100.055537,36.334 C99.5335369,36.634 99.1105369,37.048 98.7865369,37.576 L98.7865369,37.576 L98.7865369,36.028 L96.2665369,36.028 L96.2665369,46 L98.7865369,46 Z M107.966537,46.162 C108.938537,46.162 109.817537,45.949 110.603537,45.523 C111.389537,45.097 112.013537,44.494 112.475537,43.714 C112.937537,42.934 113.168537,42.034 113.168537,41.014 C113.168537,39.994 112.943537,39.094 112.493537,38.314 C112.043537,37.534 111.428537,36.931 110.648537,36.505 C109.868537,36.079 108.998537,35.866 108.038537,35.866 C107.078537,35.866 106.208537,36.079 105.428537,36.505 C104.648537,36.931 104.033537,37.534 103.583537,38.314 C103.133537,39.094 102.908537,39.994 102.908537,41.014 C102.908537,42.034 103.127537,42.934 103.565537,43.714 C104.003537,44.494 104.606537,45.097 105.374537,45.523 C106.142537,45.949 107.006537,46.162 107.966537,46.162 Z M107.966537,43.966 C107.246537,43.966 106.649537,43.711 106.175537,43.201 C105.701537,42.691 105.464537,41.962 105.464537,41.014 C105.464537,40.066 105.707537,39.337 106.193537,38.827 C106.679537,38.317 107.282537,38.062 108.002537,38.062 C108.722537,38.062 109.331537,38.317 109.829537,38.827 C110.327537,39.337 110.576537,40.066 110.576537,41.014 C110.576537,41.65 110.456537,42.19 110.216537,42.634 C109.976537,43.078 109.655537,43.411 109.253537,43.633 C108.851537,43.855 108.422537,43.966 107.966537,43.966 Z M120.188537,46 L120.188537,43.876 L119.018537,43.876 C118.634537,43.876 118.361537,43.801 118.199537,43.651 C118.037537,43.501 117.956537,43.258 117.956537,42.922 L117.956537,42.922 L117.956537,38.098 L120.188537,38.098 L120.188537,36.028 L117.956537,36.028 L117.956537,33.562 L115.418537,33.562 L115.418537,36.028 L114.230537,36.028 L114.230537,38.098 L115.418537,38.098 L115.418537,42.904 C115.418537,44.968 116.480537,46 118.604537,46 L118.604537,46 L120.188537,46 Z M126.362537,46.162 C127.550537,46.162 128.552537,45.853 129.368537,45.235 C130.184537,44.617 130.736537,43.828 131.024537,42.868 L131.024537,42.868 L128.306537,42.868 C127.910537,43.672 127.244537,44.074 126.308537,44.074 C125.660537,44.074 125.114537,43.87 124.670537,43.462 C124.226537,43.054 123.974537,42.49 123.914537,41.77 L123.914537,41.77 L131.204537,41.77 C131.252537,41.482 131.276537,41.158 131.276537,40.798 C131.276537,39.826 131.069537,38.965 130.655537,38.215 C130.241537,37.465 129.659537,36.886 128.909537,36.478 C128.159537,36.07 127.310537,35.866 126.362537,35.866 C125.378537,35.866 124.508537,36.076 123.752537,36.496 C122.996537,36.916 122.408537,37.516 121.988537,38.296 C121.568537,39.076 121.358537,39.982 121.358537,41.014 C121.358537,42.034 121.571537,42.934 121.997537,43.714 C122.423537,44.494 123.017537,45.097 123.779537,45.523 C124.541537,45.949 125.402537,46.162 126.362537,46.162 Z M128.666537,40.078 L123.932537,40.078 C124.028537,39.406 124.289537,38.881 124.715537,38.503 C125.141537,38.125 125.666537,37.936 126.290537,37.936 C126.950537,37.936 127.508537,38.131 127.964537,38.521 C128.420537,38.911 128.654537,39.43 128.666537,40.078 L128.666537,40.078 Z M132.302537,35.326 L136.442537,33.436 L136.442537,31.384 L132.302537,33.526 L132.302537,35.326 Z M135.740537,46 L135.740537,36.028 L133.220537,36.028 L133.220537,46 L135.740537,46 Z M140.852537,46 L140.852537,40.492 C140.852537,39.7 141.053537,39.091 141.455537,38.665 C141.857537,38.239 142.406537,38.026 143.102537,38.026 C143.786537,38.026 144.326537,38.239 144.722537,38.665 C145.118537,39.091 145.316537,39.7 145.316537,40.492 L145.316537,40.492 L145.316537,46 L147.836537,46 L147.836537,40.15 C147.836537,38.806 147.470537,37.759 146.738537,37.009 C146.006537,36.259 145.046537,35.884 143.858537,35.884 C143.234537,35.884 142.661537,36.007 142.139537,36.253 C141.617537,36.499 141.188537,36.838 140.852537,37.27 L140.852537,37.27 L140.852537,36.028 L138.332537,36.028 L138.332537,46 L140.852537,46 Z M154.118537,46.162 C154.862537,46.162 155.519537,46.009 156.089537,45.703 C156.659537,45.397 157.106537,45.01 157.430537,44.542 L157.430537,44.542 L157.430537,46 L159.968537,46 L159.968537,36.028 L157.430537,36.028 L157.430537,37.45 C157.094537,36.994 156.647537,36.616 156.089537,36.316 C155.531537,36.016 154.880537,35.866 154.136537,35.866 C153.284537,35.866 152.513537,36.076 151.823537,36.496 C151.133537,36.916 150.587537,37.516 150.185537,38.296 C149.783537,39.076 149.582537,39.97 149.582537,40.978 C149.582537,41.998 149.783537,42.901 150.185537,43.687 C150.587537,44.473 151.133537,45.082 151.823537,45.514 C152.513537,45.946 153.278537,46.162 154.118537,46.162 Z M154.784537,43.948 C154.328537,43.948 153.899537,43.828 153.497537,43.588 C153.095537,43.348 152.771537,43.003 152.525537,42.553 C152.279537,42.103 152.156537,41.578 152.156537,40.978 C152.156537,40.378 152.279537,39.859 152.525537,39.421 C152.771537,38.983 153.092537,38.65 153.488537,38.422 C153.884537,38.194 154.316537,38.08 154.784537,38.08 C155.252537,38.08 155.690537,38.197 156.098537,38.431 C156.506537,38.665 156.830537,39.001 157.070537,39.439 C157.310537,39.877 157.430537,40.402 157.430537,41.014 C157.430537,41.626 157.310537,42.151 157.070537,42.589 C156.830537,43.027 156.506537,43.363 156.098537,43.597 C155.690537,43.831 155.252537,43.948 154.784537,43.948 Z" id="Proteína" fill="#3E3E3E" fill-rule="nonzero"></path>
        </g>
    </g>
</svg>