<?xml version="1.0" encoding="UTF-8"?>
<svg width="46px" height="46px" viewBox="0 0 46 46" version="1.1" xmlns="http://www.w3.org/2000/svg" xmlns:xlink="http://www.w3.org/1999/xlink">
    <title>ico proteína</title>
    <defs>
        <filter color-interpolation-filters="auto" id="filter-1">
            <feColorMatrix in="SourceGraphic" type="matrix" values="0 0 0 0 1.000000 0 0 0 0 1.000000 0 0 0 0 1.000000 0 0 0 1.000000 0"></feColorMatrix>
        </filter>
        <polygon id="path-2" points="0 0 18.5454545 0 18.5454545 24 0 24"></polygon>
    </defs>
    <g id="Desktop" stroke="none" stroke-width="1" fill="none" fill-rule="evenodd">
        <g id="02_Productos_1" transform="translate(-276.000000, -499.000000)">
            <g id="Textos-banner" transform="translate(96.000000, 201.000000)">
                <g id="Atributos" transform="translate(0.000000, 236.000000)">
                    <g id="ico-proteína" transform="translate(180.000000, 62.000000)">
                        <circle id="Oval-Copy-3" fill="#DC856B" cx="23" cy="23" r="23"></circle>
                        <g filter="url(#filter-1)" id="Group-3">
                            <g transform="translate(14.000000, 11.000000)">
                                <mask id="mask-3" fill="white">
                                    <use xlink:href="#path-2"></use>
                                </mask>
                                <g id="Clip-2"></g>
                                <path d="M11.1794022,12.6845012 L9.26370818,12.6845012 L9.26370818,10.2236238 C9.25094895,10.2211812 9.2380945,10.2188325 9.22533527,10.2163898 C8.61308255,11.5024458 8.00082984,12.7885018 7.37105698,14.1114794 L9.28351356,14.1114794 L9.28351356,16.57029 C9.29589192,16.572169 9.30836549,16.5740479 9.32074385,16.5760208 C9.93252048,15.2952259 10.5442019,14.014431 11.1794022,12.6845012 L11.1794022,12.6845012 Z M1.44648837,6.58106678 L17.1116835,6.58106678 C17.1362497,6.0184114 17.0299863,5.50987015 16.6875818,5.06540153 C16.2263451,4.46667008 15.6037136,4.2063398 14.8532041,4.20690349 C12.9762639,4.20821876 11.0992285,4.20737323 9.22219307,4.20737323 C7.36896218,4.20737323 5.5157313,4.20352135 3.6624052,4.20859455 C2.29326339,4.21244643 1.31461123,5.25968627 1.44648837,6.58106678 L1.44648837,6.58106678 Z M1.42972998,20.2109681 L1.42972998,20.4273306 C1.42972998,20.8726448 1.42887301,21.317865 1.43001563,21.7630852 C1.4314439,22.3251769 1.70338695,22.5904864 2.27831414,22.5904864 C6.55408524,22.5906743 10.8298563,22.5905804 15.1055322,22.5905804 C15.5331569,22.5905804 15.9607817,22.5955596 16.3882159,22.5883256 C16.7730877,22.5818432 17.0887359,22.3316593 17.1037803,21.9721198 C17.1281562,21.3896414 17.1103504,20.8054719 17.1103504,20.2109681 L1.42972998,20.2109681 Z M2.85695485,2.86335122 L2.85695485,0 L15.6901717,0 L15.6901717,2.86842442 C16.3119462,3.00699792 16.8578319,3.26319448 17.3207825,3.67102333 C18.134136,4.38756575 18.5406223,5.28927994 18.5430027,6.36423448 C18.546621,8.02129167 18.5451927,9.67834885 18.5450975,11.3355 C18.5449071,14.8059441 18.5439549,18.2764821 18.5440501,21.7469261 C18.5440501,22.6631083 18.1733658,23.3764565 17.3206873,23.7739511 C17.0235114,23.9125246 16.6671099,23.9883407 16.3374647,23.9892802 C11.6311171,24.0028087 6.92476951,24.0013995 2.21842193,23.9966081 C0.933929062,23.9952929 0.00678991994,23.0909481 0.00526642952,21.826782 C-0.00101796849,16.6524007 -0.00273189522,11.4779254 0.00602817473,6.30345004 C0.00878950112,4.69674906 1.08123154,3.34943887 2.64985537,2.92188091 C2.71012846,2.90553394 2.7701159,2.88796563 2.85695485,2.86335122 L2.85695485,2.86335122 Z" id="Fill-1" fill="#000000" mask="url(#mask-3)"></path>
                            </g>
                        </g>
                    </g>
                </g>
            </g>
        </g>
    </g>
</svg>