<?xml version="1.0" encoding="UTF-8"?>
<svg width="45px" height="45px" viewBox="0 0 45 45" version="1.1" xmlns="http://www.w3.org/2000/svg" xmlns:xlink="http://www.w3.org/1999/xlink">
    <title>Ico ingrediente/queso</title>
    <defs>
        <filter color-interpolation-filters="auto" id="filter-1">
            <feColorMatrix in="SourceGraphic" type="matrix" values="0 0 0 0 0.949020 0 0 0 0 0.560784 0 0 0 0 0.113725 0 0 0 1.000000 0"></feColorMatrix>
        </filter>
        <polygon id="path-2" points="0 0 22 0 22 16.1579766 0 16.1579766"></polygon>
    </defs>
    <g id="Desktop" stroke="none" stroke-width="1" fill="none" fill-rule="evenodd">
        <g id="06_Interna-recetas_op2-hover" transform="translate(-952.000000, -1016.000000)">
            <g id="Ingredientes" transform="translate(185.000000, 842.000000)">
                <g id="Group-9" transform="translate(0.000000, 78.000000)">
                    <g id="Ico-ingrediente/queso" transform="translate(767.000000, 96.000000)">
                        <g id="Oval" fill="#FCE6CD">
                            <circle cx="22.5" cy="22.5" r="22.5"></circle>
                        </g>
                        <g filter="url(#filter-1)">
                            <g transform="translate(12.000000, 11.000000)">
                                <g id="Group-3" transform="translate(0.000000, 6.842023)">
                                    <mask id="mask-3" fill="white">
                                        <use xlink:href="#path-2"></use>
                                    </mask>
                                    <g id="Clip-2"></g>
                                    <path d="M12.9477078,10.8862207 C13.8127597,10.894127 14.470755,10.2299982 14.4790928,9.34089931 C14.4874307,8.46258174 13.8224872,7.76826522 12.9699421,7.76538171 C12.1444949,7.76251519 11.4462,8.48989439 11.4503504,9.34808685 C11.4545379,10.1832792 12.1312933,10.8790332 12.9477078,10.8862207 L12.9477078,10.8862207 Z M16.7921513,5.1520001 C17.689165,5.17284397 18.4222009,4.47708995 18.4520782,3.57720975 C18.4805659,2.70607972 17.7461403,1.91113762 16.882478,1.87735618 C16.0598102,1.84573099 15.2955073,2.59251656 15.2670196,3.4557403 C15.2364475,4.38652693 15.90556,5.13115623 16.7921513,5.1520001 L16.7921513,5.1520001 Z M1.15034533,7.96879763 C1.15034533,9.27621144 2.20438849,10.3751865 3.45020219,10.3673226 C4.70991231,10.3586552 5.74450049,9.27621144 5.75008662,7.95945383 C5.75631245,6.65779006 4.69740554,5.5660025 3.43977988,5.57678381 C2.15853032,5.58756512 1.15034533,6.64125871 1.15034533,7.96879763 L1.15034533,7.96879763 Z M21.9977488,5.71837838 C21.9977488,7.15373042 22.0040022,8.58980122 21.9956643,10.0251533 C21.9894109,11.2132539 21.5245758,11.7681321 20.4114729,12.008196 C17.2090438,12.7003562 14.009394,13.4076103 10.8069649,14.1019268 C7.67401787,14.7811495 4.54107086,15.4560597 1.40534456,16.1223448 C0.484706994,16.3178459 -0.137852448,15.688936 0.0275149039,14.7243679 C0.0587818402,14.5425231 0.234571504,14.349897 0.392990648,14.2334588 C1.55264657,13.3846102 1.54569836,12.2849163 0.394380289,11.4173801 C0.202609747,11.2729105 0.0282097247,10.9588149 0.0233459791,10.7194698 C-0.0093105988,9.15546074 -0.00236239074,7.59001419 0.0115340254,6.02600515 C0.0212615167,4.96224901 0.433290254,4.40305827 1.41924098,4.18024449 C3.71214964,3.66346025 6.01131168,3.17614493 8.30908409,2.67876706 C10.8326733,2.1325139 13.3569572,1.58841701 15.8805464,1.04360136 C17.4126263,0.712974448 18.9412321,0.361503667 20.4781757,0.0581894142 C21.5871097,-0.160311849 21.9935799,0.224940378 21.9956643,1.41088473 C21.9977488,2.84623678 21.9956643,4.28230758 21.9956643,5.71837838 L21.9977488,5.71837838 Z" id="Fill-1" fill="#1C6047" mask="url(#mask-3)"></path>
                                </g>
                                <path d="M21.4361251,5.7622812 C14.5761593,7.33347778 7.81833215,8.88095547 1.060505,10.4277144 C1.03688109,10.3860267 1.013952,10.3443389 0.990328094,10.3026512 C1.10219424,10.1761505 1.20641736,10.0424622 1.32592654,9.9245865 C2.99002237,8.29013956 4.66454052,6.66647392 6.31543475,5.01837065 C6.59961646,4.73518151 6.80389378,4.73086899 7.14366115,4.90265123 C8.23175053,5.45106065 9.3226192,5.42015422 10.3363628,4.70930636 C11.3438529,4.00277103 11.3146704,2.77801395 10.3064855,2.06932236 C10.1487611,1.95791546 9.98547825,1.85441486 9.7700838,1.71138279 C10.599005,0.840252752 11.2514418,-0.00572088727 12.6174595,0 C16.4459221,0.0158417373 19.2877392,1.64310114 21.1484693,5.09743361 C21.2408805,5.26921585 21.3054988,5.45681068 21.4361251,5.7622812" id="Fill-4" fill="#1C6047"></path>
                            </g>
                        </g>
                    </g>
                </g>
            </g>
        </g>
    </g>
</svg>