<?xml version="1.0" encoding="UTF-8"?>
<svg width="67px" height="27px" viewBox="0 0 67 27" version="1.1" xmlns="http://www.w3.org/2000/svg" xmlns:xlink="http://www.w3.org/1999/xlink">
    <title>Rappi_logo</title>
    <g id="⭐️-Simbolos" stroke="none" stroke-width="1" fill="none" fill-rule="evenodd">
        <g id="Transversales/Footer/Desktop" transform="translate(-135.000000, -132.000000)" fill="#FF441F">
            <g id="Group-2" transform="translate(52.000000, 39.000000)">
                <g id="Group" transform="translate(83.000000, 84.000000)">
                    <g id="Rappi_logo" transform="translate(0.000000, 9.000000)">
                        <path d="M52.2668031,10.445439 C52.1735455,10.9324219 52.0262449,11.4947386 51.8285671,12.1144517 C51.6299619,12.7341651 51.3754099,13.3879574 51.0751693,14.0507189 C50.7488347,14.7188631 50.4103508,15.3439589 50.0709524,15.9071708 C49.7352791,16.4650031 49.399611,16.94481 49.0779264,17.3331378 C48.7637153,17.7116052 48.4718524,17.9914181 48.2126375,18.1654036 C48.0168481,18.2963436 47.9077315,18.310683 47.8704465,18.310683 C47.85288,18.310683 47.8387234,18.3079995 47.8238177,18.3015392 C47.7910354,18.2873017 47.6820712,18.2172399 47.6345382,17.8845078 C47.5897694,17.5795781 47.6141301,17.1786985 47.7044686,16.6935124 C47.7977262,16.1939745 47.9441226,15.6262783 48.1427072,15.0101514 C48.3384966,14.3940242 48.5930641,13.7402319 48.8979675,13.0685015 C49.2000861,12.4021541 49.5301484,11.7806442 49.8807378,11.2201237 C50.2294465,10.6604982 50.568863,10.186071 50.8905502,9.80939953 C51.2029245,9.44169744 51.494759,9.16636924 51.757699,8.98969235 C51.9544443,8.85875229 52.0626025,8.84441294 52.09989,8.84441294 C52.1187482,8.84441294 52.1326723,8.84709644 52.145563,8.85355673 C52.1783453,8.86712333 52.2873095,8.93785601 52.3357724,9.27058484 C52.3795596,9.57551456 52.3561806,9.97011679 52.2667721,10.445439 M39.1774518,10.445439 C39.0841941,10.9324219 38.9368936,11.4947386 38.7392158,12.1144517 C38.5396806,12.7377513 38.285126,13.3906489 37.985818,14.0507189 C37.6585327,14.7206561 37.3200721,15.3457518 36.9816036,15.9071708 C36.6450159,16.4658979 36.3102597,16.9457048 35.988575,17.3331378 C35.6743665,17.711602 35.3834311,17.9914146 35.1223562,18.1654036 C34.9265668,18.2963436 34.8184008,18.310683 34.7810823,18.310683 C34.7635157,18.310683 34.7493592,18.3079995 34.7344534,18.3018622 C34.7016712,18.2876247 34.5927328,18.2175629 34.545174,17.8848309 C34.5004052,17.5808163 34.5237325,17.1808145 34.6151043,16.6938351 C34.7074061,16.1951922 34.8547584,15.6292891 35.0533403,15.0104742 C35.2491556,14.393449 35.5037024,13.7405549 35.8086007,13.0688245 C36.111639,12.4006804 36.4426468,11.779174 36.7904435,11.2204468 C37.14102,10.659923 37.4804313,10.1854953 37.8011833,9.80972254 C38.1144774,9.44202046 38.4072573,9.16579403 38.6683348,8.99001536 C38.8641242,8.8590753 38.9732382,8.84473595 39.0105232,8.84473595 C39.0293814,8.84473595 39.0433054,8.84741946 39.0561962,8.85355673 C39.0889784,8.86712333 39.1988468,8.93785601 39.2464315,9.27058484 C39.2902703,9.57551456 39.2668396,9.97011679 39.1774311,10.445439 M24.9953404,10.3198876 C24.9375465,10.8149408 24.8256554,11.3799492 24.6624538,12.0005574 C24.4983361,12.6193757 24.2745658,13.2704769 23.9957737,13.9377228 C23.7178977,14.6013858 23.4223332,15.2255836 23.1155665,15.7923812 C22.8153125,16.3466276 22.5122921,16.8192586 22.2129859,17.1977225 C21.9220706,17.5654284 21.6488712,17.8398581 21.3999141,18.012949 C21.2162378,18.1412105 21.1136508,18.1555524 21.0791496,18.1555524 C21.0632881,18.1555524 21.0491961,18.1528689 21.0343911,18.1464086 C21.0009114,18.1321711 20.885215,18.059396 20.8255172,17.7213069 C20.7695921,17.4118922 20.7649049,17.012809 20.8096611,16.5339003 C20.856285,16.047816 20.9616558,15.4890855 21.1238707,14.8738565 C21.2861206,14.2577294 21.5108248,13.6057302 21.790551,12.9366913 C22.0721271,12.2640627 22.3686528,11.6407634 22.6716908,11.0811379 C22.9700773,10.5277898 23.2740316,10.0497761 23.5752065,9.65965159 C23.8642538,9.28298039 24.1383871,9.00496422 24.3864106,8.83187352 C24.5700869,8.703612 24.6726739,8.68927016 24.7080911,8.68927016 C24.7239527,8.68927016 24.7380447,8.69195367 24.7509793,8.69841395 C24.7863966,8.71265143 24.9066731,8.7881026 24.9803621,9.13068834 C25.0456166,9.43561806 25.0502924,9.8356027 24.9945703,10.3207891 M53.6729114,6.20700266 C54.3582415,6.20700266 54.9475342,6.40878721 55.4249307,6.80787983 C55.8855485,7.19262489 56.2146938,7.74238331 56.4021107,8.4410205 C56.5839243,9.11813004 56.6212532,9.93694247 56.513994,10.8759272 C56.4067348,11.803258 56.1251768,12.8615231 55.6748147,14.0211308 C55.2505621,15.1170649 54.7638399,16.081163 54.230494,16.8856239 C53.9722142,17.2766466 53.7064764,17.6425555 53.4370083,17.980663 C53.4024694,18.0237109 53.4540582,18.080216 53.5031928,18.0542183 C53.659845,17.9725951 53.8155672,17.8838208 53.9694036,17.7869471 C54.3199826,17.5690292 54.6565988,17.3340435 54.9764182,17.0856184 C55.8687441,16.3905712 56.5167762,15.4506885 56.8319354,14.3942163 C57.0203107,13.7583584 57.2291432,13.127883 57.4566557,12.5063766 C57.8296243,11.4830857 58.2277673,10.5279565 58.6408263,9.6669942 C59.0510954,8.80872334 59.3923615,8.16658755 59.6553042,7.75673558 C59.9536873,7.29037871 60.3714015,6.99980399 60.9000871,6.89218358 C61.3942674,6.79174849 61.8670036,6.79890202 62.3015144,6.91183776 C62.7462785,7.02844095 63.1099187,7.24008812 63.3812546,7.5432112 C63.6768219,7.87413935 63.7411671,8.25081378 63.565884,8.63286764 C63.5136753,8.76468978 63.3766046,9.06603653 63.1584179,9.52970219 C62.9392753,9.99605558 62.6931397,10.5404348 62.4068827,11.1969186 C62.1318269,11.8273971 61.8493001,12.5098861 61.5677034,13.2237698 C61.2926501,13.9250947 61.0772534,14.5797853 60.928067,15.1699039 C60.7826264,15.7438777 60.7257418,16.2209931 60.7583691,16.5878005 C60.7900922,16.9384628 60.9290228,16.9384628 61.0045331,16.9384628 C61.1108106,16.9384628 61.2991833,16.8900256 61.5919607,16.6604466 C61.8735368,16.436225 62.1709925,16.1662914 62.4777585,15.8541925 C62.7845322,15.5411956 63.0791696,15.2039863 63.3514328,14.8524255 C63.6003868,14.5322426 63.8139158,14.2488537 63.987344,14.0094012 C64.1383904,13.8004308 64.3789616,13.6811508 64.6465697,13.6811508 C64.9290964,13.6811508 65.2032222,13.8174827 65.3458832,14.0282237 C65.4848138,14.2344833 65.4810939,14.4802288 65.3337416,14.7008523 C65.1491121,14.9779871 64.8265053,15.4425339 64.3472385,16.1232331 C63.8726371,16.7958617 63.3047936,17.4891127 62.6595592,18.1850582 C62.0031365,18.8908678 61.2861014,19.5177569 60.5261834,20.0477878 C59.7270971,20.6065148 58.9196228,20.8890192 58.1279971,20.8890192 C57.4118998,20.8890192 56.8776213,20.6504582 56.5391529,20.1787251 C56.2315241,19.7482522 56.0748667,19.1706889 56.0748667,18.4621881 L56.0748667,18.3491778 C56.0767293,18.2648786 55.9741433,18.2173557 55.9060988,18.2702679 C55.7559566,18.3859567 55.6011902,18.500761 55.4436158,18.6137581 C54.51292,19.2801055 53.4387727,19.8451105 52.2490067,20.2944276 C51.1869752,20.6962089 50.016788,20.8997894 48.7710777,20.8997894 L48.5174479,20.8971059 L48.2629139,20.888956 C47.4144089,20.8871596 46.7850257,20.6315487 46.3906156,20.126645 C46.3207111,20.0378708 46.2563349,19.9463857 46.1994761,19.8522218 C46.1538032,19.77687 46.0353582,19.7894477 46.0092667,19.8735656 C45.8815218,20.2834175 45.7603385,20.6789247 45.648419,21.0573889 C45.4060008,21.8708186 45.1989947,22.5748358 45.0171707,23.2097947 C44.8344012,23.8465478 44.6758968,24.426801 44.5453671,24.937099 C44.4194822,25.4285677 44.3318303,25.8267624 44.2870873,26.121821 L44.2842457,26.1327538 C44.1695724,26.6914791 43.7770067,26.8878842 43.466513,26.9551507 C43.3285124,26.9846444 43.1849369,27 43.0394628,27 C42.7765304,27 42.4986614,26.9506782 42.2142721,26.8547181 C41.7816341,26.7076224 41.3928143,26.4538375 41.0571436,26.0995877 C40.7093494,25.7318831 40.5331235,25.2718064 40.5331235,24.7319128 C40.5331235,24.6224855 40.5620049,24.383045 40.7848933,23.5014567 C40.9517754,22.8512495 41.1765082,22.042303 41.4553021,21.0961392 C41.6436774,20.4549021 41.858108,19.7571631 42.0958762,19.0109966 C42.1237243,18.921308 42.0175501,18.8468706 41.937364,18.8997853 C41.1084405,19.442371 40.1788142,19.9114161 39.1643441,20.2943645 C38.1013851,20.6961458 36.9321254,20.8997296 35.6864151,20.8997296 C35.5185513,20.8997296 35.3470089,20.8960025 35.177311,20.8888713 C34.3297514,20.8870793 33.7003682,20.6314687 33.305023,20.126565 C33.2350927,20.0377907 33.1716723,19.9471877 33.1148135,19.8521418 C33.0682105,19.77679 32.9506956,19.7902472 32.9246041,19.8734855 C32.7959292,20.2842358 32.6746943,20.6806374 32.5628213,21.0573086 C32.3194472,21.8734296 32.1124643,22.578341 31.9325081,23.2097127 C31.7497386,23.8464683 31.5903145,24.426719 31.4597693,24.937017 C31.3338844,25.4293827 31.2471884,25.8275798 31.2014896,26.1217415 L31.199627,26.1326743 C31.0849537,26.6913946 30.6914581,26.8878022 30.3809592,26.9550662 C30.2429585,26.9845599 30.1003002,27 29.9548467,27 C29.6919118,27 29.4140401,26.9505689 29.1287208,26.8546088 C28.6960751,26.7075627 28.3081904,26.4537356 27.9725172,26.0994858 C27.624723,25.7317813 27.448497,25.2717045 27.448497,24.7318085 C27.448497,24.6215115 27.4763452,24.3820411 27.7002668,23.5013523 C27.8681306,22.844867 28.0928144,22.0359187 28.3697457,21.0960358 C28.5338636,20.5373088 28.7156721,19.9418073 28.9198728,19.298777 C28.9498134,19.2019025 28.8266151,19.1283795 28.7483149,19.1974275 C28.4005207,19.5023573 28.0424682,19.7866476 27.675095,20.0467328 C26.8872022,20.6054601 26.0853182,20.8888589 25.29276,20.8888589 C24.5766611,20.8888589 24.0414511,20.6502979 23.7039155,20.1785651 C23.567834,19.9883288 23.4615469,19.7686003 23.3841575,19.5219685 C23.3161068,19.3022536 23.0233099,19.2349698 22.857342,19.4008915 C22.6242222,19.6340631 22.3678187,19.8466192 22.0927548,20.0340547 C21.7347057,20.2780053 21.334698,20.4824739 20.9020539,20.642111 C20.4563562,20.8053209 19.9742971,20.8887396 19.4689254,20.8887396 C18.78546,20.8887396 18.1859138,20.6887523 17.6880032,20.2932416 C17.2031423,19.9111913 16.8441623,19.3695002 16.6194478,18.6816286 C16.4012699,18.0152777 16.3210613,17.1964685 16.3807596,16.2467185 C16.4404228,15.3086291 16.662336,14.2557433 17.0409132,13.1158663 C17.8474552,10.7518059 18.8992253,8.99669704 20.1682497,7.89628198 C21.4605863,6.77523451 22.7715687,6.20664337 24.0648366,6.20664337 C24.612166,6.20664337 25.0755782,6.31246782 25.4401562,6.52052183 C25.7991387,6.72678137 26.0760674,6.99943054 26.2634817,7.3312604 C26.3884108,7.55456764 26.4798084,7.79402733 26.5357553,8.04873007 C26.5458302,8.0935744 26.6094055,8.10252438 26.6327329,8.06229667 C26.6980132,7.94928639 26.7605036,7.84797171 26.8192223,7.75557024 C27.1176106,7.29100611 27.5297319,7.00043114 28.0453615,6.89191622 C28.5274182,6.79148114 28.9992244,6.79775258 29.4458562,6.91089952 C29.9036712,7.02750272 30.2738446,7.24003097 30.5461105,7.54316772 C30.8416778,7.87409587 30.906023,8.2507703 30.7297841,8.63282416 C30.6785053,8.76284984 30.5461105,9.05701077 30.3232479,9.52964529 C30.1059912,9.99241248 29.8523769,10.552933 29.5717153,11.1968615 C29.2938385,11.8345126 29.011335,12.5170048 28.7325386,13.2237126 C28.4565295,13.9250375 28.2411534,14.5806232 28.092897,15.1698435 C27.9474564,15.7447155 27.8905719,16.2218345 27.923225,16.5877433 C27.9549481,16.9384059 28.0938787,16.9384059 28.1684848,16.9384059 C28.275744,16.9384059 28.4640521,16.8899687 28.7559072,16.6603895 C28.9172094,16.532128 29.0850576,16.3877627 29.2566181,16.2290101 C29.9214237,15.6128954 30.3671204,14.9402668 30.6645632,14.1035198 C31.0599084,12.9932377 31.4757678,11.8973038 31.9028155,10.8408319 C32.3587704,9.71709645 32.8035345,8.70815681 33.2249893,7.84181183 C33.445036,7.39339294 33.7937628,7.09116113 34.2581109,6.94587203 C34.6935492,6.80954012 35.1401785,6.7808639 35.5793522,6.86069068 C36.0175882,6.94139704 36.4017426,7.10911601 36.7206346,7.36022882 C36.8623553,7.47144015 36.9751686,7.59160396 37.0590876,7.71806704 C37.0813041,7.75213263 37.1075764,7.75572554 37.1383436,7.72790655 C37.51504,7.39338524 37.9308993,7.086669 38.3793937,6.81313403 C39.0358164,6.41045446 39.7789559,6.2068742 40.5882953,6.2068742 C41.2726954,6.2068742 41.8629155,6.40865875 42.339382,6.80775112 C42.8009324,7.19339118 43.1300751,7.7422546 43.317492,8.4408918 C43.4993056,9.11710658 43.5366345,9.93681376 43.4293753,10.8757984 C43.3221161,11.8022313 43.0396229,12.8613944 42.5901986,14.0210024 C42.1650135,15.1178344 41.6782886,16.0819327 41.1449453,16.8854952 C40.8866655,17.2765179 40.6209252,17.6424268 40.3514545,17.9805343 C40.3169156,18.0235846 40.369021,18.0800873 40.4185948,18.0540896 C40.574317,17.9724664 40.7300237,17.8836946 40.8848081,17.7868184 C41.1356221,17.6307602 41.3789884,17.4657541 41.6139589,17.2935581 C42.5072173,16.6406605 43.173901,15.7474122 43.5291507,14.7304021 L43.6690113,14.3331018 C44.0886035,13.1403096 44.5324376,11.9654554 44.98746,10.8408252 C45.4443424,9.71529627 45.889109,8.70635365 46.3105612,7.84180512 C46.5297038,7.39338599 46.8774747,7.09204917 47.3436855,6.94586532 C47.7791263,6.80953341 48.2257556,6.7808572 48.6649242,6.86068397 C49.1031602,6.94139033 49.4863871,7.1091093 49.805274,7.35932711 C49.9470205,7.47142301 50.059808,7.59161912 50.1437321,7.71806033 C50.1662069,7.75212592 50.1922209,7.75571883 50.2229882,7.72789984 C50.5996871,7.39337878 51.0155464,7.08666254 51.4640382,6.81312757 C52.1213703,6.41041147 52.8645097,6.20664337 53.672914,6.20664337 L53.6729114,6.20700266 Z M10.7871665,0.620611502 C11.7699381,0.620611502 12.7545743,0.730028869 13.7149679,0.944353579 C14.6818882,1.16139186 15.5592962,1.49142054 16.3210815,1.92549128 C17.0921951,2.36494111 17.7253084,2.91649275 18.2027087,3.56490594 C18.6894304,4.22497597 18.9355893,4.99894731 18.9355893,5.86528881 C18.9355893,6.79799907 18.7192806,7.67330968 18.2922211,8.46611375 C17.8689016,9.2508437 17.2861374,9.96741837 16.5616477,10.5960974 C15.8436845,11.2202949 14.9923832,11.7709551 14.0310594,12.2319258 C13.2385011,12.6121864 12.3965248,12.9368404 11.5219151,13.1978203 C11.4659528,13.2147661 11.4463945,13.2426646 11.4491793,13.2964589 C11.4678567,13.7090024 11.4985878,14.1170611 11.5424266,14.5098768 C11.5918351,14.9609839 11.6571,15.4004339 11.7373119,15.8174618 C11.8156173,16.227317 11.9107323,16.6264104 12.0179719,17.0039766 C12.1018805,17.2963306 12.1951304,17.5806413 12.2948962,17.8505903 C12.3582959,18.0227818 12.4254285,18.1913858 12.4935169,18.34923 C12.6305695,18.6676165 12.7816482,18.9725328 12.9420126,19.2550334 C13.0995767,19.5330501 13.2702129,19.7967247 13.4492484,20.0388686 C13.6236221,20.2747535 13.8110261,20.4962564 14.0059023,20.6989387 C14.1961324,20.8962507 14.397519,21.0774061 14.6045182,21.2388364 C14.8059211,21.3957767 15.0185127,21.538377 15.2357671,21.660349 C15.4474258,21.7805103 15.6693415,21.8845706 15.8959206,21.9706681 C16.1187857,22.0549698 16.349075,22.1231333 16.5812468,22.1724526 C16.8143651,22.2217719 17.053985,22.253159 17.2964157,22.2684127 C17.5379245,22.2826502 17.7896639,22.2799418 18.0404851,22.2585732 C18.2959826,22.2372294 18.5570457,22.1975931 18.8162614,22.1392915 C19.0820136,22.0801103 19.3524009,22.00208 19.6218721,21.9061199 C19.8978803,21.8074837 20.1766618,21.6872851 20.4517253,21.5518679 C20.5570962,21.4998377 20.663384,21.4442469 20.7687543,21.3868622 C21.1118967,21.1985349 21.5501196,21.2882261 21.7804308,21.5931193 C22.011684,21.8980492 21.9604052,22.3195578 21.662022,22.5670839 C21.5156308,22.6881646 21.3683227,22.806527 21.2228511,22.91954 C20.8694641,23.193962 20.5151431,23.4486737 20.1692164,23.6755738 C19.8410162,23.8908007 19.5071951,24.0917057 19.1771201,24.2701761 C19.0120851,24.3598747 18.8386646,24.4477594 18.6624242,24.5320564 C18.3239687,24.6952532 17.9817565,24.8387859 17.6432868,24.9589497 C17.3066993,25.0782165 16.9682159,25.1777794 16.6381409,25.2530989 C16.308989,25.3284358 15.9770532,25.3831246 15.6535047,25.4145315 C15.4222516,25.436894 15.191022,25.4485971 14.9653767,25.4485971 C14.8739946,25.4485971 14.7826176,25.4468031 14.6912362,25.4423853 C14.3779429,25.4297132 14.0665141,25.3948773 13.7644097,25.3383498 C13.6152336,25.3105706 13.4641559,25.2764553 13.3168481,25.2369979 C13.1741924,25.2002239 13.0278008,25.156294 12.8814091,25.1051832 C12.6007433,25.0084131 12.3219513,24.8891314 12.0552783,24.7501408 C11.7942125,24.6138114 11.5368503,24.4568736 11.2925589,24.2828907 C11.0948915,24.142086 10.9009424,23.9869422 10.7172553,23.8228112 C10.4962585,23.6255016 10.2808824,23.4057824 10.0766815,23.1726083 C9.87527855,22.9421152 9.68226673,22.6927981 9.50324202,22.4318212 C9.323301,22.171736 9.1535801,21.8937199 8.99693696,21.6067311 C8.84120651,21.3197326 8.69298239,21.0148196 8.55869964,20.7009277 C8.42534741,20.389727 8.30133412,20.0596904 8.18853086,19.7179969 C8.07755684,19.3825605 7.97595664,19.0274303 7.88640915,18.6615215 C7.79781309,18.2965106 7.72042371,17.9180464 7.65610874,17.5359926 C7.59831354,17.1978786 7.54982164,16.847223 7.51158497,16.4911812 C7.50030751,16.3835615 7.33908002,16.3692237 7.30644682,16.4742264 C7.16657482,16.9387866 7.03977723,17.3889987 6.92788329,17.8194801 C6.78709602,18.3593746 6.65747874,18.8508382 6.53999529,19.2920814 C6.42532068,19.724359 6.34419505,20.0723304 6.29757114,20.3261347 C6.20432356,20.7763468 5.8938314,21.0606441 5.39591746,21.1530177 C4.96793901,21.2337236 4.50825424,21.1996598 4.03458574,21.0543789 C3.56651089,20.9099885 3.14132732,20.6597776 2.76929079,20.3091153 C2.37953841,19.9414132 2.1818676,19.4795405 2.1818676,18.9351618 C2.1818676,18.4921253 2.2993619,17.7916986 2.53991703,16.7953108 C2.77487049,15.8222471 3.11335648,14.6689136 3.54786142,13.3658131 C3.97864148,12.0734714 4.50172827,10.6483991 5.10127445,9.13274594 C5.61597037,7.83054037 6.1940722,6.51936917 6.8206587,5.22612923 C7.0257971,4.80282421 7.45004345,4.51135424 7.93956316,4.45754428 C9.04634491,4.33558576 10.0067385,4.36605843 10.8207406,4.54723343 C11.3111944,4.65665005 11.5741386,5.16156389 11.3690038,5.59652973 C10.8440527,6.70681511 10.3601256,7.81440581 9.92748113,8.89240193 C9.5778192,9.76502432 9.24215497,10.6286749 8.9251296,11.4690115 C8.89446825,11.5524287 8.98387675,11.6295446 9.06778539,11.5927657 C9.49017458,11.4089134 9.90696755,11.1918799 10.3144353,10.9443533 C10.9820461,10.5380872 11.5899867,10.0528979 12.1223985,9.503136 C12.652012,8.95337784 13.0865206,8.33366447 13.413801,7.66014113 C13.7364331,6.99289521 13.9005227,6.26824965 13.9005227,5.50414565 C13.9005227,4.52211286 13.6133431,3.79657254 13.047357,3.34905188 C12.4739212,2.89614831 11.6664423,2.66566146 10.6463749,2.66566146 C9.56010697,2.66566146 8.56707682,2.9096118 7.69526507,3.39120152 C6.8001415,3.88446175 6.02623298,4.49072183 5.39498411,5.19383998 C4.75907288,5.90234079 4.25743018,6.65927238 3.90590724,7.44400208 C3.55719675,8.22155962 3.3800222,8.90315384 3.3800222,9.47084998 C3.3800222,9.87711923 3.15345779,10.1703819 2.74224659,10.2968383 C2.38140253,10.4080506 1.98325955,10.3919176 1.57485722,10.24752 C1.18230672,10.1093916 0.818664702,9.8358708 0.493248552,9.43588269 C0.165964459,9.03409812 0,8.48971889 0,7.81798878 C0,7.23145991 0.234953469,6.54089683 0.71796321,5.70683787 C1.18790306,4.8934081 1.88348808,4.10150252 2.78327427,3.3526448 C3.68212634,2.6055803 4.81595203,1.95716731 6.15676966,1.42624172 C7.50505125,0.89172635 9.06312664,0.620882585 10.7871699,0.620882585 L10.7871665,0.620611502 Z M64.2773314,0 C65.7813266,0 67,1.15691985 67,2.58288681 C67,4.00885729 65.7813266,5.16577401 64.2773314,5.16577401 C62.7733387,5.16577401 61.5546602,4.00885729 61.5546602,2.58288681 C61.5546602,1.15691985 62.7733387,0 64.2773314,0 Z" id="path2"></path>
                    </g>
                </g>
            </g>
        </g>
    </g>
</svg>