<?xml version="1.0" encoding="UTF-8"?>
<svg width="16px" height="16px" viewBox="0 0 16 16" version="1.1" xmlns="http://www.w3.org/2000/svg" xmlns:xlink="http://www.w3.org/1999/xlink">
    <title>Group 7</title>
    <defs>
        <filter color-interpolation-filters="auto" id="filter-1">
            <feColorMatrix in="SourceGraphic" type="matrix" values="0 0 0 0 0.101961 0 0 0 0 0.486275 0 0 0 0 0.525490 0 0 0 1.000000 0"></feColorMatrix>
        </filter>
    </defs>
    <g id="Desktop" stroke="none" stroke-width="1" fill="none" fill-rule="evenodd">
        <g id="07_Encuéntranos" transform="translate(-102.000000, -559.000000)">
            <g id="Group-7" transform="translate(96.000000, 480.000000)" filter="url(#filter-1)">
                <g transform="translate(6.000000, 79.000000)">
                    <path d="M11.3854417,16 C11.1060731,15.9538211 10.8248201,15.9165953 10.547336,15.8591073 C9.80627908,15.705963 9.11280432,15.4166382 8.43817399,15.0834905 C5.76650596,13.7626802 3.62719287,11.8335338 1.95710591,9.37474384 C1.23206674,8.30744617 0.653071855,7.1647544 0.269116742,5.93111851 C0.0458103328,5.21346096 -0.0856295156,4.48025338 0.0637125344,3.72395636 C0.13437912,3.36630562 0.288432275,3.05059284 0.542360871,2.79142564 C0.978138147,2.34612926 1.41674209,1.90224652 1.86712379,1.47108654 C2.43057203,0.931547539 3.0623313,0.930605113 3.62201065,1.47579867 C4.27685434,2.11334999 4.91803583,2.76456649 5.55968842,3.41531178 C5.84612364,3.70510784 6.03079899,4.0420252 5.96767017,4.47035791 C5.92055911,4.78889796 5.73823932,5.03251513 5.51917291,5.25257165 C5.15500444,5.61823302 4.78800931,5.98059589 4.42289862,6.34531483 C4.23351217,6.53474249 4.22974329,6.58469108 4.33762761,6.82689461 C4.75314713,7.75848291 5.39008861,8.53362846 6.07272783,9.27437545 C6.75301149,10.0118239 7.50207729,10.6724647 8.3538452,11.2072916 C8.6435782,11.389651 8.95639561,11.5357271 9.25837749,11.6987668 C9.39829733,11.7746321 9.50335498,11.7166729 9.6022882,11.617247 C9.9768211,11.2393341 10.3504118,10.8600075 10.7301269,10.4877492 C10.8446068,10.3756005 10.96898,10.2686351 11.1051309,10.1861728 C11.5376104,9.9237071 12.0134321,9.96517385 12.4058672,10.28607 C12.4850138,10.3506262 12.5618048,10.4180096 12.6338847,10.4901052 C13.2435018,11.0970277 13.8559455,11.7006517 14.4566115,12.3165272 C14.6040691,12.4677866 14.7416334,12.6444915 14.82926,12.8348616 C15.0181753,13.2438746 14.944682,13.6528876 14.6511802,13.976611 C14.1748874,14.5015423 13.6707991,15.0019707 13.1619997,15.4953308 C12.8816889,15.7667495 12.5222315,15.9029301 12.1373342,15.9660727 C12.0902231,15.9736121 12.0445254,15.9886909 11.9983565,16 L11.3854417,16 Z" id="Fill-1" fill="#000000"></path>
                    <path d="M16,7.25241194 C15.6197331,7.32265215 15.2390356,7.39289236 14.841112,7.46666667 C14.5521437,5.8321461 13.8411351,4.43529365 12.6878456,3.28494458 C11.5332641,2.13327022 10.152159,1.44235396 8.53333333,1.19187473 C8.58716499,0.792521595 8.640566,0.398027847 8.69396701,0 C9.42564694,0.10293062 10.1202907,0.294213703 10.7882339,0.578266872 C12.0431576,1.11191575 13.1163456,1.91018025 14.0069366,2.9611328 C14.8708271,3.98027847 15.475895,5.14388041 15.8204176,6.44796277 C15.8854462,6.69446614 15.9401392,6.94406185 16,7.19189051 L16,7.25241194 Z" id="Fill-3" fill="#000000"></path>
                    <path d="M7.46666667,4.28824573 C7.52969651,3.92315684 7.59171788,3.56137192 7.65373925,3.2 C10.0211402,3.41806214 12.3300495,5.0085116 12.8,7.27834027 C12.3572784,7.34070274 11.9145567,7.4034782 11.467297,7.46666667 C10.9655794,5.70854064 9.64094419,4.65416062 7.46666667,4.28824573" id="Fill-5" fill="#000000"></path>
                </g>
            </g>
        </g>
    </g>
</svg>