<?xml version="1.0" encoding="UTF-8"?>
<svg width="16px" height="16px" viewBox="0 0 16 16" version="1.1" xmlns="http://www.w3.org/2000/svg" xmlns:xlink="http://www.w3.org/1999/xlink">
    <title>ico-tiempo</title>
    <defs>
        <filter color-interpolation-filters="auto" id="filter-1">
            <feColorMatrix in="SourceGraphic" type="matrix" values="0 0 0 0 0.101961 0 0 0 0 0.486275 0 0 0 0 0.525490 0 0 0 1.000000 0"></feColorMatrix>
        </filter>
        <polygon id="path-2" points="0 0 16 0 16 16 0 16"></polygon>
    </defs>
    <g id="Desktop" stroke="none" stroke-width="1" fill="none" fill-rule="evenodd">
        <g id="07_Encuéntranos" transform="translate(-102.000000, -589.000000)">
            <g id="ico-tiempo" transform="translate(96.000000, 480.000000)" filter="url(#filter-1)">
                <g transform="translate(6.000000, 109.000000)">
                    <mask id="mask-3" fill="white">
                        <use xlink:href="#path-2"></use>
                    </mask>
                    <g id="Clip-2"></g>
                    <path d="M7.4316493,5.70655759 C7.4316493,6.44096415 7.43751581,7.17483737 7.42844938,7.90924392 C7.42524946,8.16791289 7.52071368,8.35618124 7.7223085,8.51084929 C8.01990087,8.73858465 8.3084268,8.97805346 8.60121928,9.21218888 C9.21933676,9.70659329 9.83798755,10.1993977 10.4550384,10.6954021 C10.6614331,10.8612703 10.8832941,10.9087374 11.1227546,10.7866029 C11.497145,10.5956679 11.533944,10.1007301 11.1910195,9.82339434 C10.3606408,9.15298835 9.52652887,8.48684907 8.69081699,7.82337649 C8.59961933,7.75137584 8.56388691,7.67884186 8.56495355,7.56204082 C8.57082006,6.83350099 8.56868679,6.10442781 8.56868679,5.37535464 C8.56868679,4.72948221 8.57082006,4.08360978 8.56762015,3.43827068 C8.56602019,3.15186813 8.38309155,2.92573278 8.12283156,2.87293231 C7.75644096,2.79826497 7.43484921,3.05800062 7.43324926,3.44147071 C7.4289827,4.19667745 7.4316493,4.95135086 7.4316493,5.70655759 M-0.000191426742,7.97911121 C0.012106356,3.56413847 3.60881406,-0.0156268061 8.01670095,-0.000209932952 C12.444854,0.0158401414 16.0132958,3.60413883 16,8.02817831 C15.9866298,12.4340843 12.3952553,16.0090495 7.99163493,16 C3.56721513,15.990916 -0.0124263478,12.398884 -0.000191426742,7.97911121" id="Fill-1" fill="#000000" mask="url(#mask-3)"></path>
                </g>
            </g>
        </g>
    </g>
</svg>