<?xml version="1.0" encoding="UTF-8"?>
<svg width="15px" height="15px" viewBox="0 0 15 15" version="1.1" xmlns="http://www.w3.org/2000/svg" xmlns:xlink="http://www.w3.org/1999/xlink">
    <title>ico-tiempo</title>
    <defs>
        <filter color-interpolation-filters="auto" id="filter-1">
            <feColorMatrix in="SourceGraphic" type="matrix" values="0 0 0 0 0.694118 0 0 0 0 0.784314 0 0 0 0 0.286275 0 0 0 1.000000 0"></feColorMatrix>
        </filter>
        <polygon id="path-2" points="0 0 15 0 15 15 0 15"></polygon>
    </defs>
    <g id="⭐️-Simbolos" stroke="none" stroke-width="1" fill="none" fill-rule="evenodd">
        <g id="Tarjetas/Tarjeta-recetas/hover" transform="translate(-117.000000, -562.000000)">
            <g id="Descripción" transform="translate(3.000000, 555.000000)">
                <g id="ico-tiempo" transform="translate(114.000000, 4.000000)" filter="url(#filter-1)">
                    <g transform="translate(0.000000, 3.000000)">
                        <mask id="mask-3" fill="white">
                            <use xlink:href="#path-2"></use>
                        </mask>
                        <g id="Clip-2"></g>
                        <path d="M6.96717122,5.34989775 C6.96717122,6.03840389 6.97267107,6.72641003 6.96417129,7.41491617 C6.96117137,7.65741834 7.05066907,7.83391991 7.23966422,7.97892121 C7.51865706,8.19242311 7.78915012,8.41692512 8.06364308,8.63642708 C8.64312821,9.09993121 9.22311333,9.56193534 9.80159848,10.0269395 C9.99509352,10.1824409 10.2030882,10.2269413 10.4275824,10.1124402 C10.7785734,9.93343865 10.8130725,9.46943451 10.4915808,9.20943219 C9.71310075,8.58092658 8.93112082,7.95642101 8.14764092,7.33441546 C8.06214312,7.26691485 8.02864398,7.19891425 8.02964395,7.08941327 C8.03514381,6.40640717 8.03314386,5.72290107 8.03314386,5.03939497 C8.03314386,4.43388957 8.03514381,3.82838417 8.03214389,3.22337877 C8.03064393,2.95487637 7.85914833,2.74287448 7.61515459,2.69337404 C7.2716634,2.62337341 6.97017114,2.86687559 6.96867118,3.22637879 C6.96467128,3.93438511 6.96717122,4.64189143 6.96717122,5.34989775 M-0.000179462572,7.48041676 C0.0113497088,3.34137982 3.38326318,-0.0146501307 7.51565714,-0.000196812142 C11.6670506,0.0148501325 15.0124648,3.37888015 15,7.52641717 C14.9874654,11.656954 11.6205518,15.0084839 7.49215774,15 C3.34426418,14.9914838 -0.0116497011,11.6239537 -0.000179462572,7.48041676" id="Fill-1" fill="#000000" mask="url(#mask-3)"></path>
                    </g>
                </g>
            </g>
        </g>
    </g>
</svg>