<?xml version="1.0" encoding="UTF-8"?>
<svg width="18px" height="18px" viewBox="0 0 18 18" version="1.1" xmlns="http://www.w3.org/2000/svg" xmlns:xlink="http://www.w3.org/1999/xlink">
    <title>ico-tiempo</title>
    <defs>
        <filter color-interpolation-filters="auto" id="filter-1">
            <feColorMatrix in="SourceGraphic" type="matrix" values="0 0 0 0 0.949020 0 0 0 0 0.560784 0 0 0 0 0.113725 0 0 0 1.000000 0"></feColorMatrix>
        </filter>
        <polygon id="path-2" points="0 0 18 0 18 18 0 18"></polygon>
    </defs>
    <g id="Desktop" stroke="none" stroke-width="1" fill="none" fill-rule="evenodd">
        <g id="06_Interna-recetas_op2-hover" transform="translate(-737.000000, -360.000000)">
            <g id="Descripción" transform="translate(735.000000, 192.000000)">
                <g id="Datos-nutricionales" transform="translate(0.000000, 159.000000)">
                    <g id="ico-tiempo" transform="translate(2.000000, 0.000000)" filter="url(#filter-1)">
                        <g transform="translate(0.000000, 9.000000)">
                            <mask id="mask-3" fill="white">
                                <use xlink:href="#path-2"></use>
                            </mask>
                            <g id="Clip-2"></g>
                            <path d="M8.36060546,6.41987729 C8.36060546,7.24608467 8.36720529,8.07169204 8.35700555,8.89789941 C8.35340564,9.18890201 8.46080289,9.4007039 8.68759707,9.57470545 C9.02238848,9.83090774 9.34698015,10.1003101 9.67637169,10.3637125 C10.3717539,10.9199175 11.067736,11.4743224 11.7619182,12.0323274 C11.9941122,12.218929 12.2437058,12.2723295 12.5130989,12.1349283 C12.9342881,11.9201264 12.975687,11.3633214 12.5898969,11.0513186 C11.6557209,10.2971119 10.717345,9.54770521 9.77716911,8.80129855 C9.67457174,8.72029782 9.63437277,8.6386971 9.63557274,8.50729592 C9.64217257,7.68768861 9.63977263,6.86748129 9.63977263,6.04727397 C9.63977263,5.32066748 9.64217257,4.594061 9.63857266,3.86805452 C9.63677271,3.54585164 9.43097799,3.29144937 9.13818551,3.23204884 C8.72599608,3.14804809 8.36420537,3.4402507 8.36240541,3.87165455 C8.35760554,4.72126213 8.36060546,5.57026971 8.36060546,6.41987729 M-0.000215355086,8.97650011 C0.0136196505,4.00965578 4.05991582,-0.0175801569 9.01878857,-0.000236174571 C14.0004607,0.017820159 18.0149577,4.05465619 18,9.0317006 C17.9849585,13.9883448 13.9446622,18.0101807 8.99058929,18 C4.01311702,17.9897805 -0.0139796413,13.9487445 -0.000215355086,8.97650011" id="Fill-1" fill="#000000" mask="url(#mask-3)"></path>
                        </g>
                    </g>
                </g>
            </g>
        </g>
    </g>
</svg>