<?xml version="1.0" encoding="UTF-8"?>
<svg width="45px" height="45px" viewBox="0 0 45 45" version="1.1" xmlns="http://www.w3.org/2000/svg" xmlns:xlink="http://www.w3.org/1999/xlink">
    <title>Ico ingrediente/tomate</title>
    <defs>
        <filter color-interpolation-filters="auto" id="filter-1">
            <feColorMatrix in="SourceGraphic" type="matrix" values="0 0 0 0 0.949020 0 0 0 0 0.560784 0 0 0 0 0.113725 0 0 0 1.000000 0"></feColorMatrix>
        </filter>
        <polygon id="path-2" points="0 0 21 0 21 18.7789686 0 18.7789686"></polygon>
        <polygon id="path-4" points="0 0 13.5670396 0 13.5670396 8.0884353 0 8.0884353"></polygon>
    </defs>
    <g id="Desktop" stroke="none" stroke-width="1" fill="none" fill-rule="evenodd">
        <g id="06_Interna-recetas_op2-hover" transform="translate(-185.000000, -1102.000000)">
            <g id="Ingredientes" transform="translate(185.000000, 842.000000)">
                <g id="Group-9" transform="translate(0.000000, 78.000000)">
                    <g id="Ico-ingrediente/tomate" transform="translate(0.000000, 182.000000)">
                        <circle id="Oval" fill="#FCE6CD" cx="22.5" cy="22.5" r="22.5"></circle>
                        <g filter="url(#filter-1)">
                            <g transform="translate(12.000000, 11.000000)">
                                <g id="Group-3" transform="translate(0.000000, 4.221031)">
                                    <mask id="mask-3" fill="white">
                                        <use xlink:href="#path-2"></use>
                                    </mask>
                                    <g id="Clip-2"></g>
                                    <path d="M18.7819961,6.72448962 C18.8824535,7.85440751 19.0923566,8.97102599 18.9305673,10.1078596 C18.7693067,11.2404374 18.2352962,12.2378931 17.8043867,13.277375 C18.8766375,12.5278203 19.5555183,11.5202569 19.7426863,10.2201066 C19.9293256,8.92421207 19.5920002,7.75439595 18.7819961,6.72448962 M6.01702967,0.0864880045 C5.80871269,0.241825116 5.64798081,0.36258376 5.48672021,0.482278452 C4.53290339,1.19353091 3.68430251,2.00532691 3.08102923,3.04746869 C2.98427287,3.21397731 2.90390693,3.39750917 2.85685056,3.58370091 C2.79551866,3.82734611 2.88910268,4.03907272 3.09107497,4.18962204 C3.3004494,4.3460231 3.53361637,4.36943007 3.75938121,4.24122375 C3.89737799,4.1635552 4.02374286,4.05662794 4.13530347,3.94331696 C4.98073202,3.08417506 6.03077647,2.58784107 7.14902623,2.21120178 C7.17863474,2.20109423 7.21353047,2.20588201 7.27803471,2.2016262 C7.27169004,2.296318 7.2664028,2.37717842 7.26005812,2.45750685 C7.20930069,3.07832332 7.29971237,3.6650933 7.67669208,4.18057844 C7.90721543,4.49550847 8.20488664,4.59764794 8.51524722,4.47316546 C8.81133226,4.3550667 8.95038648,4.08322676 8.89275564,3.69860781 C8.84569927,3.3831458 8.9234216,3.10970993 9.11693432,2.8623409 C9.45743212,2.42771618 9.89151394,2.11650998 10.4144213,1.9648967 C10.6296117,1.90212348 10.8844563,1.92765835 11.1118073,1.96702461 C12.2036209,2.15694018 13.3017792,2.32557671 14.3782598,2.58411724 C14.8927075,2.70806774 15.3801904,2.98522745 15.849168,3.24908775 C16.2404232,3.46879401 16.4550849,3.85820074 16.5550136,4.30027313 C16.6427816,4.68967986 16.8859944,4.88757509 17.2481698,4.85884836 C17.5928974,4.83118559 17.8646612,4.56838924 17.8419261,4.18749413 C17.8186622,3.79329962 17.7816516,3.37463418 17.6277931,3.02086987 C17.4448549,2.60114049 17.1329081,2.2378006 16.8711901,1.85477758 C16.8098582,1.76487357 16.7247338,1.6919928 16.6295636,1.58878938 C16.879121,1.38929823 17.0514847,1.15576058 16.997555,0.799868368 C17.081622,0.831254976 17.135023,0.837638693 17.1699188,0.866365419 C18.7090323,2.13566113 19.9198086,3.65870958 20.4950595,5.59457173 C21.6630093,9.52428146 20.8107073,12.9821281 17.8768218,15.8436292 C15.4610851,18.2008167 12.4944187,19.0753859 9.19412792,18.6923629 C5.87427438,18.30668 3.26132387,16.6660647 1.46683703,13.8152032 C0.358104285,12.0543613 -0.138366885,10.0892404 0.032939461,8.00974463 C0.294128767,4.844485 1.75551994,2.33834414 4.33040237,0.493981933 C4.46152574,0.400354085 4.60216614,0.319493671 4.72853101,0.220014083 C5.10445327,-0.0741688707 5.51738616,-0.023631112 6.01702967,0.0864880045" id="Fill-1" fill="#1C6047" mask="url(#mask-3)"></path>
                                </g>
                                <g id="Group-6" transform="translate(3.604095, 0.000000)">
                                    <mask id="mask-5" fill="white">
                                        <use xlink:href="#path-4"></use>
                                    </mask>
                                    <g id="Clip-5"></g>
                                    <path d="M0.95275937,3.39001966 C1.7955443,3.22031919 2.63515688,3.03146756 3.48217159,2.88676998 C4.26415334,2.75377588 5.05300849,2.78516248 5.83287534,2.93411588 C6.04700828,2.97507806 6.03061785,2.84687175 6.02850296,2.71281369 C6.01739977,2.08295363 6.15698272,1.48341621 6.51545711,0.97005898 C6.72959005,0.663640569 7.02514636,0.410419799 7.30536971,0.157199029 C7.40424096,0.067826992 7.56497284,0.0406961952 7.70191218,0.00345784665 C7.7568994,-0.0114374928 7.8251047,0.0236729502 7.88696533,0.0359084075 C7.87533342,0.0907019776 7.87639086,0.152411241 7.85101214,0.199757141 C7.40106862,1.03123627 7.40001118,1.96272696 7.21495803,2.91017694 C7.61097177,2.85591535 7.95834297,2.80324968 8.30730034,2.76175552 C9.40122883,2.6314213 10.4734797,2.66121198 11.4674795,3.22244709 C12.0226389,3.53631317 12.4694101,3.94965884 12.6623941,4.58537065 C12.6883015,4.67101885 12.6983473,4.76145484 12.674026,4.86785012 C12.6518196,4.84071932 12.6232686,4.81624841 12.6074069,4.78539378 C12.2870006,4.14861802 11.7424156,3.8129409 11.0730519,3.68420261 C10.1456712,3.50545854 9.25424376,3.67037123 8.39559713,4.04541459 C8.3585865,4.06137389 8.32792055,4.09276049 8.2517844,4.14702209 C8.37920671,4.20128368 8.47331946,4.24543772 8.57060454,4.28161212 C9.73115217,4.70985313 10.8922285,5.13596623 11.936457,5.82115184 C12.4672952,6.16906442 12.9420887,6.57443044 13.2646099,7.13353764 C13.4301003,7.42027293 13.5654535,7.72030762 13.5670396,8.0884353 C13.5257992,8.0613045 13.4972482,8.05332485 13.4909035,8.03683358 C13.1350727,7.12289811 12.3837569,6.67656991 11.5288114,6.35046837 C10.5469722,5.97595698 9.51596179,5.82487568 8.48759499,5.66315485 C8.0360653,5.59187001 7.58347816,5.52696889 7.12983358,5.46898346 C7.01562935,5.45408812 6.88873576,5.45355615 6.78034748,5.48813461 C6.03537636,5.72539609 5.40037969,6.12757026 4.93193086,6.77019776 C4.68924687,7.10321499 4.57821497,7.47772638 4.60306497,7.89532786 C4.57610008,7.90224355 4.54913519,7.90969122 4.52217031,7.91660692 C4.46136713,7.76392969 4.37254161,7.61550827 4.34557673,7.4569793 C4.25675121,6.9292587 4.39051821,6.42547704 4.55230753,5.92861108 C4.59936391,5.78497745 4.646949,5.6418758 4.71515431,5.43600093 C3.80363535,5.61900081 2.98041319,5.89988435 2.18204102,6.2595004 C1.37732417,6.62177634 0.65720305,7.11757835 0,7.71020007 C0.991884894,5.97276512 2.56219307,4.90402452 4.32125546,3.9528507 C3.1781557,3.60493813 2.06730807,3.56823176 0.960161496,3.50652249 C0.95751788,3.46768822 0.955402986,3.42885394 0.95275937,3.39001966" id="Fill-4" fill="#1C6047" mask="url(#mask-5)"></path>
                                </g>
                                <path d="M15.5134287,5.01808026 C15.0587267,4.79199029 14.616714,4.57228403 14.1583109,4.34406615 C14.5865768,4.17649358 15.4621425,4.61111831 15.5134287,5.01808026" id="Fill-7" fill="#1C6047"></path>
                            </g>
                        </g>
                    </g>
                </g>
            </g>
        </g>
    </g>
</svg>