<?xml version="1.0" encoding="UTF-8"?>
<svg width="45px" height="45px" viewBox="0 0 45 45" version="1.1" xmlns="http://www.w3.org/2000/svg" xmlns:xlink="http://www.w3.org/1999/xlink">
    <title>Ico ingrediente/tomillo seco</title>
    <defs>
        <filter color-interpolation-filters="auto" id="filter-1">
            <feColorMatrix in="SourceGraphic" type="matrix" values="0 0 0 0 0.949020 0 0 0 0 0.560784 0 0 0 0 0.113725 0 0 0 1.000000 0"></feColorMatrix>
        </filter>
        <polygon id="path-2" points="0 0 22 0 22 23 0 23"></polygon>
    </defs>
    <g id="Desktop" stroke="none" stroke-width="1" fill="none" fill-rule="evenodd">
        <g id="06_Interna-recetas_op2-hover" transform="translate(-602.000000, -931.000000)">
            <g id="Ingredientes" transform="translate(185.000000, 842.000000)">
                <g id="Group-9" transform="translate(0.000000, 78.000000)">
                    <g id="Ico-ingrediente/tomillo-seco" transform="translate(417.000000, 11.000000)">
                        <g id="Oval" fill="#FCE6CD">
                            <circle cx="22.5" cy="22.5" r="22.5"></circle>
                        </g>
                        <g filter="url(#filter-1)">
                            <g transform="translate(12.000000, 11.000000)">
                                <mask id="mask-3" fill="white">
                                    <use xlink:href="#path-2"></use>
                                </mask>
                                <g id="Clip-2"></g>
                                <path d="M21.8173008,22.2958404 C21.2600024,21.8714794 20.699418,21.4517817 20.1480343,21.0194264 C20.0632566,20.9534739 19.9837365,20.8402221 19.9646779,20.7369631 C19.8404687,20.059451 19.7287462,19.3799404 19.6216239,18.6997636 C19.4882141,17.8570372 19.4527257,17.0096474 19.5894216,16.1662548 C19.6932578,15.5240506 19.8490122,14.8905069 19.9659923,14.2496351 C19.9949087,14.0950797 19.9995091,13.9132107 19.9456193,13.7706467 C19.8588701,13.5401461 19.6571123,13.4415504 19.4060651,13.4635346 C19.1510748,13.4855187 18.9894057,13.6380755 18.9269725,13.8692424 C18.7705609,14.4461602 18.6029771,15.0237443 18.5004552,15.6119873 C18.331557,16.5786245 18.3447008,17.5532559 18.5122847,18.523224 C18.561574,18.808352 18.6180925,19.0921477 18.671325,19.3766095 C18.4945405,19.1567678 18.3644166,18.92227 18.2329783,18.6891046 C17.6848806,17.7164717 17.278079,16.6898777 17.1012945,15.5806765 C17.0112593,15.0197472 16.9632843,14.4514897 16.8850785,13.8878956 C16.8397323,13.564795 16.612344,13.3949173 16.2890058,13.4169015 C16.0070706,13.4355547 15.8007125,13.6660554 15.8046557,13.9824942 C15.809256,14.3042624 15.8217426,14.6273631 15.8486875,14.9484652 C15.9420087,16.0589987 16.241688,17.1129064 16.7240666,18.1141853 C16.7680984,18.2041205 16.8075299,18.2967205 16.8725919,18.4412831 C16.7884713,18.3986471 16.7595549,18.391319 16.7404964,18.3739982 C15.5457222,17.2701265 14.3502909,16.1682534 13.1620886,15.0577198 C13.0838828,14.9844392 13.0359078,14.8545328 13.0155349,14.7432796 C12.8952689,14.0804236 12.7815747,13.4162353 12.6777385,12.7500484 C12.5509005,11.9299723 12.5108118,11.1052329 12.6475077,10.2838245 C12.7552871,9.63429228 12.9077555,8.99275429 13.0253928,8.34455444 C13.053652,8.18933289 13.0543092,8.01079481 13.0069914,7.86290131 C12.9347004,7.63773014 12.7250563,7.53913448 12.4707231,7.55312441 C12.2407061,7.56578196 12.0501206,7.70901214 11.9804583,7.97415453 C11.8299614,8.5450767 11.6709211,9.11599887 11.5657704,9.69691384 C11.3784709,10.7248402 11.4139592,11.7574299 11.601916,12.7846901 C11.6380615,12.9832138 11.6728927,13.1824037 11.7149529,13.4135705 C11.649891,13.3822598 11.6262321,13.3775965 11.6130882,13.3629403 C11.5407972,13.2876612 11.4698205,13.2110497 11.4008154,13.1324397 C10.2250998,11.7947364 9.16439268,10.3657655 8.12865886,8.91680899 C7.88681239,8.57838604 7.6462803,8.23929691 7.40509101,7.90087397 L6.84056351,5.8197061 C6.70452487,4.88637826 6.71701151,3.95238423 6.972659,3.02771681 C7.14681475,2.39617163 7.42809272,1.79460487 7.66731042,1.18237911 C7.78034736,0.893253993 7.70477034,0.606793627 7.46423825,0.477553369 C7.22633492,0.350311671 6.94571415,0.430254099 6.79193134,0.687402241 C6.21360281,1.65270706 5.86857727,2.69595574 5.78774271,3.82580872 C5.76868416,4.10027772 5.74962561,4.37474672 5.73056705,4.64854953 C5.71545165,4.65188047 5.70033624,4.65387903 5.68522084,4.65654378 C5.65433284,4.59858552 5.61753011,4.543292 5.59321403,4.482669 C5.33493777,3.85179 5.05760295,3.22823907 4.82890031,2.58670109 C4.57719596,1.88187535 4.3728094,1.15972875 4.14607833,0.445576398 C4.03829892,0.107153454 3.77936547,-0.0547299625 3.46785669,0.0165520356 C3.17146332,0.0838369122 3.00585107,0.344982176 3.06894145,0.688068428 C3.43171116,2.67397157 4.23545637,4.46068483 5.44205998,6.06419669 C5.51435105,6.1601276 5.58598492,6.25605852 5.6576188,6.35265562 C5.59584279,6.37463979 5.56758356,6.36931029 5.54261028,6.35665274 C5.10492074,6.13747725 4.67380311,5.90164709 4.22757008,5.70112483 C3.13794656,5.21147746 1.99114738,4.92435091 0.812145815,4.76446605 C0.381028186,4.70584161 0.0675478375,4.87238833 0.00905779336,5.20681415 C-0.0494322508,5.54590328 0.177956011,5.79838812 0.615645554,5.89298666 C1.12891212,6.00357368 1.64349307,6.11149596 2.15281649,6.23740528 C3.39293686,6.54318507 4.59099698,6.97753893 5.77394169,7.45652731 C5.83966084,7.48317478 5.94283991,7.52447837 5.97964263,7.49516615 C5.99147208,7.48583953 5.99935838,7.4871719 6.01053064,7.47984385 L6.29049422,7.56578196 C6.30166647,7.58177044 6.31283873,7.59709274 6.32401098,7.61308123 C7.09029628,8.67431696 7.85723877,9.7348865 8.62352407,10.7967884 C8.66295556,10.8507495 8.69581513,10.9087078 8.73196067,10.9653337 C8.64192543,10.9666661 8.58935011,10.941351 8.53874636,10.9127049 C7.85658158,10.5263165 7.13958564,10.2258662 6.38578699,10.0173497 C6.08085013,9.93274401 5.80548688,10.0746418 5.69967905,10.3577712 C5.59649999,10.6355712 5.72202356,10.9280272 6.00855906,11.0652617 C6.10188025,11.1098963 6.19980179,11.1458703 6.29772332,11.1805121 C7.54704438,11.6281897 8.70304424,12.242414 9.68685993,13.1537577 C9.95630844,13.4042439 10.1876399,13.6967 10.4268576,13.9591776 C10.4058274,13.9591776 10.3552237,13.9671719 10.3079059,13.9578452 C9.48838809,13.8052884 8.66426994,13.7559906 7.83292268,13.825274 C7.09292505,13.8872294 6.36870001,14.0311258 5.66616229,14.2756164 C5.36122543,14.3815401 5.22255802,14.6773271 5.3093073,14.9831069 C5.3861987,15.2522464 5.68259207,15.4107989 5.98687174,15.3448464 C6.33386886,15.2695672 6.67955159,15.1889586 7.02786309,15.1196752 C8.06096814,14.9131573 9.1006451,14.8771832 10.1403221,15.0463946 C10.8921491,15.1683068 11.6393759,15.322196 12.3846311,15.4787499 C12.5259272,15.5087283 12.6777385,15.589337 12.7796032,15.6925959 C14.2418543,17.1701985 15.7809968,18.5578658 17.4193752,19.8316151 C17.5218971,19.9115575 17.6191614,19.9981618 17.7183973,20.0814352 C17.6198186,20.1080827 17.54227,20.0934266 17.4647214,20.0840999 C16.8778494,20.0121518 16.292949,19.906228 15.7047626,19.8822453 C15.1901816,19.8609273 14.6664,19.8969014 14.1564194,19.9748453 C13.6398668,20.0527892 13.1312006,20.1993503 12.6258203,20.3425805 C12.3169403,20.4298509 12.1782729,20.7076509 12.2413633,21.0107659 C12.3005105,21.2952277 12.531842,21.4491169 12.8617521,21.4211371 C12.9281284,21.4158076 12.9945048,21.4051486 13.0589095,21.3898263 C14.0118372,21.1639889 14.9713368,20.9854508 15.9564669,21.0120983 C16.8325032,21.036081 17.6875093,21.2132867 18.5418583,21.392491 C18.8310226,21.4537802 19.1267587,21.5656996 19.4106655,21.5423831 C19.6235955,21.5250622 19.7372896,21.6096679 19.8713567,21.7102622 C20.3773942,22.0906549 20.8801457,22.4763771 21.3848687,22.8587684 C21.4473019,22.9060676 21.5143355,22.9473712 21.5912269,23 C21.7364662,22.8021425 21.8659329,22.6249368 22,22.4417354 C21.921137,22.3784476 21.8698761,22.3358117 21.8173008,22.2958404" id="Fill-1" fill="#1C6047" mask="url(#mask-3)"></path>
                            </g>
                        </g>
                    </g>
                </g>
            </g>
        </g>
    </g>
</svg>