<?xml version="1.0" encoding="UTF-8"?>
<svg width="40px" height="40px" viewBox="0 0 40 40" version="1.1" xmlns="http://www.w3.org/2000/svg" xmlns:xlink="http://www.w3.org/1999/xlink">
    <title>Iconos/Ico/RRSS/URL</title>
    <defs>
        <filter color-interpolation-filters="auto" id="filter-1">
            <feColorMatrix in="SourceGraphic" type="matrix" values="0 0 0 0 0.956863 0 0 0 0 0.956863 0 0 0 0 0.909804 0 0 0 1.000000 0"></feColorMatrix>
        </filter>
    </defs>
    <g id="Desktop" stroke="none" stroke-width="1" fill="none" fill-rule="evenodd">
        <g id="06_Interna-recetas_op2-seleccionado-compartir" transform="translate(-1049.000000, -764.000000)">
            <g id="Group-14" transform="translate(956.000000, 733.000000)">
                <g id="Group-10" transform="translate(29.000000, 31.000000)">
                    <g id="Iconos/Ico/RRSS/URL" transform="translate(64.000000, 0.000000)">
                        <circle id="Oval" fill="#1A7C86" cx="20" cy="20" r="20"></circle>
                        <g filter="url(#filter-1)" id="link-72">
                            <g transform="translate(13.333333, 13.333333)">
                                <path d="M6.66666667,4.70120967 C6.40503459,4.96283919 6.27265502,5.30403465 6.26362124,5.64800971 C6.59126938,5.74216854 6.90015505,5.91763057 7.15796514,6.17543814 C7.97100505,6.98847011 7.97100505,8.31086312 7.15796514,9.12354764 L4.94677455,11.3347166 C4.13373464,12.1477486 2.8113287,12.1477486 1.99863625,11.3347166 C1.18559634,10.5216847 1.18559634,9.19929164 1.99863625,8.38660712 L3.62610588,6.7591534 C3.46558261,6.15389627 3.43987109,5.52049573 3.55557293,4.90689981 C3.44230327,4.995152 3.33146577,5.08826848 3.22722989,5.19250334 L1.0160393,7.40367233 C-0.338679766,8.75837815 -0.338679766,10.9625981 1.0160393,12.317304 C2.37075836,13.6720098 4.57499989,13.6720098 5.92971895,12.317304 L8.14090954,10.106135 C9.49562861,8.75142916 9.49562861,6.54720917 8.14090954,5.19250334 C7.79137187,4.84296909 7.38485192,4.58550897 6.95157809,4.41630103 L6.66666667,4.70120967 Z" id="Path" fill="#212121" fill-rule="nonzero"></path>
                                <path d="M7.40361438,1.01615967 L5.19242379,3.22732865 C3.83770473,4.58203447 3.83770473,6.78625446 5.19242379,8.14096029 C5.54196146,8.49049454 5.94848141,8.74795466 6.38175525,8.9171626 L6.66666667,8.63225396 C6.92899365,8.36992955 7.0585936,8.02838663 7.06554266,7.68441157 C6.73963179,7.58990529 6.43213592,7.41479071 6.17536819,7.15802549 C5.36232828,6.34499353 5.36232828,5.02260051 6.17536819,4.209916 L8.38655878,1.99874701 C9.19959869,1.18571505 10.5220046,1.18571505 11.3346971,1.99874701 C12.147737,2.81177898 12.147737,4.13417199 11.3346971,4.94685651 L9.70549019,6.57604748 C9.86670836,7.18199951 9.88894535,7.8157475 9.77324352,8.43003832 C9.88825044,8.34109123 10.0004777,8.24658495 10.1061034,8.14096029 L12.317294,5.9297913 C13.6720131,4.57508548 13.6720131,2.37086549 12.317294,1.01615967 C10.962575,-0.338546158 8.75833344,-0.338893608 7.40361438,1.01615967 Z" id="Path" fill="#212121" fill-rule="nonzero"></path>
                            </g>
                        </g>
                    </g>
                </g>
            </g>
        </g>
    </g>
</svg>