<?xml version="1.0" encoding="UTF-8"?>
<svg width="40px" height="40px" viewBox="0 0 40 40" version="1.1" xmlns="http://www.w3.org/2000/svg" xmlns:xlink="http://www.w3.org/1999/xlink">
    <title>Iconos/Ico/RRSS/WhatsApp</title>
    <defs>
        <filter color-interpolation-filters="auto" id="filter-1">
            <feColorMatrix in="SourceGraphic" type="matrix" values="0 0 0 0 0.956863 0 0 0 0 0.956863 0 0 0 0 0.909804 0 0 0 1.000000 0"></feColorMatrix>
        </filter>
        <polygon id="path-2" points="0 0 18.6666667 0 18.6666667 18.6666667 0 18.6666667"></polygon>
    </defs>
    <g id="Desktop" stroke="none" stroke-width="1" fill="none" fill-rule="evenodd">
        <g id="06_Interna-recetas_op2-seleccionado-compartir" transform="translate(-1177.000000, -764.000000)">
            <g id="Group-14" transform="translate(956.000000, 733.000000)">
                <g id="Group-10" transform="translate(29.000000, 31.000000)">
                    <g id="Iconos/Ico/RRSS/WhatsApp" transform="translate(192.000000, 0.000000)">
                        <circle id="Oval" fill="#1A7C86" cx="20" cy="20" r="20"></circle>
                        <g filter="url(#filter-1)" id="Group-3">
                            <g transform="translate(10.666667, 10.666667)">
                                <mask id="mask-3" fill="white">
                                    <use xlink:href="#path-2"></use>
                                </mask>
                                <g id="Clip-2"></g>
                                <path d="M13.6097523,11.1861534 C13.3775039,11.0705494 12.2357972,10.5113281 12.0228667,10.4341867 C11.8099362,10.3570453 11.6551763,10.3185826 11.5004165,10.5497908 C11.3454395,10.781215 10.9004778,11.3017575 10.7650358,11.4560404 C10.6295938,11.6103232 10.4941517,11.6295545 10.2619034,11.5139504 C10.0296551,11.3983464 9.2812511,11.1541732 8.39436635,10.366769 C7.70391593,9.75395932 7.23789989,8.99702269 7.10245787,8.76581453 C6.9667988,8.53439028 7.08791522,8.40927858 7.20425644,8.29410666 C7.30865966,8.19038711 7.43650477,8.02400367 7.55262894,7.88916825 C7.6687531,7.75411676 7.70738881,7.65774401 7.78466021,7.50346118 C7.86214868,7.34917835 7.82351297,7.21434293 7.76534236,7.09852277 C7.70738881,6.98291869 7.24289214,5.84524488 7.04927951,5.38261247 C6.86087619,4.93186459 6.66943411,4.99279983 6.52682929,4.98588519 C6.39160433,4.97918663 6.23662741,4.97767406 6.08186754,4.97767406 C5.92689061,4.97767406 5.67532443,5.03558414 5.462611,5.26700839 C5.24968052,5.49821655 4.64974184,6.05743779 4.64974184,7.1951116 C4.64974184,8.33256933 5.48192885,9.43156439 5.59805302,9.58584722 C5.71417719,9.74013005 7.23551229,12.0744682 9.56515841,13.075794 C10.1192986,13.3137007 10.5518882,13.4558829 10.8889739,13.5626276 C11.4455017,13.7385187 11.9516728,13.7136692 12.3519213,13.6540305 C12.7979684,13.5876932 13.7258764,13.0950253 13.919272,12.5550354 C14.1128846,12.0152616 14.1128846,11.5524131 14.054714,11.4560404 C13.9967605,11.3596676 13.8420006,11.3017575 13.6097523,11.1861534 M9.372414,16.944101 L9.36915818,16.944101 C7.98304804,16.9434528 6.62341855,16.5728715 5.43743268,15.8723323 L5.15526181,15.7057328 L2.23153748,16.4691519 L3.01184846,13.6322062 L2.82822034,13.3413593 C2.05507216,12.1172525 1.64657556,10.702345 1.64722594,9.2498391 C1.6487461,5.01095075 5.1142385,1.56227572 9.37545276,1.56227572 C11.438773,1.56314005 13.3783721,2.36372532 14.8369785,3.81687943 C16.2953678,5.27003354 17.0982524,7.20181015 17.0973849,9.25610549 C17.0956478,13.4952099 13.6301554,16.944101 9.372414,16.944101 M15.9469953,2.71269839 C14.1923266,0.96437573 11.8585564,0.00108041198 9.37219694,0 C4.24927626,0 0.0798760619,4.14921415 0.0779225712,9.24919085 C0.0772714077,10.8795325 0.505302913,12.4707633 1.31860618,13.8733541 L0,18.6667099 L4.92713751,17.3803714 C6.28459645,18.1172124 7.81309436,18.5057285 9.36850702,18.5063767 L9.372414,18.5063767 L9.372414,18.5063767 C14.4946835,18.5063767 18.6645178,14.3565143 18.666689,9.25653765 C18.6675566,6.78498721 17.701664,4.46102105 15.9469953,2.71269839" id="Fill-1" fill="#FFFFFF" mask="url(#mask-3)"></path>
                            </g>
                        </g>
                    </g>
                </g>
            </g>
        </g>
    </g>
</svg>