<?xml version="1.0" encoding="UTF-8"?>
<svg width="34px" height="34px" viewBox="0 0 34 34" version="1.1" xmlns="http://www.w3.org/2000/svg" xmlns:xlink="http://www.w3.org/1999/xlink">
    <title>canal-youtube-pietran</title>
    <g id="Page-1" stroke="none" stroke-width="1" fill="none" fill-rule="evenodd">
        <g id="canal-youtube-pietran" fill-rule="nonzero">
            <circle id="Oval" fill="#F0F5DA" cx="17" cy="17" r="17"></circle>
            <g id="Group-3" transform="translate(7.555556, 10.577778)" fill="#1E634A">
                <g id="Group" transform="translate(-0.000000, 0.000000)">
                    <path d="M7.81994526,9.714208 L7.81994526,3.88552 L12.8990368,6.8 L7.81994526,9.714208 Z M19.1416363,2.123504 C18.9166531,1.287648 18.2542938,0.629408 17.413207,0.405824 C15.8884121,0 9.775,0 9.775,0 C9.775,0 3.66158789,0 2.13679299,0.405824 C1.29570617,0.629408 0.633346867,1.287648 0.408363667,2.123504 C0,3.638816 0,6.8 0,6.8 C0,6.8 0,9.961184 0.408363667,11.476224 C0.633346867,12.31208 1.29570617,12.970592 2.13679299,13.193904 C3.66158789,13.6 9.775,13.6 9.775,13.6 C9.775,13.6 15.8884121,13.6 17.413207,13.193904 C18.2542938,12.970592 18.9166531,12.31208 19.1416363,11.476224 C19.55,9.961184 19.55,6.8 19.55,6.8 C19.55,6.8 19.55,3.638816 19.1416363,2.123504 L19.1416363,2.123504 Z" id="Fill-1"></path>
                </g>
            </g>
        </g>
    </g>
</svg>